# UART-006 surfaced source candidate
mtllib SM_Landmark_GizaPyramid_A.mtl
o SM_Landmark_GizaPyramid_A
s off
usemtl Giza_Stone
v -6.00000 0.00000 -6.00000
v 6.00000 0.00000 -6.00000
v 6.00000 0.00000 6.00000
v -6.00000 0.00000 6.00000
v -5.40000 0.80000 -5.40000
v 5.40000 0.80000 -5.40000
v 5.40000 0.80000 5.40000
v -5.40000 0.80000 5.40000
v -4.80000 1.60000 -4.80000
v 4.80000 1.60000 -4.80000
v 4.80000 1.60000 4.80000
v -4.80000 1.60000 4.80000
v -4.20000 2.40000 -4.20000
v 4.20000 2.40000 -4.20000
v 4.20000 2.40000 4.20000
v -4.20000 2.40000 4.20000
v -3.60000 3.20000 -3.60000
v 3.60000 3.20000 -3.60000
v 3.60000 3.20000 3.60000
v -3.60000 3.20000 3.60000
v -3.00000 4.00000 -3.00000
v 3.00000 4.00000 -3.00000
v 3.00000 4.00000 3.00000
v -3.00000 4.00000 3.00000
v -2.40000 4.80000 -2.40000
v 2.40000 4.80000 -2.40000
v 2.40000 4.80000 2.40000
v -2.40000 4.80000 2.40000
v -1.80000 5.60000 -1.80000
v 1.80000 5.60000 -1.80000
v 1.80000 5.60000 1.80000
v -1.80000 5.60000 1.80000
v -1.20000 6.40000 -1.20000
v 1.20000 6.40000 -1.20000
v 1.20000 6.40000 1.20000
v -1.20000 6.40000 1.20000
v -0.60000 7.20000 -0.60000
v 0.60000 7.20000 -0.60000
v 0.60000 7.20000 0.60000
v -0.60000 7.20000 0.60000
v 0.00000 8.00000 0.00000
v 0.00000 0.00000 0.00000
vt 0.00000 0.00000
vt 1.00000 0.00000
vt 1.00000 1.00000
vt 0.00000 1.00000
vt 0.05000 0.05000
vt 0.95000 0.05000
vt 0.95000 0.95000
vt 0.05000 0.95000
vt 0.10000 0.10000
vt 0.90000 0.10000
vt 0.90000 0.90000
vt 0.10000 0.90000
vt 0.15000 0.15000
vt 0.85000 0.15000
vt 0.85000 0.85000
vt 0.15000 0.85000
vt 0.20000 0.20000
vt 0.80000 0.20000
vt 0.80000 0.80000
vt 0.20000 0.80000
vt 0.25000 0.25000
vt 0.75000 0.25000
vt 0.75000 0.75000
vt 0.25000 0.75000
vt 0.30000 0.30000
vt 0.70000 0.30000
vt 0.70000 0.70000
vt 0.30000 0.70000
vt 0.35000 0.35000
vt 0.65000 0.35000
vt 0.65000 0.65000
vt 0.35000 0.65000
vt 0.40000 0.40000
vt 0.60000 0.40000
vt 0.60000 0.60000
vt 0.40000 0.60000
vt 0.45000 0.45000
vt 0.55000 0.45000
vt 0.55000 0.55000
vt 0.45000 0.55000
vt 0.50000 0.50000
vt 0.50000 0.50000
vn 0.000000 -0.600000 0.800000
vn -0.800000 -0.600000 0.000000
vn -0.000000 -0.600000 -0.800000
vn 0.800000 -0.600000 0.000000
vn 0.000000 1.000000 0.000000
f 1/1/1 2/2/1 6/6/1
f 1/1/1 6/6/1 5/5/1
f 2/2/2 3/3/2 7/7/2
f 2/2/2 7/7/2 6/6/2
f 3/3/3 4/4/3 8/8/3
f 3/3/3 8/8/3 7/7/3
f 4/4/4 1/1/4 5/5/4
f 4/4/4 5/5/4 8/8/4
f 5/5/1 6/6/1 10/10/1
f 5/5/1 10/10/1 9/9/1
f 6/6/2 7/7/2 11/11/2
f 6/6/2 11/11/2 10/10/2
f 7/7/3 8/8/3 12/12/3
f 7/7/3 12/12/3 11/11/3
f 8/8/4 5/5/4 9/9/4
f 8/8/4 9/9/4 12/12/4
f 9/9/1 10/10/1 14/14/1
f 9/9/1 14/14/1 13/13/1
f 10/10/2 11/11/2 15/15/2
f 10/10/2 15/15/2 14/14/2
f 11/11/3 12/12/3 16/16/3
f 11/11/3 16/16/3 15/15/3
f 12/12/4 9/9/4 13/13/4
f 12/12/4 13/13/4 16/16/4
f 13/13/1 14/14/1 18/18/1
f 13/13/1 18/18/1 17/17/1
f 14/14/2 15/15/2 19/19/2
f 14/14/2 19/19/2 18/18/2
f 15/15/3 16/16/3 20/20/3
f 15/15/3 20/20/3 19/19/3
f 16/16/4 13/13/4 17/17/4
f 16/16/4 17/17/4 20/20/4
f 17/17/1 18/18/1 22/22/1
f 17/17/1 22/22/1 21/21/1
f 18/18/2 19/19/2 23/23/2
f 18/18/2 23/23/2 22/22/2
f 19/19/3 20/20/3 24/24/3
f 19/19/3 24/24/3 23/23/3
f 20/20/4 17/17/4 21/21/4
f 20/20/4 21/21/4 24/24/4
f 21/21/1 22/22/1 26/26/1
f 21/21/1 26/26/1 25/25/1
f 22/22/2 23/23/2 27/27/2
f 22/22/2 27/27/2 26/26/2
f 23/23/3 24/24/3 28/28/3
f 23/23/3 28/28/3 27/27/3
f 24/24/4 21/21/4 25/25/4
f 24/24/4 25/25/4 28/28/4
f 25/25/1 26/26/1 30/30/1
f 25/25/1 30/30/1 29/29/1
f 26/26/2 27/27/2 31/31/2
f 26/26/2 31/31/2 30/30/2
f 27/27/3 28/28/3 32/32/3
f 27/27/3 32/32/3 31/31/3
f 28/28/4 25/25/4 29/29/4
f 28/28/4 29/29/4 32/32/4
f 29/29/1 30/30/1 34/34/1
f 29/29/1 34/34/1 33/33/1
f 30/30/2 31/31/2 35/35/2
f 30/30/2 35/35/2 34/34/2
f 31/31/3 32/32/3 36/36/3
f 31/31/3 36/36/3 35/35/3
f 32/32/4 29/29/4 33/33/4
f 32/32/4 33/33/4 36/36/4
f 33/33/1 34/34/1 38/38/1
f 33/33/1 38/38/1 37/37/1
f 34/34/2 35/35/2 39/39/2
f 34/34/2 39/39/2 38/38/2
f 35/35/3 36/36/3 40/40/3
f 35/35/3 40/40/3 39/39/3
f 36/36/4 33/33/4 37/37/4
f 36/36/4 37/37/4 40/40/4
f 37/37/1 38/38/1 41/41/1
f 38/38/2 39/39/2 41/41/2
f 39/39/3 40/40/3 41/41/3
f 40/40/4 37/37/4 41/41/4
f 42/42/5 2/2/5 1/1/5
f 42/42/5 3/3/5 2/2/5
f 42/42/5 4/4/5 3/3/5
f 42/42/5 1/1/5 4/4/5
