# UART-006 topology-preserving candidate surface authoring
mtllib SM_Landmark_DomeGate_A.mtl
# 3Fareet authored landmark source candidate
o SM_Landmark_DomeGate_A
s 1
v -4.55000 0.00000 0.00000
v -4.67724 0.00000 0.47500
v -5.02500 0.00000 0.82272
v -5.50000 0.00000 0.95000
v -5.97500 0.00000 0.82272
v -6.32276 0.00000 0.47500
v -6.45000 0.00000 0.00000
v -6.32276 0.00000 -0.47500
v -5.97500 0.00000 -0.82272
v -5.50000 0.00000 -0.95000
v -5.02500 0.00000 -0.82272
v -4.67724 0.00000 -0.47500
v -4.55000 0.55000 0.00000
v -4.67724 0.55000 0.47500
v -5.02500 0.55000 0.82272
v -5.50000 0.55000 0.95000
v -5.97500 0.55000 0.82272
v -6.32276 0.55000 0.47500
v -6.45000 0.55000 0.00000
v -6.32276 0.55000 -0.47500
v -5.97500 0.55000 -0.82272
v -5.50000 0.55000 -0.95000
v -5.02500 0.55000 -0.82272
v -4.67724 0.55000 -0.47500
v -5.50000 0.00000 0.00000
v -5.50000 0.55000 0.00000
v -4.82000 0.55000 0.00000
v -4.91109 0.55000 0.34000
v -5.16000 0.55000 0.58890
v -5.50000 0.55000 0.68000
v -5.84000 0.55000 0.58890
v -6.08891 0.55000 0.34000
v -6.18000 0.55000 0.00000
v -6.08891 0.55000 -0.34000
v -5.84000 0.55000 -0.58890
v -5.50000 0.55000 -0.68000
v -5.16000 0.55000 -0.58890
v -4.91109 0.55000 -0.34000
v -4.92000 6.90000 0.00000
v -4.99769 6.90000 0.29000
v -5.21000 6.90000 0.50229
v -5.50000 6.90000 0.58000
v -5.79000 6.90000 0.50229
v -6.00231 6.90000 0.29000
v -6.08000 6.90000 0.00000
v -6.00231 6.90000 -0.29000
v -5.79000 6.90000 -0.50229
v -5.50000 6.90000 -0.58000
v -5.21000 6.90000 -0.50229
v -4.99769 6.90000 -0.29000
v -4.50000 6.90000 0.00000
v -4.63397 6.90000 0.50000
v -5.00000 6.90000 0.86603
v -5.50000 6.90000 1.00000
v -6.00000 6.90000 0.86603
v -6.36603 6.90000 0.50000
v -6.50000 6.90000 0.00000
v -6.36603 6.90000 -0.50000
v -6.00000 6.90000 -0.86603
v -5.50000 6.90000 -1.00000
v -5.00000 6.90000 -0.86603
v -4.63397 6.90000 -0.50000
v -4.50000 7.30000 0.00000
v -4.63397 7.30000 0.50000
v -5.00000 7.30000 0.86603
v -5.50000 7.30000 1.00000
v -6.00000 7.30000 0.86603
v -6.36603 7.30000 0.50000
v -6.50000 7.30000 0.00000
v -6.36603 7.30000 -0.50000
v -6.00000 7.30000 -0.86603
v -5.50000 7.30000 -1.00000
v -5.00000 7.30000 -0.86603
v -4.63397 7.30000 -0.50000
v -4.78000 7.30000 0.00000
v -4.87646 7.30000 0.36000
v -5.14000 7.30000 0.62354
v -5.50000 7.30000 0.72000
v -5.86000 7.30000 0.62354
v -6.12354 7.30000 0.36000
v -6.22000 7.30000 0.00000
v -6.12354 7.30000 -0.36000
v -5.86000 7.30000 -0.62354
v -5.50000 7.30000 -0.72000
v -5.14000 7.30000 -0.62354
v -4.87646 7.30000 -0.36000
v -4.78000 7.80000 0.00000
v -4.87646 7.80000 0.36000
v -5.14000 7.80000 0.62354
v -5.50000 7.80000 0.72000
v -5.86000 7.80000 0.62354
v -6.12354 7.80000 0.36000
v -6.22000 7.80000 0.00000
v -6.12354 7.80000 -0.36000
v -5.86000 7.80000 -0.62354
v -5.50000 7.80000 -0.72000
v -5.14000 7.80000 -0.62354
v -4.87646 7.80000 -0.36000
v 6.45000 0.00000 0.00000
v 6.32276 0.00000 0.47500
v 5.97500 0.00000 0.82272
v 5.50000 0.00000 0.95000
v 5.02500 0.00000 0.82272
v 4.67724 0.00000 0.47500
v 4.55000 0.00000 0.00000
v 4.67724 0.00000 -0.47500
v 5.02500 0.00000 -0.82272
v 5.50000 0.00000 -0.95000
v 5.97500 0.00000 -0.82272
v 6.32276 0.00000 -0.47500
v 6.45000 0.55000 0.00000
v 6.32276 0.55000 0.47500
v 5.97500 0.55000 0.82272
v 5.50000 0.55000 0.95000
v 5.02500 0.55000 0.82272
v 4.67724 0.55000 0.47500
v 4.55000 0.55000 0.00000
v 4.67724 0.55000 -0.47500
v 5.02500 0.55000 -0.82272
v 5.50000 0.55000 -0.95000
v 5.97500 0.55000 -0.82272
v 6.32276 0.55000 -0.47500
v 5.50000 0.00000 0.00000
v 5.50000 0.55000 0.00000
v 6.18000 0.55000 0.00000
v 6.08891 0.55000 0.34000
v 5.84000 0.55000 0.58890
v 5.50000 0.55000 0.68000
v 5.16000 0.55000 0.58890
v 4.91109 0.55000 0.34000
v 4.82000 0.55000 0.00000
v 4.91109 0.55000 -0.34000
v 5.16000 0.55000 -0.58890
v 5.50000 0.55000 -0.68000
v 5.84000 0.55000 -0.58890
v 6.08891 0.55000 -0.34000
v 6.08000 6.90000 0.00000
v 6.00231 6.90000 0.29000
v 5.79000 6.90000 0.50229
v 5.50000 6.90000 0.58000
v 5.21000 6.90000 0.50229
v 4.99769 6.90000 0.29000
v 4.92000 6.90000 0.00000
v 4.99769 6.90000 -0.29000
v 5.21000 6.90000 -0.50229
v 5.50000 6.90000 -0.58000
v 5.79000 6.90000 -0.50229
v 6.00231 6.90000 -0.29000
v 6.50000 6.90000 0.00000
v 6.36603 6.90000 0.50000
v 6.00000 6.90000 0.86603
v 5.50000 6.90000 1.00000
v 5.00000 6.90000 0.86603
v 4.63397 6.90000 0.50000
v 4.50000 6.90000 0.00000
v 4.63397 6.90000 -0.50000
v 5.00000 6.90000 -0.86603
v 5.50000 6.90000 -1.00000
v 6.00000 6.90000 -0.86603
v 6.36603 6.90000 -0.50000
v 6.50000 7.30000 0.00000
v 6.36603 7.30000 0.50000
v 6.00000 7.30000 0.86603
v 5.50000 7.30000 1.00000
v 5.00000 7.30000 0.86603
v 4.63397 7.30000 0.50000
v 4.50000 7.30000 0.00000
v 4.63397 7.30000 -0.50000
v 5.00000 7.30000 -0.86603
v 5.50000 7.30000 -1.00000
v 6.00000 7.30000 -0.86603
v 6.36603 7.30000 -0.50000
v 6.22000 7.30000 0.00000
v 6.12354 7.30000 0.36000
v 5.86000 7.30000 0.62354
v 5.50000 7.30000 0.72000
v 5.14000 7.30000 0.62354
v 4.87646 7.30000 0.36000
v 4.78000 7.30000 0.00000
v 4.87646 7.30000 -0.36000
v 5.14000 7.30000 -0.62354
v 5.50000 7.30000 -0.72000
v 5.86000 7.30000 -0.62354
v 6.12354 7.30000 -0.36000
v 6.22000 7.80000 0.00000
v 6.12354 7.80000 0.36000
v 5.86000 7.80000 0.62354
v 5.50000 7.80000 0.72000
v 5.14000 7.80000 0.62354
v 4.87646 7.80000 0.36000
v 4.78000 7.80000 0.00000
v 4.87646 7.80000 -0.36000
v 5.14000 7.80000 -0.62354
v 5.50000 7.80000 -0.72000
v 5.86000 7.80000 -0.62354
v 6.12354 7.80000 -0.36000
v -4.20000 3.00000 -0.45000
v -5.00000 3.00000 -0.45000
v -4.99163 3.73303 -0.45000
v -4.96654 4.46313 -0.45000
v -4.92488 5.18737 -0.45000
v -4.86681 5.90284 -0.45000
v -4.79256 6.60667 -0.45000
v -4.70248 7.29607 -0.45000
v -4.59697 7.96831 -0.45000
v -4.47660 8.62073 -0.45000
v -4.34200 9.25073 -0.45000
v -4.19388 9.85586 -0.45000
v -4.03306 10.43379 -0.45000
v -3.86043 10.98231 -0.45000
v -3.67698 11.49933 -0.45000
v -3.48379 11.98289 -0.45000
v -3.28204 12.43118 -0.45000
v -3.07297 12.84249 -0.45000
v -2.85786 13.21529 -0.45000
v -5.00000 3.00000 0.45000
v -4.99163 3.73303 0.45000
v -4.96654 4.46313 0.45000
v -4.92488 5.18737 0.45000
v -4.86681 5.90284 0.45000
v -4.79256 6.60667 0.45000
v -4.70248 7.29607 0.45000
v -4.59697 7.96831 0.45000
v -4.47660 8.62073 0.45000
v -4.34200 9.25073 0.45000
v -4.19388 9.85586 0.45000
v -4.03306 10.43379 0.45000
v -3.86043 10.98231 0.45000
v -3.67698 11.49933 0.45000
v -3.48379 11.98289 0.45000
v -3.28204 12.43118 0.45000
v -3.07297 12.84249 0.45000
v -2.85786 13.21529 0.45000
v -3.40000 3.00000 -0.45000
v -3.39334 3.61604 -0.45000
v -3.37339 4.22964 -0.45000
v -3.34023 4.83832 -0.45000
v -3.29405 5.43965 -0.45000
v -3.23505 6.03120 -0.45000
v -3.16349 6.61059 -0.45000
v -3.07970 7.17548 -0.45000
v -2.98404 7.72360 -0.45000
v -2.87693 8.25274 -0.45000
v -2.75882 8.76076 -0.45000
v -2.63019 9.24560 -0.45000
v -2.49155 9.70530 -0.45000
v -2.34342 10.13802 -0.45000
v -2.18637 10.54199 -0.45000
v -2.02098 10.91558 -0.45000
v -1.84787 11.25729 -0.45000
v -1.66768 11.56577 -0.45000
v -3.40000 3.00000 0.45000
v -3.39334 3.61604 0.45000
v -3.37339 4.22964 0.45000
v -3.34023 4.83832 0.45000
v -3.29405 5.43965 0.45000
v -3.23505 6.03120 0.45000
v -3.16349 6.61059 0.45000
v -3.07970 7.17548 0.45000
v -2.98404 7.72360 0.45000
v -2.87693 8.25274 0.45000
v -2.75882 8.76076 0.45000
v -2.63019 9.24560 0.45000
v -2.49155 9.70530 0.45000
v -2.34342 10.13802 0.45000
v -2.18637 10.54199 0.45000
v -2.02098 10.91558 0.45000
v -1.84787 11.25729 0.45000
v -1.66768 11.56577 0.45000
v 3.40000 3.00000 -0.45000
v 3.39334 3.61604 -0.45000
v 3.37339 4.22964 -0.45000
v 3.34023 4.83832 -0.45000
v 3.29405 5.43965 -0.45000
v 3.23505 6.03120 -0.45000
v 3.16349 6.61059 -0.45000
v 3.07970 7.17548 -0.45000
v 2.98404 7.72360 -0.45000
v 2.87693 8.25274 -0.45000
v 2.75882 8.76076 -0.45000
v 2.63019 9.24560 -0.45000
v 2.49155 9.70530 -0.45000
v 2.34342 10.13802 -0.45000
v 2.18637 10.54199 -0.45000
v 2.02098 10.91558 -0.45000
v 1.84787 11.25729 -0.45000
v 1.66768 11.56577 -0.45000
v 3.40000 3.00000 0.45000
v 3.39334 3.61604 0.45000
v 3.37339 4.22964 0.45000
v 3.34023 4.83832 0.45000
v 3.29405 5.43965 0.45000
v 3.23505 6.03120 0.45000
v 3.16349 6.61059 0.45000
v 3.07970 7.17548 0.45000
v 2.98404 7.72360 0.45000
v 2.87693 8.25274 0.45000
v 2.75882 8.76076 0.45000
v 2.63019 9.24560 0.45000
v 2.49155 9.70530 0.45000
v 2.34342 10.13802 0.45000
v 2.18637 10.54199 0.45000
v 2.02098 10.91558 0.45000
v 1.84787 11.25729 0.45000
v 1.66768 11.56577 0.45000
v 4.20000 3.00000 -0.45000
v 5.00000 3.00000 -0.45000
v 4.99163 3.73303 -0.45000
v 4.96654 4.46313 -0.45000
v 4.92488 5.18737 -0.45000
v 4.86681 5.90284 -0.45000
v 4.79256 6.60667 -0.45000
v 4.70248 7.29607 -0.45000
v 4.59697 7.96831 -0.45000
v 4.47660 8.62073 -0.45000
v 4.34200 9.25073 -0.45000
v 4.19388 9.85586 -0.45000
v 4.03306 10.43379 -0.45000
v 3.86043 10.98231 -0.45000
v 3.67698 11.49933 -0.45000
v 3.48379 11.98289 -0.45000
v 3.28204 12.43118 -0.45000
v 3.07297 12.84249 -0.45000
v 2.85786 13.21529 -0.45000
v 5.00000 3.00000 0.45000
v 4.99163 3.73303 0.45000
v 4.96654 4.46313 0.45000
v 4.92488 5.18737 0.45000
v 4.86681 5.90284 0.45000
v 4.79256 6.60667 0.45000
v 4.70248 7.29607 0.45000
v 4.59697 7.96831 0.45000
v 4.47660 8.62073 0.45000
v 4.34200 9.25073 0.45000
v 4.19388 9.85586 0.45000
v 4.03306 10.43379 0.45000
v 3.86043 10.98231 0.45000
v 3.67698 11.49933 0.45000
v 3.48379 11.98289 0.45000
v 3.28204 12.43118 0.45000
v 3.07297 12.84249 0.45000
v 2.85786 13.21529 0.45000
v -6.05000 7.25000 -0.50000
v 6.05000 7.25000 -0.50000
v 6.05000 7.85000 -0.50000
v -6.05000 7.85000 -0.50000
v -6.05000 7.25000 0.50000
v 6.05000 7.25000 0.50000
v 6.05000 7.85000 0.50000
v -6.05000 7.85000 0.50000
v 3.70000 7.85000 0.00000
v 3.56302 7.85000 0.99522
v 3.16277 7.85000 1.91651
v 2.52949 7.85000 2.69432
v 1.71138 7.85000 3.28057
v 0.77246 7.85000 3.61849
v -0.19368 7.85000 3.69493
v -1.14762 7.85000 3.50440
v -2.04411 7.85000 3.08098
v -2.84313 7.85000 2.39441
v -3.51027 7.85000 1.50406
v -3.99507 7.85000 0.47992
v -4.25000 7.85000 -0.60000
v 3.56302 8.81318 0.00000
v 3.43112 8.81318 0.95839
v 3.04567 8.81318 1.84554
v 2.43575 8.81318 2.59468
v 1.64799 8.81318 3.15909
v 0.74385 8.81318 3.48447
v -0.18651 8.81318 3.55811
v -1.10512 8.81318 3.37465
v -1.96840 8.81318 2.96683
v -2.73783 8.81318 2.30573
v -3.38026 8.81318 1.44835
v -3.84710 8.81318 0.46214
v -4.09259 8.81318 -0.57778
v 3.16277 9.68156 0.00000
v 3.04567 9.68156 0.85078
v 2.70356 9.68156 1.63831
v 2.16237 9.68156 2.30341
v 1.46319 9.68156 2.80485
v 0.66051 9.68156 3.09412
v -0.16561 9.68156 3.15950
v -0.98166 9.68156 2.99657
v -1.74862 9.68156 2.63431
v -2.43226 9.68156 2.04648
v -3.00314 9.68156 1.28424
v -3.41801 9.68156 0.40997
v -3.63611 9.68156 -0.51200
v 2.52949 10.36922 0.00000
v 2.43575 10.36922 0.68038
v 2.16237 10.36922 1.31020
v 1.72954 10.36922 1.84200
v 1.17020 10.36922 2.24293
v 0.52826 10.36922 2.47434
v -0.13247 10.36922 2.52664
v -0.78527 10.36922 2.39625
v -1.39882 10.36922 2.10654
v -1.94575 10.36922 1.63645
v -2.40242 10.36922 1.02691
v -2.73435 10.36922 0.32778
v -2.90884 10.36922 -0.40960
v 1.71138 10.81029 0.00000
v 1.64799 10.81029 0.46020
v 1.46319 10.81029 0.88628
v 1.17020 10.81029 1.24608
v 0.79175 10.81029 1.51727
v 0.35734 10.81029 1.67378
v -0.08962 10.81029 1.70915
v -0.53124 10.81029 1.62098
v -0.94631 10.81029 1.42507
v -1.31625 10.81029 1.10704
v -1.62500 10.81029 0.69471
v -1.84948 10.81029 0.22160
v -1.96751 10.81029 -0.27733
v 0.77246 10.96117 0.00000
v 0.74385 10.96117 0.20764
v 0.66051 10.96117 0.39984
v 0.52826 10.96117 0.56219
v 0.35734 10.96117 0.68464
v 0.16130 10.96117 0.75527
v -0.04046 10.96117 0.77122
v -0.23974 10.96117 0.73144
v -0.42691 10.96117 0.64299
v -0.59365 10.96117 0.49949
v -0.73280 10.96117 0.31350
v -0.83401 10.96117 0.10006
v -0.88723 10.96117 -0.12514
v 0.38000 11.90000 0.00000
v 0.30745 11.90000 0.22336
v 0.11745 11.90000 0.36140
v -0.11745 11.90000 0.36140
v -0.30745 11.90000 0.22336
v -0.38000 11.90000 0.00000
v -0.30745 11.90000 -0.22336
v -0.11745 11.90000 -0.36140
v 0.11745 11.90000 -0.36140
v 0.30745 11.90000 -0.22336
v 0.22000 12.55000 0.00000
v 0.17798 12.55000 0.12931
v 0.06798 12.55000 0.20923
v -0.06798 12.55000 0.20923
v -0.17798 12.55000 0.12931
v -0.22000 12.55000 0.00000
v -0.17798 12.55000 -0.12931
v -0.06798 12.55000 -0.20923
v 0.06798 12.55000 -0.20923
v 0.17798 12.55000 -0.12931
v 0.06000 13.25000 0.00000
v 0.04854 13.25000 0.03527
v 0.01854 13.25000 0.05706
v -0.01854 13.25000 0.05706
v -0.04854 13.25000 0.03527
v -0.06000 13.25000 0.00000
v -0.04854 13.25000 -0.03527
v -0.01854 13.25000 -0.05706
v 0.01854 13.25000 -0.05706
v 0.04854 13.25000 -0.03527
v -4.17000 7.57500 -0.60000
v -4.03000 7.57500 -0.60000
v -4.03000 8.82500 -0.60000
v -4.17000 8.82500 -0.60000
v -4.17000 7.57500 0.60000
v -4.03000 7.57500 0.60000
v -4.03000 8.82500 0.60000
v -4.17000 8.82500 0.60000
v 4.03000 7.57500 -0.60000
v 4.17000 7.57500 -0.60000
v 4.17000 8.82500 -0.60000
v 4.03000 8.82500 -0.60000
v 4.03000 7.57500 0.60000
v 4.17000 7.57500 0.60000
v 4.17000 8.82500 0.60000
v 4.03000 8.82500 0.60000
g Stone
vt 0.000000 0.150000
vt 0.000000 0.140212
vt 0.000000 0.113462
vt 0.000000 0.076923
vt 0.000000 0.040385
vt 0.000000 0.013634
vt 0.000000 0.003846
vt 0.000000 0.013634
vt 0.000000 0.040385
vt 0.000000 0.076923
vt 0.000000 0.113462
vt 0.000000 0.140212
vt 0.041509 0.150000
vt 0.041509 0.140212
vt 0.041509 0.113462
vt 0.041509 0.076923
vt 0.041509 0.040385
vt 0.041509 0.013634
vt 0.041509 0.003846
vt 0.041509 0.013634
vt 0.041509 0.040385
vt 0.041509 0.076923
vt 0.041509 0.113462
vt 0.041509 0.140212
vt 0.000000 0.076923
vt 0.041509 0.076923
vt 0.041509 0.129231
vt 0.041509 0.122224
vt 0.041509 0.103077
vt 0.041509 0.076923
vt 0.041509 0.050769
vt 0.041509 0.031622
vt 0.041509 0.024615
vt 0.041509 0.031622
vt 0.041509 0.050769
vt 0.041509 0.076923
vt 0.041509 0.103077
vt 0.041509 0.122224
vt 0.520755 0.121538
vt 0.520755 0.115562
vt 0.520755 0.099231
vt 0.520755 0.076923
vt 0.520755 0.054615
vt 0.520755 0.038284
vt 0.520755 0.032308
vt 0.520755 0.038284
vt 0.520755 0.054615
vt 0.520755 0.076923
vt 0.520755 0.099231
vt 0.520755 0.115562
vt 0.520755 0.153846
vt 0.520755 0.143541
vt 0.520755 0.115385
vt 0.520755 0.076923
vt 0.520755 0.038462
vt 0.520755 0.010305
vt 0.520755 0.000000
vt 0.520755 0.010305
vt 0.520755 0.038462
vt 0.520755 0.076923
vt 0.520755 0.115385
vt 0.520755 0.143541
vt 0.550943 0.153846
vt 0.550943 0.143541
vt 0.550943 0.115385
vt 0.550943 0.076923
vt 0.550943 0.038462
vt 0.550943 0.010305
vt 0.550943 0.000000
vt 0.550943 0.010305
vt 0.550943 0.038462
vt 0.550943 0.076923
vt 0.550943 0.115385
vt 0.550943 0.143541
vt 0.550943 0.132308
vt 0.550943 0.124888
vt 0.550943 0.104615
vt 0.550943 0.076923
vt 0.550943 0.049231
vt 0.550943 0.028958
vt 0.550943 0.021538
vt 0.550943 0.028958
vt 0.550943 0.049231
vt 0.550943 0.076923
vt 0.550943 0.104615
vt 0.550943 0.124888
vt 0.588679 0.132308
vt 0.588679 0.124888
vt 0.588679 0.104615
vt 0.588679 0.076923
vt 0.588679 0.049231
vt 0.588679 0.028958
vt 0.588679 0.021538
vt 0.588679 0.028958
vt 0.588679 0.049231
vt 0.588679 0.076923
vt 0.588679 0.104615
vt 0.588679 0.124888
vt 0.000000 0.996154
vt 0.000000 0.986366
vt 0.000000 0.959615
vt 0.000000 0.923077
vt 0.000000 0.886538
vt 0.000000 0.859788
vt 0.000000 0.850000
vt 0.000000 0.859788
vt 0.000000 0.886538
vt 0.000000 0.923077
vt 0.000000 0.959615
vt 0.000000 0.986366
vt 0.041509 0.996154
vt 0.041509 0.986366
vt 0.041509 0.959615
vt 0.041509 0.923077
vt 0.041509 0.886538
vt 0.041509 0.859788
vt 0.041509 0.850000
vt 0.041509 0.859788
vt 0.041509 0.886538
vt 0.041509 0.923077
vt 0.041509 0.959615
vt 0.041509 0.986366
vt 0.000000 0.923077
vt 0.041509 0.923077
vt 0.041509 0.975385
vt 0.041509 0.968378
vt 0.041509 0.949231
vt 0.041509 0.923077
vt 0.041509 0.896923
vt 0.041509 0.877776
vt 0.041509 0.870769
vt 0.041509 0.877776
vt 0.041509 0.896923
vt 0.041509 0.923077
vt 0.041509 0.949231
vt 0.041509 0.968378
vt 0.520755 0.967692
vt 0.520755 0.961716
vt 0.520755 0.945385
vt 0.520755 0.923077
vt 0.520755 0.900769
vt 0.520755 0.884438
vt 0.520755 0.878462
vt 0.520755 0.884438
vt 0.520755 0.900769
vt 0.520755 0.923077
vt 0.520755 0.945385
vt 0.520755 0.961716
vt 0.520755 1.000000
vt 0.520755 0.989695
vt 0.520755 0.961538
vt 0.520755 0.923077
vt 0.520755 0.884615
vt 0.520755 0.856459
vt 0.520755 0.846154
vt 0.520755 0.856459
vt 0.520755 0.884615
vt 0.520755 0.923077
vt 0.520755 0.961538
vt 0.520755 0.989695
vt 0.550943 1.000000
vt 0.550943 0.989695
vt 0.550943 0.961538
vt 0.550943 0.923077
vt 0.550943 0.884615
vt 0.550943 0.856459
vt 0.550943 0.846154
vt 0.550943 0.856459
vt 0.550943 0.884615
vt 0.550943 0.923077
vt 0.550943 0.961538
vt 0.550943 0.989695
vt 0.550943 0.978462
vt 0.550943 0.971042
vt 0.550943 0.950769
vt 0.550943 0.923077
vt 0.550943 0.895385
vt 0.550943 0.875112
vt 0.550943 0.867692
vt 0.550943 0.875112
vt 0.550943 0.895385
vt 0.550943 0.923077
vt 0.550943 0.950769
vt 0.550943 0.971042
vt 0.588679 0.978462
vt 0.588679 0.971042
vt 0.588679 0.950769
vt 0.588679 0.923077
vt 0.588679 0.895385
vt 0.588679 0.875112
vt 0.588679 0.867692
vt 0.588679 0.875112
vt 0.588679 0.895385
vt 0.588679 0.923077
vt 0.588679 0.950769
vt 0.588679 0.971042
vt 0.226415 0.176923
vt 0.226415 0.115385
vt 0.281738 0.116028
vt 0.336840 0.117958
vt 0.391500 0.121163
vt 0.445497 0.125630
vt 0.498617 0.131342
vt 0.550647 0.138271
vt 0.601382 0.146387
vt 0.650621 0.155646
vt 0.698168 0.166000
vt 0.743838 0.177394
vt 0.787456 0.189765
vt 0.828854 0.203044
vt 0.867874 0.217155
vt 0.904369 0.232016
vt 0.938202 0.247535
vt 0.969245 0.263618
vt 0.997380 0.280165
vt 0.226415 0.115385
vt 0.281738 0.116028
vt 0.336840 0.117958
vt 0.391500 0.121163
vt 0.445497 0.125630
vt 0.498617 0.131342
vt 0.550647 0.138271
vt 0.601382 0.146387
vt 0.650621 0.155646
vt 0.698168 0.166000
vt 0.743838 0.177394
vt 0.787456 0.189765
vt 0.828854 0.203044
vt 0.867874 0.217155
vt 0.904369 0.232016
vt 0.938202 0.247535
vt 0.969245 0.263618
vt 0.997380 0.280165
vt 0.226415 0.238462
vt 0.272909 0.238974
vt 0.319218 0.240508
vt 0.365156 0.243059
vt 0.410540 0.246612
vt 0.455185 0.251150
vt 0.498912 0.256655
vt 0.541546 0.263100
vt 0.582913 0.270458
vt 0.622848 0.278698
vt 0.661189 0.287783
vt 0.697781 0.297678
vt 0.732475 0.308342
vt 0.765134 0.319737
vt 0.795622 0.331818
vt 0.823817 0.344540
vt 0.849607 0.357856
vt 0.872888 0.371717
vt 0.226415 0.238462
vt 0.272909 0.238974
vt 0.319218 0.240508
vt 0.365156 0.243059
vt 0.410540 0.246612
vt 0.455185 0.251150
vt 0.498912 0.256655
vt 0.541546 0.263100
vt 0.582913 0.270458
vt 0.622848 0.278698
vt 0.661189 0.287783
vt 0.697781 0.297678
vt 0.732475 0.308342
vt 0.765134 0.319737
vt 0.795622 0.331818
vt 0.823817 0.344540
vt 0.849607 0.357856
vt 0.872888 0.371717
vt 0.226415 0.761538
vt 0.272909 0.761026
vt 0.319218 0.759492
vt 0.365156 0.756941
vt 0.410540 0.753388
vt 0.455185 0.748850
vt 0.498912 0.743345
vt 0.541546 0.736900
vt 0.582913 0.729542
vt 0.622848 0.721302
vt 0.661189 0.712217
vt 0.697781 0.702322
vt 0.732475 0.691658
vt 0.765134 0.680263
vt 0.795622 0.668182
vt 0.823817 0.655460
vt 0.849607 0.642144
vt 0.872888 0.628283
vt 0.226415 0.761538
vt 0.272909 0.761026
vt 0.319218 0.759492
vt 0.365156 0.756941
vt 0.410540 0.753388
vt 0.455185 0.748850
vt 0.498912 0.743345
vt 0.541546 0.736900
vt 0.582913 0.729542
vt 0.622848 0.721302
vt 0.661189 0.712217
vt 0.697781 0.702322
vt 0.732475 0.691658
vt 0.765134 0.680263
vt 0.795622 0.668182
vt 0.823817 0.655460
vt 0.849607 0.642144
vt 0.872888 0.628283
vt 0.226415 0.823077
vt 0.226415 0.884615
vt 0.281738 0.883972
vt 0.336840 0.882042
vt 0.391500 0.878837
vt 0.445497 0.874370
vt 0.498617 0.868658
vt 0.550647 0.861729
vt 0.601382 0.853613
vt 0.650621 0.844354
vt 0.698168 0.834000
vt 0.743838 0.822606
vt 0.787456 0.810235
vt 0.828854 0.796956
vt 0.867874 0.782845
vt 0.904369 0.767984
vt 0.938202 0.752465
vt 0.969245 0.736382
vt 0.997380 0.719835
vt 0.226415 0.884615
vt 0.281738 0.883972
vt 0.336840 0.882042
vt 0.391500 0.878837
vt 0.445497 0.874370
vt 0.498617 0.868658
vt 0.550647 0.861729
vt 0.601382 0.853613
vt 0.650621 0.844354
vt 0.698168 0.834000
vt 0.743838 0.822606
vt 0.787456 0.810235
vt 0.828854 0.796956
vt 0.867874 0.782845
vt 0.904369 0.767984
vt 0.938202 0.752465
vt 0.969245 0.736382
vt 0.997380 0.719835
vt 0.547170 0.034615
vt 0.547170 0.965385
vt 0.592453 0.965385
vt 0.592453 0.034615
vt 0.547170 0.034615
vt 0.547170 0.965385
vt 0.592453 0.965385
vt 0.592453 0.034615
vt 0.592453 0.784615
vt 0.592453 0.774078
vt 0.592453 0.743290
vt 0.592453 0.694576
vt 0.592453 0.631645
vt 0.592453 0.559420
vt 0.592453 0.485102
vt 0.592453 0.411722
vt 0.592453 0.342761
vt 0.592453 0.281298
vt 0.592453 0.229979
vt 0.592453 0.192687
vt 0.592453 0.173077
vt 0.665146 0.774078
vt 0.665146 0.763932
vt 0.665146 0.734282
vt 0.665146 0.687365
vt 0.665146 0.626768
vt 0.665146 0.557219
vt 0.665146 0.485653
vt 0.665146 0.414991
vt 0.665146 0.348585
vt 0.665146 0.289398
vt 0.665146 0.239980
vt 0.665146 0.204069
vt 0.665146 0.185185
vt 0.730684 0.743290
vt 0.730684 0.734282
vt 0.730684 0.707966
vt 0.730684 0.666336
vt 0.730684 0.612553
vt 0.730684 0.550808
vt 0.730684 0.487261
vt 0.730684 0.424488
vt 0.730684 0.365491
vt 0.730684 0.312903
vt 0.730684 0.268989
vt 0.730684 0.237076
vt 0.730684 0.220299
vt 0.782583 0.694576
vt 0.782583 0.687365
vt 0.782583 0.666336
vt 0.782583 0.633042
vt 0.782583 0.590015
vt 0.782583 0.540635
vt 0.782583 0.489810
vt 0.782583 0.439595
vt 0.782583 0.392398
vt 0.782583 0.350327
vt 0.782583 0.315198
vt 0.782583 0.289665
vt 0.782583 0.276243
vt 0.815871 0.631645
vt 0.815871 0.626768
vt 0.815871 0.612553
vt 0.815871 0.590015
vt 0.815871 0.560904
vt 0.815871 0.527488
vt 0.815871 0.493106
vt 0.815871 0.459135
vt 0.815871 0.427207
vt 0.815871 0.398750
vt 0.815871 0.375000
vt 0.815871 0.357732
vt 0.815871 0.348653
vt 0.827258 0.559420
vt 0.827258 0.557219
vt 0.827258 0.550808
vt 0.827258 0.540635
vt 0.827258 0.527488
vt 0.827258 0.512408
vt 0.827258 0.496888
vt 0.827258 0.481558
vt 0.827258 0.467161
vt 0.827258 0.454335
vt 0.827258 0.443631
vt 0.827258 0.435845
vt 0.827258 0.431752
vt 0.898113 0.529231
vt 0.898113 0.523650
vt 0.898113 0.509035
vt 0.898113 0.490965
vt 0.898113 0.476350
vt 0.898113 0.470769
vt 0.898113 0.476350
vt 0.898113 0.490965
vt 0.898113 0.509035
vt 0.898113 0.523650
vt 0.947170 0.516923
vt 0.947170 0.513691
vt 0.947170 0.505229
vt 0.947170 0.494771
vt 0.947170 0.486309
vt 0.947170 0.483077
vt 0.947170 0.486309
vt 0.947170 0.494771
vt 0.947170 0.505229
vt 0.947170 0.513691
vt 1.000000 0.504615
vt 1.000000 0.503734
vt 1.000000 0.501426
vt 1.000000 0.498574
vt 1.000000 0.496266
vt 1.000000 0.495385
vt 1.000000 0.496266
vt 1.000000 0.498574
vt 1.000000 0.501426
vt 1.000000 0.503734
vt 0.571698 0.179231
vt 0.571698 0.190000
vt 0.666038 0.190000
vt 0.666038 0.179231
vt 0.571698 0.179231
vt 0.571698 0.190000
vt 0.666038 0.190000
vt 0.666038 0.179231
vt 0.571698 0.810000
vt 0.571698 0.820769
vt 0.666038 0.820769
vt 0.666038 0.810000
vt 0.571698 0.810000
vt 0.571698 0.820769
vt 0.666038 0.820769
vt 0.666038 0.810000
vn -0.654566 0.753742 -0.058447
vn -0.537623 0.753748 -0.377922
vn -0.276646 0.753743 -0.596102
vn 0.058465 0.753742 -0.654565
vn 0.377899 0.753738 -0.537653
vn 0.596093 0.753755 -0.276632
vn 0.654566 0.753742 0.058447
vn 0.537623 0.753748 0.377922
vn 0.276646 0.753743 0.596102
vn -0.058465 0.753742 0.654565
vn -0.377899 0.753738 0.537653
vn -0.596093 0.753755 0.276632
vn -0.654566 -0.753742 0.058447
vn -0.596093 -0.753755 -0.276632
vn -0.377899 -0.753738 -0.537653
vn -0.058465 -0.753742 -0.654565
vn 0.276646 -0.753743 -0.596102
vn 0.537623 -0.753748 -0.377922
vn 0.654566 -0.753742 -0.058447
vn 0.596093 -0.753755 0.276632
vn 0.377899 -0.753738 0.537653
vn 0.058465 -0.753742 0.654565
vn -0.276646 -0.753743 0.596102
vn -0.537623 -0.753748 0.377922
vn 0.000000 1.000000 0.000000
vn 0.000000 -1.000000 0.000000
vn -0.996685 -0.015696 -0.079827
vn -0.823224 -0.015696 -0.567499
vn -0.429195 -0.015696 -0.903076
vn 0.079848 -0.015696 -0.996683
vn 0.567471 -0.015696 -0.823244
vn 0.903082 -0.015696 -0.429182
vn 0.996685 -0.015696 0.079827
vn 0.823224 -0.015696 0.567499
vn 0.429195 -0.015696 0.903076
vn -0.079848 -0.015696 0.996683
vn -0.567471 -0.015696 0.823244
vn -0.903082 -0.015696 0.429182
vn -0.995012 -0.015669 0.098517
vn -0.910974 -0.015669 -0.412166
vn -0.582823 -0.015670 -0.812448
vn -0.098528 -0.015670 -0.995011
vn 0.412167 -0.015670 -0.910974
vn 0.812432 -0.015670 -0.582845
vn 0.995012 -0.015669 -0.098517
vn 0.910974 -0.015669 0.412166
vn 0.582823 -0.015670 0.812448
vn 0.098528 -0.015670 0.995011
vn -0.412167 -0.015670 0.910974
vn -0.812432 -0.015670 0.582845
vn -0.996035 0.000000 -0.088959
vn -0.818111 0.000000 -0.575060
vn -0.420970 0.000000 -0.907074
vn 0.088959 0.000000 -0.996035
vn 0.575060 0.000000 -0.818111
vn 0.907074 0.000000 -0.420970
vn 0.996035 0.000000 0.088959
vn 0.818111 0.000000 0.575060
vn 0.420970 0.000000 0.907074
vn -0.088959 0.000000 0.996035
vn -0.575060 0.000000 0.818111
vn -0.907074 0.000000 0.420970
vn -0.996035 0.000000 0.088959
vn -0.907074 0.000000 -0.420970
vn -0.575060 0.000000 -0.818111
vn -0.088959 0.000000 -0.996035
vn 0.420970 0.000000 -0.907074
vn 0.818111 0.000000 -0.575060
vn 0.996035 0.000000 -0.088959
vn 0.907074 0.000000 0.420970
vn 0.575060 0.000000 0.818111
vn 0.088959 0.000000 0.996035
vn -0.420970 0.000000 0.907074
vn -0.818111 0.000000 0.575060
vn -0.996035 0.000000 -0.088961
vn -0.818111 0.000000 -0.575061
vn -0.420972 0.000000 -0.907074
vn 0.088961 0.000000 -0.996035
vn 0.575061 0.000000 -0.818111
vn 0.907074 0.000000 -0.420972
vn 0.996035 0.000000 0.088961
vn 0.818111 0.000000 0.575061
vn 0.420972 0.000000 0.907074
vn -0.088961 0.000000 0.996035
vn -0.575061 0.000000 0.818111
vn -0.907074 0.000000 0.420972
vn -0.996035 0.000000 0.088961
vn -0.907074 0.000000 -0.420972
vn -0.575061 0.000000 -0.818111
vn -0.088961 0.000000 -0.996035
vn 0.420972 0.000000 -0.907074
vn 0.818111 0.000000 -0.575061
vn 0.996035 0.000000 -0.088961
vn 0.907074 0.000000 0.420972
vn 0.575061 0.000000 0.818111
vn 0.088961 0.000000 0.996035
vn -0.420972 0.000000 0.907074
vn -0.818111 0.000000 0.575061
vn -0.996037 0.000000 -0.088937
vn -0.818097 0.000000 -0.575081
vn -0.420967 0.000000 -0.907076
vn 0.088965 0.000000 -0.996035
vn 0.575036 0.000000 -0.818128
vn 0.907082 0.000000 -0.420954
vn 0.996037 0.000000 0.088937
vn 0.818097 0.000000 0.575081
vn 0.420967 0.000000 0.907076
vn -0.088965 0.000000 0.996035
vn -0.575036 0.000000 0.818128
vn -0.907082 0.000000 0.420954
vn -0.821932 0.567880 0.044035
vn -0.733833 0.567895 -0.372807
vn -0.449095 0.567877 -0.689804
vn -0.044049 0.567880 -0.821932
vn 0.372811 0.567881 -0.733842
vn 0.689778 0.567890 -0.449119
vn 0.821932 0.567880 -0.044035
vn 0.733833 0.567895 0.372807
vn 0.449095 0.567877 0.689804
vn 0.044049 0.567880 0.821932
vn -0.372811 0.567881 0.733842
vn -0.689778 0.567890 0.449119
vn 0.000000 1.000000 0.000000
vn -0.948666 0.188243 0.254159
vn -0.776451 -0.012227 0.630059
vn -0.823224 -0.015696 -0.567499
vn -0.429195 -0.015696 -0.903076
vn 0.079848 -0.015696 -0.996683
vn 0.567471 -0.015696 -0.823244
vn 0.903082 -0.015696 -0.429182
vn 0.996685 -0.015696 0.079827
vn 0.823224 -0.015696 0.567499
vn 0.429195 -0.015696 0.903076
vn -0.079848 -0.015696 0.996683
vn -0.499635 0.037769 0.865412
vn -0.862436 0.090961 -0.497925
vn -0.998892 0.041998 0.021246
vn -0.910974 -0.015669 -0.412166
vn -0.582823 -0.015670 -0.812448
vn -0.098528 -0.015670 -0.995011
vn 0.412167 -0.015670 -0.910974
vn 0.812432 -0.015670 -0.582845
vn 0.995012 -0.015669 -0.098517
vn 0.910974 -0.015669 0.412166
vn 0.582823 -0.015670 0.812448
vn 0.098528 -0.015670 0.995011
vn -0.429195 -0.015696 0.903076
vn -0.427115 0.896926 0.114441
vn -0.984508 0.000000 0.175342
vn -0.818111 0.000000 -0.575060
vn -0.420970 0.000000 -0.907074
vn 0.088959 0.000000 -0.996035
vn 0.575060 0.000000 -0.818111
vn 0.907074 0.000000 -0.420970
vn 0.996035 0.000000 0.088959
vn 0.818111 0.000000 0.575060
vn 0.420970 0.000000 0.907074
vn -0.088959 0.000000 0.996035
vn -0.442698 0.464830 0.766780
vn -0.480982 0.876728 0.001929
vn -0.885404 0.464823 -0.000000
vn -0.907074 0.000000 -0.420970
vn -0.575060 0.000000 -0.818111
vn -0.088959 0.000000 -0.996035
vn 0.420970 0.000000 -0.907074
vn 0.818111 0.000000 -0.575060
vn 0.996035 0.000000 -0.088959
vn 0.907074 0.000000 0.420970
vn 0.575060 0.000000 0.818111
vn 0.088959 0.000000 0.996035
vn -0.420970 0.000000 0.907074
vn -0.655654 -0.734340 0.175679
vn -0.963505 0.000000 -0.267689
vn -0.818111 0.000000 -0.575061
vn -0.420972 0.000000 -0.907074
vn 0.088961 0.000000 -0.996035
vn 0.575061 0.000000 -0.818111
vn 0.907074 0.000000 -0.420972
vn 0.996035 0.000000 0.088961
vn 0.818111 0.000000 0.575061
vn 0.420972 0.000000 0.907074
vn -0.088961 0.000000 0.996035
vn -0.481481 -0.269633 0.833951
vn -0.187548 -0.612110 0.768211
vn -0.962963 -0.269632 0.000000
vn -0.907074 0.000000 -0.420972
vn -0.575061 0.000000 -0.818111
vn -0.088961 0.000000 -0.996035
vn 0.420972 0.000000 -0.907074
vn 0.818111 0.000000 -0.575061
vn 0.996035 0.000000 -0.088961
vn 0.907074 0.000000 0.420972
vn 0.575061 0.000000 0.818111
vn 0.088961 0.000000 0.996035
vn -0.420972 0.000000 0.907074
vn 0.008915 0.000203 -0.999960
vn 0.008246 -0.000185 -0.999966
vn 0.000000 0.000000 -1.000000
vn 0.000000 0.000000 -1.000000
vn 0.000000 0.000000 -1.000000
vn 0.000000 0.000000 -1.000000
vn 0.000000 0.000000 -1.000000
vn -0.739649 0.230499 0.632289
vn 0.990764 -0.096472 -0.095284
vn 0.987998 -0.120675 -0.096425
vn 0.984535 -0.145537 -0.097521
vn 0.170115 -0.038800 0.984660
vn 0.034773 -0.008373 0.999360
vn 0.009013 -0.000008 -0.999959
vn 0.000000 0.000000 -1.000000
vn 0.000000 0.000000 1.000000
vn 0.000000 0.000000 1.000000
vn 0.000000 0.000000 1.000000
vn 0.000000 0.000000 1.000000
vn -0.714366 0.209134 0.667790
vn -0.623965 0.220924 0.749573
vn 0.993441 -0.064653 0.094314
vn 0.991522 -0.088066 0.095541
vn 0.977267 -0.161790 -0.137012
vn 0.000000 0.000000 1.000000
vn 0.352940 -0.109987 0.929159
vn -0.464960 0.047550 -0.884054
vn -0.461932 0.058587 -0.884978
vn -0.458309 0.069828 -0.886046
vn -0.454042 0.081317 -0.887262
vn -0.449044 0.093103 -0.888646
vn -0.443218 0.105231 -0.890216
vn -0.436446 0.117748 -0.891992
vn -0.428573 0.130700 -0.894004
vn -0.419430 0.144132 -0.896273
vn -0.483288 0.230973 -0.844443
vn -0.571656 0.290574 0.767317
vn 0.344137 -0.100747 0.933499
vn 0.319374 -0.110688 0.941142
vn -0.504796 0.035067 -0.862526
vn -0.503531 0.046596 -0.862720
vn -0.501770 0.058341 -0.863032
vn -0.499451 0.070362 -0.863480
vn -0.496474 0.082718 -0.864101
vn -0.492727 0.095466 -0.864932
vn -0.488073 0.108662 -0.866012
vn -0.482338 0.122363 -0.867397
vn -0.404695 0.150931 -0.901910
vn 0.000000 0.000000 -1.000000
vn 0.000000 0.000000 -1.000000
vn 0.000000 0.000000 1.000000
vn 0.000000 0.000000 -1.000000
vn 0.000000 0.000000 1.000000
vn 0.000000 0.000000 -1.000000
vn 0.000000 0.000000 1.000000
vn 0.000000 0.000000 1.000000
vn 0.000000 0.000000 -1.000000
vn 0.000000 0.000000 -1.000000
vn 0.000000 0.000000 1.000000
vn 0.000000 0.000000 -1.000000
vn 0.000000 0.000000 1.000000
vn 0.000000 0.000000 -1.000000
vn 0.000000 0.000000 1.000000
vn 0.000000 0.000000 1.000000
vn 0.209330 0.771588 0.600694
vn 0.966770 -0.067015 -0.246707
vn 0.960077 -0.076737 -0.269004
vn 0.953063 -0.087302 -0.289913
vn 0.945781 -0.098950 -0.309365
vn 0.938174 -0.112014 -0.327540
vn 0.930285 -0.126918 -0.344182
vn 0.921997 -0.144265 -0.359317
vn 0.913130 -0.164887 -0.372835
vn 0.082272 -0.937601 -0.337840
vn 0.185624 0.023261 0.982345
vn -0.646109 -0.016321 -0.763071
vn -0.466427 -0.021977 -0.884287
vn -0.464365 -0.032179 -0.885059
vn -0.461804 -0.042489 -0.885964
vn -0.458716 -0.052970 -0.887003
vn -0.455047 -0.063668 -0.888188
vn -0.002781 0.991625 0.129120
vn 0.000000 0.862048 0.506827
vn 0.000000 -0.021122 0.999777
vn 0.000000 -0.025297 0.999680
vn -0.000000 -0.030276 0.999542
vn 0.000000 -0.036326 0.999340
vn 0.000000 -0.043829 0.999039
vn -0.000000 -0.053328 0.998577
vn 0.000000 -0.065651 0.997843
vn 0.000000 -0.082066 0.996627
vn -0.000000 -0.124998 -0.992157
vn -0.000000 0.000000 -1.000000
vn -0.256480 -0.335842 0.906327
vn 0.034385 -0.003334 0.999403
vn 0.035149 -0.002336 0.999379
vn 0.035880 -0.001319 0.999355
vn 0.036589 -0.000275 0.999330
vn 0.037276 0.000806 0.999305
vn 0.002310 0.959788 0.280716
vn -0.117066 0.636485 -0.762353
vn -0.156506 -0.034775 -0.987065
vn -0.163280 -0.041477 -0.985708
vn -0.171304 -0.049517 -0.983973
vn -0.180820 -0.059344 -0.981724
vn -0.192140 -0.071585 -0.978753
vn -0.205669 -0.087158 -0.974733
vn -0.221935 -0.107420 -0.969126
vn -0.241611 -0.134454 -0.961013
vn -0.009981 -0.139637 0.990152
vn -0.922529 -0.385927 0.000000
vn 0.867638 -0.497196 0.000000
vn 0.999483 0.032139 -0.000000
vn 0.998494 0.054853 -0.000000
vn 0.996961 0.077906 -0.000000
vn 0.994838 0.101480 0.000000
vn 0.837146 0.106078 0.536595
vn 0.023139 -0.978370 0.205564
vn 0.990261 0.137818 -0.019720
vn 0.983394 0.181358 0.006698
vn 0.977926 0.208838 0.006830
vn 0.971332 0.237623 0.006973
vn 0.963411 0.267934 0.007143
vn 0.953905 0.300020 0.007334
vn 0.942480 0.334178 0.007554
vn 0.928704 0.370739 0.007801
vn 0.911996 0.410119 0.008104
vn 0.891562 0.452820 0.008469
vn -0.972679 -0.161374 0.166893
vn -0.968355 -0.189591 0.162308
vn 0.094320 0.022725 -0.995283
vn -0.032595 0.269692 0.962395
vn -0.606953 -0.029676 -0.794184
vn -0.340451 -0.028040 -0.939844
vn -0.001990 -0.826491 -0.562947
vn 0.301189 -0.049782 0.952264
vn 0.560802 0.101473 -0.821708
vn 0.115604 0.064299 0.991212
vn 0.084927 0.620768 -0.779381
vn 0.918445 -0.025203 0.394746
vn 0.879161 0.104396 0.464948
vn 0.794057 0.211732 0.569775
vn 0.678972 0.300406 0.669890
vn 0.537251 0.377293 0.754328
vn 0.386848 0.436043 0.812536
vn -0.556643 0.280254 0.782053
vn -0.160681 0.438030 -0.884484
vn -0.363720 0.201382 -0.909479
vn 0.010227 -0.293123 0.956020
vn -0.041190 0.726588 -0.685837
vn -0.029949 0.005505 -0.999536
vn -0.082694 0.251649 0.964279
vn -0.063585 0.164561 0.984315
vn -0.034356 0.980192 -0.195045
vn -0.194165 0.976315 -0.095439
vn 0.000140 -0.979530 -0.201298
vn 0.693810 -0.700643 0.166518
vn 0.841049 -0.314056 0.440461
vn 0.758537 0.018673 0.651362
vn 0.574008 0.245699 0.781119
vn 0.365915 0.408734 0.836088
vn 0.155135 0.509442 0.846406
vn -0.044626 0.569539 0.820752
vn -0.483504 0.722864 0.493651
vn 0.005662 -0.713249 0.700888
vn 0.276154 0.945975 0.169913
vn 0.125160 -0.938365 -0.322189
vn 0.073225 -0.695972 0.714326
vn -0.083335 -0.210920 0.973944
vn -0.491706 -0.870553 -0.019061
vn -0.125999 0.800681 -0.585691
vn -0.093207 -0.942790 0.320094
vn -0.483989 -0.278773 -0.829482
vn -0.238187 -0.269731 -0.933013
vn 0.024362 -0.275545 -0.960979
vn 0.265253 -0.300786 -0.916061
vn 0.490677 -0.284186 -0.823696
vn 0.086013 0.978145 0.189301
vn 0.418521 -0.800762 -0.428509
vn 0.499552 -0.796829 -0.339869
vn 0.039732 0.342453 0.938694
vn -0.046710 -0.230934 0.971848
vn -0.416427 0.890970 -0.181001
vn -0.409610 0.518759 -0.750406
vn -0.043417 -0.939469 0.339873
vn -0.456426 -0.544347 -0.703819
vn -0.247521 -0.540505 -0.804106
vn -0.019641 -0.544119 -0.838778
vn 0.192790 -0.560280 -0.805554
vn 0.396532 -0.548197 -0.736371
vn 0.177149 0.981969 0.065998
vn 0.376136 -0.850763 -0.367049
vn 0.441042 -0.851620 -0.283240
vn 0.026016 0.563268 0.825865
vn -0.187584 0.542802 0.818644
vn -0.569983 -0.081103 -0.817644
vn -0.338269 0.073279 -0.938192
vn -0.065497 -0.938169 0.339926
vn -0.322272 -0.589706 -0.740532
vn -0.316383 -0.712605 -0.626175
vn -0.145945 -0.664221 -0.733152
vn 0.051103 -0.654188 -0.754603
vn 0.247596 -0.670006 -0.699849
vn 0.398371 -0.712736 -0.577328
vn 0.467946 -0.773567 -0.427341
vn 0.477889 -0.832337 -0.280779
vn 0.155772 0.072012 0.985165
vn -0.083583 -0.114461 0.989905
vn -0.006969 -0.923002 -0.384732
vn 0.106459 -0.832060 -0.544373
vn 0.013957 -0.908198 0.418307
vn -0.335570 -0.901117 -0.274554
vn -0.296676 -0.859161 -0.416924
vn -0.183255 -0.901665 -0.391687
vn 0.107475 -0.992622 -0.056132
vn 0.049123 -0.985411 -0.162945
vn 0.095223 -0.989519 -0.108556
vn 0.115958 -0.989543 -0.085776
vn 0.127594 -0.990115 -0.058247
vn 0.074135 -0.992933 0.092673
vn 0.037087 -0.983318 0.178072
vn 0.000000 -1.000000 0.000000
vn -0.436702 0.021615 0.899346
vn -0.737714 -0.397827 -0.545446
vn -0.399676 -0.483089 -0.779027
vn -0.215363 -0.717679 -0.662235
vn 0.066501 -0.986451 -0.149976
vn 0.101415 -0.986258 -0.130427
vn 0.126745 -0.986471 -0.103974
vn 0.141031 -0.987371 -0.072169
vn 0.068944 -0.979638 0.188562
vn 0.000000 1.000000 0.000000
vn -0.306567 0.298544 0.903819
vn -0.550726 0.192767 0.812122
vn -0.628449 -0.406367 -0.663263
vn -0.159302 -0.236512 -0.958481
vn 0.366469 -0.238439 -0.899359
vn 0.825139 -0.238447 -0.512141
vn 0.968586 -0.238432 0.070656
vn 0.742090 -0.238455 0.626452
vn 0.232097 -0.238432 0.943017
vn -0.366469 -0.238439 0.899359
vn -0.803176 -0.234378 0.547700
vn -0.974679 -0.222783 0.019199
vn -0.725105 -0.226845 -0.650204
vn -0.403204 -0.231964 -0.885223
vn 0.159302 -0.236512 -0.958481
vn 0.692254 -0.236535 -0.681789
vn 0.960803 -0.236518 -0.144625
vn 0.862349 -0.236528 0.447670
vn 0.434492 -0.236524 0.869064
vn -0.159302 -0.236512 0.958481
vn -0.591475 -0.229648 0.772929
vn -0.946837 -0.223462 0.231438
vn -0.810428 -0.222658 -0.541876
vn 0.000000 -1.000000 0.000000
vn 0.000000 -1.000000 0.000000
vn 0.000000 1.000000 0.000000
vn 0.000000 -1.000000 0.000000
vn 0.000000 1.000000 0.000000
vn 0.000000 -1.000000 0.000000
vn 0.000000 1.000000 0.000000
vn 0.000000 1.000000 0.000000
vn 0.968100 0.108427 0.225890
vn -0.992121 0.111118 0.057874
vn -0.968100 -0.108427 0.225890
vn 0.992121 -0.111118 0.057874
vn 0.992121 0.111118 -0.057874
vn -0.968100 0.108427 -0.225890
vn -0.992121 -0.111118 -0.057874
vn 0.968100 -0.108427 -0.225890
vn 0.000000 1.000000 0.000000
vn 0.000000 1.000000 0.000000
vn 0.000000 1.000000 0.000000
vn 0.000000 1.000000 0.000000
vn 0.000000 1.000000 0.000000
vn 0.000000 1.000000 0.000000
vn 0.000000 1.000000 0.000000
vn 0.000000 1.000000 0.000000
usemtl DomeGate_Stone
f 1/1/1 2/2/2 14/14/14
f 1/1/1 14/14/14 13/13/13
f 2/2/2 3/3/3 15/15/15
f 2/2/2 15/15/15 14/14/14
f 3/3/3 4/4/4 16/16/16
f 3/3/3 16/16/16 15/15/15
f 4/4/4 5/5/5 17/17/17
f 4/4/4 17/17/17 16/16/16
f 5/5/5 6/6/6 18/18/18
f 5/5/5 18/18/18 17/17/17
f 6/6/6 7/7/7 19/19/19
f 6/6/6 19/19/19 18/18/18
f 7/7/7 8/8/8 20/20/20
f 7/7/7 20/20/20 19/19/19
f 8/8/8 9/9/9 21/21/21
f 8/8/8 21/21/21 20/20/20
f 9/9/9 10/10/10 22/22/22
f 9/9/9 22/22/22 21/21/21
f 10/10/10 11/11/11 23/23/23
f 10/10/10 23/23/23 22/22/22
f 11/11/11 12/12/12 24/24/24
f 11/11/11 24/24/24 23/23/23
f 12/12/12 1/1/1 13/13/13
f 12/12/12 13/13/13 24/24/24
f 25/25/25 2/2/2 1/1/1
f 25/25/25 3/3/3 2/2/2
f 25/25/25 4/4/4 3/3/3
f 25/25/25 5/5/5 4/4/4
f 25/25/25 6/6/6 5/5/5
f 25/25/25 7/7/7 6/6/6
f 25/25/25 8/8/8 7/7/7
f 25/25/25 9/9/9 8/8/8
f 25/25/25 10/10/10 9/9/9
f 25/25/25 11/11/11 10/10/10
f 25/25/25 12/12/12 11/11/11
f 25/25/25 1/1/1 12/12/12
f 26/26/26 13/13/13 14/14/14
f 26/26/26 14/14/14 15/15/15
f 26/26/26 15/15/15 16/16/16
f 26/26/26 16/16/16 17/17/17
f 26/26/26 17/17/17 18/18/18
f 26/26/26 18/18/18 19/19/19
f 26/26/26 19/19/19 20/20/20
f 26/26/26 20/20/20 21/21/21
f 26/26/26 21/21/21 22/22/22
f 26/26/26 22/22/22 23/23/23
f 26/26/26 23/23/23 24/24/24
f 26/26/26 24/24/24 13/13/13
f 27/27/27 28/28/28 40/40/40
f 27/27/27 40/40/40 39/39/39
f 28/28/28 29/29/29 41/41/41
f 28/28/28 41/41/41 40/40/40
f 29/29/29 30/30/30 42/42/42
f 29/29/29 42/42/42 41/41/41
f 30/30/30 31/31/31 43/43/43
f 30/30/30 43/43/43 42/42/42
f 31/31/31 32/32/32 44/44/44
f 31/31/31 44/44/44 43/43/43
f 32/32/32 33/33/33 45/45/45
f 32/32/32 45/45/45 44/44/44
f 33/33/33 34/34/34 46/46/46
f 33/33/33 46/46/46 45/45/45
f 34/34/34 35/35/35 47/47/47
f 34/34/34 47/47/47 46/46/46
f 35/35/35 36/36/36 48/48/48
f 35/35/35 48/48/48 47/47/47
f 36/36/36 37/37/37 49/49/49
f 36/36/36 49/49/49 48/48/48
f 37/37/37 38/38/38 50/50/50
f 37/37/37 50/50/50 49/49/49
f 38/38/38 27/27/27 39/39/39
f 38/38/38 39/39/39 50/50/50
f 51/51/51 52/52/52 64/64/64
f 51/51/51 64/64/64 63/63/63
f 52/52/52 53/53/53 65/65/65
f 52/52/52 65/65/65 64/64/64
f 53/53/53 54/54/54 66/66/66
f 53/53/53 66/66/66 65/65/65
f 54/54/54 55/55/55 67/67/67
f 54/54/54 67/67/67 66/66/66
f 55/55/55 56/56/56 68/68/68
f 55/55/55 68/68/68 67/67/67
f 56/56/56 57/57/57 69/69/69
f 56/56/56 69/69/69 68/68/68
f 57/57/57 58/58/58 70/70/70
f 57/57/57 70/70/70 69/69/69
f 58/58/58 59/59/59 71/71/71
f 58/58/58 71/71/71 70/70/70
f 59/59/59 60/60/60 72/72/72
f 59/59/59 72/72/72 71/71/71
f 60/60/60 61/61/61 73/73/73
f 60/60/60 73/73/73 72/72/72
f 61/61/61 62/62/62 74/74/74
f 61/61/61 74/74/74 73/73/73
f 62/62/62 51/51/51 63/63/63
f 62/62/62 63/63/63 74/74/74
f 75/75/75 76/76/76 88/88/88
f 75/75/75 88/88/88 87/87/87
f 76/76/76 77/77/77 89/89/89
f 76/76/76 89/89/89 88/88/88
f 77/77/77 78/78/78 90/90/90
f 77/77/77 90/90/90 89/89/89
f 78/78/78 79/79/79 91/91/91
f 78/78/78 91/91/91 90/90/90
f 79/79/79 80/80/80 92/92/92
f 79/79/79 92/92/92 91/91/91
f 80/80/80 81/81/81 93/93/93
f 80/80/80 93/93/93 92/92/92
f 81/81/81 82/82/82 94/94/94
f 81/81/81 94/94/94 93/93/93
f 82/82/82 83/83/83 95/95/95
f 82/82/82 95/95/95 94/94/94
f 83/83/83 84/84/84 96/96/96
f 83/83/83 96/96/96 95/95/95
f 84/84/84 85/85/85 97/97/97
f 84/84/84 97/97/97 96/96/96
f 85/85/85 86/86/86 98/98/98
f 85/85/85 98/98/98 97/97/97
f 86/86/86 75/75/75 87/87/87
f 86/86/86 87/87/87 98/98/98
f 99/99/99 100/100/100 112/112/112
f 99/99/99 112/112/112 111/111/111
f 100/100/100 101/101/101 113/113/113
f 100/100/100 113/113/113 112/112/112
f 101/101/101 102/102/102 114/114/114
f 101/101/101 114/114/114 113/113/113
f 102/102/102 103/103/103 115/115/115
f 102/102/102 115/115/115 114/114/114
f 103/103/103 104/104/104 116/116/116
f 103/103/103 116/116/116 115/115/115
f 104/104/104 105/105/105 117/117/117
f 104/104/104 117/117/117 116/116/116
f 105/105/105 106/106/106 118/118/118
f 105/105/105 118/118/118 117/117/117
f 106/106/106 107/107/107 119/119/119
f 106/106/106 119/119/119 118/118/118
f 107/107/107 108/108/108 120/120/120
f 107/107/107 120/120/120 119/119/119
f 108/108/108 109/109/109 121/121/121
f 108/108/108 121/121/121 120/120/120
f 109/109/109 110/110/110 122/122/122
f 109/109/109 122/122/122 121/121/121
f 110/110/110 99/99/99 111/111/111
f 110/110/110 111/111/111 122/122/122
f 123/123/123 112/112/112 111/111/111
f 123/123/123 113/113/113 112/112/112
f 123/123/123 114/114/114 113/113/113
f 123/123/123 115/115/115 114/114/114
f 123/123/123 116/116/116 115/115/115
f 123/123/123 117/117/117 116/116/116
f 123/123/123 118/118/118 117/117/117
f 123/123/123 119/119/119 118/118/118
f 123/123/123 120/120/120 119/119/119
f 123/123/123 121/121/121 120/120/120
f 123/123/123 122/122/122 121/121/121
f 123/123/123 111/111/111 122/122/122
f 124/124/124 125/125/125 137/137/137
f 124/124/124 137/137/137 136/136/136
f 125/125/125 126/126/126 138/138/138
f 125/125/125 138/138/138 137/137/137
f 126/126/126 127/127/127 139/139/139
f 126/126/126 139/139/139 138/138/138
f 127/127/127 128/128/128 140/140/140
f 127/127/127 140/140/140 139/139/139
f 128/128/128 129/129/129 141/141/141
f 128/128/128 141/141/141 140/140/140
f 129/129/129 130/130/130 142/142/142
f 129/129/129 142/142/142 141/141/141
f 130/130/130 131/131/131 143/143/143
f 130/130/130 143/143/143 142/142/142
f 131/131/131 132/132/132 144/144/144
f 131/131/131 144/144/144 143/143/143
f 132/132/132 133/133/133 145/145/145
f 132/132/132 145/145/145 144/144/144
f 133/133/133 134/134/134 146/146/146
f 133/133/133 146/146/146 145/145/145
f 134/134/134 135/135/135 147/147/147
f 134/134/134 147/147/147 146/146/146
f 135/135/135 124/124/124 136/136/136
f 135/135/135 136/136/136 147/147/147
f 148/148/148 149/149/149 161/161/161
f 148/148/148 161/161/161 160/160/160
f 149/149/149 150/150/150 162/162/162
f 149/149/149 162/162/162 161/161/161
f 150/150/150 151/151/151 163/163/163
f 150/150/150 163/163/163 162/162/162
f 151/151/151 152/152/152 164/164/164
f 151/151/151 164/164/164 163/163/163
f 152/152/152 153/153/153 165/165/165
f 152/152/152 165/165/165 164/164/164
f 153/153/153 154/154/154 166/166/166
f 153/153/153 166/166/166 165/165/165
f 154/154/154 155/155/155 167/167/167
f 154/154/154 167/167/167 166/166/166
f 155/155/155 156/156/156 168/168/168
f 155/155/155 168/168/168 167/167/167
f 156/156/156 157/157/157 169/169/169
f 156/156/156 169/169/169 168/168/168
f 157/157/157 158/158/158 170/170/170
f 157/157/157 170/170/170 169/169/169
f 158/158/158 159/159/159 171/171/171
f 158/158/158 171/171/171 170/170/170
f 159/159/159 148/148/148 160/160/160
f 159/159/159 160/160/160 171/171/171
f 172/172/172 173/173/173 185/185/185
f 172/172/172 185/185/185 184/184/184
f 173/173/173 174/174/174 186/186/186
f 173/173/173 186/186/186 185/185/185
f 174/174/174 175/175/175 187/187/187
f 174/174/174 187/187/187 186/186/186
f 175/175/175 176/176/176 188/188/188
f 175/175/175 188/188/188 187/187/187
f 176/176/176 177/177/177 189/189/189
f 176/176/176 189/189/189 188/188/188
f 177/177/177 178/178/178 190/190/190
f 177/177/177 190/190/190 189/189/189
f 178/178/178 179/179/179 191/191/191
f 178/178/178 191/191/191 190/190/190
f 179/179/179 180/180/180 192/192/192
f 179/179/179 192/192/192 191/191/191
f 180/180/180 181/181/181 193/193/193
f 180/180/180 193/193/193 192/192/192
f 181/181/181 182/182/182 194/194/194
f 181/181/181 194/194/194 193/193/193
f 182/182/182 183/183/183 195/195/195
f 182/182/182 195/195/195 194/194/194
f 183/183/183 172/172/172 184/184/184
f 183/183/183 184/184/184 195/195/195
f 196/196/196 197/197/197 209/209/209
f 196/196/196 209/209/209 208/208/208
f 197/197/197 198/198/198 210/210/210
f 197/197/197 210/210/210 209/209/209
f 198/198/198 199/199/199 211/211/211
f 198/198/198 211/211/211 210/210/210
f 199/199/199 200/200/200 212/212/212
f 199/199/199 212/212/212 211/211/211
f 200/200/200 201/201/201 213/213/213
f 200/200/200 213/213/213 212/212/212
f 201/201/201 202/202/202 214/214/214
f 201/201/201 214/214/214 213/213/213
f 202/202/202 203/203/203 215/215/215
f 202/202/202 215/215/215 214/214/214
f 203/203/203 204/204/204 216/216/216
f 203/203/203 216/216/216 215/215/215
f 204/204/204 205/205/205 217/217/217
f 204/204/204 217/217/217 216/216/216
f 205/205/205 206/206/206 218/218/218
f 205/205/205 218/218/218 217/217/217
f 206/206/206 207/207/207 219/219/219
f 206/206/206 219/219/219 218/218/218
f 207/207/207 196/196/196 208/208/208
f 207/207/207 208/208/208 219/219/219
f 220/220/220 221/221/221 233/233/233
f 220/220/220 233/233/233 232/232/232
f 221/221/221 222/222/222 234/234/234
f 221/221/221 234/234/234 233/233/233
f 222/222/222 223/223/223 235/235/235
f 222/222/222 235/235/235 234/234/234
f 223/223/223 224/224/224 236/236/236
f 223/223/223 236/236/236 235/235/235
f 224/224/224 225/225/225 237/237/237
f 224/224/224 237/237/237 236/236/236
f 225/225/225 226/226/226 238/238/238
f 225/225/225 238/238/238 237/237/237
f 226/226/226 227/227/227 239/239/239
f 226/226/226 239/239/239 238/238/238
f 227/227/227 228/228/228 240/240/240
f 227/227/227 240/240/240 239/239/239
f 228/228/228 229/229/229 241/241/241
f 228/228/228 241/241/241 240/240/240
f 229/229/229 230/230/230 242/242/242
f 229/229/229 242/242/242 241/241/241
f 230/230/230 231/231/231 243/243/243
f 230/230/230 243/243/243 242/242/242
f 231/231/231 220/220/220 232/232/232
f 231/231/231 232/232/232 243/243/243
g Trim
f 51/51/51 52/52/52 64/64/64
f 51/51/51 64/64/64 63/63/63
f 52/52/52 53/53/53 65/65/65
f 52/52/52 65/65/65 64/64/64
f 53/53/53 54/54/54 66/66/66
f 53/53/53 66/66/66 65/65/65
f 54/54/54 55/55/55 67/67/67
f 54/54/54 67/67/67 66/66/66
f 55/55/55 56/56/56 68/68/68
f 55/55/55 68/68/68 67/67/67
f 56/56/56 57/57/57 69/69/69
f 56/56/56 69/69/69 68/68/68
f 57/57/57 58/58/58 70/70/70
f 57/57/57 70/70/70 69/69/69
f 58/58/58 59/59/59 71/71/71
f 58/58/58 71/71/71 70/70/70
f 59/59/59 60/60/60 72/72/72
f 59/59/59 72/72/72 71/71/71
f 60/60/60 61/61/61 73/73/73
f 60/60/60 73/73/73 72/72/72
f 61/61/61 62/62/62 74/74/74
f 61/61/61 74/74/74 73/73/73
f 62/62/62 51/51/51 63/63/63
f 62/62/62 63/63/63 74/74/74
f 244/244/244 245/245/245 246/246/246
f 244/244/244 246/246/246 247/247/247
f 249/249/249 248/248/248 251/251/251
f 249/249/249 251/251/251 250/250/250
f 248/248/248 244/244/244 247/247/247
f 248/248/248 247/247/247 251/251/251
f 245/245/245 249/249/249 250/250/250
f 245/245/245 250/250/250 246/246/246
f 247/247/247 246/246/246 250/250/250
f 247/247/247 250/250/250 251/251/251
f 248/248/248 249/249/249 245/245/245
f 248/248/248 245/245/245 244/244/244
f 252/252/252 253/253/253 254/254/254
f 252/252/252 254/254/254 255/255/255
f 257/257/257 256/256/256 259/259/259
f 257/257/257 259/259/259 258/258/258
f 256/256/256 252/252/252 255/255/255
f 256/256/256 255/255/255 259/259/259
f 253/253/253 257/257/257 258/258/258
f 253/253/253 258/258/258 254/254/254
f 255/255/255 254/254/254 258/258/258
f 255/255/255 258/258/258 259/259/259
f 256/256/256 257/257/257 253/253/253
f 256/256/256 253/253/253 252/252/252
g Arch
f 260/260/260 278/278/278 279/279/279
f 260/260/260 279/279/279 261/261/261
f 261/261/261 279/279/279 280/280/280
f 261/261/261 280/280/280 262/262/262
f 262/262/262 280/280/280 281/281/281
f 262/262/262 281/281/281 263/263/263
f 263/263/263 281/281/281 282/282/282
f 263/263/263 282/282/282 264/264/264
f 264/264/264 282/282/282 283/283/283
f 264/264/264 283/283/283 265/265/265
f 265/265/265 283/283/283 284/284/284
f 265/265/265 284/284/284 266/266/266
f 266/266/266 284/284/284 285/285/285
f 266/266/266 285/285/285 267/267/267
f 267/267/267 285/285/285 286/286/286
f 267/267/267 286/286/286 268/268/268
f 268/268/268 286/286/286 287/287/287
f 268/268/268 287/287/287 269/269/269
f 269/269/269 287/287/287 288/288/288
f 269/269/269 288/288/288 270/270/270
f 270/270/270 288/288/288 289/289/289
f 270/270/270 289/289/289 271/271/271
f 271/271/271 289/289/289 290/290/290
f 271/271/271 290/290/290 272/272/272
f 272/272/272 290/290/290 291/291/291
f 272/272/272 291/291/291 273/273/273
f 273/273/273 291/291/291 292/292/292
f 273/273/273 292/292/292 274/274/274
f 274/274/274 292/292/292 293/293/293
f 274/274/274 293/293/293 275/275/275
f 275/275/275 293/293/293 294/294/294
f 275/275/275 294/294/294 276/276/276
f 276/276/276 294/294/294 295/295/295
f 276/276/276 295/295/295 277/277/277
f 278/278/278 296/296/296 297/297/297
f 278/278/278 297/297/297 279/279/279
f 279/279/279 297/297/297 298/298/298
f 279/279/279 298/298/298 280/280/280
f 280/280/280 298/298/298 299/299/299
f 280/280/280 299/299/299 281/281/281
f 281/281/281 299/299/299 300/300/300
f 281/281/281 300/300/300 282/282/282
f 282/282/282 300/300/300 301/301/301
f 282/282/282 301/301/301 283/283/283
f 283/283/283 301/301/301 302/302/302
f 283/283/283 302/302/302 284/284/284
f 284/284/284 302/302/302 303/303/303
f 284/284/284 303/303/303 285/285/285
f 285/285/285 303/303/303 304/304/304
f 285/285/285 304/304/304 286/286/286
f 286/286/286 304/304/304 305/305/305
f 286/286/286 305/305/305 287/287/287
f 287/287/287 305/305/305 306/306/306
f 287/287/287 306/306/306 288/288/288
f 288/288/288 306/306/306 307/307/307
f 288/288/288 307/307/307 289/289/289
f 289/289/289 307/307/307 308/308/308
f 289/289/289 308/308/308 290/290/290
f 290/290/290 308/308/308 309/309/309
f 290/290/290 309/309/309 291/291/291
f 291/291/291 309/309/309 310/310/310
f 291/291/291 310/310/310 292/292/292
f 292/292/292 310/310/310 311/311/311
f 292/292/292 311/311/311 293/293/293
f 293/293/293 311/311/311 312/312/312
f 293/293/293 312/312/312 294/294/294
f 294/294/294 312/312/312 313/313/313
f 294/294/294 313/313/313 295/295/295
f 260/260/260 261/261/261 296/296/296
f 260/260/260 296/296/296 278/278/278
f 261/261/261 262/262/262 297/297/297
f 261/261/261 297/297/297 296/296/296
f 262/262/262 263/263/263 298/298/298
f 262/262/262 298/298/298 297/297/297
f 263/263/263 264/264/264 299/299/299
f 263/263/263 299/299/299 298/298/298
f 264/264/264 265/265/265 300/300/300
f 264/264/264 300/300/300 299/299/299
f 265/265/265 266/266/266 301/301/301
f 265/265/265 301/301/301 300/300/300
f 266/266/266 267/267/267 302/302/302
f 266/266/266 302/302/302 301/301/301
f 267/267/267 268/268/268 303/303/303
f 267/267/267 303/303/303 302/302/302
f 268/268/268 269/269/269 304/304/304
f 268/268/268 304/304/304 303/303/303
f 269/269/269 270/270/270 305/305/305
f 269/269/269 305/305/305 304/304/304
f 270/270/270 271/271/271 306/306/306
f 270/270/270 306/306/306 305/305/305
f 271/271/271 272/272/272 307/307/307
f 271/271/271 307/307/307 306/306/306
f 272/272/272 273/273/273 308/308/308
f 272/272/272 308/308/308 307/307/307
f 273/273/273 274/274/274 309/309/309
f 273/273/273 309/309/309 308/308/308
f 274/274/274 275/275/275 310/310/310
f 274/274/274 310/310/310 309/309/309
f 275/275/275 276/276/276 311/311/311
f 275/275/275 311/311/311 310/310/310
f 276/276/276 277/277/277 312/312/312
f 276/276/276 312/312/312 311/311/311
f 278/278/278 279/279/279 297/297/297
f 278/278/278 297/297/297 296/296/296
f 279/279/279 280/280/280 298/298/298
f 279/279/279 298/298/298 297/297/297
f 280/280/280 281/281/281 299/299/299
f 280/280/280 299/299/299 298/298/298
f 281/281/281 282/282/282 300/300/300
f 281/281/281 300/300/300 299/299/299
f 282/282/282 283/283/283 301/301/301
f 282/282/282 301/301/301 300/300/300
f 283/283/283 284/284/284 302/302/302
f 283/283/283 302/302/302 301/301/301
f 284/284/284 285/285/285 303/303/303
f 284/284/284 303/303/303 302/302/302
f 285/285/285 286/286/286 304/304/304
f 285/285/285 304/304/304 303/303/303
f 286/286/286 287/287/287 305/305/305
f 286/286/286 305/305/305 304/304/304
f 287/287/287 288/288/288 306/306/306
f 287/287/287 306/306/306 305/305/305
f 288/288/288 289/289/289 307/307/307
f 288/288/288 307/307/307 306/306/306
f 289/289/289 290/290/290 308/308/308
f 289/289/289 308/308/308 307/307/307
f 290/290/290 291/291/291 309/309/309
f 290/290/290 309/309/309 308/308/308
f 291/291/291 292/292/292 310/310/310
f 291/291/291 310/310/310 309/309/309
f 292/292/292 293/293/293 311/311/311
f 292/292/292 311/311/311 310/310/310
f 293/293/293 294/294/294 312/312/312
f 293/293/293 312/312/312 311/311/311
f 294/294/294 295/295/295 313/313/313
f 294/294/294 313/313/313 312/312/312
f 295/295/295 277/277/277 260/260/260
f 295/295/295 260/260/260 313/313/313
f 296/296/296 297/297/297 279/279/279
f 296/296/296 279/279/279 278/278/278
f 297/297/297 298/298/298 280/280/280
f 297/297/297 280/280/280 279/279/279
f 298/298/298 299/299/299 281/281/281
f 298/298/298 281/281/281 280/280/280
f 299/299/299 300/300/300 282/282/282
f 299/299/299 282/282/282 281/281/281
f 300/300/300 301/301/301 283/283/283
f 300/300/300 283/283/283 282/282/282
f 301/301/301 302/302/302 284/284/284
f 301/301/301 284/284/284 283/283/283
f 302/302/302 303/303/303 285/285/285
f 302/302/302 285/285/285 284/284/284
f 303/303/303 304/304/304 286/286/286
f 303/303/303 286/286/286 285/285/285
f 304/304/304 305/305/305 287/287/287
f 304/304/304 287/287/287 286/286/286
f 305/305/305 306/306/306 288/288/288
f 305/305/305 288/288/288 287/287/287
f 306/306/306 307/307/307 289/289/289
f 306/306/306 289/289/289 288/288/288
f 307/307/307 308/308/308 290/290/290
f 307/307/307 290/290/290 289/289/289
f 308/308/308 309/309/309 291/291/291
f 308/308/308 291/291/291 290/290/290
f 309/309/309 310/310/310 292/292/292
f 309/309/309 292/292/292 291/291/291
f 310/310/310 311/311/311 293/293/293
f 310/310/310 293/293/293 292/292/292
f 311/311/311 312/312/312 294/294/294
f 311/311/311 294/294/294 293/293/293
f 312/312/312 313/313/313 295/295/295
f 312/312/312 295/295/295 294/294/294
f 313/313/313 260/260/260 277/277/277
f 313/313/313 277/277/277 295/295/295
g Dome
f 314/314/314 315/315/315 331/331/331
f 314/314/314 331/331/331 330/330/330
f 315/315/315 316/316/316 332/332/332
f 315/315/315 332/332/332 331/331/331
f 316/316/316 317/317/317 333/333/333
f 316/316/316 333/333/333 332/332/332
f 317/317/317 318/318/318 334/334/334
f 317/317/317 334/334/334 333/333/333
f 318/318/318 319/319/319 335/335/335
f 318/318/318 335/335/335 334/334/334
f 319/319/319 320/320/320 336/336/336
f 319/319/319 336/336/336 335/335/335
f 320/320/320 321/321/321 337/337/337
f 320/320/320 337/337/337 336/336/336
f 321/321/321 322/322/322 338/338/338
f 321/321/321 338/338/338 337/337/337
f 322/322/322 323/323/323 339/339/339
f 322/322/322 339/339/339 338/338/338
f 323/323/323 324/324/324 340/340/340
f 323/323/323 340/340/340 339/339/339
f 324/324/324 325/325/325 341/341/341
f 324/324/324 341/341/341 340/340/340
f 325/325/325 326/326/326 342/342/342
f 325/325/325 342/342/342 341/341/341
f 326/326/326 327/327/327 343/343/343
f 326/326/326 343/343/343 342/342/342
f 327/327/327 328/328/328 344/344/344
f 327/327/327 344/344/344 343/343/343
f 328/328/328 329/329/329 345/345/345
f 328/328/328 345/345/345 344/344/344
f 329/329/329 314/314/314 330/330/330
f 329/329/329 330/330/330 345/345/345
f 330/330/330 331/331/331 347/347/347
f 330/330/330 347/347/347 346/346/346
f 331/331/331 332/332/332 348/348/348
f 331/331/331 348/348/348 347/347/347
f 332/332/332 333/333/333 349/349/349
f 332/332/332 349/349/349 348/348/348
f 333/333/333 334/334/334 350/350/350
f 333/333/333 350/350/350 349/349/349
f 334/334/334 335/335/335 351/351/351
f 334/334/334 351/351/351 350/350/350
f 335/335/335 336/336/336 352/352/352
f 335/335/335 352/352/352 351/351/351
f 336/336/336 337/337/337 353/353/353
f 336/336/336 353/353/353 352/352/352
f 337/337/337 338/338/338 354/354/354
f 337/337/337 354/354/354 353/353/353
f 338/338/338 339/339/339 355/355/355
f 338/338/338 355/355/355 354/354/354
f 339/339/339 340/340/340 356/356/356
f 339/339/339 356/356/356 355/355/355
f 340/340/340 341/341/341 357/357/357
f 340/340/340 357/357/357 356/356/356
f 341/341/341 342/342/342 358/358/358
f 341/341/341 358/358/358 357/357/357
f 342/342/342 343/343/343 359/359/359
f 342/342/342 359/359/359 358/358/358
f 343/343/343 344/344/344 360/360/360
f 343/343/343 360/360/360 359/359/359
f 344/344/344 345/345/345 361/361/361
f 344/344/344 361/361/361 360/360/360
f 345/345/345 330/330/330 346/346/346
f 345/345/345 346/346/346 361/361/361
f 346/346/346 347/347/347 363/363/363
f 346/346/346 363/363/363 362/362/362
f 347/347/347 348/348/348 364/364/364
f 347/347/347 364/364/364 363/363/363
f 348/348/348 349/349/349 365/365/365
f 348/348/348 365/365/365 364/364/364
f 349/349/349 350/350/350 366/366/366
f 349/349/349 366/366/366 365/365/365
f 350/350/350 351/351/351 367/367/367
f 350/350/350 367/367/367 366/366/366
f 351/351/351 352/352/352 368/368/368
f 351/351/351 368/368/368 367/367/367
f 352/352/352 353/353/353 369/369/369
f 352/352/352 369/369/369 368/368/368
f 353/353/353 354/354/354 370/370/370
f 353/353/353 370/370/370 369/369/369
f 354/354/354 355/355/355 371/371/371
f 354/354/354 371/371/371 370/370/370
f 355/355/355 356/356/356 372/372/372
f 355/355/355 372/372/372 371/371/371
f 356/356/356 357/357/357 373/373/373
f 356/356/356 373/373/373 372/372/372
f 357/357/357 358/358/358 374/374/374
f 357/357/357 374/374/374 373/373/373
f 358/358/358 359/359/359 375/375/375
f 358/358/358 375/375/375 374/374/374
f 359/359/359 360/360/360 376/376/376
f 359/359/359 376/376/376 375/375/375
f 360/360/360 361/361/361 377/377/377
f 360/360/360 377/377/377 376/376/376
f 361/361/361 346/346/346 362/362/362
f 361/361/361 362/362/362 377/377/377
f 362/362/362 363/363/363 379/379/379
f 362/362/362 379/379/379 378/378/378
f 363/363/363 364/364/364 380/380/380
f 363/363/363 380/380/380 379/379/379
f 364/364/364 365/365/365 381/381/381
f 364/364/364 381/381/381 380/380/380
f 365/365/365 366/366/366 382/382/382
f 365/365/365 382/382/382 381/381/381
f 366/366/366 367/367/367 383/383/383
f 366/366/366 383/383/383 382/382/382
f 367/367/367 368/368/368 384/384/384
f 367/367/367 384/384/384 383/383/383
f 368/368/368 369/369/369 385/385/385
f 368/368/368 385/385/385 384/384/384
f 369/369/369 370/370/370 386/386/386
f 369/369/369 386/386/386 385/385/385
f 370/370/370 371/371/371 387/387/387
f 370/370/370 387/387/387 386/386/386
f 371/371/371 372/372/372 388/388/388
f 371/371/371 388/388/388 387/387/387
f 372/372/372 373/373/373 389/389/389
f 372/372/372 389/389/389 388/388/388
f 373/373/373 374/374/374 390/390/390
f 373/373/373 390/390/390 389/389/389
f 374/374/374 375/375/375 391/391/391
f 374/374/374 391/391/391 390/390/390
f 375/375/375 376/376/376 392/392/392
f 375/375/375 392/392/392 391/391/391
f 376/376/376 377/377/377 393/393/393
f 376/376/376 393/393/393 392/392/392
f 377/377/377 362/362/362 378/378/378
f 377/377/377 378/378/378 393/393/393
f 378/378/378 379/379/379 395/395/395
f 378/378/378 395/395/395 394/394/394
f 379/379/379 380/380/380 396/396/396
f 379/379/379 396/396/396 395/395/395
f 380/380/380 381/381/381 397/397/397
f 380/380/380 397/397/397 396/396/396
f 381/381/381 382/382/382 398/398/398
f 381/381/381 398/398/398 397/397/397
f 382/382/382 383/383/383 399/399/399
f 382/382/382 399/399/399 398/398/398
f 383/383/383 384/384/384 400/400/400
f 383/383/383 400/400/400 399/399/399
f 384/384/384 385/385/385 401/401/401
f 384/384/384 401/401/401 400/400/400
f 385/385/385 386/386/386 402/402/402
f 385/385/385 402/402/402 401/401/401
f 386/386/386 387/387/387 403/403/403
f 386/386/386 403/403/403 402/402/402
f 387/387/387 388/388/388 404/404/404
f 387/387/387 404/404/404 403/403/403
f 388/388/388 389/389/389 405/405/405
f 388/388/388 405/405/405 404/404/404
f 389/389/389 390/390/390 406/406/406
f 389/389/389 406/406/406 405/405/405
f 390/390/390 391/391/391 407/407/407
f 390/390/390 407/407/407 406/406/406
f 391/391/391 392/392/392 408/408/408
f 391/391/391 408/408/408 407/407/407
f 392/392/392 393/393/393 409/409/409
f 392/392/392 409/409/409 408/408/408
f 393/393/393 378/378/378 394/394/394
f 393/393/393 394/394/394 409/409/409
f 394/394/394 395/395/395 410/410/410
f 395/395/395 396/396/396 410/410/410
f 396/396/396 397/397/397 410/410/410
f 397/397/397 398/398/398 410/410/410
f 398/398/398 399/399/399 410/410/410
f 399/399/399 400/400/400 410/410/410
f 400/400/400 401/401/401 410/410/410
f 401/401/401 402/402/402 410/410/410
f 402/402/402 403/403/403 410/410/410
f 403/403/403 404/404/404 410/410/410
f 404/404/404 405/405/405 410/410/410
f 405/405/405 406/406/406 410/410/410
f 406/406/406 407/407/407 410/410/410
f 407/407/407 408/408/408 410/410/410
f 408/408/408 409/409/409 410/410/410
f 409/409/409 394/394/394 410/410/410
g Spire
f 411/411/411 412/412/412 422/422/422
f 411/411/411 422/422/422 421/421/421
f 412/412/412 413/413/413 423/423/423
f 412/412/412 423/423/423 422/422/422
f 413/413/413 414/414/414 424/424/424
f 413/413/413 424/424/424 423/423/423
f 414/414/414 415/415/415 425/425/425
f 414/414/414 425/425/425 424/424/424
f 415/415/415 416/416/416 426/426/426
f 415/415/415 426/426/426 425/425/425
f 416/416/416 417/417/417 427/427/427
f 416/416/416 427/427/427 426/426/426
f 417/417/417 418/418/418 428/428/428
f 417/417/417 428/428/428 427/427/427
f 418/418/418 419/419/419 429/429/429
f 418/418/418 429/429/429 428/428/428
f 419/419/419 420/420/420 430/430/430
f 419/419/419 430/430/430 429/429/429
f 420/420/420 411/411/411 421/421/421
f 420/420/420 421/421/421 430/430/430
f 431/431/431 432/432/432 442/442/442
f 431/431/431 442/442/442 441/441/441
f 432/432/432 433/433/433 443/443/443
f 432/432/432 443/443/443 442/442/442
f 433/433/433 434/434/434 444/444/444
f 433/433/433 444/444/444 443/443/443
f 434/434/434 435/435/435 445/445/445
f 434/434/434 445/445/445 444/444/444
f 435/435/435 436/436/436 446/446/446
f 435/435/435 446/446/446 445/445/445
f 436/436/436 437/437/437 447/447/447
f 436/436/436 447/447/447 446/446/446
f 437/437/437 438/438/438 448/448/448
f 437/437/437 448/448/448 447/447/447
f 438/438/438 439/439/439 449/449/449
f 438/438/438 449/449/449 448/448/448
f 439/439/439 440/440/440 450/450/450
f 439/439/439 450/450/450 449/449/449
f 440/440/440 431/431/431 441/441/441
f 440/440/440 441/441/441 450/450/450
f 451/451/451 452/452/452 453/453/453
f 451/451/451 453/453/453 454/454/454
f 456/456/456 455/455/455 458/458/458
f 456/456/456 458/458/458 457/457/457
f 455/455/455 451/451/451 454/454/454
f 455/455/455 454/454/454 458/458/458
f 452/452/452 456/456/456 457/457/457
f 452/452/452 457/457/457 453/453/453
f 454/454/454 453/453/453 457/457/457
f 454/454/454 457/457/457 458/458/458
f 455/455/455 456/456/456 452/452/452
f 455/455/455 452/452/452 451/451/451
f 459/459/459 460/460/460 461/461/461
f 459/459/459 461/461/461 462/462/462
f 464/464/464 463/463/463 466/466/466
f 464/464/464 466/466/466 465/465/465
f 463/463/463 459/459/459 462/462/462
f 463/463/463 462/462/462 466/466/466
f 460/460/460 464/464/464 465/465/465
f 460/460/460 465/465/465 461/461/461
f 462/462/462 461/461/461 465/465/465
f 462/462/462 465/465/465 466/466/466
f 463/463/463 464/464/464 460/460/460
f 463/463/463 460/460/460 459/459/459
