# UART-006 topology-preserving candidate surface authoring
mtllib SM_Landmark_BridgeGantry_A.mtl
# 3Fareet authored landmark source candidate
o SM_Landmark_BridgeGantry_A
s 1
v -8.00000 0.00000 -0.90000
v -6.00000 0.00000 -0.90000
v -6.00000 2.40000 -0.90000
v -8.00000 2.40000 -0.90000
v -8.00000 0.00000 0.90000
v -6.00000 0.00000 0.90000
v -6.00000 2.40000 0.90000
v -8.00000 2.40000 0.90000
v -7.77500 2.40000 -0.75000
v -6.22500 2.40000 -0.75000
v -6.22500 4.80000 -0.75000
v -7.77500 4.80000 -0.75000
v -7.77500 2.40000 0.75000
v -6.22500 2.40000 0.75000
v -6.22500 4.80000 0.75000
v -7.77500 4.80000 0.75000
v -7.59000 4.80000 -0.59000
v -6.41000 4.80000 -0.59000
v -6.41000 6.60000 -0.59000
v -7.59000 6.60000 -0.59000
v -7.59000 4.80000 0.59000
v -6.41000 4.80000 0.59000
v -6.41000 6.60000 0.59000
v -7.59000 6.60000 0.59000
v -6.12000 6.60000 0.00000
v -6.37770 6.60000 0.62225
v -7.00000 6.60000 0.88000
v -7.62225 6.60000 0.62225
v -7.88000 6.60000 0.00000
v -7.62225 6.60000 -0.62225
v -7.00000 6.60000 -0.88000
v -6.37770 6.60000 -0.62225
v -6.12000 7.45000 0.00000
v -6.37770 7.45000 0.62225
v -7.00000 7.45000 0.88000
v -7.62225 7.45000 0.62225
v -7.88000 7.45000 0.00000
v -7.62225 7.45000 -0.62225
v -7.00000 7.45000 -0.88000
v -6.37770 7.45000 -0.62225
v -6.76000 7.45000 0.00000
v -6.83029 7.45000 0.16971
v -7.00000 7.45000 0.24000
v -7.16971 7.45000 0.16971
v -7.24000 7.45000 0.00000
v -7.16971 7.45000 -0.16971
v -7.00000 7.45000 -0.24000
v -6.83029 7.45000 -0.16971
v -6.76000 8.70000 0.00000
v -6.83029 8.70000 0.16971
v -7.00000 8.70000 0.24000
v -7.16971 8.70000 0.16971
v -7.24000 8.70000 0.00000
v -7.16971 8.70000 -0.16971
v -7.00000 8.70000 -0.24000
v -6.83029 8.70000 -0.16971
v -5.99000 2.25000 -0.50000
v -5.81000 2.25000 -0.50000
v -5.81000 5.95000 -0.50000
v -5.99000 5.95000 -0.50000
v -5.99000 2.25000 0.50000
v -5.81000 2.25000 0.50000
v -5.81000 5.95000 0.50000
v -5.99000 5.95000 0.50000
v 6.00000 0.00000 -0.90000
v 8.00000 0.00000 -0.90000
v 8.00000 2.40000 -0.90000
v 6.00000 2.40000 -0.90000
v 6.00000 0.00000 0.90000
v 8.00000 0.00000 0.90000
v 8.00000 2.40000 0.90000
v 6.00000 2.40000 0.90000
v 6.22500 2.40000 -0.75000
v 7.77500 2.40000 -0.75000
v 7.77500 4.80000 -0.75000
v 6.22500 4.80000 -0.75000
v 6.22500 2.40000 0.75000
v 7.77500 2.40000 0.75000
v 7.77500 4.80000 0.75000
v 6.22500 4.80000 0.75000
v 6.41000 4.80000 -0.59000
v 7.59000 4.80000 -0.59000
v 7.59000 6.60000 -0.59000
v 6.41000 6.60000 -0.59000
v 6.41000 4.80000 0.59000
v 7.59000 4.80000 0.59000
v 7.59000 6.60000 0.59000
v 6.41000 6.60000 0.59000
v 7.88000 6.60000 0.00000
v 7.62225 6.60000 0.62225
v 7.00000 6.60000 0.88000
v 6.37770 6.60000 0.62225
v 6.12000 6.60000 0.00000
v 6.37770 6.60000 -0.62225
v 7.00000 6.60000 -0.88000
v 7.62225 6.60000 -0.62225
v 7.88000 7.45000 0.00000
v 7.62225 7.45000 0.62225
v 7.00000 7.45000 0.88000
v 6.37770 7.45000 0.62225
v 6.12000 7.45000 0.00000
v 6.37770 7.45000 -0.62225
v 7.00000 7.45000 -0.88000
v 7.62225 7.45000 -0.62225
v 7.24000 7.45000 0.00000
v 7.16971 7.45000 0.16971
v 7.00000 7.45000 0.24000
v 6.83029 7.45000 0.16971
v 6.76000 7.45000 0.00000
v 6.83029 7.45000 -0.16971
v 7.00000 7.45000 -0.24000
v 7.16971 7.45000 -0.16971
v 7.24000 8.70000 0.00000
v 7.16971 8.70000 0.16971
v 7.00000 8.70000 0.24000
v 6.83029 8.70000 0.16971
v 6.76000 8.70000 0.00000
v 6.83029 8.70000 -0.16971
v 7.00000 8.70000 -0.24000
v 7.16971 8.70000 -0.16971
v 5.81000 2.25000 -0.50000
v 5.99000 2.25000 -0.50000
v 5.99000 5.95000 -0.50000
v 5.81000 5.95000 -0.50000
v 5.81000 2.25000 0.50000
v 5.99000 2.25000 0.50000
v 5.99000 5.95000 0.50000
v 5.81000 5.95000 0.50000
v -6.10000 5.87500 -0.62500
v 6.10000 5.87500 -0.62500
v 6.10000 6.62500 -0.62500
v -6.10000 6.62500 -0.62500
v -6.10000 5.87500 0.62500
v 6.10000 5.87500 0.62500
v 6.10000 6.62500 0.62500
v -6.10000 6.62500 0.62500
v -5.75000 7.26000 -0.25000
v 5.75000 7.26000 -0.25000
v 5.75000 7.44000 -0.25000
v -5.75000 7.44000 -0.25000
v -5.75000 7.26000 0.25000
v 5.75000 7.26000 0.25000
v 5.75000 7.44000 0.25000
v -5.75000 7.44000 0.25000
v -4.58000 6.10000 -0.27500
v -4.42000 6.10000 -0.27500
v -4.42000 7.50000 -0.27500
v -4.58000 7.50000 -0.27500
v -4.58000 6.10000 0.27500
v -4.42000 6.10000 0.27500
v -4.42000 7.50000 0.27500
v -4.58000 7.50000 0.27500
v -2.33000 6.10000 -0.27500
v -2.17000 6.10000 -0.27500
v -2.17000 7.50000 -0.27500
v -2.33000 7.50000 -0.27500
v -2.33000 6.10000 0.27500
v -2.17000 6.10000 0.27500
v -2.17000 7.50000 0.27500
v -2.33000 7.50000 0.27500
v -0.08000 6.10000 -0.27500
v 0.08000 6.10000 -0.27500
v 0.08000 7.50000 -0.27500
v -0.08000 7.50000 -0.27500
v -0.08000 6.10000 0.27500
v 0.08000 6.10000 0.27500
v 0.08000 7.50000 0.27500
v -0.08000 7.50000 0.27500
v 2.17000 6.10000 -0.27500
v 2.33000 6.10000 -0.27500
v 2.33000 7.50000 -0.27500
v 2.17000 7.50000 -0.27500
v 2.17000 6.10000 0.27500
v 2.33000 6.10000 0.27500
v 2.33000 7.50000 0.27500
v 2.17000 7.50000 0.27500
v 4.42000 6.10000 -0.27500
v 4.58000 6.10000 -0.27500
v 4.58000 7.50000 -0.27500
v 4.42000 7.50000 -0.27500
v 4.42000 6.10000 0.27500
v 4.58000 6.10000 0.27500
v 4.58000 7.50000 0.27500
v 4.42000 7.50000 0.27500
v -5.50000 7.49000 -0.07500
v 5.50000 7.49000 -0.07500
v 5.50000 7.61000 -0.07500
v -5.50000 7.61000 -0.07500
v -5.50000 7.49000 0.07500
v 5.50000 7.49000 0.07500
v 5.50000 7.61000 0.07500
v -5.50000 7.61000 0.07500
v -5.50000 5.69000 -0.07500
v 5.50000 5.69000 -0.07500
v 5.50000 5.81000 -0.07500
v -5.50000 5.81000 -0.07500
v -5.50000 5.69000 0.07500
v 5.50000 5.69000 0.07500
v 5.50000 5.81000 0.07500
v -5.50000 5.81000 0.07500
v 0.72000 7.90000 0.00000
v 0.62354 7.90000 0.36000
v 0.36000 7.90000 0.62354
v 0.00000 7.90000 0.72000
v -0.36000 7.90000 0.62354
v -0.62354 7.90000 0.36000
v -0.72000 7.90000 0.00000
v -0.62354 7.90000 -0.36000
v -0.36000 7.90000 -0.62354
v -0.00000 7.90000 -0.72000
v 0.36000 7.90000 -0.62354
v 0.62354 7.90000 -0.36000
v 0.72000 8.12000 0.00000
v 0.62354 8.12000 0.36000
v 0.36000 8.12000 0.62354
v 0.00000 8.12000 0.72000
v -0.36000 8.12000 0.62354
v -0.62354 8.12000 0.36000
v -0.72000 8.12000 0.00000
v -0.62354 8.12000 -0.36000
v -0.36000 8.12000 -0.62354
v -0.00000 8.12000 -0.72000
v 0.36000 8.12000 -0.62354
v 0.62354 8.12000 -0.36000
v -1.80000 7.93000 -0.16000
v -0.50000 7.93000 -0.16000
v -0.50000 8.07000 -0.16000
v -1.80000 8.07000 -0.16000
v -1.80000 7.93000 0.16000
v -0.50000 7.93000 0.16000
v -0.50000 8.07000 0.16000
v -1.80000 8.07000 0.16000
v 0.50000 7.93000 -0.16000
v 1.80000 7.93000 -0.16000
v 1.80000 8.07000 -0.16000
v 0.50000 8.07000 -0.16000
v 0.50000 7.93000 0.16000
v 1.80000 7.93000 0.16000
v 1.80000 8.07000 0.16000
v 0.50000 8.07000 0.16000
v -0.08000 8.10000 -0.14000
v 0.08000 8.10000 -0.14000
v 0.08000 9.30000 -0.14000
v -0.08000 9.30000 -0.14000
v -0.08000 8.10000 0.14000
v 0.08000 8.10000 0.14000
v 0.08000 9.30000 0.14000
v -0.08000 9.30000 0.14000
g Stone
vt 0.000000 0.000000
vt 0.125000 0.000000
vt 0.125000 0.258065
vt 0.000000 0.258065
vt 0.000000 0.000000
vt 0.125000 0.000000
vt 0.125000 0.258065
vt 0.000000 0.258065
vt 0.014062 0.258065
vt 0.110938 0.258065
vt 0.110938 0.516129
vt 0.014062 0.516129
vt 0.014062 0.258065
vt 0.110938 0.258065
vt 0.110938 0.516129
vt 0.014062 0.516129
vt 0.025625 0.516129
vt 0.099375 0.516129
vt 0.099375 0.709677
vt 0.025625 0.709677
vt 0.025625 0.516129
vt 0.099375 0.516129
vt 0.099375 0.709677
vt 0.025625 0.709677
vt 0.117500 0.709677
vt 0.101394 0.709677
vt 0.062500 0.709677
vt 0.023609 0.709677
vt 0.007500 0.709677
vt 0.023609 0.709677
vt 0.062500 0.709677
vt 0.101394 0.709677
vt 0.117500 0.801075
vt 0.101394 0.801075
vt 0.062500 0.801075
vt 0.023609 0.801075
vt 0.007500 0.801075
vt 0.023609 0.801075
vt 0.062500 0.801075
vt 0.101394 0.801075
vt 0.077500 0.801075
vt 0.073107 0.801075
vt 0.062500 0.801075
vt 0.051893 0.801075
vt 0.047500 0.801075
vt 0.051893 0.801075
vt 0.062500 0.801075
vt 0.073107 0.801075
vt 0.077500 0.935484
vt 0.073107 0.935484
vt 0.062500 0.935484
vt 0.051893 0.935484
vt 0.047500 0.935484
vt 0.051893 0.935484
vt 0.062500 0.935484
vt 0.073107 0.935484
vt 0.125625 0.241935
vt 0.136875 0.241935
vt 0.136875 0.639785
vt 0.125625 0.639785
vt 0.125625 0.241935
vt 0.136875 0.241935
vt 0.136875 0.639785
vt 0.125625 0.639785
vt 0.875000 0.000000
vt 1.000000 0.000000
vt 1.000000 0.258065
vt 0.875000 0.258065
vt 0.875000 0.000000
vt 1.000000 0.000000
vt 1.000000 0.258065
vt 0.875000 0.258065
vt 0.889062 0.258065
vt 0.985938 0.258065
vt 0.985938 0.516129
vt 0.889062 0.516129
vt 0.889062 0.258065
vt 0.985938 0.258065
vt 0.985938 0.516129
vt 0.889062 0.516129
vt 0.900625 0.516129
vt 0.974375 0.516129
vt 0.974375 0.709677
vt 0.900625 0.709677
vt 0.900625 0.516129
vt 0.974375 0.516129
vt 0.974375 0.709677
vt 0.900625 0.709677
vt 0.992500 0.709677
vt 0.976391 0.709677
vt 0.937500 0.709677
vt 0.898606 0.709677
vt 0.882500 0.709677
vt 0.898606 0.709677
vt 0.937500 0.709677
vt 0.976391 0.709677
vt 0.992500 0.801075
vt 0.976391 0.801075
vt 0.937500 0.801075
vt 0.898606 0.801075
vt 0.882500 0.801075
vt 0.898606 0.801075
vt 0.937500 0.801075
vt 0.976391 0.801075
vt 0.952500 0.801075
vt 0.948107 0.801075
vt 0.937500 0.801075
vt 0.926893 0.801075
vt 0.922500 0.801075
vt 0.926893 0.801075
vt 0.937500 0.801075
vt 0.948107 0.801075
vt 0.952500 0.935484
vt 0.948107 0.935484
vt 0.937500 0.935484
vt 0.926893 0.935484
vt 0.922500 0.935484
vt 0.926893 0.935484
vt 0.937500 0.935484
vt 0.948107 0.935484
vt 0.863125 0.241935
vt 0.874375 0.241935
vt 0.874375 0.639785
vt 0.863125 0.639785
vt 0.863125 0.241935
vt 0.874375 0.241935
vt 0.874375 0.639785
vt 0.863125 0.639785
vt 0.118750 0.631720
vt 0.881250 0.631720
vt 0.881250 0.712366
vt 0.118750 0.712366
vt 0.118750 0.631720
vt 0.881250 0.631720
vt 0.881250 0.712366
vt 0.118750 0.712366
vt 0.140625 0.780645
vt 0.859375 0.780645
vt 0.859375 0.800000
vt 0.140625 0.800000
vt 0.140625 0.780645
vt 0.859375 0.780645
vt 0.859375 0.800000
vt 0.140625 0.800000
vt 0.213750 0.655914
vt 0.223750 0.655914
vt 0.223750 0.806452
vt 0.213750 0.806452
vt 0.213750 0.655914
vt 0.223750 0.655914
vt 0.223750 0.806452
vt 0.213750 0.806452
vt 0.354375 0.655914
vt 0.364375 0.655914
vt 0.364375 0.806452
vt 0.354375 0.806452
vt 0.354375 0.655914
vt 0.364375 0.655914
vt 0.364375 0.806452
vt 0.354375 0.806452
vt 0.495000 0.655914
vt 0.505000 0.655914
vt 0.505000 0.806452
vt 0.495000 0.806452
vt 0.495000 0.655914
vt 0.505000 0.655914
vt 0.505000 0.806452
vt 0.495000 0.806452
vt 0.635625 0.655914
vt 0.645625 0.655914
vt 0.645625 0.806452
vt 0.635625 0.806452
vt 0.635625 0.655914
vt 0.645625 0.655914
vt 0.645625 0.806452
vt 0.635625 0.806452
vt 0.776250 0.655914
vt 0.786250 0.655914
vt 0.786250 0.806452
vt 0.776250 0.806452
vt 0.776250 0.655914
vt 0.786250 0.655914
vt 0.786250 0.806452
vt 0.776250 0.806452
vt 0.156250 0.805376
vt 0.843750 0.805376
vt 0.843750 0.818280
vt 0.156250 0.818280
vt 0.156250 0.805376
vt 0.843750 0.805376
vt 0.843750 0.818280
vt 0.156250 0.818280
vt 0.156250 0.611828
vt 0.843750 0.611828
vt 0.843750 0.624731
vt 0.156250 0.624731
vt 0.156250 0.611828
vt 0.843750 0.611828
vt 0.843750 0.624731
vt 0.156250 0.624731
vt 0.545000 0.849462
vt 0.538971 0.849462
vt 0.522500 0.849462
vt 0.500000 0.849462
vt 0.477500 0.849462
vt 0.461029 0.849462
vt 0.455000 0.849462
vt 0.461029 0.849462
vt 0.477500 0.849462
vt 0.500000 0.849462
vt 0.522500 0.849462
vt 0.538971 0.849462
vt 0.545000 0.873118
vt 0.538971 0.873118
vt 0.522500 0.873118
vt 0.500000 0.873118
vt 0.477500 0.873118
vt 0.461029 0.873118
vt 0.455000 0.873118
vt 0.461029 0.873118
vt 0.477500 0.873118
vt 0.500000 0.873118
vt 0.522500 0.873118
vt 0.538971 0.873118
vt 0.387500 0.852688
vt 0.468750 0.852688
vt 0.468750 0.867742
vt 0.387500 0.867742
vt 0.387500 0.852688
vt 0.468750 0.852688
vt 0.468750 0.867742
vt 0.387500 0.867742
vt 0.531250 0.852688
vt 0.612500 0.852688
vt 0.612500 0.867742
vt 0.531250 0.867742
vt 0.531250 0.852688
vt 0.612500 0.852688
vt 0.612500 0.867742
vt 0.531250 0.867742
vt 0.495000 0.870968
vt 0.505000 0.870968
vt 0.505000 1.000000
vt 0.495000 1.000000
vt 0.495000 0.870968
vt 0.505000 0.870968
vt 0.505000 1.000000
vt 0.495000 1.000000
vn 0.388288 0.323574 0.862863
vn -0.706562 0.588802 0.392534
vn -0.388288 -0.323574 0.862863
vn 0.706562 -0.588802 0.392534
vn 0.706562 0.588802 -0.392534
vn -0.388288 0.323574 -0.862863
vn -0.706562 -0.588802 -0.392534
vn 0.388288 -0.323574 -0.862863
vn 0.419288 0.270790 0.866528
vn -0.770590 0.497672 0.398138
vn -0.419288 -0.270790 0.866528
vn 0.770590 -0.497672 0.398138
vn 0.770590 0.497672 -0.398138
vn -0.419288 0.270790 -0.866528
vn -0.770590 -0.497672 -0.398138
vn 0.419288 -0.270790 -0.866528
vn 0.429151 0.281332 0.858302
vn -0.771573 0.505809 0.385787
vn -0.429151 -0.281332 0.858302
vn 0.771573 -0.505809 0.385787
vn 0.771573 0.505809 -0.385787
vn -0.429151 0.281332 -0.858302
vn -0.771573 -0.505809 -0.385787
vn 0.429151 -0.281332 -0.858302
vn -0.990606 0.000000 -0.136751
vn -0.603738 0.000000 -0.797183
vn 0.136773 0.000000 -0.990602
vn 0.797173 0.000000 -0.603750
vn 0.990602 0.000000 0.136777
vn 0.603750 0.000000 0.797173
vn -0.136769 0.000000 0.990603
vn -0.797186 0.000000 0.603734
vn -0.990606 0.000000 0.136751
vn -0.797186 0.000000 -0.603734
vn -0.136769 0.000000 -0.990603
vn 0.603750 0.000000 -0.797173
vn 0.990602 0.000000 -0.136777
vn 0.797173 0.000000 0.603750
vn 0.136773 0.000000 0.990602
vn -0.603738 0.000000 0.797183
vn -0.990604 0.000000 -0.136762
vn -0.603739 0.000000 -0.797182
vn 0.136762 0.000000 -0.990604
vn 0.797182 0.000000 -0.603739
vn 0.990604 0.000000 0.136762
vn 0.603739 0.000000 0.797182
vn -0.136762 0.000000 0.990604
vn -0.797182 0.000000 0.603739
vn -0.990604 0.000000 0.136762
vn -0.797182 0.000000 -0.603739
vn -0.136762 0.000000 -0.990604
vn 0.603739 0.000000 -0.797182
vn 0.990604 0.000000 -0.136762
vn 0.797182 0.000000 0.603739
vn 0.136762 0.000000 0.990604
vn -0.603739 0.000000 0.797182
vn 0.939903 0.045725 0.338365
vn -0.994807 0.048396 0.089533
vn -0.939903 -0.045725 0.338365
vn 0.994807 -0.048396 0.089533
vn 0.994807 0.048396 -0.089533
vn -0.939903 0.045725 -0.338365
vn -0.994807 -0.048396 -0.089533
vn 0.939903 -0.045725 -0.338365
vn 0.388288 0.323574 0.862863
vn -0.706562 0.588802 0.392534
vn -0.388288 -0.323574 0.862863
vn 0.706562 -0.588802 0.392534
vn 0.706562 0.588802 -0.392534
vn -0.388288 0.323574 -0.862863
vn -0.706562 -0.588802 -0.392534
vn 0.388288 -0.323574 -0.862863
vn 0.419288 0.270790 0.866528
vn -0.770590 0.497672 0.398138
vn -0.419288 -0.270790 0.866528
vn 0.770590 -0.497672 0.398138
vn 0.770590 0.497672 -0.398138
vn -0.419288 0.270790 -0.866528
vn -0.770590 -0.497672 -0.398138
vn 0.419288 -0.270790 -0.866528
vn 0.429151 0.281332 0.858302
vn -0.771573 0.505809 0.385787
vn -0.429151 -0.281332 0.858302
vn 0.771573 -0.505809 0.385787
vn 0.771573 0.505809 -0.385787
vn -0.429151 0.281332 -0.858302
vn -0.771573 -0.505809 -0.385787
vn 0.429151 -0.281332 -0.858302
vn -0.990602 0.000000 -0.136777
vn -0.603750 0.000000 -0.797173
vn 0.136769 0.000000 -0.990603
vn 0.797186 0.000000 -0.603734
vn 0.990606 0.000000 0.136751
vn 0.603738 0.000000 0.797183
vn -0.136773 0.000000 0.990602
vn -0.797173 0.000000 0.603750
vn -0.990602 0.000000 0.136777
vn -0.797173 0.000000 -0.603750
vn -0.136773 0.000000 -0.990602
vn 0.603738 0.000000 -0.797183
vn 0.990606 0.000000 -0.136751
vn 0.797186 0.000000 0.603734
vn 0.136769 0.000000 0.990603
vn -0.603750 0.000000 0.797173
vn -0.990604 0.000000 -0.136762
vn -0.603739 0.000000 -0.797182
vn 0.136762 0.000000 -0.990604
vn 0.797182 0.000000 -0.603739
vn 0.990604 0.000000 0.136762
vn 0.603739 0.000000 0.797182
vn -0.136762 0.000000 0.990604
vn -0.797182 0.000000 0.603739
vn -0.990604 0.000000 0.136762
vn -0.797182 0.000000 -0.603739
vn -0.136762 0.000000 -0.990604
vn 0.603739 0.000000 -0.797182
vn 0.990604 0.000000 -0.136762
vn 0.797182 0.000000 0.603739
vn 0.136762 0.000000 0.990604
vn -0.603739 0.000000 0.797182
vn 0.939903 0.045725 0.338365
vn -0.994807 0.048396 0.089533
vn -0.939903 -0.045725 0.338365
vn 0.994807 -0.048396 0.089533
vn 0.994807 0.048396 -0.089533
vn -0.939903 0.045725 -0.338365
vn -0.994807 -0.048396 -0.089533
vn 0.939903 -0.045725 -0.338365
vn 0.039325 0.639689 0.767627
vn -0.058781 0.956170 0.286851
vn -0.039325 -0.639689 0.767627
vn 0.058781 -0.956170 0.286851
vn 0.058781 0.956170 -0.286851
vn -0.039325 0.639689 -0.767627
vn -0.058781 -0.956170 -0.286851
vn 0.039325 -0.639689 -0.767627
vn 0.012701 0.811469 0.584258
vn -0.015403 0.984067 0.177132
vn -0.012701 -0.811469 0.584258
vn 0.015403 -0.984067 0.177132
vn 0.015403 0.984067 -0.177132
vn -0.012701 0.811469 -0.584258
vn -0.015403 -0.984067 -0.177132
vn 0.012701 -0.811469 -0.584258
vn 0.860162 0.098304 0.500458
vn -0.983318 0.112379 0.143028
vn -0.860162 -0.098304 0.500458
vn 0.983318 -0.112379 0.143028
vn 0.983318 0.112379 -0.143028
vn -0.860162 0.098304 -0.500458
vn -0.983318 -0.112379 -0.143028
vn 0.860162 -0.098304 -0.500458
vn 0.860162 0.098304 0.500458
vn -0.983318 0.112379 0.143028
vn -0.860162 -0.098304 0.500458
vn 0.983318 -0.112379 0.143028
vn 0.983318 0.112379 -0.143028
vn -0.860162 0.098304 -0.500458
vn -0.983318 -0.112379 -0.143028
vn 0.860162 -0.098304 -0.500458
vn 0.860162 0.098304 0.500458
vn -0.983318 0.112379 0.143028
vn -0.860162 -0.098304 0.500458
vn 0.983318 -0.112379 0.143028
vn 0.983318 0.112379 -0.143028
vn -0.860162 0.098304 -0.500458
vn -0.983318 -0.112379 -0.143028
vn 0.860162 -0.098304 -0.500458
vn 0.860162 0.098304 0.500458
vn -0.983318 0.112379 0.143028
vn -0.860162 -0.098304 0.500458
vn 0.983318 -0.112379 0.143028
vn 0.983318 0.112379 -0.143028
vn -0.860162 0.098304 -0.500458
vn -0.983318 -0.112379 -0.143028
vn 0.860162 -0.098304 -0.500458
vn 0.860162 0.098304 0.500458
vn -0.983318 0.112379 0.143028
vn -0.860162 -0.098304 0.500458
vn 0.983318 -0.112379 0.143028
vn 0.983318 0.112379 -0.143028
vn -0.860162 0.098304 -0.500458
vn -0.983318 -0.112379 -0.143028
vn 0.860162 -0.098304 -0.500458
vn 0.005782 0.529990 0.847984
vn -0.010128 0.928429 0.371372
vn -0.005782 -0.529990 0.847984
vn 0.010128 -0.928429 0.371372
vn 0.010128 0.928429 -0.371372
vn -0.005782 0.529990 -0.847984
vn -0.010128 -0.928429 -0.371372
vn 0.005782 -0.529990 -0.847984
vn 0.005782 0.529990 0.847984
vn -0.010128 0.928429 0.371372
vn -0.005782 -0.529990 0.847984
vn 0.010128 -0.928429 0.371372
vn 0.010128 0.928429 -0.371372
vn -0.005782 0.529990 -0.847984
vn -0.010128 -0.928429 -0.371372
vn 0.005782 -0.529990 -0.847984
vn 0.000000 -1.000000 0.000000
vn 0.000000 -1.000000 0.000000
vn 0.000000 1.000000 0.000000
vn 0.000000 -1.000000 0.000000
vn 0.000000 1.000000 0.000000
vn 0.000000 -1.000000 0.000000
vn 0.000000 1.000000 0.000000
vn 0.000000 1.000000 0.000000
vn 0.420972 0.000000 0.907074
vn -0.088961 0.000000 0.996035
vn -0.575061 0.000000 0.818111
vn -0.076721 -0.994738 0.067902
vn 0.085844 -0.961858 0.259729
vn 0.009670 -0.978080 0.208005
vn 0.009256 -0.998733 0.049458
vn 0.112835 -0.982430 -0.148657
vn -0.133970 0.958478 -0.251736
vn -0.530034 -0.822212 0.207440
vn -0.068846 0.989853 0.124305
vn 0.048865 0.996142 0.072889
vn 0.296256 0.776295 0.556416
vn 0.088961 0.000000 0.996035
vn -0.420972 0.000000 0.907074
vn -0.357981 0.000000 -0.933729
vn -0.014874 -0.941680 -0.336182
vn -0.017134 -0.960441 -0.277956
vn -0.040507 -0.986289 0.159976
vn 0.068686 -0.994377 -0.080598
vn 0.270260 -0.003063 -0.962782
vn -0.138095 0.915068 -0.378919
vn -0.287060 0.900082 0.327794
vn -0.041214 0.997217 0.062130
vn 0.080782 0.750117 0.656352
vn -0.104627 0.971538 0.212524
vn -0.080782 -0.750117 0.656352
vn 0.104627 -0.971538 0.212524
vn 0.104627 0.971538 -0.212524
vn -0.080782 0.750117 -0.656352
vn -0.104627 -0.971538 -0.212524
vn 0.080782 -0.750117 -0.656352
vn 0.655981 0.087464 0.749693
vn -0.953718 0.127162 0.272491
vn -0.655981 -0.087464 0.749693
vn 0.953718 -0.127162 0.272491
vn 0.953718 0.127162 -0.272491
vn -0.655981 0.087464 -0.749693
vn -0.953718 -0.127162 -0.272491
vn 0.655981 -0.087464 -0.749693
usemtl BridgeGantry_Metal
f 1/1/1 2/2/2 3/3/3
f 1/1/1 3/3/3 4/4/4
f 6/6/6 5/5/5 8/8/8
f 6/6/6 8/8/8 7/7/7
f 5/5/5 1/1/1 4/4/4
f 5/5/5 4/4/4 8/8/8
f 2/2/2 6/6/6 7/7/7
f 2/2/2 7/7/7 3/3/3
f 4/4/4 3/3/3 7/7/7
f 4/4/4 7/7/7 8/8/8
f 5/5/5 6/6/6 2/2/2
f 5/5/5 2/2/2 1/1/1
f 9/9/9 10/10/10 11/11/11
f 9/9/9 11/11/11 12/12/12
f 14/14/14 13/13/13 16/16/16
f 14/14/14 16/16/16 15/15/15
f 13/13/13 9/9/9 12/12/12
f 13/13/13 12/12/12 16/16/16
f 10/10/10 14/14/14 15/15/15
f 10/10/10 15/15/15 11/11/11
f 12/12/12 11/11/11 15/15/15
f 12/12/12 15/15/15 16/16/16
f 13/13/13 14/14/14 10/10/10
f 13/13/13 10/10/10 9/9/9
f 17/17/17 18/18/18 19/19/19
f 17/17/17 19/19/19 20/20/20
f 22/22/22 21/21/21 24/24/24
f 22/22/22 24/24/24 23/23/23
f 21/21/21 17/17/17 20/20/20
f 21/21/21 20/20/20 24/24/24
f 18/18/18 22/22/22 23/23/23
f 18/18/18 23/23/23 19/19/19
f 20/20/20 19/19/19 23/23/23
f 20/20/20 23/23/23 24/24/24
f 21/21/21 22/22/22 18/18/18
f 21/21/21 18/18/18 17/17/17
f 65/65/65 66/66/66 67/67/67
f 65/65/65 67/67/67 68/68/68
f 70/70/70 69/69/69 72/72/72
f 70/70/70 72/72/72 71/71/71
f 69/69/69 65/65/65 68/68/68
f 69/69/69 68/68/68 72/72/72
f 66/66/66 70/70/70 71/71/71
f 66/66/66 71/71/71 67/67/67
f 68/68/68 67/67/67 71/71/71
f 68/68/68 71/71/71 72/72/72
f 69/69/69 70/70/70 66/66/66
f 69/69/69 66/66/66 65/65/65
f 73/73/73 74/74/74 75/75/75
f 73/73/73 75/75/75 76/76/76
f 78/78/78 77/77/77 80/80/80
f 78/78/78 80/80/80 79/79/79
f 77/77/77 73/73/73 76/76/76
f 77/77/77 76/76/76 80/80/80
f 74/74/74 78/78/78 79/79/79
f 74/74/74 79/79/79 75/75/75
f 76/76/76 75/75/75 79/79/79
f 76/76/76 79/79/79 80/80/80
f 77/77/77 78/78/78 74/74/74
f 77/77/77 74/74/74 73/73/73
f 81/81/81 82/82/82 83/83/83
f 81/81/81 83/83/83 84/84/84
f 86/86/86 85/85/85 88/88/88
f 86/86/86 88/88/88 87/87/87
f 85/85/85 81/81/81 84/84/84
f 85/85/85 84/84/84 88/88/88
f 82/82/82 86/86/86 87/87/87
f 82/82/82 87/87/87 83/83/83
f 84/84/84 83/83/83 87/87/87
f 84/84/84 87/87/87 88/88/88
f 85/85/85 86/86/86 82/82/82
f 85/85/85 82/82/82 81/81/81
f 129/129/129 130/130/130 131/131/131
f 129/129/129 131/131/131 132/132/132
f 134/134/134 133/133/133 136/136/136
f 134/134/134 136/136/136 135/135/135
f 133/133/133 129/129/129 132/132/132
f 133/133/133 132/132/132 136/136/136
f 130/130/130 134/134/134 135/135/135
f 130/130/130 135/135/135 131/131/131
f 132/132/132 131/131/131 135/135/135
f 132/132/132 135/135/135 136/136/136
f 133/133/133 134/134/134 130/130/130
f 133/133/133 130/130/130 129/129/129
g Crown
f 25/25/25 26/26/26 34/34/34
f 25/25/25 34/34/34 33/33/33
f 26/26/26 27/27/27 35/35/35
f 26/26/26 35/35/35 34/34/34
f 27/27/27 28/28/28 36/36/36
f 27/27/27 36/36/36 35/35/35
f 28/28/28 29/29/29 37/37/37
f 28/28/28 37/37/37 36/36/36
f 29/29/29 30/30/30 38/38/38
f 29/29/29 38/38/38 37/37/37
f 30/30/30 31/31/31 39/39/39
f 30/30/30 39/39/39 38/38/38
f 31/31/31 32/32/32 40/40/40
f 31/31/31 40/40/40 39/39/39
f 32/32/32 25/25/25 33/33/33
f 32/32/32 33/33/33 40/40/40
f 89/89/89 90/90/90 98/98/98
f 89/89/89 98/98/98 97/97/97
f 90/90/90 91/91/91 99/99/99
f 90/90/90 99/99/99 98/98/98
f 91/91/91 92/92/92 100/100/100
f 91/91/91 100/100/100 99/99/99
f 92/92/92 93/93/93 101/101/101
f 92/92/92 101/101/101 100/100/100
f 93/93/93 94/94/94 102/102/102
f 93/93/93 102/102/102 101/101/101
f 94/94/94 95/95/95 103/103/103
f 94/94/94 103/103/103 102/102/102
f 95/95/95 96/96/96 104/104/104
f 95/95/95 104/104/104 103/103/103
f 96/96/96 89/89/89 97/97/97
f 96/96/96 97/97/97 104/104/104
g Spire
f 41/41/41 42/42/42 50/50/50
f 41/41/41 50/50/50 49/49/49
f 42/42/42 43/43/43 51/51/51
f 42/42/42 51/51/51 50/50/50
f 43/43/43 44/44/44 52/52/52
f 43/43/43 52/52/52 51/51/51
f 44/44/44 45/45/45 53/53/53
f 44/44/44 53/53/53 52/52/52
f 45/45/45 46/46/46 54/54/54
f 45/45/45 54/54/54 53/53/53
f 46/46/46 47/47/47 55/55/55
f 46/46/46 55/55/55 54/54/54
f 47/47/47 48/48/48 56/56/56
f 47/47/47 56/56/56 55/55/55
f 48/48/48 41/41/41 49/49/49
f 48/48/48 49/49/49 56/56/56
f 105/105/105 106/106/106 114/114/114
f 105/105/105 114/114/114 113/113/113
f 106/106/106 107/107/107 115/115/115
f 106/106/106 115/115/115 114/114/114
f 107/107/107 108/108/108 116/116/116
f 107/107/107 116/116/116 115/115/115
f 108/108/108 109/109/109 117/117/117
f 108/108/108 117/117/117 116/116/116
f 109/109/109 110/110/110 118/118/118
f 109/109/109 118/118/118 117/117/117
f 110/110/110 111/111/111 119/119/119
f 110/110/110 119/119/119 118/118/118
f 111/111/111 112/112/112 120/120/120
f 111/111/111 120/120/120 119/119/119
f 112/112/112 105/105/105 113/113/113
f 112/112/112 113/113/113 120/120/120
g Trim
f 57/57/57 58/58/58 59/59/59
f 57/57/57 59/59/59 60/60/60
f 62/62/62 61/61/61 64/64/64
f 62/62/62 64/64/64 63/63/63
f 61/61/61 57/57/57 60/60/60
f 61/61/61 60/60/60 64/64/64
f 58/58/58 62/62/62 63/63/63
f 58/58/58 63/63/63 59/59/59
f 60/60/60 59/59/59 63/63/63
f 60/60/60 63/63/63 64/64/64
f 61/61/61 62/62/62 58/58/58
f 61/61/61 58/58/58 57/57/57
f 121/121/121 122/122/122 123/123/123
f 121/121/121 123/123/123 124/124/124
f 126/126/126 125/125/125 128/128/128
f 126/126/126 128/128/128 127/127/127
f 125/125/125 121/121/121 124/124/124
f 125/125/125 124/124/124 128/128/128
f 122/122/122 126/126/126 127/127/127
f 122/122/122 127/127/127 123/123/123
f 124/124/124 123/123/123 127/127/127
f 124/124/124 127/127/127 128/128/128
f 125/125/125 126/126/126 122/122/122
f 125/125/125 122/122/122 121/121/121
f 145/145/145 146/146/146 147/147/147
f 145/145/145 147/147/147 148/148/148
f 150/150/150 149/149/149 152/152/152
f 150/150/150 152/152/152 151/151/151
f 149/149/149 145/145/145 148/148/148
f 149/149/149 148/148/148 152/152/152
f 146/146/146 150/150/150 151/151/151
f 146/146/146 151/151/151 147/147/147
f 148/148/148 147/147/147 151/151/151
f 148/148/148 151/151/151 152/152/152
f 149/149/149 150/150/150 146/146/146
f 149/149/149 146/146/146 145/145/145
f 153/153/153 154/154/154 155/155/155
f 153/153/153 155/155/155 156/156/156
f 158/158/158 157/157/157 160/160/160
f 158/158/158 160/160/160 159/159/159
f 157/157/157 153/153/153 156/156/156
f 157/157/157 156/156/156 160/160/160
f 154/154/154 158/158/158 159/159/159
f 154/154/154 159/159/159 155/155/155
f 156/156/156 155/155/155 159/159/159
f 156/156/156 159/159/159 160/160/160
f 157/157/157 158/158/158 154/154/154
f 157/157/157 154/154/154 153/153/153
f 161/161/161 162/162/162 163/163/163
f 161/161/161 163/163/163 164/164/164
f 166/166/166 165/165/165 168/168/168
f 166/166/166 168/168/168 167/167/167
f 165/165/165 161/161/161 164/164/164
f 165/165/165 164/164/164 168/168/168
f 162/162/162 166/166/166 167/167/167
f 162/162/162 167/167/167 163/163/163
f 164/164/164 163/163/163 167/167/167
f 164/164/164 167/167/167 168/168/168
f 165/165/165 166/166/166 162/162/162
f 165/165/165 162/162/162 161/161/161
f 169/169/169 170/170/170 171/171/171
f 169/169/169 171/171/171 172/172/172
f 174/174/174 173/173/173 176/176/176
f 174/174/174 176/176/176 175/175/175
f 173/173/173 169/169/169 172/172/172
f 173/173/173 172/172/172 176/176/176
f 170/170/170 174/174/174 175/175/175
f 170/170/170 175/175/175 171/171/171
f 172/172/172 171/171/171 175/175/175
f 172/172/172 175/175/175 176/176/176
f 173/173/173 174/174/174 170/170/170
f 173/173/173 170/170/170 169/169/169
f 177/177/177 178/178/178 179/179/179
f 177/177/177 179/179/179 180/180/180
f 182/182/182 181/181/181 184/184/184
f 182/182/182 184/184/184 183/183/183
f 181/181/181 177/177/177 180/180/180
f 181/181/181 180/180/180 184/184/184
f 178/178/178 182/182/182 183/183/183
f 178/178/178 183/183/183 179/179/179
f 180/180/180 179/179/179 183/183/183
f 180/180/180 183/183/183 184/184/184
f 181/181/181 182/182/182 178/178/178
f 181/181/181 178/178/178 177/177/177
g Truss
f 137/137/137 138/138/138 139/139/139
f 137/137/137 139/139/139 140/140/140
f 142/142/142 141/141/141 144/144/144
f 142/142/142 144/144/144 143/143/143
f 141/141/141 137/137/137 140/140/140
f 141/141/141 140/140/140 144/144/144
f 138/138/138 142/142/142 143/143/143
f 138/138/138 143/143/143 139/139/139
f 140/140/140 139/139/139 143/143/143
f 140/140/140 143/143/143 144/144/144
f 141/141/141 142/142/142 138/138/138
f 141/141/141 138/138/138 137/137/137
f 185/185/185 186/186/186 187/187/187
f 185/185/185 187/187/187 188/188/188
f 190/190/190 189/189/189 192/192/192
f 190/190/190 192/192/192 191/191/191
f 189/189/189 185/185/185 188/188/188
f 189/189/189 188/188/188 192/192/192
f 186/186/186 190/190/190 191/191/191
f 186/186/186 191/191/191 187/187/187
f 188/188/188 187/187/187 191/191/191
f 188/188/188 191/191/191 192/192/192
f 189/189/189 190/190/190 186/186/186
f 189/189/189 186/186/186 185/185/185
g Neon
f 193/193/193 194/194/194 195/195/195
f 193/193/193 195/195/195 196/196/196
f 198/198/198 197/197/197 200/200/200
f 198/198/198 200/200/200 199/199/199
f 197/197/197 193/193/193 196/196/196
f 197/197/197 196/196/196 200/200/200
f 194/194/194 198/198/198 199/199/199
f 194/194/194 199/199/199 195/195/195
f 196/196/196 195/195/195 199/199/199
f 196/196/196 199/199/199 200/200/200
f 197/197/197 198/198/198 194/194/194
f 197/197/197 194/194/194 193/193/193
f 201/201/201 202/202/202 203/203/203
f 201/201/201 203/203/203 204/204/204
f 206/206/206 205/205/205 208/208/208
f 206/206/206 208/208/208 207/207/207
f 205/205/205 201/201/201 204/204/204
f 205/205/205 204/204/204 208/208/208
f 202/202/202 206/206/206 207/207/207
f 202/202/202 207/207/207 203/203/203
f 204/204/204 203/203/203 207/207/207
f 204/204/204 207/207/207 208/208/208
f 205/205/205 206/206/206 202/202/202
f 205/205/205 202/202/202 201/201/201
g Crest
f 209/209/209 210/210/210 222/222/222
f 209/209/209 222/222/222 221/221/221
f 210/210/210 211/211/211 223/223/223
f 210/210/210 223/223/223 222/222/222
f 211/211/211 212/212/212 224/224/224
f 211/211/211 224/224/224 223/223/223
f 212/212/212 213/213/213 225/225/225
f 212/212/212 225/225/225 224/224/224
f 213/213/213 214/214/214 226/226/226
f 213/213/213 226/226/226 225/225/225
f 214/214/214 215/215/215 227/227/227
f 214/214/214 227/227/227 226/226/226
f 215/215/215 216/216/216 228/228/228
f 215/215/215 228/228/228 227/227/227
f 216/216/216 217/217/217 229/229/229
f 216/216/216 229/229/229 228/228/228
f 217/217/217 218/218/218 230/230/230
f 217/217/217 230/230/230 229/229/229
f 218/218/218 219/219/219 231/231/231
f 218/218/218 231/231/231 230/230/230
f 219/219/219 220/220/220 232/232/232
f 219/219/219 232/232/232 231/231/231
f 220/220/220 209/209/209 221/221/221
f 220/220/220 221/221/221 232/232/232
f 233/233/233 234/234/234 235/235/235
f 233/233/233 235/235/235 236/236/236
f 238/238/238 237/237/237 240/240/240
f 238/238/238 240/240/240 239/239/239
f 237/237/237 233/233/233 236/236/236
f 237/237/237 236/236/236 240/240/240
f 234/234/234 238/238/238 239/239/239
f 234/234/234 239/239/239 235/235/235
f 236/236/236 235/235/235 239/239/239
f 236/236/236 239/239/239 240/240/240
f 237/237/237 238/238/238 234/234/234
f 237/237/237 234/234/234 233/233/233
f 241/241/241 242/242/242 243/243/243
f 241/241/241 243/243/243 244/244/244
f 246/246/246 245/245/245 248/248/248
f 246/246/246 248/248/248 247/247/247
f 245/245/245 241/241/241 244/244/244
f 245/245/245 244/244/244 248/248/248
f 242/242/242 246/246/246 247/247/247
f 242/242/242 247/247/247 243/243/243
f 244/244/244 243/243/243 247/247/247
f 244/244/244 247/247/247 248/248/248
f 245/245/245 246/246/246 242/242/242
f 245/245/245 242/242/242 241/241/241
