# 3Fareet UART-003 authored production mesh
o SM_Vehicle_AfareetKing_LOD2
s 1
v 0.780000 0.550000 -2.120000
v 0.390000 0.809808 -2.120000
v -0.390000 0.809808 -2.120000
v -0.780000 0.550000 -2.120000
v -0.390000 0.290192 -2.120000
v 0.390000 0.290192 -2.120000
v 0.960000 0.600000 -1.100000
v 0.480000 0.929090 -1.100000
v -0.480000 0.929090 -1.100000
v -0.960000 0.600000 -1.100000
v -0.480000 0.270910 -1.100000
v 0.480000 0.270910 -1.100000
v 1.000000 0.620000 0.000000
v 0.500000 0.983731 0.000000
v -0.500000 0.983731 0.000000
v -1.000000 0.620000 0.000000
v -0.500000 0.256269 0.000000
v 0.500000 0.256269 0.000000
v 0.960000 0.600000 1.100000
v 0.480000 0.929090 1.100000
v -0.480000 0.929090 1.100000
v -0.960000 0.600000 1.100000
v -0.480000 0.270910 1.100000
v 0.480000 0.270910 1.100000
v 0.780000 0.550000 2.120000
v 0.390000 0.809808 2.120000
v -0.390000 0.809808 2.120000
v -0.780000 0.550000 2.120000
v -0.390000 0.290192 2.120000
v 0.390000 0.290192 2.120000
v 0.000000 0.550000 -2.120000
v 0.000000 0.550000 2.120000
v -0.690000 0.805000 -1.175000
v 0.690000 0.805000 -1.175000
v 0.690000 1.355000 -1.175000
v -0.690000 1.355000 -1.175000
v -0.690000 0.805000 0.675000
v 0.690000 0.805000 0.675000
v 0.690000 1.355000 0.675000
v -0.690000 1.355000 0.675000
v -1.180000 0.750000 -1.350000
v -1.180000 0.565000 -1.029571
v -1.180000 0.195000 -1.029571
v -1.180000 0.010000 -1.350000
v -1.180000 0.195000 -1.670429
v -1.180000 0.565000 -1.670429
v -0.880000 0.750000 -1.350000
v -0.880000 0.565000 -1.029571
v -0.880000 0.195000 -1.029571
v -0.880000 0.010000 -1.350000
v -0.880000 0.195000 -1.670429
v -0.880000 0.565000 -1.670429
v -1.180000 0.380000 -1.350000
v -0.880000 0.380000 -1.350000
v -1.180000 0.750000 1.350000
v -1.180000 0.565000 1.670429
v -1.180000 0.195000 1.670429
v -1.180000 0.010000 1.350000
v -1.180000 0.195000 1.029571
v -1.180000 0.565000 1.029571
v -0.880000 0.750000 1.350000
v -0.880000 0.565000 1.670429
v -0.880000 0.195000 1.670429
v -0.880000 0.010000 1.350000
v -0.880000 0.195000 1.029571
v -0.880000 0.565000 1.029571
v -1.180000 0.380000 1.350000
v -0.880000 0.380000 1.350000
v 0.880000 0.750000 -1.350000
v 0.880000 0.565000 -1.029571
v 0.880000 0.195000 -1.029571
v 0.880000 0.010000 -1.350000
v 0.880000 0.195000 -1.670429
v 0.880000 0.565000 -1.670429
v 1.180000 0.750000 -1.350000
v 1.180000 0.565000 -1.029571
v 1.180000 0.195000 -1.029571
v 1.180000 0.010000 -1.350000
v 1.180000 0.195000 -1.670429
v 1.180000 0.565000 -1.670429
v 0.880000 0.380000 -1.350000
v 1.180000 0.380000 -1.350000
v 0.880000 0.750000 1.350000
v 0.880000 0.565000 1.670429
v 0.880000 0.195000 1.670429
v 0.880000 0.010000 1.350000
v 0.880000 0.195000 1.029571
v 0.880000 0.565000 1.029571
v 1.180000 0.750000 1.350000
v 1.180000 0.565000 1.670429
v 1.180000 0.195000 1.670429
v 1.180000 0.010000 1.350000
v 1.180000 0.195000 1.029571
v 1.180000 0.565000 1.029571
v 0.880000 0.380000 1.350000
v 1.180000 0.380000 1.350000
v -0.425000 0.890000 0.960000
v 0.425000 0.890000 0.960000
v 0.425000 0.930000 0.960000
v -0.425000 0.930000 0.960000
v -0.425000 0.890000 1.540000
v 0.425000 0.890000 1.540000
v 0.425000 0.930000 1.540000
v -0.425000 0.930000 1.540000
g Body
f 1 2 8
f 1 8 7
f 2 3 9
f 2 9 8
f 3 4 10
f 3 10 9
f 4 5 11
f 4 11 10
f 5 6 12
f 5 12 11
f 6 1 7
f 6 7 12
f 7 8 14
f 7 14 13
f 8 9 15
f 8 15 14
f 9 10 16
f 9 16 15
f 10 11 17
f 10 17 16
f 11 12 18
f 11 18 17
f 12 7 13
f 12 13 18
f 13 14 20
f 13 20 19
f 14 15 21
f 14 21 20
f 15 16 22
f 15 22 21
f 16 17 23
f 16 23 22
f 17 18 24
f 17 24 23
f 18 13 19
f 18 19 24
f 19 20 26
f 19 26 25
f 20 21 27
f 20 27 26
f 21 22 28
f 21 28 27
f 22 23 29
f 22 29 28
f 23 24 30
f 23 30 29
f 24 19 25
f 24 25 30
f 31 1 2
f 32 26 25
f 31 2 3
f 32 27 26
f 31 3 4
f 32 28 27
f 31 4 5
f 32 29 28
f 31 5 6
f 32 30 29
f 31 6 1
f 32 25 30
g Glass
f 33 34 35
f 33 35 36
f 37 40 39
f 37 39 38
f 33 37 38
f 33 38 34
f 36 35 39
f 36 39 40
f 33 36 40
f 33 40 37
f 34 38 39
f 34 39 35
g Wheel
f 41 47 48
f 41 48 42
f 42 48 49
f 42 49 43
f 43 49 50
f 43 50 44
f 44 50 51
f 44 51 45
f 45 51 52
f 45 52 46
f 46 52 47
f 46 47 41
f 53 42 41
f 54 47 48
f 53 43 42
f 54 48 49
f 53 44 43
f 54 49 50
f 53 45 44
f 54 50 51
f 53 46 45
f 54 51 52
f 53 41 46
f 54 52 47
f 55 61 62
f 55 62 56
f 56 62 63
f 56 63 57
f 57 63 64
f 57 64 58
f 58 64 65
f 58 65 59
f 59 65 66
f 59 66 60
f 60 66 61
f 60 61 55
f 67 56 55
f 68 61 62
f 67 57 56
f 68 62 63
f 67 58 57
f 68 63 64
f 67 59 58
f 68 64 65
f 67 60 59
f 68 65 66
f 67 55 60
f 68 66 61
f 69 75 76
f 69 76 70
f 70 76 77
f 70 77 71
f 71 77 78
f 71 78 72
f 72 78 79
f 72 79 73
f 73 79 80
f 73 80 74
f 74 80 75
f 74 75 69
f 81 70 69
f 82 75 76
f 81 71 70
f 82 76 77
f 81 72 71
f 82 77 78
f 81 73 72
f 82 78 79
f 81 74 73
f 82 79 80
f 81 69 74
f 82 80 75
f 83 89 90
f 83 90 84
f 84 90 91
f 84 91 85
f 85 91 92
f 85 92 86
f 86 92 93
f 86 93 87
f 87 93 94
f 87 94 88
f 88 94 89
f 88 89 83
f 95 84 83
f 96 89 90
f 95 85 84
f 96 90 91
f 95 86 85
f 96 91 92
f 95 87 86
f 96 92 93
f 95 88 87
f 96 93 94
f 95 83 88
f 96 94 89
g Spirit
f 97 98 99
f 97 99 100
f 101 104 103
f 101 103 102
f 97 101 102
f 97 102 98
f 100 99 103
f 100 103 104
f 97 100 104
f 97 104 101
f 98 102 103
f 98 103 99
