# 3Fareet UART-003 authored production mesh
o SM_Vehicle_AfareetKing_LOD1
s 1
v 0.780000 0.550000 -2.120000
v 0.551543 0.762132 -2.120000
v 0.000000 0.850000 -2.120000
v -0.551543 0.762132 -2.120000
v -0.780000 0.550000 -2.120000
v -0.551543 0.337868 -2.120000
v -0.000000 0.250000 -2.120000
v 0.551543 0.337868 -2.120000
v 0.950000 0.590000 -1.450000
v 0.671751 0.851630 -1.450000
v 0.000000 0.960000 -1.450000
v -0.671751 0.851630 -1.450000
v -0.950000 0.590000 -1.450000
v -0.671751 0.328370 -1.450000
v -0.000000 0.220000 -1.450000
v 0.671751 0.328370 -1.450000
v 1.000000 0.620000 -0.450000
v 0.707107 0.916985 -0.450000
v 0.000000 1.040000 -0.450000
v -0.707107 0.916985 -0.450000
v -1.000000 0.620000 -0.450000
v -0.707107 0.323015 -0.450000
v -0.000000 0.200000 -0.450000
v 0.707107 0.323015 -0.450000
v 1.000000 0.620000 0.450000
v 0.707107 0.916985 0.450000
v 0.000000 1.040000 0.450000
v -0.707107 0.916985 0.450000
v -1.000000 0.620000 0.450000
v -0.707107 0.323015 0.450000
v -0.000000 0.200000 0.450000
v 0.707107 0.323015 0.450000
v 0.940000 0.590000 1.450000
v 0.664680 0.851630 1.450000
v 0.000000 0.960000 1.450000
v -0.664680 0.851630 1.450000
v -0.940000 0.590000 1.450000
v -0.664680 0.328370 1.450000
v -0.000000 0.220000 1.450000
v 0.664680 0.328370 1.450000
v 0.780000 0.550000 2.120000
v 0.551543 0.762132 2.120000
v 0.000000 0.850000 2.120000
v -0.551543 0.762132 2.120000
v -0.780000 0.550000 2.120000
v -0.551543 0.337868 2.120000
v -0.000000 0.250000 2.120000
v 0.551543 0.337868 2.120000
v 0.000000 0.550000 -2.120000
v 0.000000 0.550000 2.120000
v -0.690000 0.805000 -1.175000
v 0.690000 0.805000 -1.175000
v 0.690000 1.355000 -1.175000
v -0.690000 1.355000 -1.175000
v -0.690000 0.805000 0.675000
v 0.690000 0.805000 0.675000
v 0.690000 1.355000 0.675000
v -0.690000 1.355000 0.675000
v -1.180000 0.750000 -1.350000
v -1.180000 0.641630 -1.088370
v -1.180000 0.380000 -0.980000
v -1.180000 0.118370 -1.088370
v -1.180000 0.010000 -1.350000
v -1.180000 0.118370 -1.611630
v -1.180000 0.380000 -1.720000
v -1.180000 0.641630 -1.611630
v -0.880000 0.750000 -1.350000
v -0.880000 0.641630 -1.088370
v -0.880000 0.380000 -0.980000
v -0.880000 0.118370 -1.088370
v -0.880000 0.010000 -1.350000
v -0.880000 0.118370 -1.611630
v -0.880000 0.380000 -1.720000
v -0.880000 0.641630 -1.611630
v -1.180000 0.380000 -1.350000
v -0.880000 0.380000 -1.350000
v -1.180000 0.750000 1.350000
v -1.180000 0.641630 1.611630
v -1.180000 0.380000 1.720000
v -1.180000 0.118370 1.611630
v -1.180000 0.010000 1.350000
v -1.180000 0.118370 1.088370
v -1.180000 0.380000 0.980000
v -1.180000 0.641630 1.088370
v -0.880000 0.750000 1.350000
v -0.880000 0.641630 1.611630
v -0.880000 0.380000 1.720000
v -0.880000 0.118370 1.611630
v -0.880000 0.010000 1.350000
v -0.880000 0.118370 1.088370
v -0.880000 0.380000 0.980000
v -0.880000 0.641630 1.088370
v -1.180000 0.380000 1.350000
v -0.880000 0.380000 1.350000
v 0.880000 0.750000 -1.350000
v 0.880000 0.641630 -1.088370
v 0.880000 0.380000 -0.980000
v 0.880000 0.118370 -1.088370
v 0.880000 0.010000 -1.350000
v 0.880000 0.118370 -1.611630
v 0.880000 0.380000 -1.720000
v 0.880000 0.641630 -1.611630
v 1.180000 0.750000 -1.350000
v 1.180000 0.641630 -1.088370
v 1.180000 0.380000 -0.980000
v 1.180000 0.118370 -1.088370
v 1.180000 0.010000 -1.350000
v 1.180000 0.118370 -1.611630
v 1.180000 0.380000 -1.720000
v 1.180000 0.641630 -1.611630
v 0.880000 0.380000 -1.350000
v 1.180000 0.380000 -1.350000
v 0.880000 0.750000 1.350000
v 0.880000 0.641630 1.611630
v 0.880000 0.380000 1.720000
v 0.880000 0.118370 1.611630
v 0.880000 0.010000 1.350000
v 0.880000 0.118370 1.088370
v 0.880000 0.380000 0.980000
v 0.880000 0.641630 1.088370
v 1.180000 0.750000 1.350000
v 1.180000 0.641630 1.611630
v 1.180000 0.380000 1.720000
v 1.180000 0.118370 1.611630
v 1.180000 0.010000 1.350000
v 1.180000 0.118370 1.088370
v 1.180000 0.380000 0.980000
v 1.180000 0.641630 1.088370
v 0.880000 0.380000 1.350000
v 1.180000 0.380000 1.350000
v -1.090000 0.190000 1.940000
v 1.090000 0.190000 1.940000
v 1.090000 0.250000 1.940000
v -1.090000 0.250000 1.940000
v -1.090000 0.190000 2.420000
v 1.090000 0.190000 2.420000
v 1.090000 0.250000 2.420000
v -1.090000 0.250000 2.420000
v -1.175000 1.380000 -2.090000
v 1.175000 1.380000 -2.090000
v 1.175000 1.480000 -2.090000
v -1.175000 1.480000 -2.090000
v -1.175000 1.380000 -1.710000
v 1.175000 1.380000 -1.710000
v 1.175000 1.480000 -1.710000
v -1.175000 1.480000 -1.710000
v -0.410000 0.880000 0.340000
v 0.410000 0.880000 0.340000
v 0.410000 1.220000 0.340000
v -0.410000 1.220000 0.340000
v -0.410000 0.880000 1.100000
v 0.410000 0.880000 1.100000
v 0.410000 1.220000 1.100000
v -0.410000 1.220000 1.100000
v -0.120000 0.890000 -0.125000
v 0.120000 0.890000 -0.125000
v 0.120000 0.930000 -0.125000
v -0.120000 0.930000 -0.125000
v -0.120000 0.890000 1.825000
v 0.120000 0.890000 1.825000
v 0.120000 0.930000 1.825000
v -0.120000 0.930000 1.825000
v -0.487822 0.890000 0.858127
v -0.390007 0.890000 0.878918
v -0.390007 0.930000 0.878918
v -0.487822 0.930000 0.858127
v -0.649993 0.890000 1.621082
v -0.552178 0.890000 1.641873
v -0.552178 0.930000 1.641873
v -0.649993 0.930000 1.621082
v 0.390007 0.890000 0.878918
v 0.487822 0.890000 0.858127
v 0.487822 0.930000 0.858127
v 0.390007 0.930000 0.878918
v 0.552178 0.890000 1.641873
v 0.649993 0.890000 1.621082
v 0.649993 0.930000 1.621082
v 0.552178 0.930000 1.641873
v -0.820000 0.640000 2.010000
v -0.340000 0.640000 2.010000
v -0.340000 0.760000 2.010000
v -0.820000 0.760000 2.010000
v -0.820000 0.640000 2.110000
v -0.340000 0.640000 2.110000
v -0.340000 0.760000 2.110000
v -0.820000 0.760000 2.110000
v 0.340000 0.640000 2.010000
v 0.820000 0.640000 2.010000
v 0.820000 0.760000 2.010000
v 0.340000 0.760000 2.010000
v 0.340000 0.640000 2.110000
v 0.820000 0.640000 2.110000
v 0.820000 0.760000 2.110000
v 0.340000 0.760000 2.110000
g Body
f 1 2 10
f 1 10 9
f 2 3 11
f 2 11 10
f 3 4 12
f 3 12 11
f 4 5 13
f 4 13 12
f 5 6 14
f 5 14 13
f 6 7 15
f 6 15 14
f 7 8 16
f 7 16 15
f 8 1 9
f 8 9 16
f 9 10 18
f 9 18 17
f 10 11 19
f 10 19 18
f 11 12 20
f 11 20 19
f 12 13 21
f 12 21 20
f 13 14 22
f 13 22 21
f 14 15 23
f 14 23 22
f 15 16 24
f 15 24 23
f 16 9 17
f 16 17 24
f 17 18 26
f 17 26 25
f 18 19 27
f 18 27 26
f 19 20 28
f 19 28 27
f 20 21 29
f 20 29 28
f 21 22 30
f 21 30 29
f 22 23 31
f 22 31 30
f 23 24 32
f 23 32 31
f 24 17 25
f 24 25 32
f 25 26 34
f 25 34 33
f 26 27 35
f 26 35 34
f 27 28 36
f 27 36 35
f 28 29 37
f 28 37 36
f 29 30 38
f 29 38 37
f 30 31 39
f 30 39 38
f 31 32 40
f 31 40 39
f 32 25 33
f 32 33 40
f 33 34 42
f 33 42 41
f 34 35 43
f 34 43 42
f 35 36 44
f 35 44 43
f 36 37 45
f 36 45 44
f 37 38 46
f 37 46 45
f 38 39 47
f 38 47 46
f 39 40 48
f 39 48 47
f 40 33 41
f 40 41 48
f 49 1 2
f 50 42 41
f 49 2 3
f 50 43 42
f 49 3 4
f 50 44 43
f 49 4 5
f 50 45 44
f 49 5 6
f 50 46 45
f 49 6 7
f 50 47 46
f 49 7 8
f 50 48 47
f 49 8 1
f 50 41 48
g Glass
f 51 52 53
f 51 53 54
f 55 58 57
f 55 57 56
f 51 55 56
f 51 56 52
f 54 53 57
f 54 57 58
f 51 54 58
f 51 58 55
f 52 56 57
f 52 57 53
g Wheel
f 59 67 68
f 59 68 60
f 60 68 69
f 60 69 61
f 61 69 70
f 61 70 62
f 62 70 71
f 62 71 63
f 63 71 72
f 63 72 64
f 64 72 73
f 64 73 65
f 65 73 74
f 65 74 66
f 66 74 67
f 66 67 59
f 75 60 59
f 76 67 68
f 75 61 60
f 76 68 69
f 75 62 61
f 76 69 70
f 75 63 62
f 76 70 71
f 75 64 63
f 76 71 72
f 75 65 64
f 76 72 73
f 75 66 65
f 76 73 74
f 75 59 66
f 76 74 67
f 77 85 86
f 77 86 78
f 78 86 87
f 78 87 79
f 79 87 88
f 79 88 80
f 80 88 89
f 80 89 81
f 81 89 90
f 81 90 82
f 82 90 91
f 82 91 83
f 83 91 92
f 83 92 84
f 84 92 85
f 84 85 77
f 93 78 77
f 94 85 86
f 93 79 78
f 94 86 87
f 93 80 79
f 94 87 88
f 93 81 80
f 94 88 89
f 93 82 81
f 94 89 90
f 93 83 82
f 94 90 91
f 93 84 83
f 94 91 92
f 93 77 84
f 94 92 85
f 95 103 104
f 95 104 96
f 96 104 105
f 96 105 97
f 97 105 106
f 97 106 98
f 98 106 107
f 98 107 99
f 99 107 108
f 99 108 100
f 100 108 109
f 100 109 101
f 101 109 110
f 101 110 102
f 102 110 103
f 102 103 95
f 111 96 95
f 112 103 104
f 111 97 96
f 112 104 105
f 111 98 97
f 112 105 106
f 111 99 98
f 112 106 107
f 111 100 99
f 112 107 108
f 111 101 100
f 112 108 109
f 111 102 101
f 112 109 110
f 111 95 102
f 112 110 103
f 113 121 122
f 113 122 114
f 114 122 123
f 114 123 115
f 115 123 124
f 115 124 116
f 116 124 125
f 116 125 117
f 117 125 126
f 117 126 118
f 118 126 127
f 118 127 119
f 119 127 128
f 119 128 120
f 120 128 121
f 120 121 113
f 129 114 113
f 130 121 122
f 129 115 114
f 130 122 123
f 129 116 115
f 130 123 124
f 129 117 116
f 130 124 125
f 129 118 117
f 130 125 126
f 129 119 118
f 130 126 127
f 129 120 119
f 130 127 128
f 129 113 120
f 130 128 121
g GoldTrim
f 131 132 133
f 131 133 134
f 135 138 137
f 135 137 136
f 131 135 136
f 131 136 132
f 134 133 137
f 134 137 138
f 131 134 138
f 131 138 135
f 132 136 137
f 132 137 133
f 139 140 141
f 139 141 142
f 143 146 145
f 143 145 144
f 139 143 144
f 139 144 140
f 142 141 145
f 142 145 146
f 139 142 146
f 139 146 143
f 140 144 145
f 140 145 141
g Black
f 147 148 149
f 147 149 150
f 151 154 153
f 151 153 152
f 147 151 152
f 147 152 148
f 150 149 153
f 150 153 154
f 147 150 154
f 147 154 151
f 148 152 153
f 148 153 149
g GoldTrim
f 155 156 157
f 155 157 158
f 159 162 161
f 159 161 160
f 155 159 160
f 155 160 156
f 158 157 161
f 158 161 162
f 155 158 162
f 155 162 159
f 156 160 161
f 156 161 157
g Spirit
f 163 164 165
f 163 165 166
f 167 170 169
f 167 169 168
f 163 167 168
f 163 168 164
f 166 165 169
f 166 169 170
f 163 166 170
f 163 170 167
f 164 168 169
f 164 169 165
f 171 172 173
f 171 173 174
f 175 178 177
f 175 177 176
f 171 175 176
f 171 176 172
f 174 173 177
f 174 177 178
f 171 174 178
f 171 178 175
f 172 176 177
f 172 177 173
f 179 180 181
f 179 181 182
f 183 186 185
f 183 185 184
f 179 183 184
f 179 184 180
f 182 181 185
f 182 185 186
f 179 182 186
f 179 186 183
f 180 184 185
f 180 185 181
f 187 188 189
f 187 189 190
f 191 194 193
f 191 193 192
f 187 191 192
f 187 192 188
f 190 189 193
f 190 193 194
f 187 190 194
f 187 194 191
f 188 192 193
f 188 193 189
