# 3Fareet UART-003 authored production mesh
o SM_Vehicle_AfareetKing_LOD0
s 1
v 0.780000 0.550000 -2.120000
v 0.631033 0.726336 -2.120000
v 0.241033 0.835317 -2.120000
v -0.241033 0.835317 -2.120000
v -0.631033 0.726336 -2.120000
v -0.780000 0.550000 -2.120000
v -0.631033 0.373664 -2.120000
v -0.241033 0.264683 -2.120000
v 0.241033 0.264683 -2.120000
v 0.631033 0.373664 -2.120000
v 0.930000 0.570000 -1.650000
v 0.752386 0.769847 -1.650000
v 0.287386 0.893359 -1.650000
v -0.287386 0.893359 -1.650000
v -0.752386 0.769847 -1.650000
v -0.930000 0.570000 -1.650000
v -0.752386 0.370153 -1.650000
v -0.287386 0.246641 -1.650000
v 0.287386 0.246641 -1.650000
v 0.752386 0.370153 -1.650000
v 0.990000 0.600000 -1.050000
v 0.800927 0.835114 -1.050000
v 0.305927 0.980423 -1.050000
v -0.305927 0.980423 -1.050000
v -0.800927 0.835114 -1.050000
v -0.990000 0.600000 -1.050000
v -0.800927 0.364886 -1.050000
v -0.305927 0.219577 -1.050000
v 0.305927 0.219577 -1.050000
v 0.800927 0.364886 -1.050000
v 1.020000 0.620000 -0.350000
v 0.825197 0.878626 -0.350000
v 0.315197 1.038465 -0.350000
v -0.315197 1.038465 -0.350000
v -0.825197 0.878626 -0.350000
v -1.020000 0.620000 -0.350000
v -0.825197 0.361374 -0.350000
v -0.315197 0.201535 -0.350000
v 0.315197 0.201535 -0.350000
v 0.825197 0.361374 -0.350000
v 1.020000 0.620000 0.350000
v 0.825197 0.878626 0.350000
v 0.315197 1.038465 0.350000
v -0.315197 1.038465 0.350000
v -0.825197 0.878626 0.350000
v -1.020000 0.620000 0.350000
v -0.825197 0.361374 0.350000
v -0.315197 0.201535 0.350000
v 0.315197 0.201535 0.350000
v 0.825197 0.361374 0.350000
v 0.990000 0.600000 1.050000
v 0.800927 0.835114 1.050000
v 0.305927 0.980423 1.050000
v -0.305927 0.980423 1.050000
v -0.800927 0.835114 1.050000
v -0.990000 0.600000 1.050000
v -0.800927 0.364886 1.050000
v -0.305927 0.219577 1.050000
v 0.305927 0.219577 1.050000
v 0.800927 0.364886 1.050000
v 0.920000 0.570000 1.650000
v 0.744296 0.769847 1.650000
v 0.284296 0.893359 1.650000
v -0.284296 0.893359 1.650000
v -0.744296 0.769847 1.650000
v -0.920000 0.570000 1.650000
v -0.744296 0.370153 1.650000
v -0.284296 0.246641 1.650000
v 0.284296 0.246641 1.650000
v 0.744296 0.370153 1.650000
v 0.780000 0.550000 2.120000
v 0.631033 0.726336 2.120000
v 0.241033 0.835317 2.120000
v -0.241033 0.835317 2.120000
v -0.631033 0.726336 2.120000
v -0.780000 0.550000 2.120000
v -0.631033 0.373664 2.120000
v -0.241033 0.264683 2.120000
v 0.241033 0.264683 2.120000
v 0.631033 0.373664 2.120000
v 0.000000 0.550000 -2.120000
v 0.000000 0.550000 2.120000
v -0.690000 0.805000 -1.175000
v 0.690000 0.805000 -1.175000
v 0.690000 1.355000 -1.175000
v -0.690000 1.355000 -1.175000
v -0.690000 0.805000 0.675000
v 0.690000 0.805000 0.675000
v 0.690000 1.355000 0.675000
v -0.690000 1.355000 0.675000
v -1.180000 0.750000 -1.350000
v -1.180000 0.679336 -1.132519
v -1.180000 0.494336 -0.998109
v -1.180000 0.265664 -0.998109
v -1.180000 0.080664 -1.132519
v -1.180000 0.010000 -1.350000
v -1.180000 0.080664 -1.567481
v -1.180000 0.265664 -1.701891
v -1.180000 0.494336 -1.701891
v -1.180000 0.679336 -1.567481
v -0.880000 0.750000 -1.350000
v -0.880000 0.679336 -1.132519
v -0.880000 0.494336 -0.998109
v -0.880000 0.265664 -0.998109
v -0.880000 0.080664 -1.132519
v -0.880000 0.010000 -1.350000
v -0.880000 0.080664 -1.567481
v -0.880000 0.265664 -1.701891
v -0.880000 0.494336 -1.701891
v -0.880000 0.679336 -1.567481
v -1.180000 0.380000 -1.350000
v -0.880000 0.380000 -1.350000
v -1.180000 0.750000 1.350000
v -1.180000 0.679336 1.567481
v -1.180000 0.494336 1.701891
v -1.180000 0.265664 1.701891
v -1.180000 0.080664 1.567481
v -1.180000 0.010000 1.350000
v -1.180000 0.080664 1.132519
v -1.180000 0.265664 0.998109
v -1.180000 0.494336 0.998109
v -1.180000 0.679336 1.132519
v -0.880000 0.750000 1.350000
v -0.880000 0.679336 1.567481
v -0.880000 0.494336 1.701891
v -0.880000 0.265664 1.701891
v -0.880000 0.080664 1.567481
v -0.880000 0.010000 1.350000
v -0.880000 0.080664 1.132519
v -0.880000 0.265664 0.998109
v -0.880000 0.494336 0.998109
v -0.880000 0.679336 1.132519
v -1.180000 0.380000 1.350000
v -0.880000 0.380000 1.350000
v 0.880000 0.750000 -1.350000
v 0.880000 0.679336 -1.132519
v 0.880000 0.494336 -0.998109
v 0.880000 0.265664 -0.998109
v 0.880000 0.080664 -1.132519
v 0.880000 0.010000 -1.350000
v 0.880000 0.080664 -1.567481
v 0.880000 0.265664 -1.701891
v 0.880000 0.494336 -1.701891
v 0.880000 0.679336 -1.567481
v 1.180000 0.750000 -1.350000
v 1.180000 0.679336 -1.132519
v 1.180000 0.494336 -0.998109
v 1.180000 0.265664 -0.998109
v 1.180000 0.080664 -1.132519
v 1.180000 0.010000 -1.350000
v 1.180000 0.080664 -1.567481
v 1.180000 0.265664 -1.701891
v 1.180000 0.494336 -1.701891
v 1.180000 0.679336 -1.567481
v 0.880000 0.380000 -1.350000
v 1.180000 0.380000 -1.350000
v 0.880000 0.750000 1.350000
v 0.880000 0.679336 1.567481
v 0.880000 0.494336 1.701891
v 0.880000 0.265664 1.701891
v 0.880000 0.080664 1.567481
v 0.880000 0.010000 1.350000
v 0.880000 0.080664 1.132519
v 0.880000 0.265664 0.998109
v 0.880000 0.494336 0.998109
v 0.880000 0.679336 1.132519
v 1.180000 0.750000 1.350000
v 1.180000 0.679336 1.567481
v 1.180000 0.494336 1.701891
v 1.180000 0.265664 1.701891
v 1.180000 0.080664 1.567481
v 1.180000 0.010000 1.350000
v 1.180000 0.080664 1.132519
v 1.180000 0.265664 0.998109
v 1.180000 0.494336 0.998109
v 1.180000 0.679336 1.132519
v 0.880000 0.380000 1.350000
v 1.180000 0.380000 1.350000
v -1.090000 0.190000 1.940000
v 1.090000 0.190000 1.940000
v 1.090000 0.250000 1.940000
v -1.090000 0.250000 1.940000
v -1.090000 0.190000 2.420000
v 1.090000 0.190000 2.420000
v 1.090000 0.250000 2.420000
v -1.090000 0.250000 2.420000
v -1.175000 1.380000 -2.090000
v 1.175000 1.380000 -2.090000
v 1.175000 1.480000 -2.090000
v -1.175000 1.480000 -2.090000
v -1.175000 1.380000 -1.710000
v 1.175000 1.380000 -1.710000
v 1.175000 1.480000 -1.710000
v -1.175000 1.480000 -1.710000
v -1.050000 0.230000 -1.525000
v -0.950000 0.230000 -1.525000
v -0.950000 0.350000 -1.525000
v -1.050000 0.350000 -1.525000
v -1.050000 0.230000 1.525000
v -0.950000 0.230000 1.525000
v -0.950000 0.350000 1.525000
v -1.050000 0.350000 1.525000
v 0.950000 0.230000 -1.525000
v 1.050000 0.230000 -1.525000
v 1.050000 0.350000 -1.525000
v 0.950000 0.350000 -1.525000
v 0.950000 0.230000 1.525000
v 1.050000 0.230000 1.525000
v 1.050000 0.350000 1.525000
v 0.950000 0.350000 1.525000
v -0.830000 0.980000 -1.780000
v -0.730000 0.980000 -1.780000
v -0.730000 1.460000 -1.780000
v -0.830000 1.460000 -1.780000
v -0.830000 0.980000 -1.660000
v -0.730000 0.980000 -1.660000
v -0.730000 1.460000 -1.660000
v -0.830000 1.460000 -1.660000
v 0.730000 0.980000 -1.780000
v 0.830000 0.980000 -1.780000
v 0.830000 1.460000 -1.780000
v 0.730000 1.460000 -1.780000
v 0.730000 0.980000 -1.660000
v 0.830000 0.980000 -1.660000
v 0.830000 1.460000 -1.660000
v 0.730000 1.460000 -1.660000
v -0.410000 0.880000 0.340000
v 0.410000 0.880000 0.340000
v 0.410000 1.220000 0.340000
v -0.410000 1.220000 0.340000
v -0.410000 0.880000 1.100000
v 0.410000 0.880000 1.100000
v 0.410000 1.220000 1.100000
v -0.410000 1.220000 1.100000
v -0.120000 0.890000 -0.125000
v 0.120000 0.890000 -0.125000
v 0.120000 0.930000 -0.125000
v -0.120000 0.930000 -0.125000
v -0.120000 0.890000 1.825000
v 0.120000 0.890000 1.825000
v 0.120000 0.930000 1.825000
v -0.120000 0.930000 1.825000
v -0.487822 0.890000 0.858127
v -0.390007 0.890000 0.878918
v -0.390007 0.930000 0.878918
v -0.487822 0.930000 0.858127
v -0.649993 0.890000 1.621082
v -0.552178 0.890000 1.641873
v -0.552178 0.930000 1.641873
v -0.649993 0.930000 1.621082
v 0.390007 0.890000 0.878918
v 0.487822 0.890000 0.858127
v 0.487822 0.930000 0.858127
v 0.390007 0.930000 0.878918
v 0.552178 0.890000 1.641873
v 0.649993 0.890000 1.621082
v 0.649993 0.930000 1.621082
v 0.552178 0.930000 1.641873
v -0.820000 0.640000 2.010000
v -0.340000 0.640000 2.010000
v -0.340000 0.760000 2.010000
v -0.820000 0.760000 2.010000
v -0.820000 0.640000 2.110000
v -0.340000 0.640000 2.110000
v -0.340000 0.760000 2.110000
v -0.820000 0.760000 2.110000
v 0.340000 0.640000 2.010000
v 0.820000 0.640000 2.010000
v 0.820000 0.760000 2.010000
v 0.340000 0.760000 2.010000
v 0.340000 0.640000 2.110000
v 0.820000 0.640000 2.110000
v 0.820000 0.760000 2.110000
v 0.340000 0.760000 2.110000
g Body
f 1 2 12
f 1 12 11
f 2 3 13
f 2 13 12
f 3 4 14
f 3 14 13
f 4 5 15
f 4 15 14
f 5 6 16
f 5 16 15
f 6 7 17
f 6 17 16
f 7 8 18
f 7 18 17
f 8 9 19
f 8 19 18
f 9 10 20
f 9 20 19
f 10 1 11
f 10 11 20
f 11 12 22
f 11 22 21
f 12 13 23
f 12 23 22
f 13 14 24
f 13 24 23
f 14 15 25
f 14 25 24
f 15 16 26
f 15 26 25
f 16 17 27
f 16 27 26
f 17 18 28
f 17 28 27
f 18 19 29
f 18 29 28
f 19 20 30
f 19 30 29
f 20 11 21
f 20 21 30
f 21 22 32
f 21 32 31
f 22 23 33
f 22 33 32
f 23 24 34
f 23 34 33
f 24 25 35
f 24 35 34
f 25 26 36
f 25 36 35
f 26 27 37
f 26 37 36
f 27 28 38
f 27 38 37
f 28 29 39
f 28 39 38
f 29 30 40
f 29 40 39
f 30 21 31
f 30 31 40
f 31 32 42
f 31 42 41
f 32 33 43
f 32 43 42
f 33 34 44
f 33 44 43
f 34 35 45
f 34 45 44
f 35 36 46
f 35 46 45
f 36 37 47
f 36 47 46
f 37 38 48
f 37 48 47
f 38 39 49
f 38 49 48
f 39 40 50
f 39 50 49
f 40 31 41
f 40 41 50
f 41 42 52
f 41 52 51
f 42 43 53
f 42 53 52
f 43 44 54
f 43 54 53
f 44 45 55
f 44 55 54
f 45 46 56
f 45 56 55
f 46 47 57
f 46 57 56
f 47 48 58
f 47 58 57
f 48 49 59
f 48 59 58
f 49 50 60
f 49 60 59
f 50 41 51
f 50 51 60
f 51 52 62
f 51 62 61
f 52 53 63
f 52 63 62
f 53 54 64
f 53 64 63
f 54 55 65
f 54 65 64
f 55 56 66
f 55 66 65
f 56 57 67
f 56 67 66
f 57 58 68
f 57 68 67
f 58 59 69
f 58 69 68
f 59 60 70
f 59 70 69
f 60 51 61
f 60 61 70
f 61 62 72
f 61 72 71
f 62 63 73
f 62 73 72
f 63 64 74
f 63 74 73
f 64 65 75
f 64 75 74
f 65 66 76
f 65 76 75
f 66 67 77
f 66 77 76
f 67 68 78
f 67 78 77
f 68 69 79
f 68 79 78
f 69 70 80
f 69 80 79
f 70 61 71
f 70 71 80
f 81 1 2
f 82 72 71
f 81 2 3
f 82 73 72
f 81 3 4
f 82 74 73
f 81 4 5
f 82 75 74
f 81 5 6
f 82 76 75
f 81 6 7
f 82 77 76
f 81 7 8
f 82 78 77
f 81 8 9
f 82 79 78
f 81 9 10
f 82 80 79
f 81 10 1
f 82 71 80
g Glass
f 83 84 85
f 83 85 86
f 87 90 89
f 87 89 88
f 83 87 88
f 83 88 84
f 86 85 89
f 86 89 90
f 83 86 90
f 83 90 87
f 84 88 89
f 84 89 85
g Wheel
f 91 101 102
f 91 102 92
f 92 102 103
f 92 103 93
f 93 103 104
f 93 104 94
f 94 104 105
f 94 105 95
f 95 105 106
f 95 106 96
f 96 106 107
f 96 107 97
f 97 107 108
f 97 108 98
f 98 108 109
f 98 109 99
f 99 109 110
f 99 110 100
f 100 110 101
f 100 101 91
f 111 92 91
f 112 101 102
f 111 93 92
f 112 102 103
f 111 94 93
f 112 103 104
f 111 95 94
f 112 104 105
f 111 96 95
f 112 105 106
f 111 97 96
f 112 106 107
f 111 98 97
f 112 107 108
f 111 99 98
f 112 108 109
f 111 100 99
f 112 109 110
f 111 91 100
f 112 110 101
f 113 123 124
f 113 124 114
f 114 124 125
f 114 125 115
f 115 125 126
f 115 126 116
f 116 126 127
f 116 127 117
f 117 127 128
f 117 128 118
f 118 128 129
f 118 129 119
f 119 129 130
f 119 130 120
f 120 130 131
f 120 131 121
f 121 131 132
f 121 132 122
f 122 132 123
f 122 123 113
f 133 114 113
f 134 123 124
f 133 115 114
f 134 124 125
f 133 116 115
f 134 125 126
f 133 117 116
f 134 126 127
f 133 118 117
f 134 127 128
f 133 119 118
f 134 128 129
f 133 120 119
f 134 129 130
f 133 121 120
f 134 130 131
f 133 122 121
f 134 131 132
f 133 113 122
f 134 132 123
f 135 145 146
f 135 146 136
f 136 146 147
f 136 147 137
f 137 147 148
f 137 148 138
f 138 148 149
f 138 149 139
f 139 149 150
f 139 150 140
f 140 150 151
f 140 151 141
f 141 151 152
f 141 152 142
f 142 152 153
f 142 153 143
f 143 153 154
f 143 154 144
f 144 154 145
f 144 145 135
f 155 136 135
f 156 145 146
f 155 137 136
f 156 146 147
f 155 138 137
f 156 147 148
f 155 139 138
f 156 148 149
f 155 140 139
f 156 149 150
f 155 141 140
f 156 150 151
f 155 142 141
f 156 151 152
f 155 143 142
f 156 152 153
f 155 144 143
f 156 153 154
f 155 135 144
f 156 154 145
f 157 167 168
f 157 168 158
f 158 168 169
f 158 169 159
f 159 169 170
f 159 170 160
f 160 170 171
f 160 171 161
f 161 171 172
f 161 172 162
f 162 172 173
f 162 173 163
f 163 173 174
f 163 174 164
f 164 174 175
f 164 175 165
f 165 175 176
f 165 176 166
f 166 176 167
f 166 167 157
f 177 158 157
f 178 167 168
f 177 159 158
f 178 168 169
f 177 160 159
f 178 169 170
f 177 161 160
f 178 170 171
f 177 162 161
f 178 171 172
f 177 163 162
f 178 172 173
f 177 164 163
f 178 173 174
f 177 165 164
f 178 174 175
f 177 166 165
f 178 175 176
f 177 157 166
f 178 176 167
g GoldTrim
f 179 180 181
f 179 181 182
f 183 186 185
f 183 185 184
f 179 183 184
f 179 184 180
f 182 181 185
f 182 185 186
f 179 182 186
f 179 186 183
f 180 184 185
f 180 185 181
f 187 188 189
f 187 189 190
f 191 194 193
f 191 193 192
f 187 191 192
f 187 192 188
f 190 189 193
f 190 193 194
f 187 190 194
f 187 194 191
f 188 192 193
f 188 193 189
f 195 196 197
f 195 197 198
f 199 202 201
f 199 201 200
f 195 199 200
f 195 200 196
f 198 197 201
f 198 201 202
f 195 198 202
f 195 202 199
f 196 200 201
f 196 201 197
f 203 204 205
f 203 205 206
f 207 210 209
f 207 209 208
f 203 207 208
f 203 208 204
f 206 205 209
f 206 209 210
f 203 206 210
f 203 210 207
f 204 208 209
f 204 209 205
f 211 212 213
f 211 213 214
f 215 218 217
f 215 217 216
f 211 215 216
f 211 216 212
f 214 213 217
f 214 217 218
f 211 214 218
f 211 218 215
f 212 216 217
f 212 217 213
f 219 220 221
f 219 221 222
f 223 226 225
f 223 225 224
f 219 223 224
f 219 224 220
f 222 221 225
f 222 225 226
f 219 222 226
f 219 226 223
f 220 224 225
f 220 225 221
g Black
f 227 228 229
f 227 229 230
f 231 234 233
f 231 233 232
f 227 231 232
f 227 232 228
f 230 229 233
f 230 233 234
f 227 230 234
f 227 234 231
f 228 232 233
f 228 233 229
g GoldTrim
f 235 236 237
f 235 237 238
f 239 242 241
f 239 241 240
f 235 239 240
f 235 240 236
f 238 237 241
f 238 241 242
f 235 238 242
f 235 242 239
f 236 240 241
f 236 241 237
g Spirit
f 243 244 245
f 243 245 246
f 247 250 249
f 247 249 248
f 243 247 248
f 243 248 244
f 246 245 249
f 246 249 250
f 243 246 250
f 243 250 247
f 244 248 249
f 244 249 245
f 251 252 253
f 251 253 254
f 255 258 257
f 255 257 256
f 251 255 256
f 251 256 252
f 254 253 257
f 254 257 258
f 251 254 258
f 251 258 255
f 252 256 257
f 252 257 253
f 259 260 261
f 259 261 262
f 263 266 265
f 263 265 264
f 259 263 264
f 259 264 260
f 262 261 265
f 262 265 266
f 259 262 266
f 259 266 263
f 260 264 265
f 260 265 261
f 267 268 269
f 267 269 270
f 271 274 273
f 271 273 272
f 267 271 272
f 267 272 268
f 270 269 273
f 270 273 274
f 267 270 274
f 267 274 271
f 268 272 273
f 268 273 269
