# 3Fareet UART-007 authored road rune candidate
o SM_Track_SpiritRune_A
s 1
v -1.25000 0.00000 -1.90000
v -0.48000 0.00000 -1.15000
v -0.78000 0.00000 -0.55000
v -0.26000 0.00000 -0.72000
v 0.00000 0.00000 -0.05000
v 0.26000 0.00000 -0.72000
v 0.78000 0.00000 -0.55000
v 0.48000 0.00000 -1.15000
v 1.25000 0.00000 -1.90000
v 0.72000 0.00000 -0.25000
v 1.05000 0.00000 0.35000
v 0.38000 0.00000 0.20000
v 0.00000 0.00000 1.90000
v -0.38000 0.00000 0.20000
v -1.05000 0.00000 0.35000
v -0.72000 0.00000 -0.25000
v -1.25000 0.05500 -1.90000
v -0.48000 0.05500 -1.15000
v -0.78000 0.05500 -0.55000
v -0.26000 0.05500 -0.72000
v 0.00000 0.05500 -0.05000
v 0.26000 0.05500 -0.72000
v 0.78000 0.05500 -0.55000
v 0.48000 0.05500 -1.15000
v 1.25000 0.05500 -1.90000
v 0.72000 0.05500 -0.25000
v 1.05000 0.05500 0.35000
v 0.38000 0.05500 0.20000
v 0.00000 0.05500 1.90000
v -0.38000 0.05500 0.20000
v -1.05000 0.05500 0.35000
v -0.72000 0.05500 -0.25000
v 0.00000 0.00000 0.00000
v 0.00000 0.05500 0.00000
g Rune
f 33 2 1
f 34 17 18
f 33 3 2
f 34 18 19
f 33 4 3
f 34 19 20
f 33 5 4
f 34 20 21
f 33 6 5
f 34 21 22
f 33 7 6
f 34 22 23
f 33 8 7
f 34 23 24
f 33 9 8
f 34 24 25
f 33 10 9
f 34 25 26
f 33 11 10
f 34 26 27
f 33 12 11
f 34 27 28
f 33 13 12
f 34 28 29
f 33 14 13
f 34 29 30
f 33 15 14
f 34 30 31
f 33 16 15
f 34 31 32
f 33 1 16
f 34 32 17
g Edge
f 1 2 18
f 1 18 17
f 2 3 19
f 2 19 18
f 3 4 20
f 3 20 19
f 4 5 21
f 4 21 20
f 5 6 22
f 5 22 21
f 6 7 23
f 6 23 22
f 7 8 24
f 7 24 23
f 8 9 25
f 8 25 24
f 9 10 26
f 9 26 25
f 10 11 27
f 10 27 26
f 11 12 28
f 11 28 27
f 12 13 29
f 12 29 28
f 13 14 30
f 13 30 29
f 14 15 31
f 14 31 30
f 15 16 32
f 15 32 31
f 16 1 17
f 16 17 32
