# UART-006 topology-preserving candidate surface authoring
mtllib SM_Track_DesertGround_A.mtl
# 3Fareet authored track-dressing source candidate
o SM_Track_DesertGround_A
s 1
v -130.00000 -0.12713 -105.00000
v -104.00000 0.01440 -105.00000
v -78.00000 0.10888 -105.00000
v -52.00000 0.09817 -105.00000
v -26.00000 -0.02454 -105.00000
v 0.00000 -0.20677 -105.00000
v 26.00000 -0.36083 -105.00000
v 52.00000 -0.40818 -105.00000
v 78.00000 -0.32080 -105.00000
v 104.00000 -0.13734 -105.00000
v 130.00000 0.05516 -105.00000
v -130.00000 -0.11511 -78.75000
v -104.00000 -0.00951 -78.75000
v -78.00000 0.05673 -78.75000
v -52.00000 0.03390 -78.75000
v -26.00000 -0.08114 -78.75000
v 0.00000 -0.23808 -78.75000
v 26.00000 -0.35668 -78.75000
v 52.00000 -0.36917 -78.75000
v 78.00000 -0.25852 -78.75000
v 104.00000 -0.07120 -78.75000
v 130.00000 0.10377 -78.75000
v -130.00000 -0.05488 -52.50000
v -104.00000 -0.07649 -52.50000
v -78.00000 -0.11314 -52.50000
v -52.00000 -0.16027 -52.50000
v -26.00000 -0.20534 -52.50000
v 0.00000 -0.23033 -52.50000
v 26.00000 -0.21951 -52.50000
v 52.00000 -0.16875 -52.50000
v 78.00000 -0.09115 -52.50000
v 104.00000 -0.01467 -52.50000
v 130.00000 0.02854 -52.50000
v -130.00000 -0.00320 -26.25000
v -104.00000 -0.15957 -26.25000
v -78.00000 -0.30072 -26.25000
v -52.00000 -0.36171 -26.25000
v -26.00000 -0.31558 -26.25000
v 0.00000 -0.18610 -26.25000
v 26.00000 -0.03516 -26.25000
v 52.00000 0.06838 -26.25000
v 78.00000 0.08212 -26.25000
v 104.00000 0.00874 -26.25000
v 130.00000 -0.10881 -26.25000
v -130.00000 -0.02394 0.00000
v -104.00000 -0.22513 0.00000
v -78.00000 -0.38834 0.00000
v -52.00000 -0.42963 0.00000
v -26.00000 -0.32400 0.00000
v 0.00000 -0.12000 0.00000
v 26.00000 0.08400 0.00000
v 52.00000 0.18963 0.00000
v 78.00000 0.14834 0.00000
v 104.00000 -0.01487 0.00000
v 130.00000 -0.21606 0.00000
v -130.00000 -0.13119 26.25000
v -104.00000 -0.24874 26.25000
v -78.00000 -0.32212 26.25000
v -52.00000 -0.30838 26.25000
v -26.00000 -0.20484 26.25000
v 0.00000 -0.05390 26.25000
v 26.00000 0.07558 26.25000
v 52.00000 0.12171 26.25000
v 78.00000 0.06072 26.25000
v 104.00000 -0.08043 26.25000
v 130.00000 -0.23680 26.25000
v -130.00000 -0.26854 52.50000
v -104.00000 -0.22533 52.50000
v -78.00000 -0.14885 52.50000
v -52.00000 -0.07125 52.50000
v -26.00000 -0.02049 52.50000
v 0.00000 -0.00967 52.50000
v 26.00000 -0.03466 52.50000
v 52.00000 -0.07973 52.50000
v 78.00000 -0.12686 52.50000
v 104.00000 -0.16351 52.50000
v 130.00000 -0.18512 52.50000
v -130.00000 -0.34377 78.75000
v -104.00000 -0.16880 78.75000
v -78.00000 0.01852 78.75000
v -52.00000 0.12917 78.75000
v -26.00000 0.11668 78.75000
v 0.00000 -0.00192 78.75000
v 26.00000 -0.15886 78.75000
v 52.00000 -0.27390 78.75000
v 78.00000 -0.29673 78.75000
v 104.00000 -0.23049 78.75000
v 130.00000 -0.12489 78.75000
v -130.00000 -0.29516 105.00000
v -104.00000 -0.10266 105.00000
v -78.00000 0.08080 105.00000
v -52.00000 0.16818 105.00000
v -26.00000 0.12083 105.00000
v 0.00000 -0.03323 105.00000
v 26.00000 -0.21546 105.00000
v 52.00000 -0.33817 105.00000
v 78.00000 -0.34888 105.00000
v 104.00000 -0.25440 105.00000
v 130.00000 -0.11287 105.00000
v -113.00000 -0.25000 -97.00000
v -97.00000 -0.25000 -97.00000
v -97.00000 0.45000 -97.00000
v -113.00000 0.45000 -97.00000
v -113.00000 -0.25000 -63.00000
v -97.00000 -0.25000 -63.00000
v -97.00000 0.45000 -63.00000
v -113.00000 0.45000 -63.00000
v -85.00000 -0.25000 51.00000
v -65.00000 -0.25000 51.00000
v -65.00000 0.65000 51.00000
v -85.00000 0.65000 51.00000
v -85.00000 -0.25000 89.00000
v -65.00000 -0.25000 89.00000
v -65.00000 0.65000 89.00000
v -85.00000 0.65000 89.00000
v 93.00000 -0.25000 -81.00000
v 111.00000 -0.25000 -81.00000
v 111.00000 0.55000 -81.00000
v 93.00000 0.55000 -81.00000
v 93.00000 -0.25000 -51.00000
v 111.00000 -0.25000 -51.00000
v 111.00000 0.55000 -51.00000
v 93.00000 0.55000 -51.00000
v 71.00000 -0.25000 59.00000
v 93.00000 -0.25000 59.00000
v 93.00000 0.55000 59.00000
v 71.00000 0.55000 59.00000
v 71.00000 -0.25000 93.00000
v 93.00000 -0.25000 93.00000
v 93.00000 0.55000 93.00000
v 71.00000 0.55000 93.00000
v -31.00000 -0.25000 84.00000
v -5.00000 -0.25000 84.00000
v -5.00000 0.35000 84.00000
v -31.00000 0.35000 84.00000
v -31.00000 -0.25000 100.00000
v -5.00000 -0.25000 100.00000
v -5.00000 0.35000 100.00000
v -31.00000 0.35000 100.00000
v 18.00000 -0.25000 -100.00000
v 42.00000 -0.25000 -100.00000
v 42.00000 0.45000 -100.00000
v 18.00000 0.45000 -100.00000
v 18.00000 -0.25000 -84.00000
v 42.00000 -0.25000 -84.00000
v 42.00000 0.45000 -84.00000
v 18.00000 0.45000 -84.00000
v -124.00000 -0.25000 -12.00000
v -112.00000 -0.25000 -12.00000
v -112.00000 0.40000 -12.00000
v -124.00000 0.40000 -12.00000
v -124.00000 -0.25000 32.00000
v -112.00000 -0.25000 32.00000
v -112.00000 0.40000 32.00000
v -124.00000 0.40000 32.00000
v 109.00000 -0.25000 -1.00000
v 123.00000 -0.25000 -1.00000
v 123.00000 0.40000 -1.00000
v 109.00000 0.40000 -1.00000
v 109.00000 -0.25000 37.00000
v 123.00000 -0.25000 37.00000
v 123.00000 0.40000 37.00000
v 109.00000 0.40000 37.00000
g DesertSurface
vt 0.000000 0.000000
vt 0.100000 0.000000
vt 0.200000 0.000000
vt 0.300000 0.000000
vt 0.400000 0.000000
vt 0.500000 0.000000
vt 0.600000 0.000000
vt 0.700000 0.000000
vt 0.800000 0.000000
vt 0.900000 0.000000
vt 1.000000 0.000000
vt 0.000000 0.125000
vt 0.100000 0.125000
vt 0.200000 0.125000
vt 0.300000 0.125000
vt 0.400000 0.125000
vt 0.500000 0.125000
vt 0.600000 0.125000
vt 0.700000 0.125000
vt 0.800000 0.125000
vt 0.900000 0.125000
vt 1.000000 0.125000
vt 0.000000 0.250000
vt 0.100000 0.250000
vt 0.200000 0.250000
vt 0.300000 0.250000
vt 0.400000 0.250000
vt 0.500000 0.250000
vt 0.600000 0.250000
vt 0.700000 0.250000
vt 0.800000 0.250000
vt 0.900000 0.250000
vt 1.000000 0.250000
vt 0.000000 0.375000
vt 0.100000 0.375000
vt 0.200000 0.375000
vt 0.300000 0.375000
vt 0.400000 0.375000
vt 0.500000 0.375000
vt 0.600000 0.375000
vt 0.700000 0.375000
vt 0.800000 0.375000
vt 0.900000 0.375000
vt 1.000000 0.375000
vt 0.000000 0.500000
vt 0.100000 0.500000
vt 0.200000 0.500000
vt 0.300000 0.500000
vt 0.400000 0.500000
vt 0.500000 0.500000
vt 0.600000 0.500000
vt 0.700000 0.500000
vt 0.800000 0.500000
vt 0.900000 0.500000
vt 1.000000 0.500000
vt 0.000000 0.625000
vt 0.100000 0.625000
vt 0.200000 0.625000
vt 0.300000 0.625000
vt 0.400000 0.625000
vt 0.500000 0.625000
vt 0.600000 0.625000
vt 0.700000 0.625000
vt 0.800000 0.625000
vt 0.900000 0.625000
vt 1.000000 0.625000
vt 0.000000 0.750000
vt 0.100000 0.750000
vt 0.200000 0.750000
vt 0.300000 0.750000
vt 0.400000 0.750000
vt 0.500000 0.750000
vt 0.600000 0.750000
vt 0.700000 0.750000
vt 0.800000 0.750000
vt 0.900000 0.750000
vt 1.000000 0.750000
vt 0.000000 0.875000
vt 0.100000 0.875000
vt 0.200000 0.875000
vt 0.300000 0.875000
vt 0.400000 0.875000
vt 0.500000 0.875000
vt 0.600000 0.875000
vt 0.700000 0.875000
vt 0.800000 0.875000
vt 0.900000 0.875000
vt 1.000000 0.875000
vt 0.000000 1.000000
vt 0.100000 1.000000
vt 0.200000 1.000000
vt 0.300000 1.000000
vt 0.400000 1.000000
vt 0.500000 1.000000
vt 0.600000 1.000000
vt 0.700000 1.000000
vt 0.800000 1.000000
vt 0.900000 1.000000
vt 1.000000 1.000000
vt 0.065385 0.038095
vt 0.126923 0.038095
vt 0.126923 0.038095
vt 0.065385 0.038095
vt 0.065385 0.200000
vt 0.126923 0.200000
vt 0.126923 0.200000
vt 0.065385 0.200000
vt 0.173077 0.742857
vt 0.250000 0.742857
vt 0.250000 0.742857
vt 0.173077 0.742857
vt 0.173077 0.923810
vt 0.250000 0.923810
vt 0.250000 0.923810
vt 0.173077 0.923810
vt 0.857692 0.114286
vt 0.926923 0.114286
vt 0.926923 0.114286
vt 0.857692 0.114286
vt 0.857692 0.257143
vt 0.926923 0.257143
vt 0.926923 0.257143
vt 0.857692 0.257143
vt 0.773077 0.780952
vt 0.857692 0.780952
vt 0.857692 0.780952
vt 0.773077 0.780952
vt 0.773077 0.942857
vt 0.857692 0.942857
vt 0.857692 0.942857
vt 0.773077 0.942857
vt 0.380769 0.900000
vt 0.480769 0.900000
vt 0.480769 0.900000
vt 0.380769 0.900000
vt 0.380769 0.976190
vt 0.480769 0.976190
vt 0.480769 0.976190
vt 0.380769 0.976190
vt 0.569231 0.023810
vt 0.661538 0.023810
vt 0.661538 0.023810
vt 0.569231 0.023810
vt 0.569231 0.100000
vt 0.661538 0.100000
vt 0.661538 0.100000
vt 0.569231 0.100000
vt 0.023077 0.442857
vt 0.069231 0.442857
vt 0.069231 0.442857
vt 0.023077 0.442857
vt 0.023077 0.652381
vt 0.069231 0.652381
vt 0.069231 0.652381
vt 0.023077 0.652381
vt 0.919231 0.495238
vt 0.973077 0.495238
vt 0.973077 0.495238
vt 0.919231 0.495238
vt 0.919231 0.676190
vt 0.973077 0.676190
vt 0.973077 0.676190
vt 0.919231 0.676190
vn 0.004752 -0.999989 -0.000226
vn 0.003875 -0.999992 -0.001269
vn 0.000781 -0.999997 -0.002141
vn -0.003185 -0.999992 -0.002351
vn -0.005921 -0.999981 -0.001835
vn -0.005832 -0.999983 -0.000742
vn -0.002742 -0.999996 0.000601
vn 0.001932 -0.999997 0.001782
vn 0.005874 -0.999980 0.002422
vn 0.007063 -0.999972 0.002297
vn 0.007404 -0.999971 0.001852
vn 0.002431 -0.999997 0.000067
vn 0.002875 -0.999994 -0.002156
vn 0.000860 -0.999991 -0.004204
vn -0.002125 -0.999988 -0.004401
vn -0.004434 -0.999987 -0.002655
vn -0.004631 -0.999989 0.000212
vn -0.002343 -0.999993 0.002868
vn 0.001452 -0.999990 0.004129
vn 0.004870 -0.999982 0.003523
vn 0.006098 -0.999980 0.001475
vn 0.006954 -0.999976 0.000502
vn -0.002559 -0.999997 0.000366
vn -0.000975 -0.999996 -0.002714
vn -0.001040 -0.999980 -0.006243
vn -0.001033 -0.999976 -0.006802
vn -0.000806 -0.999992 -0.003929
vn -0.000220 -0.999999 0.001042
vn 0.000693 -0.999984 0.005637
vn 0.001654 -0.999970 0.007527
vn 0.002214 -0.999981 0.005747
vn 0.001982 -0.999997 0.001206
vn 0.003351 -0.999992 -0.001982
vn -0.006589 -0.999978 -0.000440
vn -0.004999 -0.999985 -0.002116
vn -0.003091 -0.999985 -0.004453
vn 0.000184 -0.999989 -0.004665
vn 0.003270 -0.999992 -0.002366
vn 0.004743 -0.999988 0.001458
vn 0.004009 -0.999980 0.004905
vn 0.001564 -0.999980 0.006142
vn -0.001313 -0.999989 0.004397
vn -0.003247 -0.999995 0.000417
vn -0.002460 -0.999993 -0.002809
vn -0.006666 -0.999976 -0.001925
vn -0.006144 -0.999981 -0.000844
vn -0.003439 -0.999994 0.000082
vn 0.001098 -0.999999 0.000877
vn 0.005233 -0.999985 0.001395
vn 0.006891 -0.999975 0.001572
vn 0.005233 -0.999985 0.001395
vn 0.001098 -0.999999 0.000877
vn -0.003439 -0.999994 0.000082
vn -0.006144 -0.999981 -0.000844
vn -0.006666 -0.999976 -0.001925
vn -0.002460 -0.999993 -0.002809
vn -0.003247 -0.999995 0.000417
vn -0.001313 -0.999989 0.004397
vn 0.001564 -0.999980 0.006142
vn 0.004009 -0.999980 0.004905
vn 0.004743 -0.999988 0.001458
vn 0.003270 -0.999992 -0.002366
vn 0.000184 -0.999989 -0.004665
vn -0.003091 -0.999985 -0.004453
vn -0.004999 -0.999985 -0.002116
vn -0.006589 -0.999978 -0.000440
vn 0.003351 -0.999992 -0.001982
vn 0.001982 -0.999997 0.001206
vn 0.002214 -0.999981 0.005747
vn 0.001654 -0.999970 0.007527
vn 0.000693 -0.999984 0.005637
vn -0.000220 -0.999999 0.001042
vn -0.000806 -0.999992 -0.003929
vn -0.001033 -0.999976 -0.006802
vn -0.001040 -0.999980 -0.006243
vn -0.000975 -0.999996 -0.002714
vn -0.002559 -0.999997 0.000366
vn 0.006954 -0.999976 0.000502
vn 0.006098 -0.999980 0.001475
vn 0.004870 -0.999982 0.003523
vn 0.001452 -0.999990 0.004129
vn -0.002343 -0.999993 0.002868
vn -0.004631 -0.999989 0.000212
vn -0.004434 -0.999987 -0.002655
vn -0.002125 -0.999988 -0.004401
vn 0.000860 -0.999991 -0.004204
vn 0.002875 -0.999994 -0.002156
vn 0.002431 -0.999997 0.000067
vn 0.007404 -0.999971 0.001852
vn 0.007063 -0.999972 0.002297
vn 0.005874 -0.999980 0.002422
vn 0.001932 -0.999997 0.001782
vn -0.002742 -0.999996 0.000601
vn -0.005832 -0.999983 -0.000742
vn -0.005921 -0.999981 -0.001835
vn -0.003185 -0.999992 -0.002351
vn 0.000781 -0.999997 -0.002141
vn 0.003875 -0.999992 -0.001269
vn 0.004752 -0.999989 -0.000226
vn 0.043671 0.998200 0.041102
vn -0.043706 0.998992 0.010284
vn -0.043671 -0.998200 0.041102
vn 0.043706 -0.998992 0.010284
vn 0.043706 0.998992 -0.010284
vn -0.043671 0.998200 -0.041102
vn -0.043706 -0.998992 -0.010284
vn 0.043671 -0.998200 -0.041102
vn 0.044904 0.997872 0.047268
vn -0.044951 0.998919 0.011829
vn -0.044904 -0.997872 0.047268
vn 0.044951 -0.998919 0.011829
vn 0.044951 0.998919 -0.011829
vn -0.044904 0.997872 -0.047268
vn -0.044951 -0.998919 -0.011829
vn 0.044904 -0.997872 -0.047268
vn 0.044338 0.997599 0.053205
vn -0.044397 0.998925 0.013319
vn -0.044338 -0.997599 0.053205
vn 0.044397 -0.998925 0.013319
vn 0.044397 0.998925 -0.013319
vn -0.044338 0.997599 -0.053205
vn -0.044397 -0.998925 -0.013319
vn 0.044338 -0.997599 -0.053205
vn 0.036300 0.998236 0.046976
vn -0.036337 0.999270 0.011756
vn -0.036300 -0.998236 0.046976
vn 0.036337 -0.999270 0.011756
vn 0.036337 0.999270 -0.011756
vn -0.036300 0.998236 -0.046976
vn -0.036337 -0.999270 -0.011756
vn 0.036300 -0.998236 -0.046976
vn 0.023006 0.996935 0.074770
vn -0.023067 0.999558 0.018742
vn -0.023006 -0.996935 0.074770
vn 0.023067 -0.999558 0.018742
vn 0.023067 0.999558 -0.018742
vn -0.023006 0.996935 -0.074770
vn -0.023067 -0.999558 -0.018742
vn 0.023006 -0.996935 -0.074770
vn 0.029043 0.995773 0.087130
vn -0.029147 0.999336 0.021860
vn -0.029043 -0.995773 0.087130
vn 0.029147 -0.999336 0.021860
vn 0.029147 0.999336 -0.021860
vn -0.029043 0.995773 -0.087130
vn -0.029147 -0.999336 -0.021860
vn 0.029043 -0.995773 -0.087130
vn 0.054064 0.998102 0.029489
vn -0.054086 0.998509 0.007375
vn -0.054064 -0.998102 0.029489
vn 0.054086 -0.998509 0.007375
vn 0.054086 0.998509 -0.007375
vn -0.054064 0.998102 -0.029489
vn -0.054086 -0.998509 -0.007375
vn 0.054064 -0.998102 -0.029489
vn 0.046352 0.998341 0.034154
vn -0.046377 0.998887 0.008543
vn -0.046352 -0.998341 0.034154
vn 0.046377 -0.998887 0.008543
vn 0.046377 0.998887 -0.008543
vn -0.046352 0.998341 -0.034154
vn -0.046377 -0.998887 -0.008543
vn 0.046352 -0.998341 -0.034154
usemtl DesertGround_Sand
f 1/1/1 2/2/2 13/13/13
f 1/1/1 13/13/13 12/12/12
f 2/2/2 3/3/3 14/14/14
f 2/2/2 14/14/14 13/13/13
f 3/3/3 4/4/4 15/15/15
f 3/3/3 15/15/15 14/14/14
f 4/4/4 5/5/5 16/16/16
f 4/4/4 16/16/16 15/15/15
f 5/5/5 6/6/6 17/17/17
f 5/5/5 17/17/17 16/16/16
f 6/6/6 7/7/7 18/18/18
f 6/6/6 18/18/18 17/17/17
f 7/7/7 8/8/8 19/19/19
f 7/7/7 19/19/19 18/18/18
f 8/8/8 9/9/9 20/20/20
f 8/8/8 20/20/20 19/19/19
f 9/9/9 10/10/10 21/21/21
f 9/9/9 21/21/21 20/20/20
f 10/10/10 11/11/11 22/22/22
f 10/10/10 22/22/22 21/21/21
f 12/12/12 13/13/13 24/24/24
f 12/12/12 24/24/24 23/23/23
f 13/13/13 14/14/14 25/25/25
f 13/13/13 25/25/25 24/24/24
f 14/14/14 15/15/15 26/26/26
f 14/14/14 26/26/26 25/25/25
f 15/15/15 16/16/16 27/27/27
f 15/15/15 27/27/27 26/26/26
f 16/16/16 17/17/17 28/28/28
f 16/16/16 28/28/28 27/27/27
f 17/17/17 18/18/18 29/29/29
f 17/17/17 29/29/29 28/28/28
f 18/18/18 19/19/19 30/30/30
f 18/18/18 30/30/30 29/29/29
f 19/19/19 20/20/20 31/31/31
f 19/19/19 31/31/31 30/30/30
f 20/20/20 21/21/21 32/32/32
f 20/20/20 32/32/32 31/31/31
f 21/21/21 22/22/22 33/33/33
f 21/21/21 33/33/33 32/32/32
f 23/23/23 24/24/24 35/35/35
f 23/23/23 35/35/35 34/34/34
f 24/24/24 25/25/25 36/36/36
f 24/24/24 36/36/36 35/35/35
f 25/25/25 26/26/26 37/37/37
f 25/25/25 37/37/37 36/36/36
f 26/26/26 27/27/27 38/38/38
f 26/26/26 38/38/38 37/37/37
f 27/27/27 28/28/28 39/39/39
f 27/27/27 39/39/39 38/38/38
f 28/28/28 29/29/29 40/40/40
f 28/28/28 40/40/40 39/39/39
f 29/29/29 30/30/30 41/41/41
f 29/29/29 41/41/41 40/40/40
f 30/30/30 31/31/31 42/42/42
f 30/30/30 42/42/42 41/41/41
f 31/31/31 32/32/32 43/43/43
f 31/31/31 43/43/43 42/42/42
f 32/32/32 33/33/33 44/44/44
f 32/32/32 44/44/44 43/43/43
f 34/34/34 35/35/35 46/46/46
f 34/34/34 46/46/46 45/45/45
f 35/35/35 36/36/36 47/47/47
f 35/35/35 47/47/47 46/46/46
f 36/36/36 37/37/37 48/48/48
f 36/36/36 48/48/48 47/47/47
f 37/37/37 38/38/38 49/49/49
f 37/37/37 49/49/49 48/48/48
f 38/38/38 39/39/39 50/50/50
f 38/38/38 50/50/50 49/49/49
f 39/39/39 40/40/40 51/51/51
f 39/39/39 51/51/51 50/50/50
f 40/40/40 41/41/41 52/52/52
f 40/40/40 52/52/52 51/51/51
f 41/41/41 42/42/42 53/53/53
f 41/41/41 53/53/53 52/52/52
f 42/42/42 43/43/43 54/54/54
f 42/42/42 54/54/54 53/53/53
f 43/43/43 44/44/44 55/55/55
f 43/43/43 55/55/55 54/54/54
f 45/45/45 46/46/46 57/57/57
f 45/45/45 57/57/57 56/56/56
f 46/46/46 47/47/47 58/58/58
f 46/46/46 58/58/58 57/57/57
f 47/47/47 48/48/48 59/59/59
f 47/47/47 59/59/59 58/58/58
f 48/48/48 49/49/49 60/60/60
f 48/48/48 60/60/60 59/59/59
f 49/49/49 50/50/50 61/61/61
f 49/49/49 61/61/61 60/60/60
f 50/50/50 51/51/51 62/62/62
f 50/50/50 62/62/62 61/61/61
f 51/51/51 52/52/52 63/63/63
f 51/51/51 63/63/63 62/62/62
f 52/52/52 53/53/53 64/64/64
f 52/52/52 64/64/64 63/63/63
f 53/53/53 54/54/54 65/65/65
f 53/53/53 65/65/65 64/64/64
f 54/54/54 55/55/55 66/66/66
f 54/54/54 66/66/66 65/65/65
f 56/56/56 57/57/57 68/68/68
f 56/56/56 68/68/68 67/67/67
f 57/57/57 58/58/58 69/69/69
f 57/57/57 69/69/69 68/68/68
f 58/58/58 59/59/59 70/70/70
f 58/58/58 70/70/70 69/69/69
f 59/59/59 60/60/60 71/71/71
f 59/59/59 71/71/71 70/70/70
f 60/60/60 61/61/61 72/72/72
f 60/60/60 72/72/72 71/71/71
f 61/61/61 62/62/62 73/73/73
f 61/61/61 73/73/73 72/72/72
f 62/62/62 63/63/63 74/74/74
f 62/62/62 74/74/74 73/73/73
f 63/63/63 64/64/64 75/75/75
f 63/63/63 75/75/75 74/74/74
f 64/64/64 65/65/65 76/76/76
f 64/64/64 76/76/76 75/75/75
f 65/65/65 66/66/66 77/77/77
f 65/65/65 77/77/77 76/76/76
f 67/67/67 68/68/68 79/79/79
f 67/67/67 79/79/79 78/78/78
f 68/68/68 69/69/69 80/80/80
f 68/68/68 80/80/80 79/79/79
f 69/69/69 70/70/70 81/81/81
f 69/69/69 81/81/81 80/80/80
f 70/70/70 71/71/71 82/82/82
f 70/70/70 82/82/82 81/81/81
f 71/71/71 72/72/72 83/83/83
f 71/71/71 83/83/83 82/82/82
f 72/72/72 73/73/73 84/84/84
f 72/72/72 84/84/84 83/83/83
f 73/73/73 74/74/74 85/85/85
f 73/73/73 85/85/85 84/84/84
f 74/74/74 75/75/75 86/86/86
f 74/74/74 86/86/86 85/85/85
f 75/75/75 76/76/76 87/87/87
f 75/75/75 87/87/87 86/86/86
f 76/76/76 77/77/77 88/88/88
f 76/76/76 88/88/88 87/87/87
f 78/78/78 79/79/79 90/90/90
f 78/78/78 90/90/90 89/89/89
f 79/79/79 80/80/80 91/91/91
f 79/79/79 91/91/91 90/90/90
f 80/80/80 81/81/81 92/92/92
f 80/80/80 92/92/92 91/91/91
f 81/81/81 82/82/82 93/93/93
f 81/81/81 93/93/93 92/92/92
f 82/82/82 83/83/83 94/94/94
f 82/82/82 94/94/94 93/93/93
f 83/83/83 84/84/84 95/95/95
f 83/83/83 95/95/95 94/94/94
f 84/84/84 85/85/85 96/96/96
f 84/84/84 96/96/96 95/95/95
f 85/85/85 86/86/86 97/97/97
f 85/85/85 97/97/97 96/96/96
f 86/86/86 87/87/87 98/98/98
f 86/86/86 98/98/98 97/97/97
f 87/87/87 88/88/88 99/99/99
f 87/87/87 99/99/99 98/98/98
g DuneRidge1
f 100/100/100 101/101/101 102/102/102
f 100/100/100 102/102/102 103/103/103
f 105/105/105 104/104/104 107/107/107
f 105/105/105 107/107/107 106/106/106
f 104/104/104 100/100/100 103/103/103
f 104/104/104 103/103/103 107/107/107
f 101/101/101 105/105/105 106/106/106
f 101/101/101 106/106/106 102/102/102
f 103/103/103 102/102/102 106/106/106
f 103/103/103 106/106/106 107/107/107
f 104/104/104 105/105/105 101/101/101
f 104/104/104 101/101/101 100/100/100
g DuneRidge2
f 108/108/108 109/109/109 110/110/110
f 108/108/108 110/110/110 111/111/111
f 113/113/113 112/112/112 115/115/115
f 113/113/113 115/115/115 114/114/114
f 112/112/112 108/108/108 111/111/111
f 112/112/112 111/111/111 115/115/115
f 109/109/109 113/113/113 114/114/114
f 109/109/109 114/114/114 110/110/110
f 111/111/111 110/110/110 114/114/114
f 111/111/111 114/114/114 115/115/115
f 112/112/112 113/113/113 109/109/109
f 112/112/112 109/109/109 108/108/108
g DuneRidge3
f 116/116/116 117/117/117 118/118/118
f 116/116/116 118/118/118 119/119/119
f 121/121/121 120/120/120 123/123/123
f 121/121/121 123/123/123 122/122/122
f 120/120/120 116/116/116 119/119/119
f 120/120/120 119/119/119 123/123/123
f 117/117/117 121/121/121 122/122/122
f 117/117/117 122/122/122 118/118/118
f 119/119/119 118/118/118 122/122/122
f 119/119/119 122/122/122 123/123/123
f 120/120/120 121/121/121 117/117/117
f 120/120/120 117/117/117 116/116/116
g DuneRidge4
f 124/124/124 125/125/125 126/126/126
f 124/124/124 126/126/126 127/127/127
f 129/129/129 128/128/128 131/131/131
f 129/129/129 131/131/131 130/130/130
f 128/128/128 124/124/124 127/127/127
f 128/128/128 127/127/127 131/131/131
f 125/125/125 129/129/129 130/130/130
f 125/125/125 130/130/130 126/126/126
f 127/127/127 126/126/126 130/130/130
f 127/127/127 130/130/130 131/131/131
f 128/128/128 129/129/129 125/125/125
f 128/128/128 125/125/125 124/124/124
g DuneRidge5
f 132/132/132 133/133/133 134/134/134
f 132/132/132 134/134/134 135/135/135
f 137/137/137 136/136/136 139/139/139
f 137/137/137 139/139/139 138/138/138
f 136/136/136 132/132/132 135/135/135
f 136/136/136 135/135/135 139/139/139
f 133/133/133 137/137/137 138/138/138
f 133/133/133 138/138/138 134/134/134
f 135/135/135 134/134/134 138/138/138
f 135/135/135 138/138/138 139/139/139
f 136/136/136 137/137/137 133/133/133
f 136/136/136 133/133/133 132/132/132
g DuneRidge6
f 140/140/140 141/141/141 142/142/142
f 140/140/140 142/142/142 143/143/143
f 145/145/145 144/144/144 147/147/147
f 145/145/145 147/147/147 146/146/146
f 144/144/144 140/140/140 143/143/143
f 144/144/144 143/143/143 147/147/147
f 141/141/141 145/145/145 146/146/146
f 141/141/141 146/146/146 142/142/142
f 143/143/143 142/142/142 146/146/146
f 143/143/143 146/146/146 147/147/147
f 144/144/144 145/145/145 141/141/141
f 144/144/144 141/141/141 140/140/140
g DuneRidge7
f 148/148/148 149/149/149 150/150/150
f 148/148/148 150/150/150 151/151/151
f 153/153/153 152/152/152 155/155/155
f 153/153/153 155/155/155 154/154/154
f 152/152/152 148/148/148 151/151/151
f 152/152/152 151/151/151 155/155/155
f 149/149/149 153/153/153 154/154/154
f 149/149/149 154/154/154 150/150/150
f 151/151/151 150/150/150 154/154/154
f 151/151/151 154/154/154 155/155/155
f 152/152/152 153/153/153 149/149/149
f 152/152/152 149/149/149 148/148/148
g DuneRidge8
f 156/156/156 157/157/157 158/158/158
f 156/156/156 158/158/158 159/159/159
f 161/161/161 160/160/160 163/163/163
f 161/161/161 163/163/163 162/162/162
f 160/160/160 156/156/156 159/159/159
f 160/160/160 159/159/159 163/163/163
f 157/157/157 161/161/161 162/162/162
f 157/157/157 162/162/162 158/158/158
f 159/159/159 158/158/158 162/162/162
f 159/159/159 162/162/162 163/163/163
f 160/160/160 161/161/161 157/157/157
f 160/160/160 157/157/157 156/156/156
