# UART-006 topology-preserving candidate surface authoring
mtllib SM_Track_FinishGate_A.mtl
# 3Fareet UART-007 authored finish gate candidate
# repaired malformed Arch source: preserved pylon/trim v1..v160
o SM_Track_FinishGate_A
s 1
v -5.88000 0.00000 0.00000
v -6.01751 0.00000 0.42321
v -6.37751 0.00000 0.68476
v -6.82249 0.00000 0.68476
v -7.18249 0.00000 0.42321
v -7.32000 0.00000 0.00000
v -7.18249 0.00000 -0.42321
v -6.82249 0.00000 -0.68476
v -6.37751 0.00000 -0.68476
v -6.01751 0.00000 -0.42321
v -5.88000 0.55000 0.00000
v -6.01751 0.55000 0.42321
v -6.37751 0.55000 0.68476
v -6.82249 0.55000 0.68476
v -7.18249 0.55000 0.42321
v -7.32000 0.55000 0.00000
v -7.18249 0.55000 -0.42321
v -6.82249 0.55000 -0.68476
v -6.37751 0.55000 -0.68476
v -6.01751 0.55000 -0.42321
v -6.05000 0.55000 0.00000
v -6.15504 0.55000 0.32328
v -6.43004 0.55000 0.52308
v -6.76996 0.55000 0.52308
v -7.04496 0.55000 0.32328
v -7.15000 0.55000 0.00000
v -7.04496 0.55000 -0.32328
v -6.76996 0.55000 -0.52308
v -6.43004 0.55000 -0.52308
v -6.15504 0.55000 -0.32328
v -6.12000 5.65000 0.00000
v -6.21167 5.65000 0.28214
v -6.45167 5.65000 0.45651
v -6.74833 5.65000 0.45651
v -6.98833 5.65000 0.28214
v -7.08000 5.65000 0.00000
v -6.98833 5.65000 -0.28214
v -6.74833 5.65000 -0.45651
v -6.45167 5.65000 -0.45651
v -6.21167 5.65000 -0.28214
v -5.75000 5.65000 0.00000
v -5.91234 5.65000 0.49962
v -6.33734 5.65000 0.80840
v -6.86266 5.65000 0.80840
v -7.28766 5.65000 0.49962
v -7.45000 5.65000 0.00000
v -7.28766 5.65000 -0.49962
v -6.86266 5.65000 -0.80840
v -6.33734 5.65000 -0.80840
v -5.91234 5.65000 -0.49962
v -5.75000 6.15000 0.00000
v -5.91234 6.15000 0.49962
v -6.33734 6.15000 0.80840
v -6.86266 6.15000 0.80840
v -7.28766 6.15000 0.49962
v -7.45000 6.15000 0.00000
v -7.28766 6.15000 -0.49962
v -6.86266 6.15000 -0.80840
v -6.33734 6.15000 -0.80840
v -5.91234 6.15000 -0.49962
v -6.00000 6.15000 0.00000
v -6.11459 6.15000 0.35267
v -6.41459 6.15000 0.57063
v -6.78541 6.15000 0.57063
v -7.08541 6.15000 0.35267
v -7.20000 6.15000 0.00000
v -7.08541 6.15000 -0.35267
v -6.78541 6.15000 -0.57063
v -6.41459 6.15000 -0.57063
v -6.11459 6.15000 -0.35267
v -6.00000 6.85000 0.00000
v -6.11459 6.85000 0.35267
v -6.41459 6.85000 0.57063
v -6.78541 6.85000 0.57063
v -7.08541 6.85000 0.35267
v -7.20000 6.85000 0.00000
v -7.08541 6.85000 -0.35267
v -6.78541 6.85000 -0.57063
v -6.41459 6.85000 -0.57063
v -6.11459 6.85000 -0.35267
v 7.32000 0.00000 0.00000
v 7.18249 0.00000 0.42321
v 6.82249 0.00000 0.68476
v 6.37751 0.00000 0.68476
v 6.01751 0.00000 0.42321
v 5.88000 0.00000 0.00000
v 6.01751 0.00000 -0.42321
v 6.37751 0.00000 -0.68476
v 6.82249 0.00000 -0.68476
v 7.18249 0.00000 -0.42321
v 7.32000 0.55000 0.00000
v 7.18249 0.55000 0.42321
v 6.82249 0.55000 0.68476
v 6.37751 0.55000 0.68476
v 6.01751 0.55000 0.42321
v 5.88000 0.55000 0.00000
v 6.01751 0.55000 -0.42321
v 6.37751 0.55000 -0.68476
v 6.82249 0.55000 -0.68476
v 7.18249 0.55000 -0.42321
v 7.15000 0.55000 0.00000
v 7.04496 0.55000 0.32328
v 6.76996 0.55000 0.52308
v 6.43004 0.55000 0.52308
v 6.15504 0.55000 0.32328
v 6.05000 0.55000 0.00000
v 6.15504 0.55000 -0.32328
v 6.43004 0.55000 -0.52308
v 6.76996 0.55000 -0.52308
v 7.04496 0.55000 -0.32328
v 7.08000 5.65000 0.00000
v 6.98833 5.65000 0.28214
v 6.74833 5.65000 0.45651
v 6.45167 5.65000 0.45651
v 6.21167 5.65000 0.28214
v 6.12000 5.65000 0.00000
v 6.21167 5.65000 -0.28214
v 6.45167 5.65000 -0.45651
v 6.74833 5.65000 -0.45651
v 6.98833 5.65000 -0.28214
v 7.45000 5.65000 0.00000
v 7.28766 5.65000 0.49962
v 6.86266 5.65000 0.80840
v 6.33734 5.65000 0.80840
v 5.91234 5.65000 0.49962
v 5.75000 5.65000 0.00000
v 5.91234 5.65000 -0.49962
v 6.33734 5.65000 -0.80840
v 6.86266 5.65000 -0.80840
v 7.28766 5.65000 -0.49962
v 7.45000 6.15000 0.00000
v 7.28766 6.15000 0.49962
v 6.86266 6.15000 0.80840
v 6.33734 6.15000 0.80840
v 5.91234 6.15000 0.49962
v 5.75000 6.15000 0.00000
v 5.91234 6.15000 -0.49962
v 6.33734 6.15000 -0.80840
v 6.86266 6.15000 -0.80840
v 7.28766 6.15000 -0.49962
v 7.20000 6.15000 0.00000
v 7.08541 6.15000 0.35267
v 6.78541 6.15000 0.57063
v 6.41459 6.15000 0.57063
v 6.11459 6.15000 0.35267
v 6.00000 6.15000 0.00000
v 6.11459 6.15000 -0.35267
v 6.41459 6.15000 -0.57063
v 6.78541 6.15000 -0.57063
v 7.08541 6.15000 -0.35267
v 7.20000 6.85000 0.00000
v 7.08541 6.85000 0.35267
v 6.78541 6.85000 0.57063
v 6.41459 6.85000 0.57063
v 6.11459 6.85000 0.35267
v 6.00000 6.85000 0.00000
v 6.11459 6.85000 -0.35267
v 6.41459 6.85000 -0.57063
v 6.78541 6.85000 -0.57063
v 7.08541 6.85000 -0.35267
v 6.20000 4.55000 -0.45000
v 6.12367 5.27742 -0.45000
v 5.89655 5.98693 -0.45000
v 5.52424 6.66106 -0.45000
v 5.01591 7.28320 -0.45000
v 4.38406 7.83805 -0.45000
v 3.64427 8.31193 -0.45000
v 2.81474 8.69318 -0.45000
v 1.91591 8.97241 -0.45000
v 0.96989 9.14275 -0.45000
v 0.00000 9.20000 -0.45000
v -0.96989 9.14275 -0.45000
v -1.91591 8.97241 -0.45000
v -2.81474 8.69318 -0.45000
v -3.64427 8.31193 -0.45000
v -4.38406 7.83805 -0.45000
v -5.01591 7.28320 -0.45000
v -5.52424 6.66106 -0.45000
v -5.89655 5.98693 -0.45000
v -6.12367 5.27742 -0.45000
v -6.20000 4.55000 -0.45000
v 5.25000 4.55000 -0.45000
v 5.18536 5.13663 -0.45000
v 4.99305 5.70881 -0.45000
v 4.67778 6.25246 -0.45000
v 4.24734 6.75419 -0.45000
v 3.71231 7.20165 -0.45000
v 3.08587 7.58381 -0.45000
v 2.38345 7.89127 -0.45000
v 1.62234 8.11646 -0.45000
v 0.82128 8.25383 -0.45000
v 0.00000 8.30000 -0.45000
v -0.82128 8.25383 -0.45000
v -1.62234 8.11646 -0.45000
v -2.38345 7.89127 -0.45000
v -3.08587 7.58381 -0.45000
v -3.71231 7.20165 -0.45000
v -4.24734 6.75419 -0.45000
v -4.67778 6.25246 -0.45000
v -4.99305 5.70881 -0.45000
v -5.18536 5.13663 -0.45000
v -5.25000 4.55000 -0.45000
v 6.20000 4.55000 0.45000
v 6.12367 5.27742 0.45000
v 5.89655 5.98693 0.45000
v 5.52424 6.66106 0.45000
v 5.01591 7.28320 0.45000
v 4.38406 7.83805 0.45000
v 3.64427 8.31193 0.45000
v 2.81474 8.69318 0.45000
v 1.91591 8.97241 0.45000
v 0.96989 9.14275 0.45000
v 0.00000 9.20000 0.45000
v -0.96989 9.14275 0.45000
v -1.91591 8.97241 0.45000
v -2.81474 8.69318 0.45000
v -3.64427 8.31193 0.45000
v -4.38406 7.83805 0.45000
v -5.01591 7.28320 0.45000
v -5.52424 6.66106 0.45000
v -5.89655 5.98693 0.45000
v -6.12367 5.27742 0.45000
v -6.20000 4.55000 0.45000
v 5.25000 4.55000 0.45000
v 5.18536 5.13663 0.45000
v 4.99305 5.70881 0.45000
v 4.67778 6.25246 0.45000
v 4.24734 6.75419 0.45000
v 3.71231 7.20165 0.45000
v 3.08587 7.58381 0.45000
v 2.38345 7.89127 0.45000
v 1.62234 8.11646 0.45000
v 0.82128 8.25383 0.45000
v 0.00000 8.30000 0.45000
v -0.82128 8.25383 0.45000
v -1.62234 8.11646 0.45000
v -2.38345 7.89127 0.45000
v -3.08587 7.58381 0.45000
v -3.71231 7.20165 0.45000
v -4.24734 6.75419 0.45000
v -4.67778 6.25246 0.45000
v -4.99305 5.70881 0.45000
v -5.18536 5.13663 0.45000
v -5.25000 4.55000 0.45000
v 0.78000 9.95000 0.00000
v 0.67550 9.95000 0.39000
v 0.39000 9.95000 0.67550
v 0.00000 9.95000 0.78000
v -0.39000 9.95000 0.67550
v -0.67550 9.95000 0.39000
v -0.78000 9.95000 0.00000
v -0.67550 9.95000 -0.39000
v -0.39000 9.95000 -0.67550
v -0.00000 9.95000 -0.78000
v 0.39000 9.95000 -0.67550
v 0.67550 9.95000 -0.39000
v 0.78000 10.25000 0.00000
v 0.67550 10.25000 0.39000
v 0.39000 10.25000 0.67550
v 0.00000 10.25000 0.78000
v -0.39000 10.25000 0.67550
v -0.67550 10.25000 0.39000
v -0.78000 10.25000 0.00000
v -0.67550 10.25000 -0.39000
v -0.39000 10.25000 -0.67550
v -0.00000 10.25000 -0.78000
v 0.39000 10.25000 -0.67550
v 0.67550 10.25000 -0.39000
v 0.00000 9.95000 0.00000
v 0.00000 10.25000 0.00000
v -3.70000 9.66000 -0.16000
v -0.30000 9.66000 -0.16000
v -0.30000 9.84000 -0.16000
v -3.70000 9.84000 -0.16000
v -3.70000 9.66000 0.16000
v -0.30000 9.66000 0.16000
v -0.30000 9.84000 0.16000
v -3.70000 9.84000 0.16000
v 0.30000 9.66000 -0.16000
v 3.70000 9.66000 -0.16000
v 3.70000 9.84000 -0.16000
v 0.30000 9.84000 -0.16000
v 0.30000 9.66000 0.16000
v 3.70000 9.66000 0.16000
v 3.70000 9.84000 0.16000
v 0.30000 9.84000 0.16000
g Pylon
vt 0.105369 0.000000
vt 0.096140 0.000000
vt 0.071979 0.000000
vt 0.042115 0.000000
vt 0.017954 0.000000
vt 0.008725 0.000000
vt 0.017954 0.000000
vt 0.042115 0.000000
vt 0.071979 0.000000
vt 0.096140 0.000000
vt 0.105369 0.053659
vt 0.096140 0.053659
vt 0.071979 0.053659
vt 0.042115 0.053659
vt 0.017954 0.053659
vt 0.008725 0.053659
vt 0.017954 0.053659
vt 0.042115 0.053659
vt 0.071979 0.053659
vt 0.096140 0.053659
vt 0.093960 0.053659
vt 0.086910 0.053659
vt 0.068454 0.053659
vt 0.045640 0.053659
vt 0.027184 0.053659
vt 0.020134 0.053659
vt 0.027184 0.053659
vt 0.045640 0.053659
vt 0.068454 0.053659
vt 0.086910 0.053659
vt 0.089262 0.551220
vt 0.083109 0.551220
vt 0.067002 0.551220
vt 0.047092 0.551220
vt 0.030985 0.551220
vt 0.024832 0.551220
vt 0.030985 0.551220
vt 0.047092 0.551220
vt 0.067002 0.551220
vt 0.083109 0.551220
vt 0.114094 0.551220
vt 0.103199 0.551220
vt 0.074675 0.551220
vt 0.039419 0.551220
vt 0.010895 0.551220
vt 0.000000 0.551220
vt 0.010895 0.551220
vt 0.039419 0.551220
vt 0.074675 0.551220
vt 0.103199 0.551220
vt 0.114094 0.600000
vt 0.103199 0.600000
vt 0.074675 0.600000
vt 0.039419 0.600000
vt 0.010895 0.600000
vt 0.000000 0.600000
vt 0.010895 0.600000
vt 0.039419 0.600000
vt 0.074675 0.600000
vt 0.103199 0.600000
vt 0.097315 0.600000
vt 0.089625 0.600000
vt 0.069491 0.600000
vt 0.044603 0.600000
vt 0.024469 0.600000
vt 0.016779 0.600000
vt 0.024469 0.600000
vt 0.044603 0.600000
vt 0.069491 0.600000
vt 0.089625 0.600000
vt 0.097315 0.668293
vt 0.089625 0.668293
vt 0.069491 0.668293
vt 0.044603 0.668293
vt 0.024469 0.668293
vt 0.016779 0.668293
vt 0.024469 0.668293
vt 0.044603 0.668293
vt 0.069491 0.668293
vt 0.089625 0.668293
vt 0.991275 0.000000
vt 0.982046 0.000000
vt 0.957885 0.000000
vt 0.928021 0.000000
vt 0.903860 0.000000
vt 0.894631 0.000000
vt 0.903860 0.000000
vt 0.928021 0.000000
vt 0.957885 0.000000
vt 0.982046 0.000000
vt 0.991275 0.053659
vt 0.982046 0.053659
vt 0.957885 0.053659
vt 0.928021 0.053659
vt 0.903860 0.053659
vt 0.894631 0.053659
vt 0.903860 0.053659
vt 0.928021 0.053659
vt 0.957885 0.053659
vt 0.982046 0.053659
vt 0.979866 0.053659
vt 0.972816 0.053659
vt 0.954360 0.053659
vt 0.931546 0.053659
vt 0.913090 0.053659
vt 0.906040 0.053659
vt 0.913090 0.053659
vt 0.931546 0.053659
vt 0.954360 0.053659
vt 0.972816 0.053659
vt 0.975168 0.551220
vt 0.969015 0.551220
vt 0.952908 0.551220
vt 0.932998 0.551220
vt 0.916891 0.551220
vt 0.910738 0.551220
vt 0.916891 0.551220
vt 0.932998 0.551220
vt 0.952908 0.551220
vt 0.969015 0.551220
vt 1.000000 0.551220
vt 0.989105 0.551220
vt 0.960581 0.551220
vt 0.925325 0.551220
vt 0.896801 0.551220
vt 0.885906 0.551220
vt 0.896801 0.551220
vt 0.925325 0.551220
vt 0.960581 0.551220
vt 0.989105 0.551220
vt 1.000000 0.600000
vt 0.989105 0.600000
vt 0.960581 0.600000
vt 0.925325 0.600000
vt 0.896801 0.600000
vt 0.885906 0.600000
vt 0.896801 0.600000
vt 0.925325 0.600000
vt 0.960581 0.600000
vt 0.989105 0.600000
vt 0.983221 0.600000
vt 0.975531 0.600000
vt 0.955397 0.600000
vt 0.930509 0.600000
vt 0.910375 0.600000
vt 0.902685 0.600000
vt 0.910375 0.600000
vt 0.930509 0.600000
vt 0.955397 0.600000
vt 0.975531 0.600000
vt 0.983221 0.668293
vt 0.975531 0.668293
vt 0.955397 0.668293
vt 0.930509 0.668293
vt 0.910375 0.668293
vt 0.902685 0.668293
vt 0.910375 0.668293
vt 0.930509 0.668293
vt 0.955397 0.668293
vt 0.975531 0.668293
vt 0.916107 0.443902
vt 0.910985 0.514870
vt 0.895742 0.584091
vt 0.870754 0.649860
vt 0.836638 0.710556
vt 0.794232 0.764688
vt 0.744582 0.810920
vt 0.688909 0.848115
vt 0.628585 0.875357
vt 0.565093 0.891976
vt 0.500000 0.897561
vt 0.434907 0.891976
vt 0.371415 0.875357
vt 0.311091 0.848115
vt 0.255418 0.810920
vt 0.205768 0.764688
vt 0.163362 0.710556
vt 0.129246 0.649860
vt 0.104258 0.584091
vt 0.089015 0.514870
vt 0.083893 0.443902
vt 0.852349 0.443902
vt 0.848011 0.501135
vt 0.835104 0.556957
vt 0.813945 0.609996
vt 0.785056 0.658945
vt 0.749148 0.702600
vt 0.707105 0.739884
vt 0.659963 0.769880
vt 0.608882 0.791850
vt 0.555119 0.805252
vt 0.500000 0.809756
vt 0.444881 0.805252
vt 0.391118 0.791850
vt 0.340037 0.769880
vt 0.292895 0.739884
vt 0.250852 0.702600
vt 0.214944 0.658945
vt 0.186055 0.609996
vt 0.164896 0.556957
vt 0.151989 0.501135
vt 0.147651 0.443902
vt 0.916107 0.443902
vt 0.910985 0.514870
vt 0.895742 0.584091
vt 0.870754 0.649860
vt 0.836638 0.710556
vt 0.794232 0.764688
vt 0.744582 0.810920
vt 0.688909 0.848115
vt 0.628585 0.875357
vt 0.565093 0.891976
vt 0.500000 0.897561
vt 0.434907 0.891976
vt 0.371415 0.875357
vt 0.311091 0.848115
vt 0.255418 0.810920
vt 0.205768 0.764688
vt 0.163362 0.710556
vt 0.129246 0.649860
vt 0.104258 0.584091
vt 0.089015 0.514870
vt 0.083893 0.443902
vt 0.852349 0.443902
vt 0.848011 0.501135
vt 0.835104 0.556957
vt 0.813945 0.609996
vt 0.785056 0.658945
vt 0.749148 0.702600
vt 0.707105 0.739884
vt 0.659963 0.769880
vt 0.608882 0.791850
vt 0.555119 0.805252
vt 0.500000 0.809756
vt 0.444881 0.805252
vt 0.391118 0.791850
vt 0.340037 0.769880
vt 0.292895 0.739884
vt 0.250852 0.702600
vt 0.214944 0.658945
vt 0.186055 0.609996
vt 0.164896 0.556957
vt 0.151989 0.501135
vt 0.147651 0.443902
vt 0.552349 0.970732
vt 0.545336 0.970732
vt 0.526174 0.970732
vt 0.500000 0.970732
vt 0.473826 0.970732
vt 0.454664 0.970732
vt 0.447651 0.970732
vt 0.454664 0.970732
vt 0.473826 0.970732
vt 0.500000 0.970732
vt 0.526174 0.970732
vt 0.545336 0.970732
vt 0.552349 1.000000
vt 0.545336 1.000000
vt 0.526174 1.000000
vt 0.500000 1.000000
vt 0.473826 1.000000
vt 0.454664 1.000000
vt 0.447651 1.000000
vt 0.454664 1.000000
vt 0.473826 1.000000
vt 0.500000 1.000000
vt 0.526174 1.000000
vt 0.545336 1.000000
vt 0.500000 0.970732
vt 0.500000 1.000000
vt 0.251678 0.942439
vt 0.479866 0.942439
vt 0.479866 0.960000
vt 0.251678 0.960000
vt 0.251678 0.942439
vt 0.479866 0.942439
vt 0.479866 0.960000
vt 0.251678 0.960000
vt 0.520134 0.942439
vt 0.748322 0.942439
vt 0.748322 0.960000
vt 0.520134 0.960000
vt 0.520134 0.942439
vt 0.748322 0.942439
vt 0.748322 0.960000
vt 0.520134 0.960000
vn -0.994186 0.000000 -0.107677
vn -0.741019 0.000000 -0.671484
vn -0.204811 0.000000 -0.978802
vn 0.409622 0.000000 -0.912256
vn 0.867603 0.000000 -0.497257
vn 0.994186 0.000000 0.107677
vn 0.741019 0.000000 0.671484
vn 0.204811 0.000000 0.978802
vn -0.409622 0.000000 0.912256
vn -0.867603 0.000000 0.497257
vn -0.994186 0.000000 0.107677
vn -0.867603 0.000000 -0.497257
vn -0.409622 0.000000 -0.912256
vn 0.204811 0.000000 -0.978802
vn 0.741019 0.000000 -0.671484
vn 0.994186 0.000000 -0.107677
vn 0.867603 0.000000 0.497257
vn 0.409622 0.000000 0.912256
vn -0.204811 0.000000 0.978802
vn -0.741019 0.000000 0.671484
vn -0.995071 -0.013658 -0.098221
vn -0.747295 -0.013657 -0.664352
vn -0.214078 -0.013657 -0.976721
vn 0.400910 -0.013657 -0.916016
vn 0.862765 -0.013657 -0.505421
vn 0.995071 -0.013658 0.098221
vn 0.747295 -0.013657 0.664352
vn 0.214078 -0.013657 0.976721
vn -0.400910 -0.013657 0.916016
vn -0.862765 -0.013657 0.505421
vn -0.992977 -0.013629 0.117516
vn -0.872412 -0.013629 -0.488581
vn -0.418611 -0.013628 -0.908063
vn 0.195080 -0.013628 -0.980693
vn 0.734264 -0.013628 -0.678728
vn 0.992977 -0.013629 -0.117516
vn 0.872412 -0.013629 0.488581
vn 0.418611 -0.013628 0.908063
vn -0.195080 -0.013628 0.980693
vn -0.734264 -0.013628 0.678728
vn -0.994186 0.000000 -0.107679
vn -0.741021 0.000000 -0.671481
vn -0.204816 0.000000 -0.978801
vn 0.409629 0.000000 -0.912252
vn 0.867602 0.000000 -0.497259
vn 0.994186 0.000000 0.107679
vn 0.741021 0.000000 0.671481
vn 0.204816 0.000000 0.978801
vn -0.409629 0.000000 0.912252
vn -0.867602 0.000000 0.497259
vn -0.994186 0.000000 0.107679
vn -0.867602 0.000000 -0.497259
vn -0.409629 0.000000 -0.912252
vn 0.204816 0.000000 -0.978801
vn 0.741021 0.000000 -0.671481
vn 0.994186 0.000000 -0.107679
vn 0.867602 0.000000 0.497259
vn 0.409629 0.000000 0.912252
vn -0.204816 0.000000 0.978801
vn -0.741021 0.000000 0.671481
vn -0.994186 0.000000 -0.107677
vn -0.741020 0.000000 -0.671483
vn -0.204811 0.000000 -0.978801
vn 0.409623 0.000000 -0.912255
vn 0.867603 0.000000 -0.497258
vn 0.994186 0.000000 0.107677
vn 0.741020 0.000000 0.671483
vn 0.204811 0.000000 0.978801
vn -0.409623 0.000000 0.912255
vn -0.867603 0.000000 0.497258
vn -0.994186 0.000000 0.107677
vn -0.867603 0.000000 -0.497258
vn -0.409623 0.000000 -0.912255
vn 0.204811 0.000000 -0.978801
vn 0.741020 0.000000 -0.671483
vn 0.994186 0.000000 -0.107677
vn 0.867603 0.000000 0.497258
vn 0.409623 0.000000 0.912255
vn -0.204811 0.000000 0.978801
vn -0.741020 0.000000 0.671483
vn -0.994186 0.000000 -0.107677
vn -0.741019 0.000000 -0.671484
vn -0.204811 0.000000 -0.978802
vn 0.409622 0.000000 -0.912256
vn 0.867603 0.000000 -0.497257
vn 0.994186 0.000000 0.107677
vn 0.741019 0.000000 0.671484
vn 0.204811 0.000000 0.978802
vn -0.409622 0.000000 0.912256
vn -0.867603 0.000000 0.497257
vn -0.994186 0.000000 0.107677
vn -0.867603 0.000000 -0.497257
vn -0.409622 0.000000 -0.912256
vn 0.204811 0.000000 -0.978802
vn 0.741019 0.000000 -0.671484
vn 0.994186 0.000000 -0.107677
vn 0.867603 0.000000 0.497257
vn 0.409622 0.000000 0.912256
vn -0.204811 0.000000 0.978802
vn -0.741019 0.000000 0.671484
vn 0.000000 1.000000 0.000000
vn 0.000000 1.000000 0.000000
vn 0.000000 1.000000 0.000000
vn 0.000000 1.000000 0.000000
vn 0.000000 1.000000 0.000000
vn 0.000000 1.000000 0.000000
vn 0.000000 1.000000 0.000000
vn 0.000000 1.000000 0.000000
vn 0.000000 1.000000 0.000000
vn 0.000000 1.000000 0.000000
vn 0.000000 1.000000 0.000000
vn 0.000000 1.000000 0.000000
vn 0.000000 1.000000 0.000000
vn 0.000000 1.000000 0.000000
vn 0.000000 1.000000 0.000000
vn 0.000000 1.000000 0.000000
vn 0.000000 1.000000 0.000000
vn 0.000000 1.000000 0.000000
vn 0.000000 1.000000 0.000000
vn 0.000000 1.000000 0.000000
vn -0.994186 0.000000 -0.107679
vn -0.741021 0.000000 -0.671481
vn -0.204816 0.000000 -0.978801
vn 0.409629 0.000000 -0.912252
vn 0.867602 0.000000 -0.497259
vn 0.994186 0.000000 0.107679
vn 0.741021 0.000000 0.671481
vn 0.204816 0.000000 0.978801
vn -0.409629 0.000000 0.912252
vn -0.867602 0.000000 0.497259
vn -0.994186 0.000000 0.107679
vn -0.867602 0.000000 -0.497259
vn -0.409629 0.000000 -0.912252
vn 0.204816 0.000000 -0.978801
vn 0.741021 0.000000 -0.671481
vn 0.994186 0.000000 -0.107679
vn 0.867602 0.000000 0.497259
vn 0.409629 0.000000 0.912252
vn -0.204816 0.000000 0.978801
vn -0.741021 0.000000 0.671481
vn -0.994186 0.000000 -0.107677
vn -0.741020 0.000000 -0.671483
vn -0.204811 0.000000 -0.978801
vn 0.409623 0.000000 -0.912255
vn 0.867603 0.000000 -0.497258
vn 0.994186 0.000000 0.107677
vn 0.741020 0.000000 0.671483
vn 0.204811 0.000000 0.978801
vn -0.409623 0.000000 0.912255
vn -0.867603 0.000000 0.497258
vn -0.994186 0.000000 0.107677
vn -0.867603 0.000000 -0.497258
vn -0.409623 0.000000 -0.912255
vn 0.204811 0.000000 -0.978801
vn 0.741020 0.000000 -0.671483
vn 0.994186 0.000000 -0.107677
vn 0.867603 0.000000 0.497258
vn 0.409623 0.000000 0.912255
vn -0.204811 0.000000 0.978801
vn -0.741020 0.000000 0.671483
vn -0.545969 0.655738 0.521465
vn -0.691376 -0.170899 0.701992
vn -0.646032 -0.305075 0.699694
vn -0.581029 -0.420677 0.696733
vn -0.503306 -0.514986 0.693882
vn -0.418775 -0.588452 0.691630
vn -0.331559 -0.643297 0.690100
vn -0.244036 -0.682263 0.689176
vn -0.157230 -0.707857 0.688634
vn -0.071259 -0.721947 0.688269
vn 0.014277 -0.725624 0.687943
vn 0.099991 -0.719137 0.687636
vn 0.186441 -0.701886 0.687456
vn 0.273864 -0.672454 0.687608
vn 0.361832 -0.628671 0.688368
vn 0.448844 -0.567862 0.689979
vn 0.531872 -0.487345 0.692536
vn 0.606070 -0.385392 0.695811
vn 0.664967 -0.262584 0.699191
vn 0.701656 -0.123120 0.701798
vn 0.345044 0.865039 0.364213
vn 0.686033 0.631080 0.362073
vn 0.642294 0.166701 0.748110
vn 0.600271 0.297643 0.742350
vn 0.538832 0.409633 0.736112
vn 0.465145 0.499731 0.730691
vn 0.385332 0.568535 0.726834
vn 0.303633 0.618571 0.724691
vn 0.222423 0.652922 0.724031
vn 0.142665 0.674396 0.724456
vn 0.064404 0.685115 0.725582
vn -0.012862 0.686401 0.727109
vn -0.089876 0.678709 0.728887
vn -0.167384 0.661641 0.730899
vn -0.245891 0.633950 0.733243
vn -0.325359 0.593568 0.736084
vn -0.404819 0.537771 0.739543
vn -0.481855 0.463586 0.743575
vn -0.552192 0.368693 0.747763
vn -0.609666 0.252782 0.751271
vn -0.647167 0.119238 0.752966
vn -0.322711 0.558164 0.764402
vn -0.405169 0.486630 -0.773970
vn -0.699327 -0.122711 -0.704190
vn -0.660870 -0.260967 -0.703667
vn -0.601124 -0.382246 -0.701810
vn -0.526993 -0.482874 -0.699365
vn -0.444709 -0.562630 -0.696909
vn -0.358792 -0.623389 -0.694733
vn -0.271975 -0.667815 -0.692858
vn -0.185531 -0.698461 -0.691180
vn -0.099738 -0.717323 -0.689565
vn -0.014277 -0.725624 -0.687943
vn 0.071439 -0.723766 -0.686337
vn 0.157995 -0.711303 -0.684899
vn 0.245713 -0.686951 -0.683903
vn 0.334330 -0.648674 -0.683700
vn 0.422609 -0.593840 -0.684657
vn 0.507892 -0.519679 -0.687008
vn 0.585740 -0.424088 -0.690694
vn 0.649991 -0.306945 -0.695195
vn 0.693664 -0.171464 -0.699593
vn 0.795829 0.436163 -0.420021
vn 0.273894 0.917277 -0.289110
vn 0.649815 0.119726 -0.750604
vn 0.614289 0.254699 -0.746845
vn 0.557717 0.372382 -0.741811
vn 0.487246 0.468772 -0.736779
vn 0.409338 0.543773 -0.732635
vn 0.328650 0.599572 -0.729728
vn 0.247920 0.639181 -0.728000
vn 0.168356 0.665485 -0.727177
vn 0.090144 0.680737 -0.726960
vn 0.012862 0.686401 -0.727109
vn -0.064212 0.683082 -0.727513
vn -0.141847 0.670529 -0.728196
vn -0.220622 0.647636 -0.729310
vn -0.300634 0.612460 -0.731103
vn -0.381145 0.562356 -0.733815
vn -0.460082 0.494292 -0.737564
vn -0.533575 0.405636 -0.742130
vn -0.595808 0.295430 -0.746816
vn -0.639694 0.166026 -0.750485
vn -0.430562 0.744704 -0.509934
vn -0.499225 0.865324 -0.044589
vn -0.410047 0.865324 -0.288228
vn -0.210997 0.865324 -0.454636
vn 0.044589 0.865324 -0.499225
vn 0.288228 0.865324 -0.410047
vn 0.454636 0.865324 -0.210997
vn 0.499225 0.865324 0.044589
vn 0.410047 0.865324 0.288228
vn 0.210997 0.865324 0.454636
vn -0.044589 0.865324 0.499225
vn -0.288228 0.865324 0.410047
vn -0.454636 0.865324 0.210997
vn -0.499225 -0.865324 0.044589
vn -0.454636 -0.865324 -0.210997
vn -0.288228 -0.865324 -0.410047
vn -0.044589 -0.865324 -0.499225
vn 0.210997 -0.865324 -0.454636
vn 0.410047 -0.865324 -0.288228
vn 0.499225 -0.865324 -0.044589
vn 0.454636 -0.865324 0.210997
vn 0.288228 -0.865324 0.410047
vn 0.044589 -0.865324 0.499225
vn -0.210997 -0.865324 0.454636
vn -0.410047 -0.865324 0.288228
vn 0.000000 1.000000 0.000000
vn 0.000000 -1.000000 0.000000
vn 0.023065 0.871344 0.490131
vn -0.091894 0.867888 0.488187
vn -0.023065 -0.871344 0.490131
vn 0.091894 -0.867888 0.488187
vn 0.070171 0.662726 -0.745567
vn -0.025474 0.962339 -0.270658
vn -0.070171 -0.662726 -0.745567
vn 0.025474 -0.962339 -0.270658
vn 0.023065 0.871344 0.490131
vn -0.091894 0.867888 0.488187
vn -0.023065 -0.871344 0.490131
vn 0.091894 -0.867888 0.488187
vn 0.070171 0.662726 -0.745567
vn -0.025474 0.962339 -0.270658
vn -0.070171 -0.662726 -0.745567
vn 0.025474 -0.962339 -0.270658
usemtl FinishGate_Metal
f 1/1/1 2/2/2 12/12/12
f 1/1/1 12/12/12 11/11/11
f 2/2/2 3/3/3 13/13/13
f 2/2/2 13/13/13 12/12/12
f 3/3/3 4/4/4 14/14/14
f 3/3/3 14/14/14 13/13/13
f 4/4/4 5/5/5 15/15/15
f 4/4/4 15/15/15 14/14/14
f 5/5/5 6/6/6 16/16/16
f 5/5/5 16/16/16 15/15/15
f 6/6/6 7/7/7 17/17/17
f 6/6/6 17/17/17 16/16/16
f 7/7/7 8/8/8 18/18/18
f 7/7/7 18/18/18 17/17/17
f 8/8/8 9/9/9 19/19/19
f 8/8/8 19/19/19 18/18/18
f 9/9/9 10/10/10 20/20/20
f 9/9/9 20/20/20 19/19/19
f 10/10/10 1/1/1 11/11/11
f 10/10/10 11/11/11 20/20/20
f 21/21/21 22/22/22 32/32/32
f 21/21/21 32/32/32 31/31/31
f 22/22/22 23/23/23 33/33/33
f 22/22/22 33/33/33 32/32/32
f 23/23/23 24/24/24 34/34/34
f 23/23/23 34/34/34 33/33/33
f 24/24/24 25/25/25 35/35/35
f 24/24/24 35/35/35 34/34/34
f 25/25/25 26/26/26 36/36/36
f 25/25/25 36/36/36 35/35/35
f 26/26/26 27/27/27 37/37/37
f 26/26/26 37/37/37 36/36/36
f 27/27/27 28/28/28 38/38/38
f 27/27/27 38/38/38 37/37/37
f 28/28/28 29/29/29 39/39/39
f 28/28/28 39/39/39 38/38/38
f 29/29/29 30/30/30 40/40/40
f 29/29/29 40/40/40 39/39/39
f 30/30/30 21/21/21 31/31/31
f 30/30/30 31/31/31 40/40/40
f 61/61/61 62/62/62 72/72/72
f 61/61/61 72/72/72 71/71/71
f 62/62/62 63/63/63 73/73/73
f 62/62/62 73/73/73 72/72/72
f 63/63/63 64/64/64 74/74/74
f 63/63/63 74/74/74 73/73/73
f 64/64/64 65/65/65 75/75/75
f 64/64/64 75/75/75 74/74/74
f 65/65/65 66/66/66 76/76/76
f 65/65/65 76/76/76 75/75/75
f 66/66/66 67/67/67 77/77/77
f 66/66/66 77/77/77 76/76/76
f 67/67/67 68/68/68 78/78/78
f 67/67/67 78/78/78 77/77/77
f 68/68/68 69/69/69 79/79/79
f 68/68/68 79/79/79 78/78/78
f 69/69/69 70/70/70 80/80/80
f 69/69/69 80/80/80 79/79/79
f 70/70/70 61/61/61 71/71/71
f 70/70/70 71/71/71 80/80/80
f 81/81/81 82/82/82 92/92/92
f 81/81/81 92/92/92 91/91/91
f 82/82/82 83/83/83 93/93/93
f 82/82/82 93/93/93 92/92/92
f 83/83/83 84/84/84 94/94/94
f 83/83/83 94/94/94 93/93/93
f 84/84/84 85/85/85 95/95/95
f 84/84/84 95/95/95 94/94/94
f 85/85/85 86/86/86 96/96/96
f 85/85/85 96/96/96 95/95/95
f 86/86/86 87/87/87 97/97/97
f 86/86/86 97/97/97 96/96/96
f 87/87/87 88/88/88 98/98/98
f 87/87/87 98/98/98 97/97/97
f 88/88/88 89/89/89 99/99/99
f 88/88/88 99/99/99 98/98/98
f 89/89/89 90/90/90 100/100/100
f 89/89/89 100/100/100 99/99/99
f 90/90/90 81/81/81 91/91/91
f 90/90/90 91/91/91 100/100/100
g Trim
f 41/41/41 42/42/42 52/52/52
f 41/41/41 52/52/52 51/51/51
f 42/42/42 43/43/43 53/53/53
f 42/42/42 53/53/53 52/52/52
f 43/43/43 44/44/44 54/54/54
f 43/43/43 54/54/54 53/53/53
f 44/44/44 45/45/45 55/55/55
f 44/44/44 55/55/55 54/54/54
f 45/45/45 46/46/46 56/56/56
f 45/45/45 56/56/56 55/55/55
f 46/46/46 47/47/47 57/57/57
f 46/46/46 57/57/57 56/56/56
f 47/47/47 48/48/48 58/58/58
f 47/47/47 58/58/58 57/57/57
f 48/48/48 49/49/49 59/59/59
f 48/48/48 59/59/59 58/58/58
f 49/49/49 50/50/50 60/60/60
f 49/49/49 60/60/60 59/59/59
f 50/50/50 41/41/41 51/51/51
f 50/50/50 51/51/51 60/60/60
f 121/121/121 122/122/122 132/132/132
f 121/121/121 132/132/132 131/131/131
f 122/122/122 123/123/123 133/133/133
f 122/122/122 133/133/133 132/132/132
f 123/123/123 124/124/124 134/134/134
f 123/123/123 134/134/134 133/133/133
f 124/124/124 125/125/125 135/135/135
f 124/124/124 135/135/135 134/134/134
f 125/125/125 126/126/126 136/136/136
f 125/125/125 136/136/136 135/135/135
f 126/126/126 127/127/127 137/137/137
f 126/126/126 137/137/137 136/136/136
f 127/127/127 128/128/128 138/138/138
f 127/127/127 138/138/138 137/137/137
f 128/128/128 129/129/129 139/139/139
f 128/128/128 139/139/139 138/138/138
f 129/129/129 130/130/130 140/140/140
f 129/129/129 140/140/140 139/139/139
f 130/130/130 121/121/121 131/131/131
f 130/130/130 131/131/131 140/140/140
f 141/141/141 142/142/142 152/152/152
f 141/141/141 152/152/152 151/151/151
f 142/142/142 143/143/143 153/153/153
f 142/142/142 153/153/153 152/152/152
f 143/143/143 144/144/144 154/154/154
f 143/143/143 154/154/154 153/153/153
f 144/144/144 145/145/145 155/155/155
f 144/144/144 155/155/155 154/154/154
f 145/145/145 146/146/146 156/156/156
f 145/145/145 156/156/156 155/155/155
f 146/146/146 147/147/147 157/157/157
f 146/146/146 157/157/157 156/156/156
f 147/147/147 148/148/148 158/158/158
f 147/147/147 158/158/158 157/157/157
f 148/148/148 149/149/149 159/159/159
f 148/148/148 159/159/159 158/158/158
f 149/149/149 150/150/150 160/160/160
f 149/149/149 160/160/160 159/159/159
f 150/150/150 141/141/141 151/151/151
f 150/150/150 151/151/151 160/160/160
g Crown
f 41/41/41 42/42/42 52/52/52
f 41/41/41 52/52/52 51/51/51
f 42/42/42 43/43/43 53/53/53
f 42/42/42 53/53/53 52/52/52
f 43/43/43 44/44/44 54/54/54
f 43/43/43 54/54/54 53/53/53
f 44/44/44 45/45/45 55/55/55
f 44/44/44 55/55/55 54/54/54
f 45/45/45 46/46/46 56/56/56
f 45/45/45 56/56/56 55/55/55
f 46/46/46 47/47/47 57/57/57
f 46/46/46 57/57/57 56/56/56
f 47/47/47 48/48/48 58/58/58
f 47/47/47 58/58/58 57/57/57
f 48/48/48 49/49/49 59/59/59
f 48/48/48 59/59/59 58/58/58
f 49/49/49 50/50/50 60/60/60
f 49/49/49 60/60/60 59/59/59
f 50/50/50 41/41/41 51/51/51
f 50/50/50 51/51/51 60/60/60
g Arch
f 161/161/161 162/162/162 183/183/183
f 161/161/161 183/183/183 182/182/182
f 203/203/203 224/224/224 225/225/225
f 203/203/203 225/225/225 204/204/204
f 161/161/161 203/203/203 204/204/204
f 161/161/161 204/204/204 162/162/162
f 182/182/182 183/183/183 225/225/225
f 182/182/182 225/225/225 224/224/224
f 162/162/162 163/163/163 184/184/184
f 162/162/162 184/184/184 183/183/183
f 204/204/204 225/225/225 226/226/226
f 204/204/204 226/226/226 205/205/205
f 162/162/162 204/204/204 205/205/205
f 162/162/162 205/205/205 163/163/163
f 183/183/183 184/184/184 226/226/226
f 183/183/183 226/226/226 225/225/225
f 163/163/163 164/164/164 185/185/185
f 163/163/163 185/185/185 184/184/184
f 205/205/205 226/226/226 227/227/227
f 205/205/205 227/227/227 206/206/206
f 163/163/163 205/205/205 206/206/206
f 163/163/163 206/206/206 164/164/164
f 184/184/184 185/185/185 227/227/227
f 184/184/184 227/227/227 226/226/226
f 164/164/164 165/165/165 186/186/186
f 164/164/164 186/186/186 185/185/185
f 206/206/206 227/227/227 228/228/228
f 206/206/206 228/228/228 207/207/207
f 164/164/164 206/206/206 207/207/207
f 164/164/164 207/207/207 165/165/165
f 185/185/185 186/186/186 228/228/228
f 185/185/185 228/228/228 227/227/227
f 165/165/165 166/166/166 187/187/187
f 165/165/165 187/187/187 186/186/186
f 207/207/207 228/228/228 229/229/229
f 207/207/207 229/229/229 208/208/208
f 165/165/165 207/207/207 208/208/208
f 165/165/165 208/208/208 166/166/166
f 186/186/186 187/187/187 229/229/229
f 186/186/186 229/229/229 228/228/228
f 166/166/166 167/167/167 188/188/188
f 166/166/166 188/188/188 187/187/187
f 208/208/208 229/229/229 230/230/230
f 208/208/208 230/230/230 209/209/209
f 166/166/166 208/208/208 209/209/209
f 166/166/166 209/209/209 167/167/167
f 187/187/187 188/188/188 230/230/230
f 187/187/187 230/230/230 229/229/229
f 167/167/167 168/168/168 189/189/189
f 167/167/167 189/189/189 188/188/188
f 209/209/209 230/230/230 231/231/231
f 209/209/209 231/231/231 210/210/210
f 167/167/167 209/209/209 210/210/210
f 167/167/167 210/210/210 168/168/168
f 188/188/188 189/189/189 231/231/231
f 188/188/188 231/231/231 230/230/230
f 168/168/168 169/169/169 190/190/190
f 168/168/168 190/190/190 189/189/189
f 210/210/210 231/231/231 232/232/232
f 210/210/210 232/232/232 211/211/211
f 168/168/168 210/210/210 211/211/211
f 168/168/168 211/211/211 169/169/169
f 189/189/189 190/190/190 232/232/232
f 189/189/189 232/232/232 231/231/231
f 169/169/169 170/170/170 191/191/191
f 169/169/169 191/191/191 190/190/190
f 211/211/211 232/232/232 233/233/233
f 211/211/211 233/233/233 212/212/212
f 169/169/169 211/211/211 212/212/212
f 169/169/169 212/212/212 170/170/170
f 190/190/190 191/191/191 233/233/233
f 190/190/190 233/233/233 232/232/232
f 170/170/170 171/171/171 192/192/192
f 170/170/170 192/192/192 191/191/191
f 212/212/212 233/233/233 234/234/234
f 212/212/212 234/234/234 213/213/213
f 170/170/170 212/212/212 213/213/213
f 170/170/170 213/213/213 171/171/171
f 191/191/191 192/192/192 234/234/234
f 191/191/191 234/234/234 233/233/233
f 171/171/171 172/172/172 193/193/193
f 171/171/171 193/193/193 192/192/192
f 213/213/213 234/234/234 235/235/235
f 213/213/213 235/235/235 214/214/214
f 171/171/171 213/213/213 214/214/214
f 171/171/171 214/214/214 172/172/172
f 192/192/192 193/193/193 235/235/235
f 192/192/192 235/235/235 234/234/234
f 172/172/172 173/173/173 194/194/194
f 172/172/172 194/194/194 193/193/193
f 214/214/214 235/235/235 236/236/236
f 214/214/214 236/236/236 215/215/215
f 172/172/172 214/214/214 215/215/215
f 172/172/172 215/215/215 173/173/173
f 193/193/193 194/194/194 236/236/236
f 193/193/193 236/236/236 235/235/235
f 173/173/173 174/174/174 195/195/195
f 173/173/173 195/195/195 194/194/194
f 215/215/215 236/236/236 237/237/237
f 215/215/215 237/237/237 216/216/216
f 173/173/173 215/215/215 216/216/216
f 173/173/173 216/216/216 174/174/174
f 194/194/194 195/195/195 237/237/237
f 194/194/194 237/237/237 236/236/236
f 174/174/174 175/175/175 196/196/196
f 174/174/174 196/196/196 195/195/195
f 216/216/216 237/237/237 238/238/238
f 216/216/216 238/238/238 217/217/217
f 174/174/174 216/216/216 217/217/217
f 174/174/174 217/217/217 175/175/175
f 195/195/195 196/196/196 238/238/238
f 195/195/195 238/238/238 237/237/237
f 175/175/175 176/176/176 197/197/197
f 175/175/175 197/197/197 196/196/196
f 217/217/217 238/238/238 239/239/239
f 217/217/217 239/239/239 218/218/218
f 175/175/175 217/217/217 218/218/218
f 175/175/175 218/218/218 176/176/176
f 196/196/196 197/197/197 239/239/239
f 196/196/196 239/239/239 238/238/238
f 176/176/176 177/177/177 198/198/198
f 176/176/176 198/198/198 197/197/197
f 218/218/218 239/239/239 240/240/240
f 218/218/218 240/240/240 219/219/219
f 176/176/176 218/218/218 219/219/219
f 176/176/176 219/219/219 177/177/177
f 197/197/197 198/198/198 240/240/240
f 197/197/197 240/240/240 239/239/239
f 177/177/177 178/178/178 199/199/199
f 177/177/177 199/199/199 198/198/198
f 219/219/219 240/240/240 241/241/241
f 219/219/219 241/241/241 220/220/220
f 177/177/177 219/219/219 220/220/220
f 177/177/177 220/220/220 178/178/178
f 198/198/198 199/199/199 241/241/241
f 198/198/198 241/241/241 240/240/240
f 178/178/178 179/179/179 200/200/200
f 178/178/178 200/200/200 199/199/199
f 220/220/220 241/241/241 242/242/242
f 220/220/220 242/242/242 221/221/221
f 178/178/178 220/220/220 221/221/221
f 178/178/178 221/221/221 179/179/179
f 199/199/199 200/200/200 242/242/242
f 199/199/199 242/242/242 241/241/241
f 179/179/179 180/180/180 201/201/201
f 179/179/179 201/201/201 200/200/200
f 221/221/221 242/242/242 243/243/243
f 221/221/221 243/243/243 222/222/222
f 179/179/179 221/221/221 222/222/222
f 179/179/179 222/222/222 180/180/180
f 200/200/200 201/201/201 243/243/243
f 200/200/200 243/243/243 242/242/242
f 180/180/180 181/181/181 202/202/202
f 180/180/180 202/202/202 201/201/201
f 222/222/222 243/243/243 244/244/244
f 222/222/222 244/244/244 223/223/223
f 180/180/180 222/222/222 223/223/223
f 180/180/180 223/223/223 181/181/181
f 201/201/201 202/202/202 244/244/244
f 201/201/201 244/244/244 243/243/243
f 161/161/161 182/182/182 224/224/224
f 161/161/161 224/224/224 203/203/203
f 181/181/181 223/223/223 244/244/244
f 181/181/181 244/244/244 202/202/202
g Crest
f 245/245/245 246/246/246 258/258/258
f 245/245/245 258/258/258 257/257/257
f 269/269/269 246/246/246 245/245/245
f 270/270/270 257/257/257 258/258/258
f 246/246/246 247/247/247 259/259/259
f 246/246/246 259/259/259 258/258/258
f 269/269/269 247/247/247 246/246/246
f 270/270/270 258/258/258 259/259/259
f 247/247/247 248/248/248 260/260/260
f 247/247/247 260/260/260 259/259/259
f 269/269/269 248/248/248 247/247/247
f 270/270/270 259/259/259 260/260/260
f 248/248/248 249/249/249 261/261/261
f 248/248/248 261/261/261 260/260/260
f 269/269/269 249/249/249 248/248/248
f 270/270/270 260/260/260 261/261/261
f 249/249/249 250/250/250 262/262/262
f 249/249/249 262/262/262 261/261/261
f 269/269/269 250/250/250 249/249/249
f 270/270/270 261/261/261 262/262/262
f 250/250/250 251/251/251 263/263/263
f 250/250/250 263/263/263 262/262/262
f 269/269/269 251/251/251 250/250/250
f 270/270/270 262/262/262 263/263/263
f 251/251/251 252/252/252 264/264/264
f 251/251/251 264/264/264 263/263/263
f 269/269/269 252/252/252 251/251/251
f 270/270/270 263/263/263 264/264/264
f 252/252/252 253/253/253 265/265/265
f 252/252/252 265/265/265 264/264/264
f 269/269/269 253/253/253 252/252/252
f 270/270/270 264/264/264 265/265/265
f 253/253/253 254/254/254 266/266/266
f 253/253/253 266/266/266 265/265/265
f 269/269/269 254/254/254 253/253/253
f 270/270/270 265/265/265 266/266/266
f 254/254/254 255/255/255 267/267/267
f 254/254/254 267/267/267 266/266/266
f 269/269/269 255/255/255 254/254/254
f 270/270/270 266/266/266 267/267/267
f 255/255/255 256/256/256 268/268/268
f 255/255/255 268/268/268 267/267/267
f 269/269/269 256/256/256 255/255/255
f 270/270/270 267/267/267 268/268/268
f 256/256/256 245/245/245 257/257/257
f 256/256/256 257/257/257 268/268/268
f 269/269/269 245/245/245 256/256/256
f 270/270/270 268/268/268 257/257/257
g Spirit
f 271/271/271 272/272/272 273/273/273
f 271/271/271 273/273/273 274/274/274
f 275/275/275 277/277/277 276/276/276
f 275/275/275 278/278/278 277/277/277
f 271/271/271 275/275/275 276/276/276
f 271/271/271 276/276/276 272/272/272
f 272/272/272 276/276/276 277/277/277
f 272/272/272 277/277/277 273/273/273
f 273/273/273 277/277/277 278/278/278
f 273/273/273 278/278/278 274/274/274
f 274/274/274 278/278/278 275/275/275
f 274/274/274 275/275/275 271/271/271
g Gold
f 279/279/279 280/280/280 281/281/281
f 279/279/279 281/281/281 282/282/282
f 283/283/283 285/285/285 284/284/284
f 283/283/283 286/286/286 285/285/285
f 279/279/279 283/283/283 284/284/284
f 279/279/279 284/284/284 280/280/280
f 280/280/280 284/284/284 285/285/285
f 280/280/280 285/285/285 281/281/281
f 281/281/281 285/285/285 286/286/286
f 281/281/281 286/286/286 282/282/282
f 282/282/282 286/286/286 283/283/283
f 282/282/282 283/283/283 279/279/279
