# 3Fareet authored track-dressing source candidate
o SM_Track_SectorBeacon_A
s 1
v -0.75000 0.00000 -0.75000
v 0.75000 0.00000 -0.75000
v 0.75000 0.36000 -0.75000
v -0.75000 0.36000 -0.75000
v -0.75000 0.00000 0.75000
v 0.75000 0.00000 0.75000
v 0.75000 0.36000 0.75000
v -0.75000 0.36000 0.75000
v 0.18000 0.15000 0.00000
v 0.15588 0.15000 0.09000
v 0.09000 0.15000 0.15588
v 0.00000 0.15000 0.18000
v -0.09000 0.15000 0.15588
v -0.15588 0.15000 0.09000
v -0.18000 0.15000 0.00000
v -0.15588 0.15000 -0.09000
v -0.09000 0.15000 -0.15588
v -0.00000 0.15000 -0.18000
v 0.09000 0.15000 -0.15588
v 0.15588 0.15000 -0.09000
v 0.18000 4.35000 0.00000
v 0.15588 4.35000 0.09000
v 0.09000 4.35000 0.15588
v 0.00000 4.35000 0.18000
v -0.09000 4.35000 0.15588
v -0.15588 4.35000 0.09000
v -0.18000 4.35000 0.00000
v -0.15588 4.35000 -0.09000
v -0.09000 4.35000 -0.15588
v -0.00000 4.35000 -0.18000
v 0.09000 4.35000 -0.15588
v 0.15588 4.35000 -0.09000
v 0.00000 0.15000 0.00000
v 0.00000 4.35000 0.00000
v -0.71000 2.77500 -0.22000
v -0.53000 2.77500 -0.22000
v -0.53000 5.02500 -0.22000
v -0.71000 5.02500 -0.22000
v -0.71000 2.77500 0.22000
v -0.53000 2.77500 0.22000
v -0.53000 5.02500 0.22000
v -0.71000 5.02500 0.22000
v 0.53000 2.77500 -0.22000
v 0.71000 2.77500 -0.22000
v 0.71000 5.02500 -0.22000
v 0.53000 5.02500 -0.22000
v 0.53000 2.77500 0.22000
v 0.71000 2.77500 0.22000
v 0.71000 5.02500 0.22000
v 0.53000 5.02500 0.22000
v -1.22500 5.10000 -0.21000
v 1.22500 5.10000 -0.21000
v 1.22500 5.26000 -0.21000
v -1.22500 5.26000 -0.21000
v -1.22500 5.10000 0.21000
v 1.22500 5.10000 0.21000
v 1.22500 5.26000 0.21000
v -1.22500 5.26000 0.21000
v 0.38000 5.41000 0.00000
v 0.32909 5.41000 0.19000
v 0.19000 5.41000 0.32909
v 0.00000 5.41000 0.38000
v -0.19000 5.41000 0.32909
v -0.32909 5.41000 0.19000
v -0.38000 5.41000 0.00000
v -0.32909 5.41000 -0.19000
v -0.19000 5.41000 -0.32909
v -0.00000 5.41000 -0.38000
v 0.19000 5.41000 -0.32909
v 0.32909 5.41000 -0.19000
v 0.38000 5.69000 0.00000
v 0.32909 5.69000 0.19000
v 0.19000 5.69000 0.32909
v 0.00000 5.69000 0.38000
v -0.19000 5.69000 0.32909
v -0.32909 5.69000 0.19000
v -0.38000 5.69000 0.00000
v -0.32909 5.69000 -0.19000
v -0.19000 5.69000 -0.32909
v -0.00000 5.69000 -0.38000
v 0.19000 5.69000 -0.32909
v 0.32909 5.69000 -0.19000
v 0.00000 5.41000 0.00000
v 0.00000 5.69000 0.00000
v -0.06000 5.57500 -0.06000
v 0.06000 5.57500 -0.06000
v 0.06000 6.32500 -0.06000
v -0.06000 6.32500 -0.06000
v -0.06000 5.57500 0.06000
v 0.06000 5.57500 0.06000
v 0.06000 6.32500 0.06000
v -0.06000 6.32500 0.06000
g Base
f 1 2 3
f 1 3 4
f 6 5 8
f 6 8 7
f 5 1 4
f 5 4 8
f 2 6 7
f 2 7 3
f 4 3 7
f 4 7 8
f 5 6 2
f 5 2 1
g Mast
f 9 10 22
f 9 22 21
f 33 10 9
f 34 21 22
f 10 11 23
f 10 23 22
f 33 11 10
f 34 22 23
f 11 12 24
f 11 24 23
f 33 12 11
f 34 23 24
f 12 13 25
f 12 25 24
f 33 13 12
f 34 24 25
f 13 14 26
f 13 26 25
f 33 14 13
f 34 25 26
f 14 15 27
f 14 27 26
f 33 15 14
f 34 26 27
f 15 16 28
f 15 28 27
f 33 16 15
f 34 27 28
f 16 17 29
f 16 29 28
f 33 17 16
f 34 28 29
f 17 18 30
f 17 30 29
f 33 18 17
f 34 29 30
f 18 19 31
f 18 31 30
f 33 19 18
f 34 30 31
f 19 20 32
f 19 32 31
f 33 20 19
f 34 31 32
f 20 9 21
f 20 21 32
f 33 9 20
f 34 32 21
g PrimaryBlade
f 35 36 37
f 35 37 38
f 40 39 42
f 40 42 41
f 39 35 38
f 39 38 42
f 36 40 41
f 36 41 37
f 38 37 41
f 38 41 42
f 39 40 36
f 39 36 35
g SecondaryBlade
f 43 44 45
f 43 45 46
f 48 47 50
f 48 50 49
f 47 43 46
f 47 46 50
f 44 48 49
f 44 49 45
f 46 45 49
f 46 49 50
f 47 48 44
f 47 44 43
g Crown
f 51 52 53
f 51 53 54
f 56 55 58
f 56 58 57
f 55 51 54
f 55 54 58
f 52 56 57
f 52 57 53
f 54 53 57
f 54 57 58
f 55 56 52
f 55 52 51
g LanternRing
f 59 60 72
f 59 72 71
f 83 60 59
f 84 71 72
f 60 61 73
f 60 73 72
f 83 61 60
f 84 72 73
f 61 62 74
f 61 74 73
f 83 62 61
f 84 73 74
f 62 63 75
f 62 75 74
f 83 63 62
f 84 74 75
f 63 64 76
f 63 76 75
f 83 64 63
f 84 75 76
f 64 65 77
f 64 77 76
f 83 65 64
f 84 76 77
f 65 66 78
f 65 78 77
f 83 66 65
f 84 77 78
f 66 67 79
f 66 79 78
f 83 67 66
f 84 78 79
f 67 68 80
f 67 80 79
f 83 68 67
f 84 79 80
f 68 69 81
f 68 81 80
f 83 69 68
f 84 80 81
f 69 70 82
f 69 82 81
f 83 70 69
f 84 81 82
f 70 59 71
f 70 71 82
f 83 59 70
f 84 82 71
g GoldSpire
f 85 86 87
f 85 87 88
f 90 89 92
f 90 92 91
f 89 85 88
f 89 88 92
f 86 90 91
f 86 91 87
f 88 87 91
f 88 91 92
f 89 90 86
f 89 86 85
