# UART-005 deterministic mobile LOD authored source
mtllib SM_Env_CairoFacade_A_MobileLOD.mtl
o SM_Env_CairoFacade_A_LOD2
s 1
v 0.00000 0.00000 -0.32000
v 6.00000 0.00000 -0.32000
v 6.00000 5.00000 -0.32000
v 0.00000 5.00000 -0.32000
v 0.00000 0.00000 0.00000
v 6.00000 0.00000 0.00000
v 6.00000 5.00000 0.00000
v 0.00000 5.00000 0.00000
v 0.15000 4.69000 -0.49000
v 5.85000 4.69000 -0.49000
v 5.85000 4.87000 -0.49000
v 0.15000 4.87000 -0.49000
v 0.15000 4.69000 -0.35000
v 5.85000 4.69000 -0.35000
v 5.85000 4.87000 -0.35000
v 0.15000 4.87000 -0.35000
v 2.45000 0.10000 -0.48000
v 3.55000 0.10000 -0.48000
v 3.55000 2.00000 -0.48000
v 2.45000 2.00000 -0.48000
v 2.45000 0.10000 -0.36000
v 3.55000 0.10000 -0.36000
v 3.55000 2.00000 -0.36000
v 2.45000 2.00000 -0.36000
vt 0.000000 0.000000
vt 1.000000 0.000000
vt 1.000000 1.000000
vt 0.000000 1.000000
vt 0.000000 0.000000
vt 1.000000 0.000000
vt 1.000000 1.000000
vt 0.000000 1.000000
vt 0.025000 0.938000
vt 0.975000 0.938000
vt 0.975000 0.974000
vt 0.025000 0.974000
vt 0.025000 0.938000
vt 0.975000 0.938000
vt 0.975000 0.974000
vt 0.025000 0.974000
vt 0.408333 0.020000
vt 0.591667 0.020000
vt 0.591667 0.400000
vt 0.408333 0.400000
vt 0.408333 0.020000
vt 0.591667 0.020000
vt 0.591667 0.400000
vt 0.408333 0.400000
vn 0.026603 0.063847 0.997605
vn -0.105851 0.063511 0.992352
vn -0.026603 -0.063847 0.997605
vn 0.105851 -0.063511 0.992352
vn 0.053230 0.031938 -0.998071
vn -0.052828 0.126787 -0.990522
vn -0.053230 -0.031938 -0.998071
vn 0.052828 -0.126787 -0.990522
vn 0.009693 0.613912 0.789315
vn -0.038746 0.613480 0.788759
vn -0.009693 -0.613912 0.789315
vn 0.038746 -0.613480 0.788759
vn 0.022885 0.362351 -0.931761
vn -0.013281 0.841104 -0.540710
vn -0.022885 -0.362351 -0.931761
vn 0.013281 -0.841104 -0.540710
vn 0.054357 0.062939 0.996536
vn -0.212762 0.061589 0.975161
vn -0.054357 -0.062939 0.996536
vn 0.212762 -0.061589 0.975161
vn 0.108394 0.031377 -0.993613
vn -0.107602 0.124592 -0.986356
vn -0.108394 -0.031377 -0.993613
vn 0.107602 -0.124592 -0.986356
usemtl Facade_Surface
f 1/1/1 2/2/2 3/3/3
f 1/1/1 3/3/3 4/4/4
f 5/5/5 7/7/7 6/6/6
f 5/5/5 8/8/8 7/7/7
f 1/1/1 5/5/5 6/6/6
f 1/1/1 6/6/6 2/2/2
f 2/2/2 6/6/6 7/7/7
f 2/2/2 7/7/7 3/3/3
f 3/3/3 7/7/7 8/8/8
f 3/3/3 8/8/8 4/4/4
f 4/4/4 8/8/8 5/5/5
f 4/4/4 5/5/5 1/1/1
f 9/9/9 10/10/10 11/11/11
f 9/9/9 11/11/11 12/12/12
f 13/13/13 15/15/15 14/14/14
f 13/13/13 16/16/16 15/15/15
f 9/9/9 13/13/13 14/14/14
f 9/9/9 14/14/14 10/10/10
f 10/10/10 14/14/14 15/15/15
f 10/10/10 15/15/15 11/11/11
f 11/11/11 15/15/15 16/16/16
f 11/11/11 16/16/16 12/12/12
f 12/12/12 16/16/16 13/13/13
f 12/12/12 13/13/13 9/9/9
f 17/17/17 18/18/18 19/19/19
f 17/17/17 19/19/19 20/20/20
f 21/21/21 23/23/23 22/22/22
f 21/21/21 24/24/24 23/23/23
f 17/17/17 21/21/21 22/22/22
f 17/17/17 22/22/22 18/18/18
f 18/18/18 22/22/22 23/23/23
f 18/18/18 23/23/23 19/19/19
f 19/19/19 23/23/23 24/24/24
f 19/19/19 24/24/24 20/20/20
f 20/20/20 24/24/24 21/21/21
f 20/20/20 21/21/21 17/17/17
