# 3Fareet authored production-source candidate
o SM_Env_CairoAwning_A
s 1
v 0.00000 0.81000 0.00000
v 3.00000 0.81000 0.00000
v 3.00000 0.99000 0.00000
v 0.00000 0.99000 0.00000
v 0.00000 0.81000 1.50000
v 3.00000 0.81000 1.50000
v 3.00000 0.54000 1.50000
v 0.00000 0.54000 1.50000
v 0.08000 0.00000 0.06000
v 0.16000 0.00000 0.06000
v 0.16000 1.30000 0.06000
v 0.08000 1.30000 0.06000
v 0.08000 0.00000 0.14000
v 0.16000 0.00000 0.14000
v 0.16000 1.30000 0.14000
v 0.08000 1.30000 0.14000
v 2.84000 0.00000 0.06000
v 2.92000 0.00000 0.06000
v 2.92000 1.30000 0.06000
v 2.84000 1.30000 0.06000
v 2.84000 0.00000 0.14000
v 2.92000 0.00000 0.14000
v 2.92000 1.30000 0.14000
v 2.84000 1.30000 0.14000
v 0.04000 0.38000 0.06000
v 2.96000 0.38000 0.06000
v 2.96000 0.46000 0.06000
v 0.04000 0.46000 0.06000
v 0.04000 0.38000 0.14000
v 2.96000 0.38000 0.14000
v 2.96000 0.46000 0.14000
v 0.04000 0.46000 0.14000
v 0.04000 0.33500 1.37500
v 2.96000 0.33500 1.37500
v 2.96000 0.42500 1.37500
v 0.04000 0.42500 1.37500
v 0.04000 0.33500 1.46500
v 2.96000 0.33500 1.46500
v 2.96000 0.42500 1.46500
v 0.04000 0.42500 1.46500
v 1.47000 0.75000 0.05000
v 1.53000 0.75000 0.05000
v 1.53000 0.81000 0.05000
v 1.47000 0.81000 0.05000
v 1.47000 0.75000 1.45000
v 1.53000 0.75000 1.45000
v 1.53000 0.81000 1.45000
v 1.47000 0.81000 1.45000
v 0.72750 0.75000 0.05000
v 0.77250 0.75000 0.05000
v 0.77250 0.81000 0.05000
v 0.72750 0.81000 0.05000
v 0.72750 0.75000 1.45000
v 0.77250 0.75000 1.45000
v 0.77250 0.81000 1.45000
v 0.72750 0.81000 1.45000
v 2.22750 0.75000 0.05000
v 2.27250 0.75000 0.05000
v 2.27250 0.81000 0.05000
v 2.22750 0.81000 0.05000
v 2.22750 0.75000 1.45000
v 2.27250 0.75000 1.45000
v 2.27250 0.81000 1.45000
v 2.22750 0.81000 1.45000
g Canopy
f 1 2 3
f 1 3 4
f 6 5 8
f 6 8 7
f 5 1 4
f 5 4 8
f 2 6 7
f 2 7 3
f 4 3 7
f 4 7 8
f 5 6 2
f 5 2 1
g Frame
f 9 10 11
f 9 11 12
f 14 13 16
f 14 16 15
f 13 9 12
f 13 12 16
f 10 14 15
f 10 15 11
f 12 11 15
f 12 15 16
f 13 14 10
f 13 10 9
f 17 18 19
f 17 19 20
f 22 21 24
f 22 24 23
f 21 17 20
f 21 20 24
f 18 22 23
f 18 23 19
f 20 19 23
f 20 23 24
f 21 22 18
f 21 18 17
f 25 26 27
f 25 27 28
f 30 29 32
f 30 32 31
f 29 25 28
f 29 28 32
f 26 30 31
f 26 31 27
f 28 27 31
f 28 31 32
f 29 30 26
f 29 26 25
g GoldTrim
f 33 34 35
f 33 35 36
f 38 37 40
f 38 40 39
f 37 33 36
f 37 36 40
f 34 38 39
f 34 39 35
f 36 35 39
f 36 39 40
f 37 38 34
f 37 34 33
g Rib
f 41 42 43
f 41 43 44
f 46 45 48
f 46 48 47
f 45 41 44
f 45 44 48
f 42 46 47
f 42 47 43
f 44 43 47
f 44 47 48
f 45 46 42
f 45 42 41
f 49 50 51
f 49 51 52
f 54 53 56
f 54 56 55
f 53 49 52
f 53 52 56
f 50 54 55
f 50 55 51
f 52 51 55
f 52 55 56
f 53 54 50
f 53 50 49
f 57 58 59
f 57 59 60
f 62 61 64
f 62 64 63
f 61 57 60
f 61 60 64
f 58 62 63
f 58 63 59
f 60 59 63
f 60 63 64
f 61 62 58
f 61 58 57
