# 3Fareet authored production-source candidate
o SM_Env_CairoFacade_A
s 1
v 0.00000 0.00000 0.00000
v 6.00000 0.00000 0.00000
v 6.00000 5.00000 0.00000
v 0.00000 5.00000 0.00000
v 0.00000 0.00000 0.44000
v 6.00000 0.00000 0.44000
v 6.00000 5.00000 0.44000
v 0.00000 5.00000 0.44000
v 0.09000 0.45000 -0.19000
v 0.27000 0.45000 -0.19000
v 0.27000 4.85000 -0.19000
v 0.09000 4.85000 -0.19000
v 0.09000 0.45000 -0.01000
v 0.27000 0.45000 -0.01000
v 0.27000 4.85000 -0.01000
v 0.09000 4.85000 -0.01000
v 1.46000 0.45000 -0.19000
v 1.64000 0.45000 -0.19000
v 1.64000 4.85000 -0.19000
v 1.46000 4.85000 -0.19000
v 1.46000 0.45000 -0.01000
v 1.64000 0.45000 -0.01000
v 1.64000 4.85000 -0.01000
v 1.46000 4.85000 -0.01000
v 4.36000 0.45000 -0.19000
v 4.54000 0.45000 -0.19000
v 4.54000 4.85000 -0.19000
v 4.36000 4.85000 -0.19000
v 4.36000 0.45000 -0.01000
v 4.54000 0.45000 -0.01000
v 4.54000 4.85000 -0.01000
v 4.36000 4.85000 -0.01000
v 5.73000 0.45000 -0.19000
v 5.91000 0.45000 -0.19000
v 5.91000 4.85000 -0.19000
v 5.73000 4.85000 -0.19000
v 5.73000 0.45000 -0.01000
v 5.91000 0.45000 -0.01000
v 5.91000 4.85000 -0.01000
v 5.73000 4.85000 -0.01000
v 0.07500 1.98000 -0.22000
v 5.92500 1.98000 -0.22000
v 5.92500 2.12000 -0.22000
v 0.07500 2.12000 -0.22000
v 0.07500 1.98000 -0.02000
v 5.92500 1.98000 -0.02000
v 5.92500 2.12000 -0.02000
v 0.07500 2.12000 -0.02000
v 0.07500 4.48000 -0.22000
v 5.92500 4.48000 -0.22000
v 5.92500 4.62000 -0.22000
v 0.07500 4.62000 -0.22000
v 0.07500 4.48000 -0.02000
v 5.92500 4.48000 -0.02000
v 5.92500 4.62000 -0.02000
v 0.07500 4.62000 -0.02000
v 0.39000 2.77500 -0.23000
v 1.31000 2.77500 -0.23000
v 1.31000 3.82500 -0.23000
v 0.39000 3.82500 -0.23000
v 0.39000 2.77500 -0.13000
v 1.31000 2.77500 -0.13000
v 1.31000 3.82500 -0.13000
v 0.39000 3.82500 -0.13000
v 1.79000 2.77500 -0.23000
v 2.71000 2.77500 -0.23000
v 2.71000 3.82500 -0.23000
v 1.79000 3.82500 -0.23000
v 1.79000 2.77500 -0.13000
v 2.71000 2.77500 -0.13000
v 2.71000 3.82500 -0.13000
v 1.79000 3.82500 -0.13000
v 3.29000 2.77500 -0.23000
v 4.21000 2.77500 -0.23000
v 4.21000 3.82500 -0.23000
v 3.29000 3.82500 -0.23000
v 3.29000 2.77500 -0.13000
v 4.21000 2.77500 -0.13000
v 4.21000 3.82500 -0.13000
v 3.29000 3.82500 -0.13000
v 4.69000 2.77500 -0.23000
v 5.61000 2.77500 -0.23000
v 5.61000 3.82500 -0.23000
v 4.69000 3.82500 -0.23000
v 4.69000 2.77500 -0.13000
v 5.61000 2.77500 -0.13000
v 5.61000 3.82500 -0.13000
v 4.69000 3.82500 -0.13000
v 0.37500 0.22500 -0.23000
v 2.02500 0.22500 -0.23000
v 2.02500 1.77500 -0.23000
v 0.37500 1.77500 -0.23000
v 0.37500 0.22500 -0.13000
v 2.02500 0.22500 -0.13000
v 2.02500 1.77500 -0.13000
v 0.37500 1.77500 -0.13000
v 3.97500 0.22500 -0.23000
v 5.62500 0.22500 -0.23000
v 5.62500 1.77500 -0.23000
v 3.97500 1.77500 -0.23000
v 3.97500 0.22500 -0.13000
v 5.62500 0.22500 -0.13000
v 5.62500 1.77500 -0.13000
v 3.97500 1.77500 -0.13000
v 2.47500 0.10000 -0.26000
v 3.52500 0.10000 -0.26000
v 3.52500 1.80000 -0.26000
v 2.47500 1.80000 -0.26000
v 2.47500 0.10000 -0.14000
v 3.52500 0.10000 -0.14000
v 3.52500 1.80000 -0.14000
v 2.47500 1.80000 -0.14000
v 1.50000 2.09000 -0.84500
v 4.50000 2.09000 -0.84500
v 4.50000 2.21000 -0.84500
v 1.50000 2.21000 -0.84500
v 1.50000 2.09000 -0.19500
v 4.50000 2.09000 -0.19500
v 4.50000 2.21000 -0.19500
v 1.50000 2.21000 -0.19500
v 1.62500 2.27500 -0.82000
v 4.37500 2.27500 -0.82000
v 4.37500 2.82500 -0.82000
v 1.62500 2.82500 -0.82000
v 1.62500 2.27500 -0.74000
v 4.37500 2.27500 -0.74000
v 4.37500 2.82500 -0.74000
v 1.62500 2.82500 -0.74000
v 0.10000 4.76000 -0.36000
v 5.90000 4.76000 -0.36000
v 5.90000 4.96000 -0.36000
v 0.10000 4.96000 -0.36000
v 0.10000 4.76000 -0.08000
v 5.90000 4.76000 -0.08000
v 5.90000 4.96000 -0.08000
v 0.10000 4.96000 -0.08000
g Shell
f 1 2 3
f 1 3 4
f 6 5 8
f 6 8 7
f 5 1 4
f 5 4 8
f 2 6 7
f 2 7 3
f 4 3 7
f 4 7 8
f 5 6 2
f 5 2 1
g StoneTrim
f 9 10 11
f 9 11 12
f 14 13 16
f 14 16 15
f 13 9 12
f 13 12 16
f 10 14 15
f 10 15 11
f 12 11 15
f 12 15 16
f 13 14 10
f 13 10 9
f 17 18 19
f 17 19 20
f 22 21 24
f 22 24 23
f 21 17 20
f 21 20 24
f 18 22 23
f 18 23 19
f 20 19 23
f 20 23 24
f 21 22 18
f 21 18 17
f 25 26 27
f 25 27 28
f 30 29 32
f 30 32 31
f 29 25 28
f 29 28 32
f 26 30 31
f 26 31 27
f 28 27 31
f 28 31 32
f 29 30 26
f 29 26 25
f 33 34 35
f 33 35 36
f 38 37 40
f 38 40 39
f 37 33 36
f 37 36 40
f 34 38 39
f 34 39 35
f 36 35 39
f 36 39 40
f 37 38 34
f 37 34 33
f 41 42 43
f 41 43 44
f 46 45 48
f 46 48 47
f 45 41 44
f 45 44 48
f 42 46 47
f 42 47 43
f 44 43 47
f 44 47 48
f 45 46 42
f 45 42 41
f 49 50 51
f 49 51 52
f 54 53 56
f 54 56 55
f 53 49 52
f 53 52 56
f 50 54 55
f 50 55 51
f 52 51 55
f 52 55 56
f 53 54 50
f 53 50 49
g WindowRecess
f 57 58 59
f 57 59 60
f 62 61 64
f 62 64 63
f 61 57 60
f 61 60 64
f 58 62 63
f 58 63 59
f 60 59 63
f 60 63 64
f 61 62 58
f 61 58 57
f 65 66 67
f 65 67 68
f 70 69 72
f 70 72 71
f 69 65 68
f 69 68 72
f 66 70 71
f 66 71 67
f 68 67 71
f 68 71 72
f 69 70 66
f 69 66 65
f 73 74 75
f 73 75 76
f 78 77 80
f 78 80 79
f 77 73 76
f 77 76 80
f 74 78 79
f 74 79 75
f 76 75 79
f 76 79 80
f 77 78 74
f 77 74 73
f 81 82 83
f 81 83 84
f 86 85 88
f 86 88 87
f 85 81 84
f 85 84 88
f 82 86 87
f 82 87 83
f 84 83 87
f 84 87 88
f 85 86 82
f 85 82 81
g Storefront
f 89 90 91
f 89 91 92
f 94 93 96
f 94 96 95
f 93 89 92
f 93 92 96
f 90 94 95
f 90 95 91
f 92 91 95
f 92 95 96
f 93 94 90
f 93 90 89
f 97 98 99
f 97 99 100
f 102 101 104
f 102 104 103
f 101 97 100
f 101 100 104
f 98 102 103
f 98 103 99
f 100 99 103
f 100 103 104
f 101 102 98
f 101 98 97
g Door
f 105 106 107
f 105 107 108
f 110 109 112
f 110 112 111
f 109 105 108
f 109 108 112
f 106 110 111
f 106 111 107
f 108 107 111
f 108 111 112
f 109 110 106
f 109 106 105
g Balcony
f 113 114 115
f 113 115 116
f 118 117 120
f 118 120 119
f 117 113 116
f 117 116 120
f 114 118 119
f 114 119 115
f 116 115 119
f 116 119 120
f 117 118 114
f 117 114 113
g BalconyRail
f 121 122 123
f 121 123 124
f 126 125 128
f 126 128 127
f 125 121 124
f 125 124 128
f 122 126 127
f 122 127 123
f 124 123 127
f 124 127 128
f 125 126 122
f 125 122 121
g Cornice
f 129 130 131
f 129 131 132
f 134 133 136
f 134 136 135
f 133 129 132
f 133 132 136
f 130 134 135
f 130 135 131
f 132 131 135
f 132 135 136
f 133 134 130
f 133 130 129
