# UART-006 topology-preserving candidate surface authoring
mtllib SM_Env_CairoFacade_B.mtl
# UART-005 authored source variant candidate: SM_Env_CairoFacade_B
o SM_Env_CairoFacade_B
s 1
v 0.00000 0.00000 -0.36000
v 6.00000 0.00000 -0.36000
v 6.00000 5.00000 -0.36000
v 0.00000 5.00000 -0.36000
v 0.00000 0.00000 0.00000
v 6.00000 0.00000 0.00000
v 6.00000 5.00000 0.00000
v 0.00000 5.00000 0.00000
v 0.12500 0.00000 -0.50000
v 0.37500 0.00000 -0.50000
v 0.37500 5.00000 -0.50000
v 0.12500 5.00000 -0.50000
v 0.12500 0.00000 -0.36000
v 0.37500 0.00000 -0.36000
v 0.37500 5.00000 -0.36000
v 0.12500 5.00000 -0.36000
v 5.62500 0.00000 -0.50000
v 5.87500 0.00000 -0.50000
v 5.87500 5.00000 -0.50000
v 5.62500 5.00000 -0.50000
v 5.62500 0.00000 -0.36000
v 5.87500 0.00000 -0.36000
v 5.87500 5.00000 -0.36000
v 5.62500 5.00000 -0.36000
v 0.15000 4.67000 -0.57000
v 5.85000 4.67000 -0.57000
v 5.85000 4.89000 -0.57000
v 0.15000 4.89000 -0.57000
v 0.15000 4.67000 -0.39000
v 5.85000 4.67000 -0.39000
v 5.85000 4.89000 -0.39000
v 0.15000 4.89000 -0.39000
v 0.10000 0.16000 -0.56000
v 5.90000 0.16000 -0.56000
v 5.90000 0.44000 -0.56000
v 0.10000 0.44000 -0.56000
v 0.10000 0.16000 -0.38000
v 5.90000 0.16000 -0.38000
v 5.90000 0.44000 -0.38000
v 0.10000 0.44000 -0.38000
v 0.72500 2.69500 -0.51000
v 1.77500 2.69500 -0.51000
v 1.77500 4.14500 -0.51000
v 0.72500 4.14500 -0.51000
v 0.72500 2.69500 -0.37000
v 1.77500 2.69500 -0.37000
v 1.77500 4.14500 -0.37000
v 0.72500 4.14500 -0.37000
v 0.57500 2.56000 -0.71000
v 1.92500 2.56000 -0.71000
v 1.92500 2.68000 -0.71000
v 0.57500 2.68000 -0.71000
v 0.57500 2.56000 -0.41000
v 1.92500 2.56000 -0.41000
v 1.92500 2.68000 -0.41000
v 0.57500 2.68000 -0.41000
v 0.61000 2.88000 -0.72000
v 1.89000 2.88000 -0.72000
v 1.89000 2.96000 -0.72000
v 0.61000 2.96000 -0.72000
v 0.61000 2.88000 -0.64000
v 1.89000 2.88000 -0.64000
v 1.89000 2.96000 -0.64000
v 0.61000 2.96000 -0.64000
v 0.74000 2.62000 -0.70000
v 0.80000 2.62000 -0.70000
v 0.80000 2.94000 -0.70000
v 0.74000 2.94000 -0.70000
v 0.74000 2.62000 -0.64000
v 0.80000 2.62000 -0.64000
v 0.80000 2.94000 -0.64000
v 0.74000 2.94000 -0.64000
v 1.22000 2.62000 -0.70000
v 1.28000 2.62000 -0.70000
v 1.28000 2.94000 -0.70000
v 1.22000 2.94000 -0.70000
v 1.22000 2.62000 -0.64000
v 1.28000 2.62000 -0.64000
v 1.28000 2.94000 -0.64000
v 1.22000 2.94000 -0.64000
v 1.70000 2.62000 -0.70000
v 1.76000 2.62000 -0.70000
v 1.76000 2.94000 -0.70000
v 1.70000 2.94000 -0.70000
v 1.70000 2.62000 -0.64000
v 1.76000 2.62000 -0.64000
v 1.76000 2.94000 -0.64000
v 1.70000 2.94000 -0.64000
v 2.47500 2.69500 -0.51000
v 3.52500 2.69500 -0.51000
v 3.52500 4.14500 -0.51000
v 2.47500 4.14500 -0.51000
v 2.47500 2.69500 -0.37000
v 3.52500 2.69500 -0.37000
v 3.52500 4.14500 -0.37000
v 2.47500 4.14500 -0.37000
v 2.32500 2.56000 -0.71000
v 3.67500 2.56000 -0.71000
v 3.67500 2.68000 -0.71000
v 2.32500 2.68000 -0.71000
v 2.32500 2.56000 -0.41000
v 3.67500 2.56000 -0.41000
v 3.67500 2.68000 -0.41000
v 2.32500 2.68000 -0.41000
v 2.36000 2.88000 -0.72000
v 3.64000 2.88000 -0.72000
v 3.64000 2.96000 -0.72000
v 2.36000 2.96000 -0.72000
v 2.36000 2.88000 -0.64000
v 3.64000 2.88000 -0.64000
v 3.64000 2.96000 -0.64000
v 2.36000 2.96000 -0.64000
v 2.49000 2.62000 -0.70000
v 2.55000 2.62000 -0.70000
v 2.55000 2.94000 -0.70000
v 2.49000 2.94000 -0.70000
v 2.49000 2.62000 -0.64000
v 2.55000 2.62000 -0.64000
v 2.55000 2.94000 -0.64000
v 2.49000 2.94000 -0.64000
v 2.97000 2.62000 -0.70000
v 3.03000 2.62000 -0.70000
v 3.03000 2.94000 -0.70000
v 2.97000 2.94000 -0.70000
v 2.97000 2.62000 -0.64000
v 3.03000 2.62000 -0.64000
v 3.03000 2.94000 -0.64000
v 2.97000 2.94000 -0.64000
v 3.45000 2.62000 -0.70000
v 3.51000 2.62000 -0.70000
v 3.51000 2.94000 -0.70000
v 3.45000 2.94000 -0.70000
v 3.45000 2.62000 -0.64000
v 3.51000 2.62000 -0.64000
v 3.51000 2.94000 -0.64000
v 3.45000 2.94000 -0.64000
v 4.22500 2.69500 -0.51000
v 5.27500 2.69500 -0.51000
v 5.27500 4.14500 -0.51000
v 4.22500 4.14500 -0.51000
v 4.22500 2.69500 -0.37000
v 5.27500 2.69500 -0.37000
v 5.27500 4.14500 -0.37000
v 4.22500 4.14500 -0.37000
v 4.07500 2.56000 -0.71000
v 5.42500 2.56000 -0.71000
v 5.42500 2.68000 -0.71000
v 4.07500 2.68000 -0.71000
v 4.07500 2.56000 -0.41000
v 5.42500 2.56000 -0.41000
v 5.42500 2.68000 -0.41000
v 4.07500 2.68000 -0.41000
v 4.11000 2.88000 -0.72000
v 5.39000 2.88000 -0.72000
v 5.39000 2.96000 -0.72000
v 4.11000 2.96000 -0.72000
v 4.11000 2.88000 -0.64000
v 5.39000 2.88000 -0.64000
v 5.39000 2.96000 -0.64000
v 4.11000 2.96000 -0.64000
v 4.24000 2.62000 -0.70000
v 4.30000 2.62000 -0.70000
v 4.30000 2.94000 -0.70000
v 4.24000 2.94000 -0.70000
v 4.24000 2.62000 -0.64000
v 4.30000 2.62000 -0.64000
v 4.30000 2.94000 -0.64000
v 4.24000 2.94000 -0.64000
v 4.72000 2.62000 -0.70000
v 4.78000 2.62000 -0.70000
v 4.78000 2.94000 -0.70000
v 4.72000 2.94000 -0.70000
v 4.72000 2.62000 -0.64000
v 4.78000 2.62000 -0.64000
v 4.78000 2.94000 -0.64000
v 4.72000 2.94000 -0.64000
v 5.20000 2.62000 -0.70000
v 5.26000 2.62000 -0.70000
v 5.26000 2.94000 -0.70000
v 5.20000 2.94000 -0.70000
v 5.20000 2.62000 -0.64000
v 5.26000 2.62000 -0.64000
v 5.26000 2.94000 -0.64000
v 5.20000 2.94000 -0.64000
v 2.27500 0.15500 -0.54000
v 3.72500 0.15500 -0.54000
v 3.72500 2.20500 -0.54000
v 2.27500 2.20500 -0.54000
v 2.27500 0.15500 -0.38000
v 3.72500 0.15500 -0.38000
v 3.72500 2.20500 -0.38000
v 2.27500 2.20500 -0.38000
v 2.11500 0.10500 -0.65000
v 2.24500 0.10500 -0.65000
v 2.24500 2.25500 -0.65000
v 2.11500 2.25500 -0.65000
v 2.11500 0.10500 -0.41000
v 2.24500 0.10500 -0.41000
v 2.24500 2.25500 -0.41000
v 2.11500 2.25500 -0.41000
v 3.75500 0.10500 -0.65000
v 3.88500 0.10500 -0.65000
v 3.88500 2.25500 -0.65000
v 3.75500 2.25500 -0.65000
v 3.75500 0.10500 -0.41000
v 3.88500 0.10500 -0.41000
v 3.88500 2.25500 -0.41000
v 3.75500 2.25500 -0.41000
v 2.11000 2.12000 -0.66000
v 3.89000 2.12000 -0.66000
v 3.89000 2.28000 -0.66000
v 2.11000 2.28000 -0.66000
v 2.11000 2.12000 -0.42000
v 3.89000 2.12000 -0.42000
v 3.89000 2.28000 -0.42000
v 2.11000 2.28000 -0.42000
vt 0.000000 0.000000
vt 1.000000 0.000000
vt 1.000000 1.000000
vt 0.000000 1.000000
vt 0.000000 0.000000
vt 1.000000 0.000000
vt 1.000000 1.000000
vt 0.000000 1.000000
vt 0.020833 0.000000
vt 0.062500 0.000000
vt 0.062500 1.000000
vt 0.020833 1.000000
vt 0.020833 0.000000
vt 0.062500 0.000000
vt 0.062500 1.000000
vt 0.020833 1.000000
vt 0.937500 0.000000
vt 0.979167 0.000000
vt 0.979167 1.000000
vt 0.937500 1.000000
vt 0.937500 0.000000
vt 0.979167 0.000000
vt 0.979167 1.000000
vt 0.937500 1.000000
vt 0.025000 0.934000
vt 0.975000 0.934000
vt 0.975000 0.978000
vt 0.025000 0.978000
vt 0.025000 0.934000
vt 0.975000 0.934000
vt 0.975000 0.978000
vt 0.025000 0.978000
vt 0.016667 0.032000
vt 0.983333 0.032000
vt 0.983333 0.088000
vt 0.016667 0.088000
vt 0.016667 0.032000
vt 0.983333 0.032000
vt 0.983333 0.088000
vt 0.016667 0.088000
vt 0.120833 0.539000
vt 0.295833 0.539000
vt 0.295833 0.829000
vt 0.120833 0.829000
vt 0.120833 0.539000
vt 0.295833 0.539000
vt 0.295833 0.829000
vt 0.120833 0.829000
vt 0.095833 0.512000
vt 0.320833 0.512000
vt 0.320833 0.536000
vt 0.095833 0.536000
vt 0.095833 0.512000
vt 0.320833 0.512000
vt 0.320833 0.536000
vt 0.095833 0.536000
vt 0.101667 0.576000
vt 0.315000 0.576000
vt 0.315000 0.592000
vt 0.101667 0.592000
vt 0.101667 0.576000
vt 0.315000 0.576000
vt 0.315000 0.592000
vt 0.101667 0.592000
vt 0.123333 0.524000
vt 0.133333 0.524000
vt 0.133333 0.588000
vt 0.123333 0.588000
vt 0.123333 0.524000
vt 0.133333 0.524000
vt 0.133333 0.588000
vt 0.123333 0.588000
vt 0.203333 0.524000
vt 0.213333 0.524000
vt 0.213333 0.588000
vt 0.203333 0.588000
vt 0.203333 0.524000
vt 0.213333 0.524000
vt 0.213333 0.588000
vt 0.203333 0.588000
vt 0.283333 0.524000
vt 0.293333 0.524000
vt 0.293333 0.588000
vt 0.283333 0.588000
vt 0.283333 0.524000
vt 0.293333 0.524000
vt 0.293333 0.588000
vt 0.283333 0.588000
vt 0.412500 0.539000
vt 0.587500 0.539000
vt 0.587500 0.829000
vt 0.412500 0.829000
vt 0.412500 0.539000
vt 0.587500 0.539000
vt 0.587500 0.829000
vt 0.412500 0.829000
vt 0.387500 0.512000
vt 0.612500 0.512000
vt 0.612500 0.536000
vt 0.387500 0.536000
vt 0.387500 0.512000
vt 0.612500 0.512000
vt 0.612500 0.536000
vt 0.387500 0.536000
vt 0.393333 0.576000
vt 0.606667 0.576000
vt 0.606667 0.592000
vt 0.393333 0.592000
vt 0.393333 0.576000
vt 0.606667 0.576000
vt 0.606667 0.592000
vt 0.393333 0.592000
vt 0.415000 0.524000
vt 0.425000 0.524000
vt 0.425000 0.588000
vt 0.415000 0.588000
vt 0.415000 0.524000
vt 0.425000 0.524000
vt 0.425000 0.588000
vt 0.415000 0.588000
vt 0.495000 0.524000
vt 0.505000 0.524000
vt 0.505000 0.588000
vt 0.495000 0.588000
vt 0.495000 0.524000
vt 0.505000 0.524000
vt 0.505000 0.588000
vt 0.495000 0.588000
vt 0.575000 0.524000
vt 0.585000 0.524000
vt 0.585000 0.588000
vt 0.575000 0.588000
vt 0.575000 0.524000
vt 0.585000 0.524000
vt 0.585000 0.588000
vt 0.575000 0.588000
vt 0.704167 0.539000
vt 0.879167 0.539000
vt 0.879167 0.829000
vt 0.704167 0.829000
vt 0.704167 0.539000
vt 0.879167 0.539000
vt 0.879167 0.829000
vt 0.704167 0.829000
vt 0.679167 0.512000
vt 0.904167 0.512000
vt 0.904167 0.536000
vt 0.679167 0.536000
vt 0.679167 0.512000
vt 0.904167 0.512000
vt 0.904167 0.536000
vt 0.679167 0.536000
vt 0.685000 0.576000
vt 0.898333 0.576000
vt 0.898333 0.592000
vt 0.685000 0.592000
vt 0.685000 0.576000
vt 0.898333 0.576000
vt 0.898333 0.592000
vt 0.685000 0.592000
vt 0.706667 0.524000
vt 0.716667 0.524000
vt 0.716667 0.588000
vt 0.706667 0.588000
vt 0.706667 0.524000
vt 0.716667 0.524000
vt 0.716667 0.588000
vt 0.706667 0.588000
vt 0.786667 0.524000
vt 0.796667 0.524000
vt 0.796667 0.588000
vt 0.786667 0.588000
vt 0.786667 0.524000
vt 0.796667 0.524000
vt 0.796667 0.588000
vt 0.786667 0.588000
vt 0.866667 0.524000
vt 0.876667 0.524000
vt 0.876667 0.588000
vt 0.866667 0.588000
vt 0.866667 0.524000
vt 0.876667 0.524000
vt 0.876667 0.588000
vt 0.866667 0.588000
vt 0.379167 0.031000
vt 0.620833 0.031000
vt 0.620833 0.441000
vt 0.379167 0.441000
vt 0.379167 0.031000
vt 0.620833 0.031000
vt 0.620833 0.441000
vt 0.379167 0.441000
vt 0.352500 0.021000
vt 0.374167 0.021000
vt 0.374167 0.451000
vt 0.352500 0.451000
vt 0.352500 0.021000
vt 0.374167 0.021000
vt 0.374167 0.451000
vt 0.352500 0.451000
vt 0.625833 0.021000
vt 0.647500 0.021000
vt 0.647500 0.451000
vt 0.625833 0.451000
vt 0.625833 0.021000
vt 0.647500 0.021000
vt 0.647500 0.451000
vt 0.625833 0.451000
vt 0.351667 0.424000
vt 0.648333 0.424000
vt 0.648333 0.456000
vt 0.351667 0.456000
vt 0.351667 0.424000
vt 0.648333 0.424000
vt 0.648333 0.456000
vt 0.351667 0.456000
vn 0.029909 0.071782 0.996972
vn -0.118842 0.071305 0.990350
vn -0.029909 -0.071782 0.996972
vn 0.118842 -0.071305 0.990350
vn 0.059854 0.035912 -0.997561
vn -0.059283 0.142279 -0.988050
vn -0.059854 -0.035912 -0.997561
vn 0.059283 -0.142279 -0.988050
vn 0.269532 0.026953 0.962614
vn -0.745808 0.018645 0.665900
vn -0.269532 -0.026953 0.962614
vn 0.745808 -0.018645 0.665900
vn 0.488567 0.012214 -0.872441
vn -0.488021 0.048802 -0.871466
vn -0.488567 -0.012214 -0.872441
vn 0.488021 -0.048802 -0.871466
vn 0.269532 0.026953 0.962614
vn -0.745808 0.018645 0.665900
vn -0.269532 -0.026953 0.962614
vn 0.745808 -0.018645 0.665900
vn 0.488567 0.012214 -0.872441
vn -0.488021 0.048802 -0.871466
vn -0.488567 -0.012214 -0.872441
vn 0.488021 -0.048802 -0.871466
vn 0.012219 0.633191 0.773900
vn -0.048823 0.632483 0.773034
vn -0.012219 -0.633191 0.773900
vn 0.048823 -0.632483 0.773034
vn 0.029215 0.378471 -0.925152
vn -0.016465 0.853166 -0.521379
vn -0.029215 -0.378471 -0.925152
vn 0.016465 -0.853166 -0.521379
vn 0.013052 0.540712 0.841107
vn -0.052140 0.540022 0.840034
vn -0.013052 -0.540712 0.841107
vn 0.052140 -0.540022 0.840034
vn 0.029533 0.305876 -0.951613
vn -0.019050 0.789209 -0.613829
vn -0.029533 -0.305876 -0.951613
vn 0.019050 -0.789209 -0.613829
vn 0.066212 0.095894 0.993187
vn -0.256549 0.092888 0.962057
vn -0.066212 -0.095894 0.993187
vn 0.256549 -0.092888 0.962057
vn 0.132013 0.047798 -0.990095
vn -0.129807 0.187997 -0.973554
vn -0.132013 -0.047798 -0.990095
vn 0.129807 -0.187997 -0.973554
vn 0.041231 0.927687 0.371075
vn -0.162859 0.916081 0.366432
vn -0.041231 -0.927687 0.371075
vn 0.162859 -0.916081 0.366432
vn 0.137503 0.773452 -0.618761
vn -0.043540 0.979651 -0.195930
vn -0.137503 -0.773452 -0.618761
vn 0.043540 -0.979651 -0.195930
vn 0.022092 0.706934 0.706934
vn -0.088045 0.704361 0.704361
vn -0.022092 -0.706934 0.706934
vn 0.088045 -0.704361 0.704361
vn 0.055815 0.446516 -0.893033
vn -0.027940 0.894078 -0.447039
vn -0.055815 -0.446516 -0.893033
vn 0.027940 -0.894078 -0.447039
vn 0.441054 0.165395 0.882109
vn -0.891299 0.083559 0.445650
vn -0.441054 -0.165395 0.882109
vn 0.891299 -0.083559 0.445650
vn 0.705558 0.066146 -0.705558
vn -0.683486 0.256307 -0.683486
vn -0.705558 -0.066146 -0.705558
vn 0.683486 -0.256307 -0.683486
vn 0.441054 0.165395 0.882109
vn -0.891299 0.083559 0.445650
vn -0.441054 -0.165395 0.882109
vn 0.891299 -0.083559 0.445650
vn 0.705558 0.066146 -0.705558
vn -0.683486 0.256307 -0.683486
vn -0.705558 -0.066146 -0.705558
vn 0.683486 -0.256307 -0.683486
vn 0.441054 0.165395 0.882109
vn -0.891299 0.083559 0.445650
vn -0.441054 -0.165395 0.882109
vn 0.891299 -0.083559 0.445650
vn 0.705558 0.066146 -0.705558
vn -0.683486 0.256307 -0.683486
vn -0.705558 -0.066146 -0.705558
vn 0.683486 -0.256307 -0.683486
vn 0.066212 0.095894 0.993187
vn -0.256549 0.092888 0.962057
vn -0.066212 -0.095894 0.993187
vn 0.256549 -0.092888 0.962057
vn 0.132013 0.047798 -0.990095
vn -0.129807 0.187997 -0.973554
vn -0.132013 -0.047798 -0.990095
vn 0.129807 -0.187997 -0.973554
vn 0.041231 0.927687 0.371075
vn -0.162859 0.916081 0.366432
vn -0.041231 -0.927687 0.371075
vn 0.162859 -0.916081 0.366432
vn 0.137503 0.773452 -0.618761
vn -0.043540 0.979651 -0.195930
vn -0.137503 -0.773452 -0.618761
vn 0.043540 -0.979651 -0.195930
vn 0.022092 0.706934 0.706934
vn -0.088045 0.704361 0.704361
vn -0.022092 -0.706934 0.706934
vn 0.088045 -0.704361 0.704361
vn 0.055815 0.446516 -0.893033
vn -0.027940 0.894078 -0.447039
vn -0.055815 -0.446516 -0.893033
vn 0.027940 -0.894078 -0.447039
vn 0.441054 0.165395 0.882109
vn -0.891299 0.083559 0.445650
vn -0.441054 -0.165395 0.882109
vn 0.891299 -0.083559 0.445650
vn 0.705558 0.066146 -0.705558
vn -0.683486 0.256307 -0.683486
vn -0.705558 -0.066146 -0.705558
vn 0.683486 -0.256307 -0.683486
vn 0.441054 0.165395 0.882109
vn -0.891299 0.083559 0.445650
vn -0.441054 -0.165395 0.882109
vn 0.891299 -0.083559 0.445650
vn 0.705558 0.066146 -0.705558
vn -0.683486 0.256307 -0.683486
vn -0.705558 -0.066146 -0.705558
vn 0.683486 -0.256307 -0.683486
vn 0.441054 0.165395 0.882109
vn -0.891299 0.083559 0.445650
vn -0.441054 -0.165395 0.882109
vn 0.891299 -0.083559 0.445650
vn 0.705558 0.066146 -0.705558
vn -0.683486 0.256307 -0.683486
vn -0.705558 -0.066146 -0.705558
vn 0.683486 -0.256307 -0.683486
vn 0.066212 0.095894 0.993187
vn -0.256549 0.092888 0.962057
vn -0.066212 -0.095894 0.993187
vn 0.256549 -0.092888 0.962057
vn 0.132013 0.047798 -0.990095
vn -0.129807 0.187997 -0.973554
vn -0.132013 -0.047798 -0.990095
vn 0.129807 -0.187997 -0.973554
vn 0.041231 0.927687 0.371075
vn -0.162859 0.916081 0.366432
vn -0.041231 -0.927687 0.371075
vn 0.162859 -0.916081 0.366432
vn 0.137503 0.773452 -0.618761
vn -0.043540 0.979651 -0.195930
vn -0.137503 -0.773452 -0.618761
vn 0.043540 -0.979651 -0.195930
vn 0.022092 0.706934 0.706934
vn -0.088045 0.704361 0.704361
vn -0.022092 -0.706934 0.706934
vn 0.088045 -0.704361 0.704361
vn 0.055815 0.446516 -0.893033
vn -0.027940 0.894078 -0.447039
vn -0.055815 -0.446516 -0.893033
vn 0.027940 -0.894078 -0.447039
vn 0.441054 0.165395 0.882109
vn -0.891299 0.083559 0.445650
vn -0.441054 -0.165395 0.882109
vn 0.891299 -0.083559 0.445650
vn 0.705558 0.066146 -0.705558
vn -0.683486 0.256307 -0.683486
vn -0.705558 -0.066146 -0.705558
vn 0.683486 -0.256307 -0.683486
vn 0.441054 0.165395 0.882109
vn -0.891299 0.083559 0.445650
vn -0.441054 -0.165395 0.882109
vn 0.891299 -0.083559 0.445650
vn 0.705558 0.066146 -0.705558
vn -0.683486 0.256307 -0.683486
vn -0.705558 -0.066146 -0.705558
vn 0.683486 -0.256307 -0.683486
vn 0.441054 0.165395 0.882109
vn -0.891299 0.083559 0.445650
vn -0.441054 -0.165395 0.882109
vn 0.891299 -0.083559 0.445650
vn 0.705558 0.066146 -0.705558
vn -0.683486 0.256307 -0.683486
vn -0.705558 -0.066146 -0.705558
vn 0.683486 -0.256307 -0.683486
vn 0.054922 0.077695 0.995463
vn -0.214881 0.075994 0.973679
vn -0.054922 -0.077695 0.995463
vn 0.214881 -0.075994 0.973679
vn 0.109597 0.038760 -0.993220
vn -0.108382 0.153321 -0.982215
vn -0.109597 -0.038760 -0.993220
vn 0.108382 -0.153321 -0.982215
vn 0.676010 0.081750 0.732344
vn -0.964816 0.029169 0.261304
vn -0.676010 -0.081750 0.732344
vn 0.964816 -0.029169 0.261304
vn 0.878981 0.026574 -0.476115
vn -0.874363 0.105737 -0.473613
vn -0.878981 -0.026574 -0.476115
vn 0.874363 -0.105737 -0.473613
vn 0.676010 0.081750 0.732344
vn -0.964816 0.029169 0.261304
vn -0.676010 -0.081750 0.732344
vn 0.964816 -0.029169 0.261304
vn 0.878981 0.026574 -0.476115
vn -0.874363 0.105737 -0.473613
vn -0.878981 -0.026574 -0.476115
vn 0.874363 -0.105737 -0.473613
vn 0.037369 0.831469 0.554313
vn -0.147936 0.822895 0.548597
vn -0.037369 -0.831469 0.554313
vn 0.147936 -0.822895 0.548597
vn 0.107243 0.596540 -0.795386
vn -0.042599 0.947822 -0.315941
vn -0.107243 -0.596540 -0.795386
vn 0.042599 -0.947822 -0.315941
usemtl Facade_B_Surface
f 1/1/1 2/2/2 3/3/3
f 1/1/1 3/3/3 4/4/4
f 5/5/5 7/7/7 6/6/6
f 5/5/5 8/8/8 7/7/7
f 1/1/1 5/5/5 6/6/6
f 1/1/1 6/6/6 2/2/2
f 2/2/2 6/6/6 7/7/7
f 2/2/2 7/7/7 3/3/3
f 3/3/3 7/7/7 8/8/8
f 3/3/3 8/8/8 4/4/4
f 4/4/4 8/8/8 5/5/5
f 4/4/4 5/5/5 1/1/1
f 9/9/9 10/10/10 11/11/11
f 9/9/9 11/11/11 12/12/12
f 13/13/13 15/15/15 14/14/14
f 13/13/13 16/16/16 15/15/15
f 9/9/9 13/13/13 14/14/14
f 9/9/9 14/14/14 10/10/10
f 10/10/10 14/14/14 15/15/15
f 10/10/10 15/15/15 11/11/11
f 11/11/11 15/15/15 16/16/16
f 11/11/11 16/16/16 12/12/12
f 12/12/12 16/16/16 13/13/13
f 12/12/12 13/13/13 9/9/9
f 17/17/17 18/18/18 19/19/19
f 17/17/17 19/19/19 20/20/20
f 21/21/21 23/23/23 22/22/22
f 21/21/21 24/24/24 23/23/23
f 17/17/17 21/21/21 22/22/22
f 17/17/17 22/22/22 18/18/18
f 18/18/18 22/22/22 23/23/23
f 18/18/18 23/23/23 19/19/19
f 19/19/19 23/23/23 24/24/24
f 19/19/19 24/24/24 20/20/20
f 20/20/20 24/24/24 21/21/21
f 20/20/20 21/21/21 17/17/17
f 25/25/25 26/26/26 27/27/27
f 25/25/25 27/27/27 28/28/28
f 29/29/29 31/31/31 30/30/30
f 29/29/29 32/32/32 31/31/31
f 25/25/25 29/29/29 30/30/30
f 25/25/25 30/30/30 26/26/26
f 26/26/26 30/30/30 31/31/31
f 26/26/26 31/31/31 27/27/27
f 27/27/27 31/31/31 32/32/32
f 27/27/27 32/32/32 28/28/28
f 28/28/28 32/32/32 29/29/29
f 28/28/28 29/29/29 25/25/25
f 33/33/33 34/34/34 35/35/35
f 33/33/33 35/35/35 36/36/36
f 37/37/37 39/39/39 38/38/38
f 37/37/37 40/40/40 39/39/39
f 33/33/33 37/37/37 38/38/38
f 33/33/33 38/38/38 34/34/34
f 34/34/34 38/38/38 39/39/39
f 34/34/34 39/39/39 35/35/35
f 35/35/35 39/39/39 40/40/40
f 35/35/35 40/40/40 36/36/36
f 36/36/36 40/40/40 37/37/37
f 36/36/36 37/37/37 33/33/33
f 41/41/41 42/42/42 43/43/43
f 41/41/41 43/43/43 44/44/44
f 45/45/45 47/47/47 46/46/46
f 45/45/45 48/48/48 47/47/47
f 41/41/41 45/45/45 46/46/46
f 41/41/41 46/46/46 42/42/42
f 42/42/42 46/46/46 47/47/47
f 42/42/42 47/47/47 43/43/43
f 43/43/43 47/47/47 48/48/48
f 43/43/43 48/48/48 44/44/44
f 44/44/44 48/48/48 45/45/45
f 44/44/44 45/45/45 41/41/41
f 49/49/49 50/50/50 51/51/51
f 49/49/49 51/51/51 52/52/52
f 53/53/53 55/55/55 54/54/54
f 53/53/53 56/56/56 55/55/55
f 49/49/49 53/53/53 54/54/54
f 49/49/49 54/54/54 50/50/50
f 50/50/50 54/54/54 55/55/55
f 50/50/50 55/55/55 51/51/51
f 51/51/51 55/55/55 56/56/56
f 51/51/51 56/56/56 52/52/52
f 52/52/52 56/56/56 53/53/53
f 52/52/52 53/53/53 49/49/49
f 57/57/57 58/58/58 59/59/59
f 57/57/57 59/59/59 60/60/60
f 61/61/61 63/63/63 62/62/62
f 61/61/61 64/64/64 63/63/63
f 57/57/57 61/61/61 62/62/62
f 57/57/57 62/62/62 58/58/58
f 58/58/58 62/62/62 63/63/63
f 58/58/58 63/63/63 59/59/59
f 59/59/59 63/63/63 64/64/64
f 59/59/59 64/64/64 60/60/60
f 60/60/60 64/64/64 61/61/61
f 60/60/60 61/61/61 57/57/57
f 65/65/65 66/66/66 67/67/67
f 65/65/65 67/67/67 68/68/68
f 69/69/69 71/71/71 70/70/70
f 69/69/69 72/72/72 71/71/71
f 65/65/65 69/69/69 70/70/70
f 65/65/65 70/70/70 66/66/66
f 66/66/66 70/70/70 71/71/71
f 66/66/66 71/71/71 67/67/67
f 67/67/67 71/71/71 72/72/72
f 67/67/67 72/72/72 68/68/68
f 68/68/68 72/72/72 69/69/69
f 68/68/68 69/69/69 65/65/65
f 73/73/73 74/74/74 75/75/75
f 73/73/73 75/75/75 76/76/76
f 77/77/77 79/79/79 78/78/78
f 77/77/77 80/80/80 79/79/79
f 73/73/73 77/77/77 78/78/78
f 73/73/73 78/78/78 74/74/74
f 74/74/74 78/78/78 79/79/79
f 74/74/74 79/79/79 75/75/75
f 75/75/75 79/79/79 80/80/80
f 75/75/75 80/80/80 76/76/76
f 76/76/76 80/80/80 77/77/77
f 76/76/76 77/77/77 73/73/73
f 81/81/81 82/82/82 83/83/83
f 81/81/81 83/83/83 84/84/84
f 85/85/85 87/87/87 86/86/86
f 85/85/85 88/88/88 87/87/87
f 81/81/81 85/85/85 86/86/86
f 81/81/81 86/86/86 82/82/82
f 82/82/82 86/86/86 87/87/87
f 82/82/82 87/87/87 83/83/83
f 83/83/83 87/87/87 88/88/88
f 83/83/83 88/88/88 84/84/84
f 84/84/84 88/88/88 85/85/85
f 84/84/84 85/85/85 81/81/81
f 89/89/89 90/90/90 91/91/91
f 89/89/89 91/91/91 92/92/92
f 93/93/93 95/95/95 94/94/94
f 93/93/93 96/96/96 95/95/95
f 89/89/89 93/93/93 94/94/94
f 89/89/89 94/94/94 90/90/90
f 90/90/90 94/94/94 95/95/95
f 90/90/90 95/95/95 91/91/91
f 91/91/91 95/95/95 96/96/96
f 91/91/91 96/96/96 92/92/92
f 92/92/92 96/96/96 93/93/93
f 92/92/92 93/93/93 89/89/89
f 97/97/97 98/98/98 99/99/99
f 97/97/97 99/99/99 100/100/100
f 101/101/101 103/103/103 102/102/102
f 101/101/101 104/104/104 103/103/103
f 97/97/97 101/101/101 102/102/102
f 97/97/97 102/102/102 98/98/98
f 98/98/98 102/102/102 103/103/103
f 98/98/98 103/103/103 99/99/99
f 99/99/99 103/103/103 104/104/104
f 99/99/99 104/104/104 100/100/100
f 100/100/100 104/104/104 101/101/101
f 100/100/100 101/101/101 97/97/97
f 105/105/105 106/106/106 107/107/107
f 105/105/105 107/107/107 108/108/108
f 109/109/109 111/111/111 110/110/110
f 109/109/109 112/112/112 111/111/111
f 105/105/105 109/109/109 110/110/110
f 105/105/105 110/110/110 106/106/106
f 106/106/106 110/110/110 111/111/111
f 106/106/106 111/111/111 107/107/107
f 107/107/107 111/111/111 112/112/112
f 107/107/107 112/112/112 108/108/108
f 108/108/108 112/112/112 109/109/109
f 108/108/108 109/109/109 105/105/105
f 113/113/113 114/114/114 115/115/115
f 113/113/113 115/115/115 116/116/116
f 117/117/117 119/119/119 118/118/118
f 117/117/117 120/120/120 119/119/119
f 113/113/113 117/117/117 118/118/118
f 113/113/113 118/118/118 114/114/114
f 114/114/114 118/118/118 119/119/119
f 114/114/114 119/119/119 115/115/115
f 115/115/115 119/119/119 120/120/120
f 115/115/115 120/120/120 116/116/116
f 116/116/116 120/120/120 117/117/117
f 116/116/116 117/117/117 113/113/113
f 121/121/121 122/122/122 123/123/123
f 121/121/121 123/123/123 124/124/124
f 125/125/125 127/127/127 126/126/126
f 125/125/125 128/128/128 127/127/127
f 121/121/121 125/125/125 126/126/126
f 121/121/121 126/126/126 122/122/122
f 122/122/122 126/126/126 127/127/127
f 122/122/122 127/127/127 123/123/123
f 123/123/123 127/127/127 128/128/128
f 123/123/123 128/128/128 124/124/124
f 124/124/124 128/128/128 125/125/125
f 124/124/124 125/125/125 121/121/121
f 129/129/129 130/130/130 131/131/131
f 129/129/129 131/131/131 132/132/132
f 133/133/133 135/135/135 134/134/134
f 133/133/133 136/136/136 135/135/135
f 129/129/129 133/133/133 134/134/134
f 129/129/129 134/134/134 130/130/130
f 130/130/130 134/134/134 135/135/135
f 130/130/130 135/135/135 131/131/131
f 131/131/131 135/135/135 136/136/136
f 131/131/131 136/136/136 132/132/132
f 132/132/132 136/136/136 133/133/133
f 132/132/132 133/133/133 129/129/129
f 137/137/137 138/138/138 139/139/139
f 137/137/137 139/139/139 140/140/140
f 141/141/141 143/143/143 142/142/142
f 141/141/141 144/144/144 143/143/143
f 137/137/137 141/141/141 142/142/142
f 137/137/137 142/142/142 138/138/138
f 138/138/138 142/142/142 143/143/143
f 138/138/138 143/143/143 139/139/139
f 139/139/139 143/143/143 144/144/144
f 139/139/139 144/144/144 140/140/140
f 140/140/140 144/144/144 141/141/141
f 140/140/140 141/141/141 137/137/137
f 145/145/145 146/146/146 147/147/147
f 145/145/145 147/147/147 148/148/148
f 149/149/149 151/151/151 150/150/150
f 149/149/149 152/152/152 151/151/151
f 145/145/145 149/149/149 150/150/150
f 145/145/145 150/150/150 146/146/146
f 146/146/146 150/150/150 151/151/151
f 146/146/146 151/151/151 147/147/147
f 147/147/147 151/151/151 152/152/152
f 147/147/147 152/152/152 148/148/148
f 148/148/148 152/152/152 149/149/149
f 148/148/148 149/149/149 145/145/145
f 153/153/153 154/154/154 155/155/155
f 153/153/153 155/155/155 156/156/156
f 157/157/157 159/159/159 158/158/158
f 157/157/157 160/160/160 159/159/159
f 153/153/153 157/157/157 158/158/158
f 153/153/153 158/158/158 154/154/154
f 154/154/154 158/158/158 159/159/159
f 154/154/154 159/159/159 155/155/155
f 155/155/155 159/159/159 160/160/160
f 155/155/155 160/160/160 156/156/156
f 156/156/156 160/160/160 157/157/157
f 156/156/156 157/157/157 153/153/153
f 161/161/161 162/162/162 163/163/163
f 161/161/161 163/163/163 164/164/164
f 165/165/165 167/167/167 166/166/166
f 165/165/165 168/168/168 167/167/167
f 161/161/161 165/165/165 166/166/166
f 161/161/161 166/166/166 162/162/162
f 162/162/162 166/166/166 167/167/167
f 162/162/162 167/167/167 163/163/163
f 163/163/163 167/167/167 168/168/168
f 163/163/163 168/168/168 164/164/164
f 164/164/164 168/168/168 165/165/165
f 164/164/164 165/165/165 161/161/161
f 169/169/169 170/170/170 171/171/171
f 169/169/169 171/171/171 172/172/172
f 173/173/173 175/175/175 174/174/174
f 173/173/173 176/176/176 175/175/175
f 169/169/169 173/173/173 174/174/174
f 169/169/169 174/174/174 170/170/170
f 170/170/170 174/174/174 175/175/175
f 170/170/170 175/175/175 171/171/171
f 171/171/171 175/175/175 176/176/176
f 171/171/171 176/176/176 172/172/172
f 172/172/172 176/176/176 173/173/173
f 172/172/172 173/173/173 169/169/169
f 177/177/177 178/178/178 179/179/179
f 177/177/177 179/179/179 180/180/180
f 181/181/181 183/183/183 182/182/182
f 181/181/181 184/184/184 183/183/183
f 177/177/177 181/181/181 182/182/182
f 177/177/177 182/182/182 178/178/178
f 178/178/178 182/182/182 183/183/183
f 178/178/178 183/183/183 179/179/179
f 179/179/179 183/183/183 184/184/184
f 179/179/179 184/184/184 180/180/180
f 180/180/180 184/184/184 181/181/181
f 180/180/180 181/181/181 177/177/177
f 185/185/185 186/186/186 187/187/187
f 185/185/185 187/187/187 188/188/188
f 189/189/189 191/191/191 190/190/190
f 189/189/189 192/192/192 191/191/191
f 185/185/185 189/189/189 190/190/190
f 185/185/185 190/190/190 186/186/186
f 186/186/186 190/190/190 191/191/191
f 186/186/186 191/191/191 187/187/187
f 187/187/187 191/191/191 192/192/192
f 187/187/187 192/192/192 188/188/188
f 188/188/188 192/192/192 189/189/189
f 188/188/188 189/189/189 185/185/185
f 193/193/193 194/194/194 195/195/195
f 193/193/193 195/195/195 196/196/196
f 197/197/197 199/199/199 198/198/198
f 197/197/197 200/200/200 199/199/199
f 193/193/193 197/197/197 198/198/198
f 193/193/193 198/198/198 194/194/194
f 194/194/194 198/198/198 199/199/199
f 194/194/194 199/199/199 195/195/195
f 195/195/195 199/199/199 200/200/200
f 195/195/195 200/200/200 196/196/196
f 196/196/196 200/200/200 197/197/197
f 196/196/196 197/197/197 193/193/193
f 201/201/201 202/202/202 203/203/203
f 201/201/201 203/203/203 204/204/204
f 205/205/205 207/207/207 206/206/206
f 205/205/205 208/208/208 207/207/207
f 201/201/201 205/205/205 206/206/206
f 201/201/201 206/206/206 202/202/202
f 202/202/202 206/206/206 207/207/207
f 202/202/202 207/207/207 203/203/203
f 203/203/203 207/207/207 208/208/208
f 203/203/203 208/208/208 204/204/204
f 204/204/204 208/208/208 205/205/205
f 204/204/204 205/205/205 201/201/201
f 209/209/209 210/210/210 211/211/211
f 209/209/209 211/211/211 212/212/212
f 213/213/213 215/215/215 214/214/214
f 213/213/213 216/216/216 215/215/215
f 209/209/209 213/213/213 214/214/214
f 209/209/209 214/214/214 210/210/210
f 210/210/210 214/214/214 215/215/215
f 210/210/210 215/215/215 211/211/211
f 211/211/211 215/215/215 216/216/216
f 211/211/211 216/216/216 212/212/212
f 212/212/212 216/216/216 213/213/213
f 212/212/212 213/213/213 209/209/209
