# UART-006 topology-preserving candidate surface authoring
mtllib SM_Env_CairoFacade_C.mtl
# UART-005 authored source variant candidate: SM_Env_CairoFacade_C
o SM_Env_CairoFacade_C
s 1
v 0.00000 0.00000 -0.32000
v 6.00000 0.00000 -0.32000
v 6.00000 5.00000 -0.32000
v 0.00000 5.00000 -0.32000
v 0.00000 0.00000 0.00000
v 6.00000 0.00000 0.00000
v 6.00000 5.00000 0.00000
v 0.00000 5.00000 0.00000
v 0.11000 0.00000 -0.48000
v 0.33000 0.00000 -0.48000
v 0.33000 5.00000 -0.48000
v 0.11000 5.00000 -0.48000
v 0.11000 0.00000 -0.32000
v 0.33000 0.00000 -0.32000
v 0.33000 5.00000 -0.32000
v 0.11000 5.00000 -0.32000
v 5.67000 0.00000 -0.48000
v 5.89000 0.00000 -0.48000
v 5.89000 5.00000 -0.48000
v 5.67000 5.00000 -0.48000
v 5.67000 0.00000 -0.32000
v 5.89000 0.00000 -0.32000
v 5.89000 5.00000 -0.32000
v 5.67000 5.00000 -0.32000
v 0.12500 4.70000 -0.56000
v 5.87500 4.70000 -0.56000
v 5.87500 4.90000 -0.56000
v 0.12500 4.90000 -0.56000
v 0.12500 4.70000 -0.36000
v 5.87500 4.70000 -0.36000
v 5.87500 4.90000 -0.36000
v 0.12500 4.90000 -0.36000
v 0.17500 2.37000 -0.54000
v 5.82500 2.37000 -0.54000
v 5.82500 2.53000 -0.54000
v 0.17500 2.53000 -0.54000
v 0.17500 2.37000 -0.36000
v 5.82500 2.37000 -0.36000
v 5.82500 2.53000 -0.36000
v 0.17500 2.53000 -0.36000
v 0.56000 2.77500 -0.50000
v 1.34000 2.77500 -0.50000
v 1.34000 4.32500 -0.50000
v 0.56000 4.32500 -0.50000
v 0.56000 2.77500 -0.36000
v 1.34000 2.77500 -0.36000
v 1.34000 4.32500 -0.36000
v 0.56000 4.32500 -0.36000
v 0.44000 4.33000 -0.64500
v 1.46000 4.33000 -0.64500
v 1.46000 4.43000 -0.64500
v 0.44000 4.43000 -0.64500
v 0.44000 4.33000 -0.39500
v 1.46000 4.33000 -0.39500
v 1.46000 4.43000 -0.39500
v 0.44000 4.43000 -0.39500
v 1.86000 2.77500 -0.50000
v 2.64000 2.77500 -0.50000
v 2.64000 4.32500 -0.50000
v 1.86000 4.32500 -0.50000
v 1.86000 2.77500 -0.36000
v 2.64000 2.77500 -0.36000
v 2.64000 4.32500 -0.36000
v 1.86000 4.32500 -0.36000
v 1.74000 4.33000 -0.64500
v 2.76000 4.33000 -0.64500
v 2.76000 4.43000 -0.64500
v 1.74000 4.43000 -0.64500
v 1.74000 4.33000 -0.39500
v 2.76000 4.33000 -0.39500
v 2.76000 4.43000 -0.39500
v 1.74000 4.43000 -0.39500
v 3.36000 2.77500 -0.50000
v 4.14000 2.77500 -0.50000
v 4.14000 4.32500 -0.50000
v 3.36000 4.32500 -0.50000
v 3.36000 2.77500 -0.36000
v 4.14000 2.77500 -0.36000
v 4.14000 4.32500 -0.36000
v 3.36000 4.32500 -0.36000
v 3.24000 4.33000 -0.64500
v 4.26000 4.33000 -0.64500
v 4.26000 4.43000 -0.64500
v 3.24000 4.43000 -0.64500
v 3.24000 4.33000 -0.39500
v 4.26000 4.33000 -0.39500
v 4.26000 4.43000 -0.39500
v 3.24000 4.43000 -0.39500
v 4.66000 2.77500 -0.50000
v 5.44000 2.77500 -0.50000
v 5.44000 4.32500 -0.50000
v 4.66000 4.32500 -0.50000
v 4.66000 2.77500 -0.36000
v 5.44000 2.77500 -0.36000
v 5.44000 4.32500 -0.36000
v 4.66000 4.32500 -0.36000
v 4.54000 4.33000 -0.64500
v 5.56000 4.33000 -0.64500
v 5.56000 4.43000 -0.64500
v 4.54000 4.43000 -0.64500
v 4.54000 4.33000 -0.39500
v 5.56000 4.33000 -0.39500
v 5.56000 4.43000 -0.39500
v 4.54000 4.43000 -0.39500
v 0.29000 0.10000 -0.61000
v 0.41000 0.10000 -0.61000
v 0.41000 2.20000 -0.61000
v 0.29000 2.20000 -0.61000
v 0.29000 0.10000 -0.39000
v 0.41000 0.10000 -0.39000
v 0.41000 2.20000 -0.39000
v 0.29000 2.20000 -0.39000
v 1.79000 0.10000 -0.61000
v 1.91000 0.10000 -0.61000
v 1.91000 2.20000 -0.61000
v 1.79000 2.20000 -0.61000
v 1.79000 0.10000 -0.39000
v 1.91000 0.10000 -0.39000
v 1.91000 2.20000 -0.39000
v 1.79000 2.20000 -0.39000
v 2.94000 0.10000 -0.61000
v 3.06000 0.10000 -0.61000
v 3.06000 2.20000 -0.61000
v 2.94000 2.20000 -0.61000
v 2.94000 0.10000 -0.39000
v 3.06000 0.10000 -0.39000
v 3.06000 2.20000 -0.39000
v 2.94000 2.20000 -0.39000
v 4.09000 0.10000 -0.61000
v 4.21000 0.10000 -0.61000
v 4.21000 2.20000 -0.61000
v 4.09000 2.20000 -0.61000
v 4.09000 0.10000 -0.39000
v 4.21000 0.10000 -0.39000
v 4.21000 2.20000 -0.39000
v 4.09000 2.20000 -0.39000
v 5.59000 0.10000 -0.61000
v 5.71000 0.10000 -0.61000
v 5.71000 2.20000 -0.61000
v 5.59000 2.20000 -0.61000
v 5.59000 0.10000 -0.39000
v 5.71000 0.10000 -0.39000
v 5.71000 2.20000 -0.39000
v 5.59000 2.20000 -0.39000
v 0.22500 2.11000 -0.64000
v 5.77500 2.11000 -0.64000
v 5.77500 2.25000 -0.64000
v 0.22500 2.25000 -0.64000
v 0.22500 2.11000 -0.40000
v 5.77500 2.11000 -0.40000
v 5.77500 2.25000 -0.40000
v 0.22500 2.25000 -0.40000
v 0.46000 0.09000 -0.57000
v 1.74000 0.09000 -0.57000
v 1.74000 0.27000 -0.57000
v 0.46000 0.27000 -0.57000
v 0.46000 0.09000 -0.39000
v 1.74000 0.09000 -0.39000
v 1.74000 0.27000 -0.39000
v 0.46000 0.27000 -0.39000
v 4.26000 0.09000 -0.57000
v 5.54000 0.09000 -0.57000
v 5.54000 0.27000 -0.57000
v 4.26000 0.27000 -0.57000
v 4.26000 0.09000 -0.39000
v 5.54000 0.09000 -0.39000
v 5.54000 0.27000 -0.39000
v 4.26000 0.27000 -0.39000
v 0.50000 0.30000 -0.52000
v 1.70000 0.30000 -0.52000
v 1.70000 2.00000 -0.52000
v 0.50000 2.00000 -0.52000
v 0.50000 0.30000 -0.40000
v 1.70000 0.30000 -0.40000
v 1.70000 2.00000 -0.40000
v 0.50000 2.00000 -0.40000
v 4.30000 0.30000 -0.52000
v 5.50000 0.30000 -0.52000
v 5.50000 2.00000 -0.52000
v 4.30000 2.00000 -0.52000
v 4.30000 0.30000 -0.40000
v 5.50000 0.30000 -0.40000
v 5.50000 2.00000 -0.40000
v 4.30000 2.00000 -0.40000
v 2.57500 0.09000 -0.52000
v 3.42500 0.09000 -0.52000
v 3.42500 2.01000 -0.52000
v 2.57500 2.01000 -0.52000
v 2.57500 0.09000 -0.40000
v 3.42500 0.09000 -0.40000
v 3.42500 2.01000 -0.40000
v 2.57500 2.01000 -0.40000
v 1.90000 1.96000 -0.88000
v 4.10000 1.96000 -0.88000
v 4.10000 2.14000 -0.88000
v 1.90000 2.14000 -0.88000
v 1.90000 1.96000 -0.46000
v 4.10000 1.96000 -0.46000
v 4.10000 2.14000 -0.46000
v 1.90000 2.14000 -0.46000
vt 0.000000 0.000000
vt 1.000000 0.000000
vt 1.000000 1.000000
vt 0.000000 1.000000
vt 0.000000 0.000000
vt 1.000000 0.000000
vt 1.000000 1.000000
vt 0.000000 1.000000
vt 0.018333 0.000000
vt 0.055000 0.000000
vt 0.055000 1.000000
vt 0.018333 1.000000
vt 0.018333 0.000000
vt 0.055000 0.000000
vt 0.055000 1.000000
vt 0.018333 1.000000
vt 0.945000 0.000000
vt 0.981667 0.000000
vt 0.981667 1.000000
vt 0.945000 1.000000
vt 0.945000 0.000000
vt 0.981667 0.000000
vt 0.981667 1.000000
vt 0.945000 1.000000
vt 0.020833 0.940000
vt 0.979167 0.940000
vt 0.979167 0.980000
vt 0.020833 0.980000
vt 0.020833 0.940000
vt 0.979167 0.940000
vt 0.979167 0.980000
vt 0.020833 0.980000
vt 0.029167 0.474000
vt 0.970833 0.474000
vt 0.970833 0.506000
vt 0.029167 0.506000
vt 0.029167 0.474000
vt 0.970833 0.474000
vt 0.970833 0.506000
vt 0.029167 0.506000
vt 0.093333 0.555000
vt 0.223333 0.555000
vt 0.223333 0.865000
vt 0.093333 0.865000
vt 0.093333 0.555000
vt 0.223333 0.555000
vt 0.223333 0.865000
vt 0.093333 0.865000
vt 0.073333 0.866000
vt 0.243333 0.866000
vt 0.243333 0.886000
vt 0.073333 0.886000
vt 0.073333 0.866000
vt 0.243333 0.866000
vt 0.243333 0.886000
vt 0.073333 0.886000
vt 0.310000 0.555000
vt 0.440000 0.555000
vt 0.440000 0.865000
vt 0.310000 0.865000
vt 0.310000 0.555000
vt 0.440000 0.555000
vt 0.440000 0.865000
vt 0.310000 0.865000
vt 0.290000 0.866000
vt 0.460000 0.866000
vt 0.460000 0.886000
vt 0.290000 0.886000
vt 0.290000 0.866000
vt 0.460000 0.866000
vt 0.460000 0.886000
vt 0.290000 0.886000
vt 0.560000 0.555000
vt 0.690000 0.555000
vt 0.690000 0.865000
vt 0.560000 0.865000
vt 0.560000 0.555000
vt 0.690000 0.555000
vt 0.690000 0.865000
vt 0.560000 0.865000
vt 0.540000 0.866000
vt 0.710000 0.866000
vt 0.710000 0.886000
vt 0.540000 0.886000
vt 0.540000 0.866000
vt 0.710000 0.866000
vt 0.710000 0.886000
vt 0.540000 0.886000
vt 0.776667 0.555000
vt 0.906667 0.555000
vt 0.906667 0.865000
vt 0.776667 0.865000
vt 0.776667 0.555000
vt 0.906667 0.555000
vt 0.906667 0.865000
vt 0.776667 0.865000
vt 0.756667 0.866000
vt 0.926667 0.866000
vt 0.926667 0.886000
vt 0.756667 0.886000
vt 0.756667 0.866000
vt 0.926667 0.866000
vt 0.926667 0.886000
vt 0.756667 0.886000
vt 0.048333 0.020000
vt 0.068333 0.020000
vt 0.068333 0.440000
vt 0.048333 0.440000
vt 0.048333 0.020000
vt 0.068333 0.020000
vt 0.068333 0.440000
vt 0.048333 0.440000
vt 0.298333 0.020000
vt 0.318333 0.020000
vt 0.318333 0.440000
vt 0.298333 0.440000
vt 0.298333 0.020000
vt 0.318333 0.020000
vt 0.318333 0.440000
vt 0.298333 0.440000
vt 0.490000 0.020000
vt 0.510000 0.020000
vt 0.510000 0.440000
vt 0.490000 0.440000
vt 0.490000 0.020000
vt 0.510000 0.020000
vt 0.510000 0.440000
vt 0.490000 0.440000
vt 0.681667 0.020000
vt 0.701667 0.020000
vt 0.701667 0.440000
vt 0.681667 0.440000
vt 0.681667 0.020000
vt 0.701667 0.020000
vt 0.701667 0.440000
vt 0.681667 0.440000
vt 0.931667 0.020000
vt 0.951667 0.020000
vt 0.951667 0.440000
vt 0.931667 0.440000
vt 0.931667 0.020000
vt 0.951667 0.020000
vt 0.951667 0.440000
vt 0.931667 0.440000
vt 0.037500 0.422000
vt 0.962500 0.422000
vt 0.962500 0.450000
vt 0.037500 0.450000
vt 0.037500 0.422000
vt 0.962500 0.422000
vt 0.962500 0.450000
vt 0.037500 0.450000
vt 0.076667 0.018000
vt 0.290000 0.018000
vt 0.290000 0.054000
vt 0.076667 0.054000
vt 0.076667 0.018000
vt 0.290000 0.018000
vt 0.290000 0.054000
vt 0.076667 0.054000
vt 0.710000 0.018000
vt 0.923333 0.018000
vt 0.923333 0.054000
vt 0.710000 0.054000
vt 0.710000 0.018000
vt 0.923333 0.018000
vt 0.923333 0.054000
vt 0.710000 0.054000
vt 0.083333 0.060000
vt 0.283333 0.060000
vt 0.283333 0.400000
vt 0.083333 0.400000
vt 0.083333 0.060000
vt 0.283333 0.060000
vt 0.283333 0.400000
vt 0.083333 0.400000
vt 0.716667 0.060000
vt 0.916667 0.060000
vt 0.916667 0.400000
vt 0.716667 0.400000
vt 0.716667 0.060000
vt 0.916667 0.060000
vt 0.916667 0.400000
vt 0.716667 0.400000
vt 0.429167 0.018000
vt 0.570833 0.018000
vt 0.570833 0.402000
vt 0.429167 0.402000
vt 0.429167 0.018000
vt 0.570833 0.018000
vt 0.570833 0.402000
vt 0.429167 0.402000
vt 0.316667 0.392000
vt 0.683333 0.392000
vt 0.683333 0.428000
vt 0.316667 0.428000
vt 0.316667 0.392000
vt 0.683333 0.392000
vt 0.683333 0.428000
vt 0.316667 0.428000
vn 0.026603 0.063847 0.997605
vn -0.105851 0.063511 0.992352
vn -0.026603 -0.063847 0.997605
vn 0.105851 -0.063511 0.992352
vn 0.053230 0.031938 -0.998071
vn -0.052828 0.126787 -0.990522
vn -0.053230 -0.031938 -0.998071
vn 0.052828 -0.126787 -0.990522
vn 0.341589 0.030060 0.939369
vn -0.823907 0.018126 0.566436
vn -0.341589 -0.030060 0.939369
vn 0.823907 -0.018126 0.566436
vn 0.588122 0.012939 -0.808668
vn -0.587385 0.051690 -0.807655
vn -0.588122 -0.012939 -0.808668
vn 0.587385 -0.051690 -0.807655
vn 0.341589 0.030060 0.939369
vn -0.823907 0.018126 0.566436
vn -0.341589 -0.030060 0.939369
vn 0.823907 -0.018126 0.566436
vn 0.588122 0.012939 -0.808668
vn -0.587385 0.051690 -0.807655
vn -0.588122 -0.012939 -0.808668
vn 0.587385 -0.051690 -0.807655
vn 0.012297 0.707053 0.707053
vn -0.049131 0.706253 0.706253
vn -0.012297 -0.707053 0.707053
vn 0.049131 -0.706253 0.706253
vn 0.031095 0.446997 -0.893995
vn -0.015553 0.894319 -0.447160
vn -0.031095 -0.446997 -0.893995
vn 0.015553 -0.894319 -0.447160
vn 0.010582 0.747367 0.664327
vn -0.042293 0.746741 0.663769
vn -0.010582 -0.747367 0.664327
vn 0.042293 -0.746741 0.663769
vn 0.027756 0.490072 -0.871240
vn -0.012938 0.913735 -0.406104
vn -0.027756 -0.490072 -0.871240
vn 0.012938 -0.913735 -0.406104
vn 0.089025 0.089599 0.991991
vn -0.336650 0.084706 0.937812
vn -0.089025 -0.089599 0.991991
vn 0.336650 -0.084706 0.937812
vn 0.176490 0.044407 -0.983300
vn -0.173936 0.175058 -0.969072
vn -0.176490 -0.044407 -0.983300
vn 0.173936 -0.175058 -0.969072
vn 0.045466 0.927517 0.371007
vn -0.179110 0.913462 0.365385
vn -0.045466 -0.927517 0.371007
vn 0.179110 -0.913462 0.365385
vn 0.151348 0.771874 -0.617499
vn -0.048012 0.979450 -0.195890
vn -0.151348 -0.771874 -0.617499
vn 0.048012 -0.979450 -0.195890
vn 0.089025 0.089599 0.991991
vn -0.336650 0.084706 0.937812
vn -0.089025 -0.089599 0.991991
vn 0.336650 -0.084706 0.937812
vn 0.176490 0.044407 -0.983300
vn -0.173936 0.175058 -0.969072
vn -0.176490 -0.044407 -0.983300
vn 0.173936 -0.175058 -0.969072
vn 0.045466 0.927517 0.371007
vn -0.179110 0.913462 0.365385
vn -0.045466 -0.927517 0.371007
vn 0.179110 -0.913462 0.365385
vn 0.151348 0.771874 -0.617499
vn -0.048012 0.979450 -0.195890
vn -0.151348 -0.771874 -0.617499
vn 0.048012 -0.979450 -0.195890
vn 0.089025 0.089599 0.991991
vn -0.336650 0.084706 0.937812
vn -0.089025 -0.089599 0.991991
vn 0.336650 -0.084706 0.937812
vn 0.176490 0.044407 -0.983300
vn -0.173936 0.175058 -0.969072
vn -0.176490 -0.044407 -0.983300
vn 0.173936 -0.175058 -0.969072
vn 0.045466 0.927517 0.371007
vn -0.179110 0.913462 0.365385
vn -0.045466 -0.927517 0.371007
vn 0.179110 -0.913462 0.365385
vn 0.151348 0.771874 -0.617499
vn -0.048012 0.979450 -0.195890
vn -0.151348 -0.771874 -0.617499
vn 0.048012 -0.979450 -0.195890
vn 0.089025 0.089599 0.991991
vn -0.336650 0.084706 0.937812
vn -0.089025 -0.089599 0.991991
vn 0.336650 -0.084706 0.937812
vn 0.176490 0.044407 -0.983300
vn -0.173936 0.175058 -0.969072
vn -0.176490 -0.044407 -0.983300
vn 0.173936 -0.175058 -0.969072
vn 0.045466 0.927517 0.371007
vn -0.179110 0.913462 0.365385
vn -0.045466 -0.927517 0.371007
vn 0.179110 -0.913462 0.365385
vn 0.151348 0.771874 -0.617499
vn -0.048012 0.979450 -0.195890
vn -0.151348 -0.771874 -0.617499
vn 0.048012 -0.979450 -0.195890
vn 0.673719 0.076996 0.734966
vn -0.964398 0.027554 0.263018
vn -0.673719 -0.076996 0.734966
vn 0.964398 -0.027554 0.263018
vn 0.877620 0.025075 -0.478702
vn -0.873510 0.099830 -0.476460
vn -0.877620 -0.025075 -0.478702
vn 0.873510 -0.099830 -0.476460
vn 0.673719 0.076996 0.734966
vn -0.964398 0.027554 0.263018
vn -0.673719 -0.076996 0.734966
vn 0.964398 -0.027554 0.263018
vn 0.877620 0.025075 -0.478702
vn -0.873510 0.099830 -0.476460
vn -0.877620 -0.025075 -0.478702
vn 0.873510 -0.099830 -0.476460
vn 0.673719 0.076996 0.734966
vn -0.964398 0.027554 0.263018
vn -0.673719 -0.076996 0.734966
vn 0.964398 -0.027554 0.263018
vn 0.877620 0.025075 -0.478702
vn -0.873510 0.099830 -0.476460
vn -0.877620 -0.025075 -0.478702
vn 0.873510 -0.099830 -0.476460
vn 0.673719 0.076996 0.734966
vn -0.964398 0.027554 0.263018
vn -0.673719 -0.076996 0.734966
vn 0.964398 -0.027554 0.263018
vn 0.877620 0.025075 -0.478702
vn -0.873510 0.099830 -0.476460
vn -0.877620 -0.025075 -0.478702
vn 0.873510 -0.099830 -0.476460
vn 0.673719 0.076996 0.734966
vn -0.964398 0.027554 0.263018
vn -0.673719 -0.076996 0.734966
vn 0.964398 -0.027554 0.263018
vn 0.877620 0.025075 -0.478702
vn -0.873510 0.099830 -0.476460
vn -0.877620 -0.025075 -0.478702
vn 0.873510 -0.099830 -0.476460
vn 0.010894 0.863728 0.503841
vn -0.043537 0.862960 0.503393
vn -0.010894 -0.863728 0.503841
vn 0.043537 -0.862960 0.503393
vn 0.032815 0.650441 -0.758848
vn -0.012107 0.959930 -0.279979
vn -0.032815 -0.650441 -0.758848
vn 0.012107 -0.959930 -0.279979
vn 0.049657 0.706234 0.706234
vn -0.195054 0.693525 0.693525
vn -0.049657 -0.706234 0.706234
vn 0.195054 -0.693525 0.693525
vn 0.124796 0.443717 -0.887435
vn -0.062765 0.892664 -0.446332
vn -0.124796 -0.443717 -0.887435
vn 0.062765 -0.892664 -0.446332
vn 0.049657 0.706234 0.706234
vn -0.195054 0.693525 0.693525
vn -0.049657 -0.706234 0.706234
vn 0.195054 -0.693525 0.693525
vn 0.124796 0.443717 -0.887435
vn -0.062765 0.892664 -0.446332
vn -0.124796 -0.443717 -0.887435
vn 0.062765 -0.892664 -0.446332
vn 0.049814 0.070326 0.996280
vn -0.195648 0.069052 0.978240
vn -0.049814 -0.070326 0.996280
vn 0.195648 -0.069052 0.978240
vn 0.099442 0.035097 -0.994424
vn -0.098536 0.139110 -0.985362
vn -0.099442 -0.035097 -0.994424
vn 0.098536 -0.139110 -0.985362
vn 0.049814 0.070326 0.996280
vn -0.195648 0.069052 0.978240
vn -0.049814 -0.070326 0.996280
vn 0.195648 -0.069052 0.978240
vn 0.099442 0.035097 -0.994424
vn -0.098536 0.139110 -0.985362
vn -0.099442 -0.035097 -0.994424
vn 0.098536 -0.139110 -0.985362
vn 0.070277 0.062224 0.995585
vn -0.271239 0.060040 0.960638
vn -0.070277 -0.062224 0.995585
vn 0.271239 -0.060040 0.960638
vn 0.139723 0.030928 -0.989707
vn -0.138732 0.122835 -0.982683
vn -0.139723 -0.030928 -0.989707
vn 0.138732 -0.122835 -0.982683
vn 0.037575 0.918496 0.393641
vn -0.148733 0.908922 0.389538
vn -0.037575 -0.918496 0.393641
vn 0.148733 -0.908922 0.389538
vn 0.123294 0.753464 -0.645826
vn -0.039969 0.977021 -0.209362
vn -0.123294 -0.753464 -0.645826
vn 0.039969 -0.977021 -0.209362
usemtl Facade_C_Surface
f 1/1/1 2/2/2 3/3/3
f 1/1/1 3/3/3 4/4/4
f 5/5/5 7/7/7 6/6/6
f 5/5/5 8/8/8 7/7/7
f 1/1/1 5/5/5 6/6/6
f 1/1/1 6/6/6 2/2/2
f 2/2/2 6/6/6 7/7/7
f 2/2/2 7/7/7 3/3/3
f 3/3/3 7/7/7 8/8/8
f 3/3/3 8/8/8 4/4/4
f 4/4/4 8/8/8 5/5/5
f 4/4/4 5/5/5 1/1/1
f 9/9/9 10/10/10 11/11/11
f 9/9/9 11/11/11 12/12/12
f 13/13/13 15/15/15 14/14/14
f 13/13/13 16/16/16 15/15/15
f 9/9/9 13/13/13 14/14/14
f 9/9/9 14/14/14 10/10/10
f 10/10/10 14/14/14 15/15/15
f 10/10/10 15/15/15 11/11/11
f 11/11/11 15/15/15 16/16/16
f 11/11/11 16/16/16 12/12/12
f 12/12/12 16/16/16 13/13/13
f 12/12/12 13/13/13 9/9/9
f 17/17/17 18/18/18 19/19/19
f 17/17/17 19/19/19 20/20/20
f 21/21/21 23/23/23 22/22/22
f 21/21/21 24/24/24 23/23/23
f 17/17/17 21/21/21 22/22/22
f 17/17/17 22/22/22 18/18/18
f 18/18/18 22/22/22 23/23/23
f 18/18/18 23/23/23 19/19/19
f 19/19/19 23/23/23 24/24/24
f 19/19/19 24/24/24 20/20/20
f 20/20/20 24/24/24 21/21/21
f 20/20/20 21/21/21 17/17/17
f 25/25/25 26/26/26 27/27/27
f 25/25/25 27/27/27 28/28/28
f 29/29/29 31/31/31 30/30/30
f 29/29/29 32/32/32 31/31/31
f 25/25/25 29/29/29 30/30/30
f 25/25/25 30/30/30 26/26/26
f 26/26/26 30/30/30 31/31/31
f 26/26/26 31/31/31 27/27/27
f 27/27/27 31/31/31 32/32/32
f 27/27/27 32/32/32 28/28/28
f 28/28/28 32/32/32 29/29/29
f 28/28/28 29/29/29 25/25/25
f 33/33/33 34/34/34 35/35/35
f 33/33/33 35/35/35 36/36/36
f 37/37/37 39/39/39 38/38/38
f 37/37/37 40/40/40 39/39/39
f 33/33/33 37/37/37 38/38/38
f 33/33/33 38/38/38 34/34/34
f 34/34/34 38/38/38 39/39/39
f 34/34/34 39/39/39 35/35/35
f 35/35/35 39/39/39 40/40/40
f 35/35/35 40/40/40 36/36/36
f 36/36/36 40/40/40 37/37/37
f 36/36/36 37/37/37 33/33/33
f 41/41/41 42/42/42 43/43/43
f 41/41/41 43/43/43 44/44/44
f 45/45/45 47/47/47 46/46/46
f 45/45/45 48/48/48 47/47/47
f 41/41/41 45/45/45 46/46/46
f 41/41/41 46/46/46 42/42/42
f 42/42/42 46/46/46 47/47/47
f 42/42/42 47/47/47 43/43/43
f 43/43/43 47/47/47 48/48/48
f 43/43/43 48/48/48 44/44/44
f 44/44/44 48/48/48 45/45/45
f 44/44/44 45/45/45 41/41/41
f 49/49/49 50/50/50 51/51/51
f 49/49/49 51/51/51 52/52/52
f 53/53/53 55/55/55 54/54/54
f 53/53/53 56/56/56 55/55/55
f 49/49/49 53/53/53 54/54/54
f 49/49/49 54/54/54 50/50/50
f 50/50/50 54/54/54 55/55/55
f 50/50/50 55/55/55 51/51/51
f 51/51/51 55/55/55 56/56/56
f 51/51/51 56/56/56 52/52/52
f 52/52/52 56/56/56 53/53/53
f 52/52/52 53/53/53 49/49/49
f 57/57/57 58/58/58 59/59/59
f 57/57/57 59/59/59 60/60/60
f 61/61/61 63/63/63 62/62/62
f 61/61/61 64/64/64 63/63/63
f 57/57/57 61/61/61 62/62/62
f 57/57/57 62/62/62 58/58/58
f 58/58/58 62/62/62 63/63/63
f 58/58/58 63/63/63 59/59/59
f 59/59/59 63/63/63 64/64/64
f 59/59/59 64/64/64 60/60/60
f 60/60/60 64/64/64 61/61/61
f 60/60/60 61/61/61 57/57/57
f 65/65/65 66/66/66 67/67/67
f 65/65/65 67/67/67 68/68/68
f 69/69/69 71/71/71 70/70/70
f 69/69/69 72/72/72 71/71/71
f 65/65/65 69/69/69 70/70/70
f 65/65/65 70/70/70 66/66/66
f 66/66/66 70/70/70 71/71/71
f 66/66/66 71/71/71 67/67/67
f 67/67/67 71/71/71 72/72/72
f 67/67/67 72/72/72 68/68/68
f 68/68/68 72/72/72 69/69/69
f 68/68/68 69/69/69 65/65/65
f 73/73/73 74/74/74 75/75/75
f 73/73/73 75/75/75 76/76/76
f 77/77/77 79/79/79 78/78/78
f 77/77/77 80/80/80 79/79/79
f 73/73/73 77/77/77 78/78/78
f 73/73/73 78/78/78 74/74/74
f 74/74/74 78/78/78 79/79/79
f 74/74/74 79/79/79 75/75/75
f 75/75/75 79/79/79 80/80/80
f 75/75/75 80/80/80 76/76/76
f 76/76/76 80/80/80 77/77/77
f 76/76/76 77/77/77 73/73/73
f 81/81/81 82/82/82 83/83/83
f 81/81/81 83/83/83 84/84/84
f 85/85/85 87/87/87 86/86/86
f 85/85/85 88/88/88 87/87/87
f 81/81/81 85/85/85 86/86/86
f 81/81/81 86/86/86 82/82/82
f 82/82/82 86/86/86 87/87/87
f 82/82/82 87/87/87 83/83/83
f 83/83/83 87/87/87 88/88/88
f 83/83/83 88/88/88 84/84/84
f 84/84/84 88/88/88 85/85/85
f 84/84/84 85/85/85 81/81/81
f 89/89/89 90/90/90 91/91/91
f 89/89/89 91/91/91 92/92/92
f 93/93/93 95/95/95 94/94/94
f 93/93/93 96/96/96 95/95/95
f 89/89/89 93/93/93 94/94/94
f 89/89/89 94/94/94 90/90/90
f 90/90/90 94/94/94 95/95/95
f 90/90/90 95/95/95 91/91/91
f 91/91/91 95/95/95 96/96/96
f 91/91/91 96/96/96 92/92/92
f 92/92/92 96/96/96 93/93/93
f 92/92/92 93/93/93 89/89/89
f 97/97/97 98/98/98 99/99/99
f 97/97/97 99/99/99 100/100/100
f 101/101/101 103/103/103 102/102/102
f 101/101/101 104/104/104 103/103/103
f 97/97/97 101/101/101 102/102/102
f 97/97/97 102/102/102 98/98/98
f 98/98/98 102/102/102 103/103/103
f 98/98/98 103/103/103 99/99/99
f 99/99/99 103/103/103 104/104/104
f 99/99/99 104/104/104 100/100/100
f 100/100/100 104/104/104 101/101/101
f 100/100/100 101/101/101 97/97/97
f 105/105/105 106/106/106 107/107/107
f 105/105/105 107/107/107 108/108/108
f 109/109/109 111/111/111 110/110/110
f 109/109/109 112/112/112 111/111/111
f 105/105/105 109/109/109 110/110/110
f 105/105/105 110/110/110 106/106/106
f 106/106/106 110/110/110 111/111/111
f 106/106/106 111/111/111 107/107/107
f 107/107/107 111/111/111 112/112/112
f 107/107/107 112/112/112 108/108/108
f 108/108/108 112/112/112 109/109/109
f 108/108/108 109/109/109 105/105/105
f 113/113/113 114/114/114 115/115/115
f 113/113/113 115/115/115 116/116/116
f 117/117/117 119/119/119 118/118/118
f 117/117/117 120/120/120 119/119/119
f 113/113/113 117/117/117 118/118/118
f 113/113/113 118/118/118 114/114/114
f 114/114/114 118/118/118 119/119/119
f 114/114/114 119/119/119 115/115/115
f 115/115/115 119/119/119 120/120/120
f 115/115/115 120/120/120 116/116/116
f 116/116/116 120/120/120 117/117/117
f 116/116/116 117/117/117 113/113/113
f 121/121/121 122/122/122 123/123/123
f 121/121/121 123/123/123 124/124/124
f 125/125/125 127/127/127 126/126/126
f 125/125/125 128/128/128 127/127/127
f 121/121/121 125/125/125 126/126/126
f 121/121/121 126/126/126 122/122/122
f 122/122/122 126/126/126 127/127/127
f 122/122/122 127/127/127 123/123/123
f 123/123/123 127/127/127 128/128/128
f 123/123/123 128/128/128 124/124/124
f 124/124/124 128/128/128 125/125/125
f 124/124/124 125/125/125 121/121/121
f 129/129/129 130/130/130 131/131/131
f 129/129/129 131/131/131 132/132/132
f 133/133/133 135/135/135 134/134/134
f 133/133/133 136/136/136 135/135/135
f 129/129/129 133/133/133 134/134/134
f 129/129/129 134/134/134 130/130/130
f 130/130/130 134/134/134 135/135/135
f 130/130/130 135/135/135 131/131/131
f 131/131/131 135/135/135 136/136/136
f 131/131/131 136/136/136 132/132/132
f 132/132/132 136/136/136 133/133/133
f 132/132/132 133/133/133 129/129/129
f 137/137/137 138/138/138 139/139/139
f 137/137/137 139/139/139 140/140/140
f 141/141/141 143/143/143 142/142/142
f 141/141/141 144/144/144 143/143/143
f 137/137/137 141/141/141 142/142/142
f 137/137/137 142/142/142 138/138/138
f 138/138/138 142/142/142 143/143/143
f 138/138/138 143/143/143 139/139/139
f 139/139/139 143/143/143 144/144/144
f 139/139/139 144/144/144 140/140/140
f 140/140/140 144/144/144 141/141/141
f 140/140/140 141/141/141 137/137/137
f 145/145/145 146/146/146 147/147/147
f 145/145/145 147/147/147 148/148/148
f 149/149/149 151/151/151 150/150/150
f 149/149/149 152/152/152 151/151/151
f 145/145/145 149/149/149 150/150/150
f 145/145/145 150/150/150 146/146/146
f 146/146/146 150/150/150 151/151/151
f 146/146/146 151/151/151 147/147/147
f 147/147/147 151/151/151 152/152/152
f 147/147/147 152/152/152 148/148/148
f 148/148/148 152/152/152 149/149/149
f 148/148/148 149/149/149 145/145/145
f 153/153/153 154/154/154 155/155/155
f 153/153/153 155/155/155 156/156/156
f 157/157/157 159/159/159 158/158/158
f 157/157/157 160/160/160 159/159/159
f 153/153/153 157/157/157 158/158/158
f 153/153/153 158/158/158 154/154/154
f 154/154/154 158/158/158 159/159/159
f 154/154/154 159/159/159 155/155/155
f 155/155/155 159/159/159 160/160/160
f 155/155/155 160/160/160 156/156/156
f 156/156/156 160/160/160 157/157/157
f 156/156/156 157/157/157 153/153/153
f 161/161/161 162/162/162 163/163/163
f 161/161/161 163/163/163 164/164/164
f 165/165/165 167/167/167 166/166/166
f 165/165/165 168/168/168 167/167/167
f 161/161/161 165/165/165 166/166/166
f 161/161/161 166/166/166 162/162/162
f 162/162/162 166/166/166 167/167/167
f 162/162/162 167/167/167 163/163/163
f 163/163/163 167/167/167 168/168/168
f 163/163/163 168/168/168 164/164/164
f 164/164/164 168/168/168 165/165/165
f 164/164/164 165/165/165 161/161/161
f 169/169/169 170/170/170 171/171/171
f 169/169/169 171/171/171 172/172/172
f 173/173/173 175/175/175 174/174/174
f 173/173/173 176/176/176 175/175/175
f 169/169/169 173/173/173 174/174/174
f 169/169/169 174/174/174 170/170/170
f 170/170/170 174/174/174 175/175/175
f 170/170/170 175/175/175 171/171/171
f 171/171/171 175/175/175 176/176/176
f 171/171/171 176/176/176 172/172/172
f 172/172/172 176/176/176 173/173/173
f 172/172/172 173/173/173 169/169/169
f 177/177/177 178/178/178 179/179/179
f 177/177/177 179/179/179 180/180/180
f 181/181/181 183/183/183 182/182/182
f 181/181/181 184/184/184 183/183/183
f 177/177/177 181/181/181 182/182/182
f 177/177/177 182/182/182 178/178/178
f 178/178/178 182/182/182 183/183/183
f 178/178/178 183/183/183 179/179/179
f 179/179/179 183/183/183 184/184/184
f 179/179/179 184/184/184 180/180/180
f 180/180/180 184/184/184 181/181/181
f 180/180/180 181/181/181 177/177/177
f 185/185/185 186/186/186 187/187/187
f 185/185/185 187/187/187 188/188/188
f 189/189/189 191/191/191 190/190/190
f 189/189/189 192/192/192 191/191/191
f 185/185/185 189/189/189 190/190/190
f 185/185/185 190/190/190 186/186/186
f 186/186/186 190/190/190 191/191/191
f 186/186/186 191/191/191 187/187/187
f 187/187/187 191/191/191 192/192/192
f 187/187/187 192/192/192 188/188/188
f 188/188/188 192/192/192 189/189/189
f 188/188/188 189/189/189 185/185/185
f 193/193/193 194/194/194 195/195/195
f 193/193/193 195/195/195 196/196/196
f 197/197/197 199/199/199 198/198/198
f 197/197/197 200/200/200 199/199/199
f 193/193/193 197/197/197 198/198/198
f 193/193/193 198/198/198 194/194/194
f 194/194/194 198/198/198 199/199/199
f 194/194/194 199/199/199 195/195/195
f 195/195/195 199/199/199 200/200/200
f 195/195/195 200/200/200 196/196/196
f 196/196/196 200/200/200 197/197/197
f 196/196/196 197/197/197 193/193/193
