# UART-005 deterministic mobile LOD authored source
mtllib SM_Env_CairoAwning_A_MobileLOD.mtl
o SM_Env_CairoAwning_A_LOD2
s 1
v 0.00000 1.10000 0.00000
v 3.00000 1.10000 0.00000
v 3.00000 1.26000 0.00000
v 0.00000 1.26000 0.00000
v 0.00000 1.10000 1.50000
v 3.00000 1.10000 1.50000
v 3.00000 1.26000 1.50000
v 0.00000 1.26000 1.50000
vt 0.000000 0.000000
vt 1.000000 0.000000
vt 1.000000 0.000000
vt 0.000000 0.000000
vt 0.000000 1.000000
vt 1.000000 1.000000
vt 1.000000 1.000000
vt 0.000000 1.000000
vn 0.026507 0.994010 0.106028
vn -0.105473 0.988813 0.105473
vn -0.026507 -0.994010 0.106028
vn 0.105473 -0.988813 0.105473
vn 0.103756 0.972714 -0.207512
vn -0.026619 0.998227 -0.053239
vn -0.103756 -0.972714 -0.207512
vn 0.026619 -0.998227 -0.053239
usemtl Awning_Surface
f 1/1/1 2/2/2 3/3/3
f 1/1/1 3/3/3 4/4/4
f 5/5/5 7/7/7 6/6/6
f 5/5/5 8/8/8 7/7/7
f 1/1/1 5/5/5 6/6/6
f 1/1/1 6/6/6 2/2/2
f 2/2/2 6/6/6 7/7/7
f 2/2/2 7/7/7 3/3/3
f 3/3/3 7/7/7 8/8/8
f 3/3/3 8/8/8 4/4/4
f 4/4/4 8/8/8 5/5/5
f 4/4/4 5/5/5 1/1/1
