# UART-005 deterministic mobile LOD authored source
mtllib SM_Env_CairoAwning_B_MobileLOD.mtl
o SM_Env_CairoAwning_B_LOD1
s 1
v 0.00000 1.10000 0.00000
v 3.00000 1.10000 0.00000
v 3.00000 1.26000 0.00000
v 0.00000 1.26000 0.00000
v 0.00000 1.10000 1.50000
v 3.00000 1.10000 1.50000
v 3.00000 1.26000 1.50000
v 0.00000 1.26000 1.50000
v 0.02000 0.02000 0.02500
v 0.14000 0.02000 0.02500
v 0.14000 1.22000 0.02500
v 0.02000 1.22000 0.02500
v 0.02000 0.02000 1.47500
v 0.14000 0.02000 1.47500
v 0.14000 1.22000 1.47500
v 0.02000 1.22000 1.47500
v 2.86000 0.02000 0.02500
v 2.98000 0.02000 0.02500
v 2.98000 1.22000 0.02500
v 2.86000 1.22000 0.02500
v 2.86000 0.02000 1.47500
v 2.98000 0.02000 1.47500
v 2.98000 1.22000 1.47500
v 2.86000 1.22000 1.47500
v 0.00000 0.97500 0.00000
v 3.00000 0.97500 0.00000
v 3.00000 1.12500 0.00000
v 0.00000 1.12500 0.00000
v 0.00000 0.97500 0.08000
v 3.00000 0.97500 0.08000
v 3.00000 1.12500 0.08000
v 0.00000 1.12500 0.08000
vt 0.000000 0.000000
vt 1.000000 0.000000
vt 1.000000 0.000000
vt 0.000000 0.000000
vt 0.000000 1.000000
vt 1.000000 1.000000
vt 1.000000 1.000000
vt 0.000000 1.000000
vt 0.006667 0.016667
vt 0.046667 0.016667
vt 0.046667 0.016667
vt 0.006667 0.016667
vt 0.006667 0.983333
vt 0.046667 0.983333
vt 0.046667 0.983333
vt 0.006667 0.983333
vt 0.953333 0.016667
vt 0.993333 0.016667
vt 0.993333 0.016667
vt 0.953333 0.016667
vt 0.953333 0.983333
vt 0.993333 0.983333
vt 0.993333 0.983333
vt 0.953333 0.983333
vt 0.000000 0.000000
vt 1.000000 0.000000
vt 1.000000 0.000000
vt 0.000000 0.000000
vt 0.000000 0.053333
vt 1.000000 0.053333
vt 1.000000 0.053333
vt 0.000000 0.053333
vn 0.026507 0.994010 0.106028
vn -0.105473 0.988813 0.105473
vn -0.026507 -0.994010 0.106028
vn 0.105473 -0.988813 0.105473
vn 0.103756 0.972714 -0.207512
vn -0.026619 0.998227 -0.053239
vn -0.103756 -0.972714 -0.207512
vn 0.026619 -0.998227 -0.053239
vn 0.967915 0.193583 0.160207
vn -0.997901 0.049895 0.041292
vn -0.967915 -0.193583 0.160207
vn 0.997901 -0.049895 0.041292
vn 0.995358 0.049768 -0.082374
vn -0.977368 0.195474 -0.080886
vn -0.995358 -0.049768 -0.082374
vn 0.977368 -0.195474 -0.080886
vn 0.967915 0.193583 0.160207
vn -0.997901 0.049895 0.041292
vn -0.967915 -0.193583 0.160207
vn 0.997901 -0.049895 0.041292
vn 0.995358 0.049768 -0.082374
vn -0.977368 0.195474 -0.080886
vn -0.995358 -0.049768 -0.082374
vn 0.977368 -0.195474 -0.080886
vn 0.011764 0.470556 0.882292
vn -0.047007 0.470068 0.881378
vn -0.011764 -0.470556 0.882292
vn 0.047007 -0.470068 0.881378
vn 0.025758 0.257577 -0.965914
vn -0.018235 0.729416 -0.683827
vn -0.025758 -0.257577 -0.965914
vn 0.018235 -0.729416 -0.683827
usemtl Awning_B_Surface
f 1/1/1 2/2/2 3/3/3
f 1/1/1 3/3/3 4/4/4
f 5/5/5 7/7/7 6/6/6
f 5/5/5 8/8/8 7/7/7
f 1/1/1 5/5/5 6/6/6
f 1/1/1 6/6/6 2/2/2
f 2/2/2 6/6/6 7/7/7
f 2/2/2 7/7/7 3/3/3
f 3/3/3 7/7/7 8/8/8
f 3/3/3 8/8/8 4/4/4
f 4/4/4 8/8/8 5/5/5
f 4/4/4 5/5/5 1/1/1
f 9/9/9 10/10/10 11/11/11
f 9/9/9 11/11/11 12/12/12
f 13/13/13 15/15/15 14/14/14
f 13/13/13 16/16/16 15/15/15
f 9/9/9 13/13/13 14/14/14
f 9/9/9 14/14/14 10/10/10
f 10/10/10 14/14/14 15/15/15
f 10/10/10 15/15/15 11/11/11
f 11/11/11 15/15/15 16/16/16
f 11/11/11 16/16/16 12/12/12
f 12/12/12 16/16/16 13/13/13
f 12/12/12 13/13/13 9/9/9
f 17/17/17 18/18/18 19/19/19
f 17/17/17 19/19/19 20/20/20
f 21/21/21 23/23/23 22/22/22
f 21/21/21 24/24/24 23/23/23
f 17/17/17 21/21/21 22/22/22
f 17/17/17 22/22/22 18/18/18
f 18/18/18 22/22/22 23/23/23
f 18/18/18 23/23/23 19/19/19
f 19/19/19 23/23/23 24/24/24
f 19/19/19 24/24/24 20/20/20
f 20/20/20 24/24/24 21/21/21
f 20/20/20 21/21/21 17/17/17
f 25/25/25 26/26/26 27/27/27
f 25/25/25 27/27/27 28/28/28
f 29/29/29 31/31/31 30/30/30
f 29/29/29 32/32/32 31/31/31
f 25/25/25 29/29/29 30/30/30
f 25/25/25 30/30/30 26/26/26
f 26/26/26 30/30/30 31/31/31
f 26/26/26 31/31/31 27/27/27
f 27/27/27 31/31/31 32/32/32
f 27/27/27 32/32/32 28/28/28
f 28/28/28 32/32/32 29/29/29
f 28/28/28 29/29/29 25/25/25
