# UART-005 deterministic mobile LOD authored source
mtllib SM_Env_CairoFacade_B_MobileLOD.mtl
o SM_Env_CairoFacade_B_LOD1
s 1
v 0.00000 0.00000 -0.32000
v 6.00000 0.00000 -0.32000
v 6.00000 5.00000 -0.32000
v 0.00000 5.00000 -0.32000
v 0.00000 0.00000 0.00000
v 6.00000 0.00000 0.00000
v 6.00000 5.00000 0.00000
v 0.00000 5.00000 0.00000
v 0.11000 0.00000 -0.45000
v 0.33000 0.00000 -0.45000
v 0.33000 5.00000 -0.45000
v 0.11000 5.00000 -0.45000
v 0.11000 0.00000 -0.31000
v 0.33000 0.00000 -0.31000
v 0.33000 5.00000 -0.31000
v 0.11000 5.00000 -0.31000
v 5.67000 0.00000 -0.45000
v 5.89000 0.00000 -0.45000
v 5.89000 5.00000 -0.45000
v 5.67000 5.00000 -0.45000
v 5.67000 0.00000 -0.31000
v 5.89000 0.00000 -0.31000
v 5.89000 5.00000 -0.31000
v 5.67000 5.00000 -0.31000
v 0.15000 4.68000 -0.51000
v 5.85000 4.68000 -0.51000
v 5.85000 4.88000 -0.51000
v 0.15000 4.88000 -0.51000
v 0.15000 4.68000 -0.35000
v 5.85000 4.68000 -0.35000
v 5.85000 4.88000 -0.35000
v 0.15000 4.88000 -0.35000
v 0.85000 2.67500 -0.46000
v 1.85000 2.67500 -0.46000
v 1.85000 3.92500 -0.46000
v 0.85000 3.92500 -0.46000
v 0.85000 2.67500 -0.34000
v 1.85000 2.67500 -0.34000
v 1.85000 3.92500 -0.34000
v 0.85000 3.92500 -0.34000
v 2.50000 2.67500 -0.46000
v 3.50000 2.67500 -0.46000
v 3.50000 3.92500 -0.46000
v 2.50000 3.92500 -0.46000
v 2.50000 2.67500 -0.34000
v 3.50000 2.67500 -0.34000
v 3.50000 3.92500 -0.34000
v 2.50000 3.92500 -0.34000
v 4.15000 2.67500 -0.46000
v 5.15000 2.67500 -0.46000
v 5.15000 3.92500 -0.46000
v 4.15000 3.92500 -0.46000
v 4.15000 2.67500 -0.34000
v 5.15000 2.67500 -0.34000
v 5.15000 3.92500 -0.34000
v 4.15000 3.92500 -0.34000
v 0.60000 2.49000 -0.61000
v 5.40000 2.49000 -0.61000
v 5.40000 2.61000 -0.61000
v 0.60000 2.61000 -0.61000
v 0.60000 2.49000 -0.39000
v 5.40000 2.49000 -0.39000
v 5.40000 2.61000 -0.39000
v 0.60000 2.61000 -0.39000
v 2.32500 0.12500 -0.49000
v 3.67500 0.12500 -0.49000
v 3.67500 2.07500 -0.49000
v 2.32500 2.07500 -0.49000
v 2.32500 0.12500 -0.35000
v 3.67500 0.12500 -0.35000
v 3.67500 2.07500 -0.35000
v 2.32500 2.07500 -0.35000
vt 0.000000 0.000000
vt 1.000000 0.000000
vt 1.000000 1.000000
vt 0.000000 1.000000
vt 0.000000 0.000000
vt 1.000000 0.000000
vt 1.000000 1.000000
vt 0.000000 1.000000
vt 0.018333 0.000000
vt 0.055000 0.000000
vt 0.055000 1.000000
vt 0.018333 1.000000
vt 0.018333 0.000000
vt 0.055000 0.000000
vt 0.055000 1.000000
vt 0.018333 1.000000
vt 0.945000 0.000000
vt 0.981667 0.000000
vt 0.981667 1.000000
vt 0.945000 1.000000
vt 0.945000 0.000000
vt 0.981667 0.000000
vt 0.981667 1.000000
vt 0.945000 1.000000
vt 0.025000 0.936000
vt 0.975000 0.936000
vt 0.975000 0.976000
vt 0.025000 0.976000
vt 0.025000 0.936000
vt 0.975000 0.936000
vt 0.975000 0.976000
vt 0.025000 0.976000
vt 0.141667 0.535000
vt 0.308333 0.535000
vt 0.308333 0.785000
vt 0.141667 0.785000
vt 0.141667 0.535000
vt 0.308333 0.535000
vt 0.308333 0.785000
vt 0.141667 0.785000
vt 0.416667 0.535000
vt 0.583333 0.535000
vt 0.583333 0.785000
vt 0.416667 0.785000
vt 0.416667 0.535000
vt 0.583333 0.535000
vt 0.583333 0.785000
vt 0.416667 0.785000
vt 0.691667 0.535000
vt 0.858333 0.535000
vt 0.858333 0.785000
vt 0.691667 0.785000
vt 0.691667 0.535000
vt 0.858333 0.535000
vt 0.858333 0.785000
vt 0.691667 0.785000
vt 0.100000 0.498000
vt 0.900000 0.498000
vt 0.900000 0.522000
vt 0.100000 0.522000
vt 0.100000 0.498000
vt 0.900000 0.498000
vt 0.900000 0.522000
vt 0.100000 0.522000
vt 0.387500 0.025000
vt 0.612500 0.025000
vt 0.612500 0.415000
vt 0.387500 0.415000
vt 0.387500 0.025000
vt 0.612500 0.025000
vt 0.612500 0.415000
vt 0.387500 0.415000
vn 0.026603 0.063847 0.997605
vn -0.105851 0.063511 0.992352
vn -0.026603 -0.063847 0.997605
vn 0.105851 -0.063511 0.992352
vn 0.053230 0.031938 -0.998071
vn -0.052828 0.126787 -0.990522
vn -0.053230 -0.031938 -0.998071
vn 0.052828 -0.126787 -0.990522
vn 0.303096 0.026672 0.952587
vn -0.786201 0.017296 0.617729
vn -0.303096 -0.026672 0.952587
vn 0.786201 -0.017296 0.617729
vn 0.536838 0.011810 -0.843603
vn -0.536277 0.047192 -0.842721
vn -0.536838 -0.011810 -0.843603
vn 0.536277 -0.047192 -0.842721
vn 0.303096 0.026672 0.952587
vn -0.786201 0.017296 0.617729
vn -0.303096 -0.026672 0.952587
vn 0.786201 -0.017296 0.617729
vn 0.536838 0.011810 -0.843603
vn -0.536277 0.047192 -0.842721
vn -0.536838 -0.011810 -0.843603
vn 0.536277 -0.047192 -0.842721
vn 0.010959 0.624658 0.780822
vn -0.043796 0.624096 0.780120
vn -0.010959 -0.624658 0.780822
vn 0.043796 -0.624096 0.780120
vn 0.026054 0.371265 -0.928162
vn -0.014876 0.847904 -0.529940
vn -0.026054 -0.371265 -0.928162
vn 0.014876 -0.847904 -0.529940
vn 0.059619 0.095391 0.993653
vn -0.232363 0.092945 0.968178
vn -0.059619 -0.095391 0.993653
vn 0.232363 -0.092945 0.968178
vn 0.119010 0.047604 -0.991751
vn -0.117038 0.187260 -0.975313
vn -0.119010 -0.047604 -0.991751
vn 0.117038 -0.187260 -0.975313
vn 0.059619 0.095391 0.993653
vn -0.232363 0.092945 0.968178
vn -0.059619 -0.095391 0.993653
vn 0.232363 -0.092945 0.968178
vn 0.119010 0.047604 -0.991751
vn -0.117038 0.187260 -0.975313
vn -0.119010 -0.047604 -0.991751
vn 0.117038 -0.187260 -0.975313
vn 0.059619 0.095391 0.993653
vn -0.232363 0.092945 0.968178
vn -0.059619 -0.095391 0.993653
vn 0.232363 -0.092945 0.968178
vn 0.119010 0.047604 -0.991751
vn -0.117038 0.187260 -0.975313
vn -0.119010 -0.047604 -0.991751
vn 0.117038 -0.187260 -0.975313
vn 0.010973 0.877843 0.478823
vn -0.043853 0.877051 0.478391
vn -0.010973 -0.877843 0.478823
vn 0.043853 -0.877051 0.478391
vn 0.033767 0.675339 -0.736734
vn -0.012059 0.964694 -0.263098
vn -0.033767 -0.675339 -0.736734
vn 0.012059 -0.964694 -0.263098
vn 0.051650 0.071515 0.996101
vn -0.202585 0.070126 0.976751
vn -0.051650 -0.071515 0.996101
vn 0.202585 -0.070126 0.976751
vn 0.103085 0.035683 -0.994032
vn -0.102114 0.141389 -0.984673
vn -0.103085 -0.035683 -0.994032
vn 0.102114 -0.141389 -0.984673
usemtl Facade_B_Surface
f 1/1/1 2/2/2 3/3/3
f 1/1/1 3/3/3 4/4/4
f 5/5/5 7/7/7 6/6/6
f 5/5/5 8/8/8 7/7/7
f 1/1/1 5/5/5 6/6/6
f 1/1/1 6/6/6 2/2/2
f 2/2/2 6/6/6 7/7/7
f 2/2/2 7/7/7 3/3/3
f 3/3/3 7/7/7 8/8/8
f 3/3/3 8/8/8 4/4/4
f 4/4/4 8/8/8 5/5/5
f 4/4/4 5/5/5 1/1/1
f 9/9/9 10/10/10 11/11/11
f 9/9/9 11/11/11 12/12/12
f 13/13/13 15/15/15 14/14/14
f 13/13/13 16/16/16 15/15/15
f 9/9/9 13/13/13 14/14/14
f 9/9/9 14/14/14 10/10/10
f 10/10/10 14/14/14 15/15/15
f 10/10/10 15/15/15 11/11/11
f 11/11/11 15/15/15 16/16/16
f 11/11/11 16/16/16 12/12/12
f 12/12/12 16/16/16 13/13/13
f 12/12/12 13/13/13 9/9/9
f 17/17/17 18/18/18 19/19/19
f 17/17/17 19/19/19 20/20/20
f 21/21/21 23/23/23 22/22/22
f 21/21/21 24/24/24 23/23/23
f 17/17/17 21/21/21 22/22/22
f 17/17/17 22/22/22 18/18/18
f 18/18/18 22/22/22 23/23/23
f 18/18/18 23/23/23 19/19/19
f 19/19/19 23/23/23 24/24/24
f 19/19/19 24/24/24 20/20/20
f 20/20/20 24/24/24 21/21/21
f 20/20/20 21/21/21 17/17/17
f 25/25/25 26/26/26 27/27/27
f 25/25/25 27/27/27 28/28/28
f 29/29/29 31/31/31 30/30/30
f 29/29/29 32/32/32 31/31/31
f 25/25/25 29/29/29 30/30/30
f 25/25/25 30/30/30 26/26/26
f 26/26/26 30/30/30 31/31/31
f 26/26/26 31/31/31 27/27/27
f 27/27/27 31/31/31 32/32/32
f 27/27/27 32/32/32 28/28/28
f 28/28/28 32/32/32 29/29/29
f 28/28/28 29/29/29 25/25/25
f 33/33/33 34/34/34 35/35/35
f 33/33/33 35/35/35 36/36/36
f 37/37/37 39/39/39 38/38/38
f 37/37/37 40/40/40 39/39/39
f 33/33/33 37/37/37 38/38/38
f 33/33/33 38/38/38 34/34/34
f 34/34/34 38/38/38 39/39/39
f 34/34/34 39/39/39 35/35/35
f 35/35/35 39/39/39 40/40/40
f 35/35/35 40/40/40 36/36/36
f 36/36/36 40/40/40 37/37/37
f 36/36/36 37/37/37 33/33/33
f 41/41/41 42/42/42 43/43/43
f 41/41/41 43/43/43 44/44/44
f 45/45/45 47/47/47 46/46/46
f 45/45/45 48/48/48 47/47/47
f 41/41/41 45/45/45 46/46/46
f 41/41/41 46/46/46 42/42/42
f 42/42/42 46/46/46 47/47/47
f 42/42/42 47/47/47 43/43/43
f 43/43/43 47/47/47 48/48/48
f 43/43/43 48/48/48 44/44/44
f 44/44/44 48/48/48 45/45/45
f 44/44/44 45/45/45 41/41/41
f 49/49/49 50/50/50 51/51/51
f 49/49/49 51/51/51 52/52/52
f 53/53/53 55/55/55 54/54/54
f 53/53/53 56/56/56 55/55/55
f 49/49/49 53/53/53 54/54/54
f 49/49/49 54/54/54 50/50/50
f 50/50/50 54/54/54 55/55/55
f 50/50/50 55/55/55 51/51/51
f 51/51/51 55/55/55 56/56/56
f 51/51/51 56/56/56 52/52/52
f 52/52/52 56/56/56 53/53/53
f 52/52/52 53/53/53 49/49/49
f 57/57/57 58/58/58 59/59/59
f 57/57/57 59/59/59 60/60/60
f 61/61/61 63/63/63 62/62/62
f 61/61/61 64/64/64 63/63/63
f 57/57/57 61/61/61 62/62/62
f 57/57/57 62/62/62 58/58/58
f 58/58/58 62/62/62 63/63/63
f 58/58/58 63/63/63 59/59/59
f 59/59/59 63/63/63 64/64/64
f 59/59/59 64/64/64 60/60/60
f 60/60/60 64/64/64 61/61/61
f 60/60/60 61/61/61 57/57/57
f 65/65/65 66/66/66 67/67/67
f 65/65/65 67/67/67 68/68/68
f 69/69/69 71/71/71 70/70/70
f 69/69/69 72/72/72 71/71/71
f 65/65/65 69/69/69 70/70/70
f 65/65/65 70/70/70 66/66/66
f 66/66/66 70/70/70 71/71/71
f 66/66/66 71/71/71 67/67/67
f 67/67/67 71/71/71 72/72/72
f 67/67/67 72/72/72 68/68/68
f 68/68/68 72/72/72 69/69/69
f 68/68/68 69/69/69 65/65/65
