# UART-006 topology-preserving candidate surface authoring
mtllib SM_Env_CairoAwning_B.mtl
# UART-005 authored source variant candidate: SM_Env_CairoAwning_B
o SM_Env_CairoAwning_B
s 1
v 0.00000 1.28000 0.00000
v 3.00000 1.28000 0.00000
v 3.00000 1.12000 0.00000
v 0.00000 1.12000 0.00000
v 0.00000 1.28000 1.50000
v 3.00000 1.28000 1.50000
v 3.00000 1.38000 1.50000
v 0.00000 1.38000 1.50000
v 0.00000 0.99000 0.00000
v 3.00000 0.99000 0.00000
v 3.00000 1.17000 0.00000
v 0.00000 1.17000 0.00000
v 0.00000 0.99000 0.08000
v 3.00000 0.99000 0.08000
v 3.00000 1.17000 0.08000
v 0.00000 1.17000 0.08000
v 0.00000 0.00000 0.00000
v 0.12000 0.00000 0.00000
v 0.12000 1.36000 0.00000
v 0.00000 1.36000 0.00000
v 0.00000 0.00000 1.50000
v 0.12000 0.00000 1.50000
v 0.12000 1.36000 1.50000
v 0.00000 1.36000 1.50000
v 2.88000 0.00000 0.00000
v 3.00000 0.00000 0.00000
v 3.00000 1.36000 0.00000
v 2.88000 1.36000 0.00000
v 2.88000 0.00000 1.50000
v 3.00000 0.00000 1.50000
v 3.00000 1.36000 1.50000
v 2.88000 1.36000 1.50000
v 0.00000 0.03000 1.36000
v 0.12000 0.03000 1.36000
v 0.12000 0.21000 1.36000
v 0.00000 0.21000 1.36000
v 0.00000 0.03000 1.50000
v 0.12000 0.03000 1.50000
v 0.12000 0.21000 1.50000
v 0.00000 0.21000 1.50000
v 2.88000 0.03000 1.36000
v 3.00000 0.03000 1.36000
v 3.00000 0.21000 1.36000
v 2.88000 0.21000 1.36000
v 2.88000 0.03000 1.50000
v 3.00000 0.03000 1.50000
v 3.00000 0.21000 1.50000
v 2.88000 0.21000 1.50000
v 0.47750 1.15000 0.03000
v 0.52250 1.15000 0.03000
v 0.52250 1.25000 0.03000
v 0.47750 1.25000 0.03000
v 0.47750 1.15000 1.47000
v 0.52250 1.15000 1.47000
v 0.52250 1.25000 1.47000
v 0.47750 1.25000 1.47000
v 0.97750 1.15000 0.03000
v 1.02250 1.15000 0.03000
v 1.02250 1.25000 0.03000
v 0.97750 1.25000 0.03000
v 0.97750 1.15000 1.47000
v 1.02250 1.15000 1.47000
v 1.02250 1.25000 1.47000
v 0.97750 1.25000 1.47000
v 1.47750 1.15000 0.03000
v 1.52250 1.15000 0.03000
v 1.52250 1.25000 0.03000
v 1.47750 1.25000 0.03000
v 1.47750 1.15000 1.47000
v 1.52250 1.15000 1.47000
v 1.52250 1.25000 1.47000
v 1.47750 1.25000 1.47000
v 1.97750 1.15000 0.03000
v 2.02250 1.15000 0.03000
v 2.02250 1.25000 0.03000
v 1.97750 1.25000 0.03000
v 1.97750 1.15000 1.47000
v 2.02250 1.15000 1.47000
v 2.02250 1.25000 1.47000
v 1.97750 1.25000 1.47000
v 2.47750 1.15000 0.03000
v 2.52250 1.15000 0.03000
v 2.52250 1.25000 0.03000
v 2.47750 1.25000 0.03000
v 2.47750 1.15000 1.47000
v 2.52250 1.15000 1.47000
v 2.52250 1.25000 1.47000
v 2.47750 1.25000 1.47000
vt 0.000000 0.000000
vt 1.000000 0.000000
vt 1.000000 0.000000
vt 0.000000 0.000000
vt 0.000000 1.000000
vt 1.000000 1.000000
vt 1.000000 1.000000
vt 0.000000 1.000000
vt 0.000000 0.000000
vt 1.000000 0.000000
vt 1.000000 0.000000
vt 0.000000 0.000000
vt 0.000000 0.053333
vt 1.000000 0.053333
vt 1.000000 0.053333
vt 0.000000 0.053333
vt 0.000000 0.000000
vt 0.040000 0.000000
vt 0.040000 0.000000
vt 0.000000 0.000000
vt 0.000000 1.000000
vt 0.040000 1.000000
vt 0.040000 1.000000
vt 0.000000 1.000000
vt 0.960000 0.000000
vt 1.000000 0.000000
vt 1.000000 0.000000
vt 0.960000 0.000000
vt 0.960000 1.000000
vt 1.000000 1.000000
vt 1.000000 1.000000
vt 0.960000 1.000000
vt 0.000000 0.906667
vt 0.040000 0.906667
vt 0.040000 0.906667
vt 0.000000 0.906667
vt 0.000000 1.000000
vt 0.040000 1.000000
vt 0.040000 1.000000
vt 0.000000 1.000000
vt 0.960000 0.906667
vt 1.000000 0.906667
vt 1.000000 0.906667
vt 0.960000 0.906667
vt 0.960000 1.000000
vt 1.000000 1.000000
vt 1.000000 1.000000
vt 0.960000 1.000000
vt 0.159167 0.020000
vt 0.174167 0.020000
vt 0.174167 0.020000
vt 0.159167 0.020000
vt 0.159167 0.980000
vt 0.174167 0.980000
vt 0.174167 0.980000
vt 0.159167 0.980000
vt 0.325833 0.020000
vt 0.340833 0.020000
vt 0.340833 0.020000
vt 0.325833 0.020000
vt 0.325833 0.980000
vt 0.340833 0.980000
vt 0.340833 0.980000
vt 0.325833 0.980000
vt 0.492500 0.020000
vt 0.507500 0.020000
vt 0.507500 0.020000
vt 0.492500 0.020000
vt 0.492500 0.980000
vt 0.507500 0.980000
vt 0.507500 0.980000
vt 0.492500 0.980000
vt 0.659167 0.020000
vt 0.674167 0.020000
vt 0.674167 0.020000
vt 0.659167 0.020000
vt 0.659167 0.980000
vt 0.674167 0.980000
vt 0.674167 0.980000
vt 0.659167 0.980000
vt 0.825833 0.020000
vt 0.840833 0.020000
vt 0.840833 0.020000
vt 0.825833 0.020000
vt 0.825833 0.980000
vt 0.840833 0.980000
vt 0.840833 0.980000
vt 0.825833 0.980000
vn -0.026507 0.994010 -0.106028
vn 0.019883 0.994163 -0.106044
vn 0.026598 -0.997432 0.066495
vn -0.019952 -0.997587 0.066506
vn -0.019821 0.991033 -0.132138
vn -0.016655 0.999306 -0.033310
vn 0.019980 -0.999001 0.039960
vn 0.016503 -0.990207 0.138629
vn 0.012183 0.406108 0.913744
vn -0.048679 0.405657 0.912728
vn -0.012183 -0.406108 0.913744
vn 0.048679 -0.405657 0.912728
vn 0.026023 0.216857 -0.975856
vn -0.019927 0.664232 -0.747261
vn -0.026023 -0.216857 -0.975856
vn 0.019927 -0.664232 -0.747261
vn 0.972782 0.171667 0.155645
vn -0.998232 0.044040 0.039929
vn -0.972782 -0.171667 0.155645
vn 0.998232 -0.044040 0.039929
vn 0.995853 0.043935 -0.079668
vn -0.981742 0.173249 -0.078539
vn -0.995853 -0.043935 -0.079668
vn 0.981742 -0.173249 -0.078539
vn 0.972782 0.171667 0.155645
vn -0.998232 0.044040 0.039929
vn -0.972782 -0.171667 0.155645
vn 0.998232 -0.044040 0.039929
vn 0.995853 0.043935 -0.079668
vn -0.981742 0.173249 -0.078539
vn -0.995853 -0.043935 -0.079668
vn 0.981742 -0.173249 -0.078539
vn 0.418247 0.557663 0.716995
vn -0.878823 0.292941 0.376638
vn -0.418247 -0.557663 0.716995
vn 0.878823 -0.292941 0.376638
vn 0.736050 0.245350 -0.630900
vn -0.533573 0.711430 -0.457348
vn -0.736050 -0.245350 -0.630900
vn 0.533573 -0.711430 -0.457348
vn 0.418247 0.557663 0.716995
vn -0.878823 0.292941 0.376638
vn -0.418247 -0.557663 0.716995
vn 0.878823 -0.292941 0.376638
vn 0.736050 0.245350 -0.630900
vn -0.533573 0.711430 -0.457348
vn -0.736050 -0.245350 -0.630900
vn 0.533573 -0.711430 -0.457348
vn 0.742493 0.668244 0.046406
vn -0.975496 0.219487 0.015242
vn -0.742493 -0.668244 0.046406
vn 0.975496 -0.219487 0.015242
vn 0.975157 0.219410 -0.030474
vn -0.743094 0.668784 -0.023222
vn -0.975157 -0.219410 -0.030474
vn 0.743094 -0.668784 -0.023222
vn 0.742493 0.668244 0.046406
vn -0.975496 0.219487 0.015242
vn -0.742493 -0.668244 0.046406
vn 0.975496 -0.219487 0.015242
vn 0.975157 0.219410 -0.030474
vn -0.743094 0.668784 -0.023222
vn -0.975157 -0.219410 -0.030474
vn 0.743094 -0.668784 -0.023222
vn 0.742493 0.668244 0.046406
vn -0.975496 0.219487 0.015242
vn -0.742493 -0.668244 0.046406
vn 0.975496 -0.219487 0.015242
vn 0.975157 0.219410 -0.030474
vn -0.743094 0.668784 -0.023222
vn -0.975157 -0.219410 -0.030474
vn 0.743094 -0.668784 -0.023222
vn 0.742493 0.668244 0.046406
vn -0.975496 0.219487 0.015242
vn -0.742493 -0.668244 0.046406
vn 0.975496 -0.219487 0.015242
vn 0.975157 0.219410 -0.030474
vn -0.743094 0.668784 -0.023222
vn -0.975157 -0.219410 -0.030474
vn 0.743094 -0.668784 -0.023222
vn 0.742493 0.668244 0.046406
vn -0.975496 0.219487 0.015242
vn -0.742493 -0.668244 0.046406
vn 0.975496 -0.219487 0.015242
vn 0.975157 0.219410 -0.030474
vn -0.743094 0.668784 -0.023222
vn -0.975157 -0.219410 -0.030474
vn 0.743094 -0.668784 -0.023222
usemtl Awning_B_Surface
f 1/1/1 2/2/2 3/3/3
f 1/1/1 3/3/3 4/4/4
f 5/5/5 7/7/7 6/6/6
f 5/5/5 8/8/8 7/7/7
f 1/1/1 5/5/5 6/6/6
f 1/1/1 6/6/6 2/2/2
f 2/2/2 6/6/6 7/7/7
f 2/2/2 7/7/7 3/3/3
f 3/3/3 7/7/7 8/8/8
f 3/3/3 8/8/8 4/4/4
f 4/4/4 8/8/8 5/5/5
f 4/4/4 5/5/5 1/1/1
f 9/9/9 10/10/10 11/11/11
f 9/9/9 11/11/11 12/12/12
f 13/13/13 15/15/15 14/14/14
f 13/13/13 16/16/16 15/15/15
f 9/9/9 13/13/13 14/14/14
f 9/9/9 14/14/14 10/10/10
f 10/10/10 14/14/14 15/15/15
f 10/10/10 15/15/15 11/11/11
f 11/11/11 15/15/15 16/16/16
f 11/11/11 16/16/16 12/12/12
f 12/12/12 16/16/16 13/13/13
f 12/12/12 13/13/13 9/9/9
f 17/17/17 18/18/18 19/19/19
f 17/17/17 19/19/19 20/20/20
f 21/21/21 23/23/23 22/22/22
f 21/21/21 24/24/24 23/23/23
f 17/17/17 21/21/21 22/22/22
f 17/17/17 22/22/22 18/18/18
f 18/18/18 22/22/22 23/23/23
f 18/18/18 23/23/23 19/19/19
f 19/19/19 23/23/23 24/24/24
f 19/19/19 24/24/24 20/20/20
f 20/20/20 24/24/24 21/21/21
f 20/20/20 21/21/21 17/17/17
f 25/25/25 26/26/26 27/27/27
f 25/25/25 27/27/27 28/28/28
f 29/29/29 31/31/31 30/30/30
f 29/29/29 32/32/32 31/31/31
f 25/25/25 29/29/29 30/30/30
f 25/25/25 30/30/30 26/26/26
f 26/26/26 30/30/30 31/31/31
f 26/26/26 31/31/31 27/27/27
f 27/27/27 31/31/31 32/32/32
f 27/27/27 32/32/32 28/28/28
f 28/28/28 32/32/32 29/29/29
f 28/28/28 29/29/29 25/25/25
f 33/33/33 34/34/34 35/35/35
f 33/33/33 35/35/35 36/36/36
f 37/37/37 39/39/39 38/38/38
f 37/37/37 40/40/40 39/39/39
f 33/33/33 37/37/37 38/38/38
f 33/33/33 38/38/38 34/34/34
f 34/34/34 38/38/38 39/39/39
f 34/34/34 39/39/39 35/35/35
f 35/35/35 39/39/39 40/40/40
f 35/35/35 40/40/40 36/36/36
f 36/36/36 40/40/40 37/37/37
f 36/36/36 37/37/37 33/33/33
f 41/41/41 42/42/42 43/43/43
f 41/41/41 43/43/43 44/44/44
f 45/45/45 47/47/47 46/46/46
f 45/45/45 48/48/48 47/47/47
f 41/41/41 45/45/45 46/46/46
f 41/41/41 46/46/46 42/42/42
f 42/42/42 46/46/46 47/47/47
f 42/42/42 47/47/47 43/43/43
f 43/43/43 47/47/47 48/48/48
f 43/43/43 48/48/48 44/44/44
f 44/44/44 48/48/48 45/45/45
f 44/44/44 45/45/45 41/41/41
f 49/49/49 50/50/50 51/51/51
f 49/49/49 51/51/51 52/52/52
f 53/53/53 55/55/55 54/54/54
f 53/53/53 56/56/56 55/55/55
f 49/49/49 53/53/53 54/54/54
f 49/49/49 54/54/54 50/50/50
f 50/50/50 54/54/54 55/55/55
f 50/50/50 55/55/55 51/51/51
f 51/51/51 55/55/55 56/56/56
f 51/51/51 56/56/56 52/52/52
f 52/52/52 56/56/56 53/53/53
f 52/52/52 53/53/53 49/49/49
f 57/57/57 58/58/58 59/59/59
f 57/57/57 59/59/59 60/60/60
f 61/61/61 63/63/63 62/62/62
f 61/61/61 64/64/64 63/63/63
f 57/57/57 61/61/61 62/62/62
f 57/57/57 62/62/62 58/58/58
f 58/58/58 62/62/62 63/63/63
f 58/58/58 63/63/63 59/59/59
f 59/59/59 63/63/63 64/64/64
f 59/59/59 64/64/64 60/60/60
f 60/60/60 64/64/64 61/61/61
f 60/60/60 61/61/61 57/57/57
f 65/65/65 66/66/66 67/67/67
f 65/65/65 67/67/67 68/68/68
f 69/69/69 71/71/71 70/70/70
f 69/69/69 72/72/72 71/71/71
f 65/65/65 69/69/69 70/70/70
f 65/65/65 70/70/70 66/66/66
f 66/66/66 70/70/70 71/71/71
f 66/66/66 71/71/71 67/67/67
f 67/67/67 71/71/71 72/72/72
f 67/67/67 72/72/72 68/68/68
f 68/68/68 72/72/72 69/69/69
f 68/68/68 69/69/69 65/65/65
f 73/73/73 74/74/74 75/75/75
f 73/73/73 75/75/75 76/76/76
f 77/77/77 79/79/79 78/78/78
f 77/77/77 80/80/80 79/79/79
f 73/73/73 77/77/77 78/78/78
f 73/73/73 78/78/78 74/74/74
f 74/74/74 78/78/78 79/79/79
f 74/74/74 79/79/79 75/75/75
f 75/75/75 79/79/79 80/80/80
f 75/75/75 80/80/80 76/76/76
f 76/76/76 80/80/80 77/77/77
f 76/76/76 77/77/77 73/73/73
f 81/81/81 82/82/82 83/83/83
f 81/81/81 83/83/83 84/84/84
f 85/85/85 87/87/87 86/86/86
f 85/85/85 88/88/88 87/87/87
f 81/81/81 85/85/85 86/86/86
f 81/81/81 86/86/86 82/82/82
f 82/82/82 86/86/86 87/87/87
f 82/82/82 87/87/87 83/83/83
f 83/83/83 87/87/87 88/88/88
f 83/83/83 88/88/88 84/84/84
f 84/84/84 88/88/88 85/85/85
f 84/84/84 85/85/85 81/81/81
