# UART-005 deterministic mobile LOD authored source
mtllib SM_Prop_CairoBarrier_A_MobileLOD.mtl
o SM_Prop_CairoBarrier_A_LOD2
s 1
v -1.00000 0.05500 -0.24000
v 1.00000 0.05500 -0.24000
v 1.00000 0.60500 -0.24000
v -1.00000 0.60500 -0.24000
v -1.00000 0.05500 0.24000
v 1.00000 0.05500 0.24000
v 1.00000 0.60500 0.24000
v -1.00000 0.60500 0.24000
vt 0.000000 0.000000
vt 1.000000 0.000000
vt 1.000000 1.000000
vt 0.000000 1.000000
vt 0.000000 0.000000
vt 1.000000 0.000000
vt 1.000000 1.000000
vt 0.000000 1.000000
vn 0.090044 0.654863 0.750364
vn -0.340088 0.618341 0.708516
vn -0.090044 -0.654863 0.750364
vn 0.340088 -0.618341 0.708516
vn 0.214833 0.390606 -0.895139
vn -0.118467 0.861576 -0.493611
vn -0.214833 -0.390606 -0.895139
vn 0.118467 -0.861576 -0.493611
usemtl Barrier_Surface
f 1/1/1 2/2/2 3/3/3
f 1/1/1 3/3/3 4/4/4
f 5/5/5 7/7/7 6/6/6
f 5/5/5 8/8/8 7/7/7
f 1/1/1 5/5/5 6/6/6
f 1/1/1 6/6/6 2/2/2
f 2/2/2 6/6/6 7/7/7
f 2/2/2 7/7/7 3/3/3
f 3/3/3 7/7/7 8/8/8
f 3/3/3 8/8/8 4/4/4
f 4/4/4 8/8/8 5/5/5
f 4/4/4 5/5/5 1/1/1
