# UART-005 deterministic mobile LOD authored source
mtllib SM_Prop_CairoBarrier_A_MobileLOD.mtl
o SM_Prop_CairoBarrier_A_LOD1
s 1
v -1.00000 0.05500 -0.24000
v 1.00000 0.05500 -0.24000
v 1.00000 0.60500 -0.24000
v -1.00000 0.60500 -0.24000
v -1.00000 0.05500 0.24000
v 1.00000 0.05500 0.24000
v 1.00000 0.60500 0.24000
v -1.00000 0.60500 0.24000
v -0.89000 0.00000 -0.28000
v -0.55000 0.00000 -0.28000
v -0.55000 0.14000 -0.28000
v -0.89000 0.14000 -0.28000
v -0.89000 0.00000 0.28000
v -0.55000 0.00000 0.28000
v -0.55000 0.14000 0.28000
v -0.89000 0.14000 0.28000
v 0.55000 0.00000 -0.28000
v 0.89000 0.00000 -0.28000
v 0.89000 0.14000 -0.28000
v 0.55000 0.14000 -0.28000
v 0.55000 0.00000 0.28000
v 0.89000 0.00000 0.28000
v 0.89000 0.14000 0.28000
v 0.55000 0.14000 0.28000
vt 0.000000 0.090909
vt 1.000000 0.090909
vt 1.000000 1.000000
vt 0.000000 1.000000
vt 0.000000 0.090909
vt 1.000000 0.090909
vt 1.000000 1.000000
vt 0.000000 1.000000
vt 0.055000 0.000000
vt 0.225000 0.000000
vt 0.225000 0.231405
vt 0.055000 0.231405
vt 0.055000 0.000000
vt 0.225000 0.000000
vt 0.225000 0.231405
vt 0.055000 0.231405
vt 0.775000 0.000000
vt 0.945000 0.000000
vt 0.945000 0.231405
vt 0.775000 0.231405
vt 0.775000 0.000000
vt 0.945000 0.000000
vt 0.945000 0.231405
vt 0.775000 0.231405
vn 0.090044 0.654863 0.750364
vn -0.340088 0.618341 0.708516
vn -0.090044 -0.654863 0.750364
vn 0.340088 -0.618341 0.708516
vn 0.214833 0.390606 -0.895139
vn -0.118467 0.861576 -0.493611
vn -0.214833 -0.390606 -0.895139
vn 0.118467 -0.861576 -0.493611
vn 0.195866 0.951351 0.237838
vn -0.624190 0.757945 0.189486
vn -0.195866 -0.951351 0.237838
vn 0.624190 -0.757945 0.189486
vn 0.593066 0.720152 -0.360076
vn -0.200158 0.972198 -0.121525
vn -0.593066 -0.720152 -0.360076
vn 0.200158 -0.972198 -0.121525
vn 0.195866 0.951351 0.237838
vn -0.624190 0.757945 0.189486
vn -0.195866 -0.951351 0.237838
vn 0.624190 -0.757945 0.189486
vn 0.593066 0.720152 -0.360076
vn -0.200158 0.972198 -0.121525
vn -0.593066 -0.720152 -0.360076
vn 0.200158 -0.972198 -0.121525
usemtl Barrier_Surface
f 1/1/1 2/2/2 3/3/3
f 1/1/1 3/3/3 4/4/4
f 5/5/5 7/7/7 6/6/6
f 5/5/5 8/8/8 7/7/7
f 1/1/1 5/5/5 6/6/6
f 1/1/1 6/6/6 2/2/2
f 2/2/2 6/6/6 7/7/7
f 2/2/2 7/7/7 3/3/3
f 3/3/3 7/7/7 8/8/8
f 3/3/3 8/8/8 4/4/4
f 4/4/4 8/8/8 5/5/5
f 4/4/4 5/5/5 1/1/1
f 9/9/9 10/10/10 11/11/11
f 9/9/9 11/11/11 12/12/12
f 13/13/13 15/15/15 14/14/14
f 13/13/13 16/16/16 15/15/15
f 9/9/9 13/13/13 14/14/14
f 9/9/9 14/14/14 10/10/10
f 10/10/10 14/14/14 15/15/15
f 10/10/10 15/15/15 11/11/11
f 11/11/11 15/15/15 16/16/16
f 11/11/11 16/16/16 12/12/12
f 12/12/12 16/16/16 13/13/13
f 12/12/12 13/13/13 9/9/9
f 17/17/17 18/18/18 19/19/19
f 17/17/17 19/19/19 20/20/20
f 21/21/21 23/23/23 22/22/22
f 21/21/21 24/24/24 23/23/23
f 17/17/17 21/21/21 22/22/22
f 17/17/17 22/22/22 18/18/18
f 18/18/18 22/22/22 23/23/23
f 18/18/18 23/23/23 19/19/19
f 19/19/19 23/23/23 24/24/24
f 19/19/19 24/24/24 20/20/20
f 20/20/20 24/24/24 21/21/21
f 20/20/20 21/21/21 17/17/17
