# UART-006 topology-preserving candidate surface authoring
mtllib SM_Prop_CairoSign_A.mtl
# UART-005 authored source variant candidate: SM_Prop_CairoSign_A
o SM_Prop_CairoSign_A
s 1
v 0.00000 0.00000 -0.60000
v 0.16000 0.00000 -0.60000
v 0.16000 0.16000 -0.60000
v 0.00000 0.16000 -0.60000
v 0.00000 0.00000 0.60000
v 0.16000 0.00000 0.60000
v 0.16000 0.16000 0.60000
v 0.00000 0.16000 0.60000
v 0.00000 -0.57000 1.01000
v 0.16000 -0.57000 1.01000
v 0.16000 0.13000 1.01000
v 0.00000 0.13000 1.01000
v 0.00000 -0.57000 1.15000
v 0.16000 -0.57000 1.15000
v 0.16000 0.13000 1.15000
v 0.00000 0.13000 1.15000
v 0.02000 -0.58000 0.02500
v 0.14000 -0.58000 0.02500
v 0.14000 -0.46000 0.02500
v 0.02000 -0.46000 0.02500
v 0.02000 -0.58000 1.07500
v 0.14000 -0.58000 1.07500
v 0.14000 -0.46000 1.07500
v 0.02000 -0.46000 1.07500
v 0.02000 -1.04000 1.16000
v 0.14000 -1.04000 1.16000
v 0.14000 -0.52000 1.16000
v 0.02000 -0.52000 1.16000
v 0.02000 -1.04000 1.28000
v 0.14000 -1.04000 1.28000
v 0.14000 -0.52000 1.28000
v 0.02000 -0.52000 1.28000
v 0.02000 -1.75500 0.47500
v 0.14000 -1.75500 0.47500
v 0.14000 -0.80500 0.47500
v 0.02000 -0.80500 0.47500
v 0.02000 -1.75500 2.02500
v 0.14000 -1.75500 2.02500
v 0.14000 -0.80500 2.02500
v 0.02000 -0.80500 2.02500
v -0.01000 -0.85000 0.41000
v 0.17000 -0.85000 0.41000
v 0.17000 -0.75000 0.41000
v -0.01000 -0.75000 0.41000
v -0.01000 -0.85000 2.09000
v 0.17000 -0.85000 2.09000
v 0.17000 -0.75000 2.09000
v -0.01000 -0.75000 2.09000
v -0.01000 -1.81000 0.41000
v 0.17000 -1.81000 0.41000
v 0.17000 -1.71000 0.41000
v -0.01000 -1.71000 0.41000
v -0.01000 -1.81000 2.09000
v 0.17000 -1.81000 2.09000
v 0.17000 -1.71000 2.09000
v -0.01000 -1.71000 2.09000
v -0.01000 -1.77000 0.38000
v 0.17000 -1.77000 0.38000
v 0.17000 -0.79000 0.38000
v -0.01000 -0.79000 0.38000
v -0.01000 -1.77000 0.48000
v 0.17000 -1.77000 0.48000
v 0.17000 -0.79000 0.48000
v -0.01000 -0.79000 0.48000
v -0.01000 -1.77000 2.02000
v 0.17000 -1.77000 2.02000
v 0.17000 -0.79000 2.02000
v -0.01000 -0.79000 2.02000
v -0.01000 -1.77000 2.12000
v 0.17000 -1.77000 2.12000
v 0.17000 -0.79000 2.12000
v -0.01000 -0.79000 2.12000
v -0.01000 -0.75000 1.17000
v 0.17000 -0.75000 1.17000
v 0.17000 -0.59000 1.17000
v -0.01000 -0.59000 1.17000
v -0.01000 -0.75000 1.33000
v 0.17000 -0.75000 1.33000
v 0.17000 -0.59000 1.33000
v -0.01000 -0.59000 1.33000
vt 0.000000 0.918782
vt 0.000000 0.918782
vt 0.000000 1.000000
vt 0.000000 1.000000
vt 0.441176 0.918782
vt 0.441176 0.918782
vt 0.441176 1.000000
vt 0.441176 1.000000
vt 0.591912 0.629442
vt 0.591912 0.629442
vt 0.591912 0.984772
vt 0.591912 0.984772
vt 0.643382 0.629442
vt 0.643382 0.629442
vt 0.643382 0.984772
vt 0.643382 0.984772
vt 0.229779 0.624365
vt 0.229779 0.624365
vt 0.229779 0.685279
vt 0.229779 0.685279
vt 0.615809 0.624365
vt 0.615809 0.624365
vt 0.615809 0.685279
vt 0.615809 0.685279
vt 0.647059 0.390863
vt 0.647059 0.390863
vt 0.647059 0.654822
vt 0.647059 0.654822
vt 0.691176 0.390863
vt 0.691176 0.390863
vt 0.691176 0.654822
vt 0.691176 0.654822
vt 0.395221 0.027919
vt 0.395221 0.027919
vt 0.395221 0.510152
vt 0.395221 0.510152
vt 0.965074 0.027919
vt 0.965074 0.027919
vt 0.965074 0.510152
vt 0.965074 0.510152
vt 0.371324 0.487310
vt 0.371324 0.487310
vt 0.371324 0.538071
vt 0.371324 0.538071
vt 0.988971 0.487310
vt 0.988971 0.487310
vt 0.988971 0.538071
vt 0.988971 0.538071
vt 0.371324 0.000000
vt 0.371324 0.000000
vt 0.371324 0.050761
vt 0.371324 0.050761
vt 0.988971 0.000000
vt 0.988971 0.000000
vt 0.988971 0.050761
vt 0.988971 0.050761
vt 0.360294 0.020305
vt 0.360294 0.020305
vt 0.360294 0.517766
vt 0.360294 0.517766
vt 0.397059 0.020305
vt 0.397059 0.020305
vt 0.397059 0.517766
vt 0.397059 0.517766
vt 0.963235 0.020305
vt 0.963235 0.020305
vt 0.963235 0.517766
vt 0.963235 0.517766
vt 1.000000 0.020305
vt 1.000000 0.020305
vt 1.000000 0.517766
vt 1.000000 0.517766
vt 0.650735 0.538071
vt 0.650735 0.538071
vt 0.650735 0.619289
vt 0.650735 0.619289
vt 0.709559 0.538071
vt 0.709559 0.538071
vt 0.709559 0.619289
vt 0.709559 0.619289
vn 0.444067 0.888134 0.118418
vn -0.892841 0.446421 0.059523
vn -0.444067 -0.888134 0.118418
vn 0.892841 -0.446421 0.059523
vn 0.888134 0.444067 -0.118418
vn -0.446421 0.892841 -0.059523
vn -0.888134 -0.444067 -0.118418
vn 0.446421 -0.892841 -0.059523
vn 0.394255 0.180231 0.901155
vn -0.864000 0.098743 0.493714
vn -0.394255 -0.180231 0.901155
vn 0.864000 -0.098743 0.493714
vn 0.656648 0.075045 -0.750455
vn -0.630554 0.288253 -0.720633
vn -0.656648 -0.075045 -0.750455
vn 0.630554 -0.288253 -0.720633
vn 0.444895 0.889791 0.101690
vn -0.893261 0.446631 0.051043
vn -0.444895 -0.889791 0.101690
vn 0.893261 -0.446631 0.051043
vn 0.889791 0.444895 -0.101690
vn -0.446631 0.893261 -0.051043
vn -0.889791 -0.444895 -0.101690
vn 0.446631 -0.893261 -0.051043
vn 0.437981 0.202145 0.875962
vn -0.889702 0.102658 0.444851
vn -0.437981 -0.202145 0.875962
vn 0.889702 -0.102658 0.444851
vn 0.704765 0.081319 -0.704765
vn -0.672214 0.310253 -0.672214
vn -0.704765 -0.081319 -0.704765
vn 0.672214 -0.310253 -0.672214
vn 0.958795 0.242222 0.148459
vn -0.997268 0.062985 0.038604
vn -0.958795 -0.242222 0.148459
vn 0.997268 -0.062985 0.038604
vn 0.995046 0.062845 -0.077036
vn -0.966819 0.244249 -0.074851
vn -0.995046 -0.062845 -0.077036
vn 0.966819 -0.244249 -0.074851
vn 0.267205 0.961937 0.057258
vn -0.742706 0.668435 0.039788
vn -0.267205 -0.961937 0.057258
vn 0.742706 -0.668435 0.039788
vn 0.740948 0.666853 -0.079387
vn -0.267534 0.963122 -0.028664
vn -0.740948 -0.666853 -0.079387
vn 0.267534 -0.963122 -0.028664
vn 0.267205 0.961937 0.057258
vn -0.742706 0.668435 0.039788
vn -0.267205 -0.961937 0.057258
vn 0.742706 -0.668435 0.039788
vn 0.740948 0.666853 -0.079387
vn -0.267534 0.963122 -0.028664
vn -0.740948 -0.666853 -0.079387
vn 0.267534 -0.963122 -0.028664
vn 0.266360 0.097846 0.958894
vn -0.741568 0.068103 0.667412
vn -0.266360 -0.097846 0.958894
vn 0.741568 -0.068103 0.667412
vn 0.485161 0.044556 -0.873289
vn -0.478095 0.175627 -0.860570
vn -0.485161 -0.044556 -0.873289
vn 0.478095 -0.175627 -0.860570
vn 0.266360 0.097846 0.958894
vn -0.741568 0.068103 0.667412
vn -0.266360 -0.097846 0.958894
vn 0.741568 -0.068103 0.667412
vn 0.485161 0.044556 -0.873289
vn -0.478095 0.175627 -0.860570
vn -0.485161 -0.044556 -0.873289
vn 0.478095 -0.175627 -0.860570
vn 0.299813 0.674579 0.674579
vn -0.782586 0.440204 0.440204
vn -0.299813 -0.674579 0.674579
vn 0.782586 -0.440204 0.440204
vn 0.622328 0.350059 -0.700119
vn -0.369406 0.831163 -0.415581
vn -0.622328 -0.350059 -0.700119
vn 0.369406 -0.831163 -0.415581
usemtl Sign_Surface
f 1/1/1 2/2/2 3/3/3
f 1/1/1 3/3/3 4/4/4
f 5/5/5 7/7/7 6/6/6
f 5/5/5 8/8/8 7/7/7
f 1/1/1 5/5/5 6/6/6
f 1/1/1 6/6/6 2/2/2
f 2/2/2 6/6/6 7/7/7
f 2/2/2 7/7/7 3/3/3
f 3/3/3 7/7/7 8/8/8
f 3/3/3 8/8/8 4/4/4
f 4/4/4 8/8/8 5/5/5
f 4/4/4 5/5/5 1/1/1
f 9/9/9 10/10/10 11/11/11
f 9/9/9 11/11/11 12/12/12
f 13/13/13 15/15/15 14/14/14
f 13/13/13 16/16/16 15/15/15
f 9/9/9 13/13/13 14/14/14
f 9/9/9 14/14/14 10/10/10
f 10/10/10 14/14/14 15/15/15
f 10/10/10 15/15/15 11/11/11
f 11/11/11 15/15/15 16/16/16
f 11/11/11 16/16/16 12/12/12
f 12/12/12 16/16/16 13/13/13
f 12/12/12 13/13/13 9/9/9
f 17/17/17 18/18/18 19/19/19
f 17/17/17 19/19/19 20/20/20
f 21/21/21 23/23/23 22/22/22
f 21/21/21 24/24/24 23/23/23
f 17/17/17 21/21/21 22/22/22
f 17/17/17 22/22/22 18/18/18
f 18/18/18 22/22/22 23/23/23
f 18/18/18 23/23/23 19/19/19
f 19/19/19 23/23/23 24/24/24
f 19/19/19 24/24/24 20/20/20
f 20/20/20 24/24/24 21/21/21
f 20/20/20 21/21/21 17/17/17
f 25/25/25 26/26/26 27/27/27
f 25/25/25 27/27/27 28/28/28
f 29/29/29 31/31/31 30/30/30
f 29/29/29 32/32/32 31/31/31
f 25/25/25 29/29/29 30/30/30
f 25/25/25 30/30/30 26/26/26
f 26/26/26 30/30/30 31/31/31
f 26/26/26 31/31/31 27/27/27
f 27/27/27 31/31/31 32/32/32
f 27/27/27 32/32/32 28/28/28
f 28/28/28 32/32/32 29/29/29
f 28/28/28 29/29/29 25/25/25
f 33/33/33 34/34/34 35/35/35
f 33/33/33 35/35/35 36/36/36
f 37/37/37 39/39/39 38/38/38
f 37/37/37 40/40/40 39/39/39
f 33/33/33 37/37/37 38/38/38
f 33/33/33 38/38/38 34/34/34
f 34/34/34 38/38/38 39/39/39
f 34/34/34 39/39/39 35/35/35
f 35/35/35 39/39/39 40/40/40
f 35/35/35 40/40/40 36/36/36
f 36/36/36 40/40/40 37/37/37
f 36/36/36 37/37/37 33/33/33
f 41/41/41 42/42/42 43/43/43
f 41/41/41 43/43/43 44/44/44
f 45/45/45 47/47/47 46/46/46
f 45/45/45 48/48/48 47/47/47
f 41/41/41 45/45/45 46/46/46
f 41/41/41 46/46/46 42/42/42
f 42/42/42 46/46/46 47/47/47
f 42/42/42 47/47/47 43/43/43
f 43/43/43 47/47/47 48/48/48
f 43/43/43 48/48/48 44/44/44
f 44/44/44 48/48/48 45/45/45
f 44/44/44 45/45/45 41/41/41
f 49/49/49 50/50/50 51/51/51
f 49/49/49 51/51/51 52/52/52
f 53/53/53 55/55/55 54/54/54
f 53/53/53 56/56/56 55/55/55
f 49/49/49 53/53/53 54/54/54
f 49/49/49 54/54/54 50/50/50
f 50/50/50 54/54/54 55/55/55
f 50/50/50 55/55/55 51/51/51
f 51/51/51 55/55/55 56/56/56
f 51/51/51 56/56/56 52/52/52
f 52/52/52 56/56/56 53/53/53
f 52/52/52 53/53/53 49/49/49
f 57/57/57 58/58/58 59/59/59
f 57/57/57 59/59/59 60/60/60
f 61/61/61 63/63/63 62/62/62
f 61/61/61 64/64/64 63/63/63
f 57/57/57 61/61/61 62/62/62
f 57/57/57 62/62/62 58/58/58
f 58/58/58 62/62/62 63/63/63
f 58/58/58 63/63/63 59/59/59
f 59/59/59 63/63/63 64/64/64
f 59/59/59 64/64/64 60/60/60
f 60/60/60 64/64/64 61/61/61
f 60/60/60 61/61/61 57/57/57
f 65/65/65 66/66/66 67/67/67
f 65/65/65 67/67/67 68/68/68
f 69/69/69 71/71/71 70/70/70
f 69/69/69 72/72/72 71/71/71
f 65/65/65 69/69/69 70/70/70
f 65/65/65 70/70/70 66/66/66
f 66/66/66 70/70/70 71/71/71
f 66/66/66 71/71/71 67/67/67
f 67/67/67 71/71/71 72/72/72
f 67/67/67 72/72/72 68/68/68
f 68/68/68 72/72/72 69/69/69
f 68/68/68 69/69/69 65/65/65
f 73/73/73 74/74/74 75/75/75
f 73/73/73 75/75/75 76/76/76
f 77/77/77 79/79/79 78/78/78
f 77/77/77 80/80/80 79/79/79
f 73/73/73 77/77/77 78/78/78
f 73/73/73 78/78/78 74/74/74
f 74/74/74 78/78/78 79/79/79
f 74/74/74 79/79/79 75/75/75
f 75/75/75 79/79/79 80/80/80
f 75/75/75 80/80/80 76/76/76
f 76/76/76 80/80/80 77/77/77
f 76/76/76 77/77/77 73/73/73
