# UART-005 deterministic mobile LOD authored source
mtllib SM_Prop_CairoPlanter_A_MobileLOD.mtl
o SM_Prop_CairoPlanter_A_LOD2
s 1
v 0.42000 0.00000 0.00000
v 0.51000 0.68000 0.00000
v 0.29698 0.00000 0.29698
v 0.36062 0.68000 0.36062
v 0.00000 0.00000 0.42000
v 0.00000 0.68000 0.51000
v -0.29698 0.00000 0.29698
v -0.36062 0.68000 0.36062
v -0.42000 0.00000 0.00000
v -0.51000 0.68000 0.00000
v -0.29698 0.00000 -0.29698
v -0.36062 0.68000 -0.36062
v -0.00000 0.00000 -0.42000
v -0.00000 0.68000 -0.51000
v 0.29698 0.00000 -0.29698
v 0.36062 0.68000 -0.36062
v 0.00000 0.00000 0.00000
v 0.00000 0.68000 0.00000
vt 0.911765 0.500000
vt 1.000000 0.500000
vt 0.791162 0.791162
vt 0.853553 0.853553
vt 0.500000 0.911765
vt 0.500000 1.000000
vt 0.208838 0.791162
vt 0.146447 0.853553
vt 0.088235 0.500000
vt 0.000000 0.500000
vt 0.208838 0.208838
vt 0.146447 0.146447
vt 0.500000 0.088235
vt 0.500000 0.000000
vt 0.791162 0.208838
vt 0.853553 0.146447
vt 0.500000 0.500000
vt 0.500000 0.500000
vn -0.879963 0.454648 -0.137697
vn -0.923036 -0.368196 0.111514
vn -0.524861 0.454648 -0.719595
vn -0.731538 -0.368196 -0.573833
vn 0.137697 0.454648 -0.879963
vn -0.111514 -0.368196 -0.923036
vn 0.719595 0.454648 -0.524861
vn 0.573833 -0.368196 -0.731538
vn 0.879963 0.454648 0.137697
vn 0.923036 -0.368196 -0.111514
vn 0.524861 0.454648 0.719595
vn 0.731538 -0.368196 0.573833
vn -0.137697 0.454648 0.879963
vn 0.111514 -0.368196 0.923036
vn -0.719595 0.454648 0.524861
vn -0.573833 -0.368196 0.731538
vn 0.000000 1.000000 0.000000
vn 0.000000 -1.000000 0.000000
usemtl Planter_Surface
f 1/1/1 3/3/3 4/4/4
f 1/1/1 4/4/4 2/2/2
f 17/17/17 3/3/3 1/1/1
f 18/18/18 2/2/2 4/4/4
f 3/3/3 5/5/5 6/6/6
f 3/3/3 6/6/6 4/4/4
f 17/17/17 5/5/5 3/3/3
f 18/18/18 4/4/4 6/6/6
f 5/5/5 7/7/7 8/8/8
f 5/5/5 8/8/8 6/6/6
f 17/17/17 7/7/7 5/5/5
f 18/18/18 6/6/6 8/8/8
f 7/7/7 9/9/9 10/10/10
f 7/7/7 10/10/10 8/8/8
f 17/17/17 9/9/9 7/7/7
f 18/18/18 8/8/8 10/10/10
f 9/9/9 11/11/11 12/12/12
f 9/9/9 12/12/12 10/10/10
f 17/17/17 11/11/11 9/9/9
f 18/18/18 10/10/10 12/12/12
f 11/11/11 13/13/13 14/14/14
f 11/11/11 14/14/14 12/12/12
f 17/17/17 13/13/13 11/11/11
f 18/18/18 12/12/12 14/14/14
f 13/13/13 15/15/15 16/16/16
f 13/13/13 16/16/16 14/14/14
f 17/17/17 15/15/15 13/13/13
f 18/18/18 14/14/14 16/16/16
f 15/15/15 1/1/1 2/2/2
f 15/15/15 2/2/2 16/16/16
f 17/17/17 1/1/1 15/15/15
f 18/18/18 16/16/16 2/2/2
