# UART-005 deterministic mobile LOD authored source
mtllib SM_Prop_CairoLamp_A_MobileLOD.mtl
o SM_Prop_CairoLamp_A_LOD1
s 1
v 0.25000 0.00000 0.00000
v 0.25000 0.38000 0.00000
v 0.12500 0.00000 0.21651
v 0.12500 0.38000 0.21651
v -0.12500 0.00000 0.21651
v -0.12500 0.38000 0.21651
v -0.25000 0.00000 0.00000
v -0.25000 0.38000 0.00000
v -0.12500 0.00000 -0.21651
v -0.12500 0.38000 -0.21651
v 0.12500 0.00000 -0.21651
v 0.12500 0.38000 -0.21651
v 0.00000 0.00000 0.00000
v 0.00000 0.38000 0.00000
v 0.06000 0.32000 0.00000
v 0.06000 2.55000 0.00000
v 0.03000 0.32000 0.05196
v 0.03000 2.55000 0.05196
v -0.03000 0.32000 0.05196
v -0.03000 2.55000 0.05196
v -0.06000 0.32000 0.00000
v -0.06000 2.55000 0.00000
v -0.03000 0.32000 -0.05196
v -0.03000 2.55000 -0.05196
v 0.03000 0.32000 -0.05196
v 0.03000 2.55000 -0.05196
v 0.00000 0.32000 0.00000
v 0.00000 2.55000 0.00000
v -0.36000 2.51000 -0.04000
v 0.36000 2.51000 -0.04000
v 0.36000 2.59000 -0.04000
v -0.36000 2.59000 -0.04000
v -0.36000 2.51000 0.04000
v 0.36000 2.51000 0.04000
v 0.36000 2.59000 0.04000
v -0.36000 2.59000 0.04000
v -0.44000 2.42000 -0.09000
v -0.24000 2.42000 -0.09000
v -0.24000 2.58000 -0.09000
v -0.44000 2.58000 -0.09000
v -0.44000 2.42000 0.09000
v -0.24000 2.42000 0.09000
v -0.24000 2.58000 0.09000
v -0.44000 2.58000 0.09000
v 0.24000 2.42000 -0.09000
v 0.44000 2.42000 -0.09000
v 0.44000 2.58000 -0.09000
v 0.24000 2.58000 -0.09000
v 0.24000 2.42000 0.09000
v 0.44000 2.42000 0.09000
v 0.44000 2.58000 0.09000
v 0.24000 2.58000 0.09000
v -0.04000 2.60000 -0.04000
v 0.04000 2.60000 -0.04000
v 0.04000 2.92000 -0.04000
v -0.04000 2.92000 -0.04000
v -0.04000 2.60000 0.04000
v 0.04000 2.60000 0.04000
v 0.04000 2.92000 0.04000
v -0.04000 2.92000 0.04000
vt 0.000000 0.784091
vt 0.130137 0.784091
vt 0.000000 0.642045
vt 0.130137 0.642045
vt 0.000000 0.357955
vt 0.130137 0.357955
vt 0.000000 0.215909
vt 0.130137 0.215909
vt 0.000000 0.357955
vt 0.130137 0.357955
vt 0.000000 0.642045
vt 0.130137 0.642045
vt 0.000000 0.500000
vt 0.130137 0.500000
vt 0.109589 0.568182
vt 0.873288 0.568182
vt 0.109589 0.534091
vt 0.873288 0.534091
vt 0.109589 0.465909
vt 0.873288 0.465909
vt 0.109589 0.431818
vt 0.873288 0.431818
vt 0.109589 0.465909
vt 0.873288 0.465909
vt 0.109589 0.534091
vt 0.873288 0.534091
vt 0.109589 0.500000
vt 0.873288 0.500000
vt 0.859589 0.090909
vt 0.859589 0.909091
vt 0.886986 0.909091
vt 0.886986 0.090909
vt 0.859589 0.090909
vt 0.859589 0.909091
vt 0.886986 0.909091
vt 0.886986 0.090909
vt 0.828767 0.000000
vt 0.828767 0.227273
vt 0.883562 0.227273
vt 0.883562 0.000000
vt 0.828767 0.000000
vt 0.828767 0.227273
vt 0.883562 0.227273
vt 0.883562 0.000000
vt 0.828767 0.772727
vt 0.828767 1.000000
vt 0.883562 1.000000
vt 0.883562 0.772727
vt 0.828767 0.772727
vt 0.828767 1.000000
vt 0.883562 1.000000
vt 0.883562 0.772727
vt 0.890411 0.454545
vt 0.890411 0.545455
vt 1.000000 0.545455
vt 1.000000 0.454545
vt 0.890411 0.454545
vt 0.890411 0.545455
vt 1.000000 0.545455
vt 1.000000 0.454545
vn -0.901888 0.395565 -0.173568
vn -0.901888 -0.395565 0.173568
vn -0.300629 0.395565 -0.867842
vn -0.601259 -0.395565 -0.694274
vn 0.601259 0.395565 -0.694274
vn 0.300629 -0.395565 -0.867842
vn 0.901888 0.395565 0.173568
vn 0.901888 -0.395565 -0.173568
vn 0.300629 0.395565 0.867842
vn 0.601259 -0.395565 0.694274
vn -0.601259 0.395565 0.694274
vn -0.300629 -0.395565 0.867842
vn 0.000000 1.000000 0.000000
vn 0.000000 -1.000000 0.000000
vn -0.981828 0.017611 -0.188953
vn -0.981828 -0.017611 0.188953
vn -0.327276 0.017611 -0.944765
vn -0.654552 -0.017611 -0.755812
vn 0.654552 0.017611 -0.755812
vn 0.327276 -0.017611 -0.944765
vn 0.981828 0.017611 0.188953
vn 0.981828 -0.017611 -0.188953
vn 0.327276 0.017611 0.944765
vn 0.654552 -0.017611 0.755812
vn -0.654552 0.017611 0.755812
vn -0.327276 -0.017611 0.944765
vn 0.000000 1.000000 0.000000
vn 0.000000 -1.000000 0.000000
vn 0.039253 0.706562 0.706562
vn -0.155230 0.698535 0.698535
vn -0.039253 -0.706562 0.706562
vn 0.155230 -0.698535 0.698535
vn 0.098894 0.445021 -0.890043
vn -0.049629 0.893325 -0.446663
vn -0.098894 -0.445021 -0.890043
vn 0.049629 -0.893325 -0.446663
vn 0.286437 0.716092 0.636526
vn -0.767130 0.479456 0.426184
vn -0.286437 -0.716092 0.636526
vn 0.767130 -0.479456 0.426184
vn 0.617191 0.385744 -0.685767
vn -0.343309 0.858272 -0.381454
vn -0.617191 -0.385744 -0.685767
vn 0.343309 -0.858272 -0.381454
vn 0.286437 0.716092 0.636526
vn -0.767130 0.479456 0.426184
vn -0.286437 -0.716092 0.636526
vn 0.767130 -0.479456 0.426184
vn 0.617191 0.385744 -0.685767
vn -0.343309 0.858272 -0.381454
vn -0.617191 -0.385744 -0.685767
vn 0.343309 -0.858272 -0.381454
vn 0.436436 0.218218 0.872872
vn -0.888889 0.111111 0.444444
vn -0.436436 -0.218218 0.872872
vn 0.888889 -0.111111 0.444444
vn 0.704361 0.088045 -0.704361
vn -0.666667 0.333333 -0.666667
vn -0.704361 -0.088045 -0.704361
vn 0.666667 -0.333333 -0.666667
usemtl Lamp_Surface
f 1/1/1 3/3/3 4/4/4
f 1/1/1 4/4/4 2/2/2
f 13/13/13 3/3/3 1/1/1
f 14/14/14 2/2/2 4/4/4
f 3/3/3 5/5/5 6/6/6
f 3/3/3 6/6/6 4/4/4
f 13/13/13 5/5/5 3/3/3
f 14/14/14 4/4/4 6/6/6
f 5/5/5 7/7/7 8/8/8
f 5/5/5 8/8/8 6/6/6
f 13/13/13 7/7/7 5/5/5
f 14/14/14 6/6/6 8/8/8
f 7/7/7 9/9/9 10/10/10
f 7/7/7 10/10/10 8/8/8
f 13/13/13 9/9/9 7/7/7
f 14/14/14 8/8/8 10/10/10
f 9/9/9 11/11/11 12/12/12
f 9/9/9 12/12/12 10/10/10
f 13/13/13 11/11/11 9/9/9
f 14/14/14 10/10/10 12/12/12
f 11/11/11 1/1/1 2/2/2
f 11/11/11 2/2/2 12/12/12
f 13/13/13 1/1/1 11/11/11
f 14/14/14 12/12/12 2/2/2
f 15/15/15 17/17/17 18/18/18
f 15/15/15 18/18/18 16/16/16
f 27/27/27 17/17/17 15/15/15
f 28/28/28 16/16/16 18/18/18
f 17/17/17 19/19/19 20/20/20
f 17/17/17 20/20/20 18/18/18
f 27/27/27 19/19/19 17/17/17
f 28/28/28 18/18/18 20/20/20
f 19/19/19 21/21/21 22/22/22
f 19/19/19 22/22/22 20/20/20
f 27/27/27 21/21/21 19/19/19
f 28/28/28 20/20/20 22/22/22
f 21/21/21 23/23/23 24/24/24
f 21/21/21 24/24/24 22/22/22
f 27/27/27 23/23/23 21/21/21
f 28/28/28 22/22/22 24/24/24
f 23/23/23 25/25/25 26/26/26
f 23/23/23 26/26/26 24/24/24
f 27/27/27 25/25/25 23/23/23
f 28/28/28 24/24/24 26/26/26
f 25/25/25 15/15/15 16/16/16
f 25/25/25 16/16/16 26/26/26
f 27/27/27 15/15/15 25/25/25
f 28/28/28 26/26/26 16/16/16
f 29/29/29 30/30/30 31/31/31
f 29/29/29 31/31/31 32/32/32
f 33/33/33 35/35/35 34/34/34
f 33/33/33 36/36/36 35/35/35
f 29/29/29 33/33/33 34/34/34
f 29/29/29 34/34/34 30/30/30
f 30/30/30 34/34/34 35/35/35
f 30/30/30 35/35/35 31/31/31
f 31/31/31 35/35/35 36/36/36
f 31/31/31 36/36/36 32/32/32
f 32/32/32 36/36/36 33/33/33
f 32/32/32 33/33/33 29/29/29
f 37/37/37 38/38/38 39/39/39
f 37/37/37 39/39/39 40/40/40
f 41/41/41 43/43/43 42/42/42
f 41/41/41 44/44/44 43/43/43
f 37/37/37 41/41/41 42/42/42
f 37/37/37 42/42/42 38/38/38
f 38/38/38 42/42/42 43/43/43
f 38/38/38 43/43/43 39/39/39
f 39/39/39 43/43/43 44/44/44
f 39/39/39 44/44/44 40/40/40
f 40/40/40 44/44/44 41/41/41
f 40/40/40 41/41/41 37/37/37
f 45/45/45 46/46/46 47/47/47
f 45/45/45 47/47/47 48/48/48
f 49/49/49 51/51/51 50/50/50
f 49/49/49 52/52/52 51/51/51
f 45/45/45 49/49/49 50/50/50
f 45/45/45 50/50/50 46/46/46
f 46/46/46 50/50/50 51/51/51
f 46/46/46 51/51/51 47/47/47
f 47/47/47 51/51/51 52/52/52
f 47/47/47 52/52/52 48/48/48
f 48/48/48 52/52/52 49/49/49
f 48/48/48 49/49/49 45/45/45
f 53/53/53 54/54/54 55/55/55
f 53/53/53 55/55/55 56/56/56
f 57/57/57 59/59/59 58/58/58
f 57/57/57 60/60/60 59/59/59
f 53/53/53 57/57/57 58/58/58
f 53/53/53 58/58/58 54/54/54
f 54/54/54 58/58/58 59/59/59
f 54/54/54 59/59/59 55/55/55
f 55/55/55 59/59/59 60/60/60
f 55/55/55 60/60/60 56/56/56
f 56/56/56 60/60/60 57/57/57
f 56/56/56 57/57/57 53/53/53
