# UART-005 deterministic mobile LOD authored source
mtllib SM_Prop_CairoSign_A_MobileLOD.mtl
o SM_Prop_CairoSign_A_LOD1
s 1
v 0.02000 -1.74000 0.49000
v 0.14000 -1.74000 0.49000
v 0.14000 -0.82000 0.49000
v 0.02000 -0.82000 0.49000
v 0.02000 -1.74000 2.01000
v 0.14000 -1.74000 2.01000
v 0.14000 -0.82000 2.01000
v 0.02000 -0.82000 2.01000
v 0.01000 -0.05000 0.00000
v 0.15000 -0.05000 0.00000
v 0.15000 0.09000 0.00000
v 0.01000 0.09000 0.00000
v 0.01000 -0.05000 1.10000
v 0.15000 -0.05000 1.10000
v 0.15000 0.09000 1.10000
v 0.01000 0.09000 1.10000
v 0.02000 -1.03000 1.04000
v 0.14000 -1.03000 1.04000
v 0.14000 -0.13000 1.04000
v 0.02000 -0.13000 1.04000
v 0.02000 -1.03000 1.16000
v 0.14000 -1.03000 1.16000
v 0.14000 -0.13000 1.16000
v 0.02000 -0.13000 1.16000
vt 0.243781 0.000000
vt 0.243781 0.000000
vt 0.243781 0.502732
vt 0.243781 0.502732
vt 1.000000 0.000000
vt 1.000000 0.000000
vt 1.000000 0.502732
vt 1.000000 0.502732
vt 0.000000 0.923497
vt 0.000000 0.923497
vt 0.000000 1.000000
vt 0.000000 1.000000
vt 0.547264 0.923497
vt 0.547264 0.923497
vt 0.547264 1.000000
vt 0.547264 1.000000
vt 0.517413 0.387978
vt 0.517413 0.387978
vt 0.517413 0.879781
vt 0.517413 0.879781
vt 0.577114 0.387978
vt 0.577114 0.387978
vt 0.577114 0.879781
vt 0.577114 0.879781
vn 0.956518 0.249526 0.151029
vn -0.997107 0.065029 0.039359
vn -0.956518 -0.249526 0.151029
vn 0.997107 -0.065029 0.039359
vn 0.994798 0.064878 -0.078537
vn -0.964806 0.251689 -0.076169
vn -0.994798 -0.064878 -0.078537
vn 0.964806 -0.251689 -0.076169
vn 0.444344 0.888688 0.113106
vn -0.892982 0.446491 0.056826
vn -0.444344 -0.888688 0.113106
vn 0.892982 -0.446491 0.056826
vn 0.888688 0.444344 -0.113106
vn -0.446491 0.892982 -0.056826
vn -0.888688 -0.444344 -0.113106
vn 0.446491 -0.892982 -0.056826
vn 0.444067 0.118418 0.888134
vn -0.892841 0.059523 0.446421
vn -0.444067 -0.118418 0.888134
vn 0.892841 -0.059523 0.446421
vn 0.706322 0.047088 -0.706322
vn -0.694862 0.185296 -0.694862
vn -0.706322 -0.047088 -0.706322
vn 0.694862 -0.185296 -0.694862
usemtl Sign_Surface
f 1/1/1 2/2/2 3/3/3
f 1/1/1 3/3/3 4/4/4
f 5/5/5 7/7/7 6/6/6
f 5/5/5 8/8/8 7/7/7
f 1/1/1 5/5/5 6/6/6
f 1/1/1 6/6/6 2/2/2
f 2/2/2 6/6/6 7/7/7
f 2/2/2 7/7/7 3/3/3
f 3/3/3 7/7/7 8/8/8
f 3/3/3 8/8/8 4/4/4
f 4/4/4 8/8/8 5/5/5
f 4/4/4 5/5/5 1/1/1
f 9/9/9 10/10/10 11/11/11
f 9/9/9 11/11/11 12/12/12
f 13/13/13 15/15/15 14/14/14
f 13/13/13 16/16/16 15/15/15
f 9/9/9 13/13/13 14/14/14
f 9/9/9 14/14/14 10/10/10
f 10/10/10 14/14/14 15/15/15
f 10/10/10 15/15/15 11/11/11
f 11/11/11 15/15/15 16/16/16
f 11/11/11 16/16/16 12/12/12
f 12/12/12 16/16/16 13/13/13
f 12/12/12 13/13/13 9/9/9
f 17/17/17 18/18/18 19/19/19
f 17/17/17 19/19/19 20/20/20
f 21/21/21 23/23/23 22/22/22
f 21/21/21 24/24/24 23/23/23
f 17/17/17 21/21/21 22/22/22
f 17/17/17 22/22/22 18/18/18
f 18/18/18 22/22/22 23/23/23
f 18/18/18 23/23/23 19/19/19
f 19/19/19 23/23/23 24/24/24
f 19/19/19 24/24/24 20/20/20
f 20/20/20 24/24/24 21/21/21
f 20/20/20 21/21/21 17/17/17
