# UART-005 deterministic mobile LOD authored source
mtllib SM_Prop_CairoLamp_A_MobileLOD.mtl
o SM_Prop_CairoLamp_A_LOD2
s 1
v 0.25000 0.00000 0.00000
v 0.25000 0.38000 0.00000
v 0.07725 0.00000 0.23776
v 0.07725 0.38000 0.23776
v -0.20225 0.00000 0.14695
v -0.20225 0.38000 0.14695
v -0.20225 0.00000 -0.14695
v -0.20225 0.38000 -0.14695
v 0.07725 0.00000 -0.23776
v 0.07725 0.38000 -0.23776
v 0.00000 0.00000 0.00000
v 0.00000 0.38000 0.00000
v 0.06000 0.32000 0.00000
v 0.06000 2.55000 0.00000
v 0.01854 0.32000 0.05706
v 0.01854 2.55000 0.05706
v -0.04854 0.32000 0.03527
v -0.04854 2.55000 0.03527
v -0.04854 0.32000 -0.03527
v -0.04854 2.55000 -0.03527
v 0.01854 0.32000 -0.05706
v 0.01854 2.55000 -0.05706
v 0.00000 0.32000 0.00000
v 0.00000 2.55000 0.00000
v -0.36000 2.51000 -0.04000
v 0.36000 2.51000 -0.04000
v 0.36000 2.59000 -0.04000
v -0.36000 2.59000 -0.04000
v -0.36000 2.51000 0.04000
v 0.36000 2.51000 0.04000
v 0.36000 2.59000 0.04000
v -0.36000 2.59000 0.04000
vt 0.000000 0.847222
vt 0.146718 0.847222
vt 0.000000 0.607298
vt 0.146718 0.607298
vt 0.000000 0.219091
vt 0.146718 0.219091
vt 0.000000 0.219091
vt 0.146718 0.219091
vt 0.000000 0.607298
vt 0.146718 0.607298
vt 0.000000 0.500000
vt 0.146718 0.500000
vt 0.123552 0.583333
vt 0.984556 0.583333
vt 0.123552 0.525751
vt 0.984556 0.525751
vt 0.123552 0.432582
vt 0.984556 0.432582
vt 0.123552 0.432582
vt 0.984556 0.432582
vt 0.123552 0.525751
vt 0.984556 0.525751
vt 0.123552 0.500000
vt 0.984556 0.500000
vt 0.969112 0.000000
vt 0.969112 1.000000
vt 1.000000 1.000000
vt 1.000000 0.000000
vt 0.969112 0.000000
vt 0.969112 1.000000
vt 1.000000 1.000000
vt 1.000000 0.000000
vn -0.894063 0.392133 -0.216525
vn -0.894063 -0.392133 0.216525
vn -0.070353 0.392133 -0.917214
vn -0.482208 -0.392133 -0.783395
vn 0.850582 0.392133 -0.350345
vn 0.596042 -0.392133 -0.700689
vn 0.596042 0.392133 0.700689
vn 0.850582 -0.392133 0.350345
vn -0.482208 0.392133 0.783395
vn -0.070353 -0.392133 0.917214
vn 0.000000 1.000000 0.000000
vn 0.000000 -1.000000 0.000000
vn -0.971757 0.017431 -0.235341
vn -0.971757 -0.017431 0.235341
vn -0.076467 0.017431 -0.996920
vn -0.524112 -0.017431 -0.851471
vn 0.924497 0.017431 -0.380789
vn 0.647838 -0.017431 -0.761579
vn 0.647838 0.017431 0.761579
vn 0.924497 -0.017431 0.380789
vn -0.524112 0.017431 0.851471
vn -0.076467 -0.017431 0.996920
vn 0.000000 1.000000 0.000000
vn 0.000000 -1.000000 0.000000
vn 0.039253 0.706562 0.706562
vn -0.155230 0.698535 0.698535
vn -0.039253 -0.706562 0.706562
vn 0.155230 -0.698535 0.698535
vn 0.098894 0.445021 -0.890043
vn -0.049629 0.893325 -0.446663
vn -0.098894 -0.445021 -0.890043
vn 0.049629 -0.893325 -0.446663
usemtl Lamp_Surface
f 1/1/1 3/3/3 4/4/4
f 1/1/1 4/4/4 2/2/2
f 11/11/11 3/3/3 1/1/1
f 12/12/12 2/2/2 4/4/4
f 3/3/3 5/5/5 6/6/6
f 3/3/3 6/6/6 4/4/4
f 11/11/11 5/5/5 3/3/3
f 12/12/12 4/4/4 6/6/6
f 5/5/5 7/7/7 8/8/8
f 5/5/5 8/8/8 6/6/6
f 11/11/11 7/7/7 5/5/5
f 12/12/12 6/6/6 8/8/8
f 7/7/7 9/9/9 10/10/10
f 7/7/7 10/10/10 8/8/8
f 11/11/11 9/9/9 7/7/7
f 12/12/12 8/8/8 10/10/10
f 9/9/9 1/1/1 2/2/2
f 9/9/9 2/2/2 10/10/10
f 11/11/11 1/1/1 9/9/9
f 12/12/12 10/10/10 2/2/2
f 13/13/13 15/15/15 16/16/16
f 13/13/13 16/16/16 14/14/14
f 23/23/23 15/15/15 13/13/13
f 24/24/24 14/14/14 16/16/16
f 15/15/15 17/17/17 18/18/18
f 15/15/15 18/18/18 16/16/16
f 23/23/23 17/17/17 15/15/15
f 24/24/24 16/16/16 18/18/18
f 17/17/17 19/19/19 20/20/20
f 17/17/17 20/20/20 18/18/18
f 23/23/23 19/19/19 17/17/17
f 24/24/24 18/18/18 20/20/20
f 19/19/19 21/21/21 22/22/22
f 19/19/19 22/22/22 20/20/20
f 23/23/23 21/21/21 19/19/19
f 24/24/24 20/20/20 22/22/22
f 21/21/21 13/13/13 14/14/14
f 21/21/21 14/14/14 22/22/22
f 23/23/23 13/13/13 21/21/21
f 24/24/24 22/22/22 14/14/14
f 25/25/25 26/26/26 27/27/27
f 25/25/25 27/27/27 28/28/28
f 29/29/29 31/31/31 30/30/30
f 29/29/29 32/32/32 31/31/31
f 25/25/25 29/29/29 30/30/30
f 25/25/25 30/30/30 26/26/26
f 26/26/26 30/30/30 31/31/31
f 26/26/26 31/31/31 27/27/27
f 27/27/27 31/31/31 32/32/32
f 27/27/27 32/32/32 28/28/28
f 28/28/28 32/32/32 29/29/29
f 28/28/28 29/29/29 25/25/25
