# UART-005 deterministic mobile LOD authored source
mtllib SM_Prop_CairoCrateStack_A_MobileLOD.mtl
o SM_Prop_CairoCrateStack_A_LOD1
s 1
v -0.46000 0.01000 -0.35000
v 0.46000 0.01000 -0.35000
v 0.46000 0.55000 -0.35000
v -0.46000 0.55000 -0.35000
v -0.46000 0.01000 0.35000
v 0.46000 0.01000 0.35000
v 0.46000 0.55000 0.35000
v -0.46000 0.55000 0.35000
v -0.31000 0.58000 -0.28000
v 0.55000 0.58000 -0.28000
v 0.55000 1.08000 -0.28000
v -0.31000 1.08000 -0.28000
v -0.31000 0.58000 0.38000
v 0.55000 0.58000 0.38000
v 0.55000 1.08000 0.38000
v -0.31000 1.08000 0.38000
v -0.47000 1.11000 -0.34000
v 0.31000 1.11000 -0.34000
v 0.31000 1.57000 -0.34000
v -0.47000 1.57000 -0.34000
v -0.47000 1.11000 0.26000
v 0.31000 1.11000 0.26000
v 0.31000 1.57000 0.26000
v -0.47000 1.57000 0.26000
vt 0.000000 0.009804
vt 0.000000 0.911765
vt 0.346154 0.911765
vt 0.346154 0.009804
vt 0.000000 0.009804
vt 0.000000 0.911765
vt 0.346154 0.911765
vt 0.346154 0.009804
vt 0.365385 0.156863
vt 0.365385 1.000000
vt 0.685897 1.000000
vt 0.685897 0.156863
vt 0.365385 0.156863
vt 0.365385 1.000000
vt 0.685897 1.000000
vt 0.685897 0.156863
vt 0.705128 0.000000
vt 0.705128 0.764706
vt 1.000000 0.764706
vt 1.000000 0.000000
vt 0.705128 0.000000
vt 0.705128 0.764706
vt 1.000000 0.764706
vt 1.000000 0.000000
vn 0.226340 0.771234 0.594952
vn -0.680810 0.579949 0.447389
vn -0.226340 -0.771234 0.594952
vn 0.680810 -0.579949 0.447389
vn 0.538148 0.458422 -0.707280
vn -0.264094 0.899877 -0.347095
vn -0.538148 -0.458422 -0.707280
vn 0.264094 -0.899877 -0.347095
vn 0.225732 0.776519 0.588272
vn -0.679773 0.584605 0.442883
vn -0.225732 -0.776519 0.588272
vn 0.679773 -0.584605 0.442883
vn 0.539361 0.463850 -0.702804
vn -0.262328 0.902409 -0.341822
vn -0.539361 -0.463850 -0.702804
vn 0.262328 -0.902409 -0.341822
vn 0.227856 0.772730 0.592427
vn -0.683377 0.579385 0.444195
vn -0.227856 -0.772730 0.592427
vn 0.683377 -0.579385 0.444195
vn 0.541625 0.459204 -0.704112
vn -0.265457 0.900246 -0.345094
vn -0.541625 -0.459204 -0.704112
vn 0.265457 -0.900246 -0.345094
usemtl Crate_Surface
f 1/1/1 2/2/2 3/3/3
f 1/1/1 3/3/3 4/4/4
f 5/5/5 7/7/7 6/6/6
f 5/5/5 8/8/8 7/7/7
f 1/1/1 5/5/5 6/6/6
f 1/1/1 6/6/6 2/2/2
f 2/2/2 6/6/6 7/7/7
f 2/2/2 7/7/7 3/3/3
f 3/3/3 7/7/7 8/8/8
f 3/3/3 8/8/8 4/4/4
f 4/4/4 8/8/8 5/5/5
f 4/4/4 5/5/5 1/1/1
f 9/9/9 10/10/10 11/11/11
f 9/9/9 11/11/11 12/12/12
f 13/13/13 15/15/15 14/14/14
f 13/13/13 16/16/16 15/15/15
f 9/9/9 13/13/13 14/14/14
f 9/9/9 14/14/14 10/10/10
f 10/10/10 14/14/14 15/15/15
f 10/10/10 15/15/15 11/11/11
f 11/11/11 15/15/15 16/16/16
f 11/11/11 16/16/16 12/12/12
f 12/12/12 16/16/16 13/13/13
f 12/12/12 13/13/13 9/9/9
f 17/17/17 18/18/18 19/19/19
f 17/17/17 19/19/19 20/20/20
f 21/21/21 23/23/23 22/22/22
f 21/21/21 24/24/24 23/23/23
f 17/17/17 21/21/21 22/22/22
f 17/17/17 22/22/22 18/18/18
f 18/18/18 22/22/22 23/23/23
f 18/18/18 23/23/23 19/19/19
f 19/19/19 23/23/23 24/24/24
f 19/19/19 24/24/24 20/20/20
f 20/20/20 24/24/24 21/21/21
f 20/20/20 21/21/21 17/17/17
