# UART-005 deterministic mobile LOD authored source
mtllib SM_Prop_CairoCrateStack_A_MobileLOD.mtl
o SM_Prop_CairoCrateStack_A_LOD2
s 1
v -0.46000 0.01000 -0.35000
v 0.46000 0.01000 -0.35000
v 0.46000 0.59000 -0.35000
v -0.46000 0.59000 -0.35000
v -0.46000 0.01000 0.35000
v 0.46000 0.01000 0.35000
v 0.46000 0.59000 0.35000
v -0.46000 0.59000 0.35000
v -0.33000 0.61000 -0.30000
v 0.49000 0.61000 -0.30000
v 0.49000 1.15000 -0.30000
v -0.33000 1.15000 -0.30000
v -0.33000 0.61000 0.34000
v 0.49000 0.61000 0.34000
v 0.49000 1.15000 0.34000
v -0.33000 1.15000 0.34000
vt 0.000000 0.000000
vt 0.000000 0.968421
vt 0.508772 0.968421
vt 0.508772 0.000000
vt 0.000000 0.000000
vt 0.000000 0.968421
vt 0.508772 0.968421
vt 0.508772 0.000000
vt 0.526316 0.136842
vt 0.526316 1.000000
vt 1.000000 1.000000
vt 1.000000 0.136842
vt 0.526316 0.136842
vt 0.526316 1.000000
vt 1.000000 1.000000
vt 1.000000 0.136842
vn 0.235875 0.748294 0.620015
vn -0.696589 0.552467 0.457759
vn -0.235875 -0.748294 0.620015
vn 0.696589 -0.552467 0.457759
vn 0.545840 0.432908 -0.717390
vn -0.279601 0.887009 -0.367475
vn -0.545840 -0.432908 -0.717390
vn 0.279601 -0.887009 -0.367475
vn 0.244048 0.741182 0.625372
vn -0.709438 0.538648 0.454484
vn -0.244048 -0.741182 0.625372
vn 0.709438 -0.538648 0.454484
vn 0.557445 0.423245 -0.714226
vn -0.290310 0.881683 -0.371960
vn -0.557445 -0.423245 -0.714226
vn 0.290310 -0.881683 -0.371960
usemtl Crate_Surface
f 1/1/1 2/2/2 3/3/3
f 1/1/1 3/3/3 4/4/4
f 5/5/5 7/7/7 6/6/6
f 5/5/5 8/8/8 7/7/7
f 1/1/1 5/5/5 6/6/6
f 1/1/1 6/6/6 2/2/2
f 2/2/2 6/6/6 7/7/7
f 2/2/2 7/7/7 3/3/3
f 3/3/3 7/7/7 8/8/8
f 3/3/3 8/8/8 4/4/4
f 4/4/4 8/8/8 5/5/5
f 4/4/4 5/5/5 1/1/1
f 9/9/9 10/10/10 11/11/11
f 9/9/9 11/11/11 12/12/12
f 13/13/13 15/15/15 14/14/14
f 13/13/13 16/16/16 15/15/15
f 9/9/9 13/13/13 14/14/14
f 9/9/9 14/14/14 10/10/10
f 10/10/10 14/14/14 15/15/15
f 10/10/10 15/15/15 11/11/11
f 11/11/11 15/15/15 16/16/16
f 11/11/11 16/16/16 12/12/12
f 12/12/12 16/16/16 13/13/13
f 12/12/12 13/13/13 9/9/9
