# UART-005 deterministic mobile LOD authored source
mtllib SM_Prop_CairoCafeTable_A_MobileLOD.mtl
o SM_Prop_CairoCafeTable_A_LOD2
s 1
v 0.46000 0.00000 0.00000
v 0.46000 0.08000 0.00000
v 0.32527 0.00000 0.32527
v 0.32527 0.08000 0.32527
v 0.00000 0.00000 0.46000
v 0.00000 0.08000 0.46000
v -0.32527 0.00000 0.32527
v -0.32527 0.08000 0.32527
v -0.46000 0.00000 0.00000
v -0.46000 0.08000 0.00000
v -0.32527 0.00000 -0.32527
v -0.32527 0.08000 -0.32527
v -0.00000 0.00000 -0.46000
v -0.00000 0.08000 -0.46000
v 0.32527 0.00000 -0.32527
v 0.32527 0.08000 -0.32527
v 0.00000 0.00000 0.00000
v 0.00000 0.08000 0.00000
v 0.08000 0.06000 0.00000
v 0.08000 0.76000 0.00000
v 0.05657 0.06000 0.05657
v 0.05657 0.76000 0.05657
v 0.00000 0.06000 0.08000
v 0.00000 0.76000 0.08000
v -0.05657 0.06000 0.05657
v -0.05657 0.76000 0.05657
v -0.08000 0.06000 0.00000
v -0.08000 0.76000 0.00000
v -0.05657 0.06000 -0.05657
v -0.05657 0.76000 -0.05657
v -0.00000 0.06000 -0.08000
v -0.00000 0.76000 -0.08000
v 0.05657 0.06000 -0.05657
v 0.05657 0.76000 -0.05657
v 0.00000 0.06000 0.00000
v 0.00000 0.76000 0.00000
v 0.56000 0.70000 0.00000
v 0.56000 0.82000 0.00000
v 0.39598 0.70000 0.39598
v 0.39598 0.82000 0.39598
v 0.00000 0.70000 0.56000
v 0.00000 0.82000 0.56000
v -0.39598 0.70000 0.39598
v -0.39598 0.82000 0.39598
v -0.56000 0.70000 0.00000
v -0.56000 0.82000 0.00000
v -0.39598 0.70000 -0.39598
v -0.39598 0.82000 -0.39598
v -0.00000 0.70000 -0.56000
v -0.00000 0.82000 -0.56000
v 0.39598 0.70000 -0.39598
v 0.39598 0.82000 -0.39598
v 0.00000 0.70000 0.00000
v 0.00000 0.82000 0.00000
vt 0.910714 0.500000
vt 0.910714 0.500000
vt 0.790419 0.790419
vt 0.790419 0.790419
vt 0.500000 0.910714
vt 0.500000 0.910714
vt 0.209581 0.790419
vt 0.209581 0.790419
vt 0.089286 0.500000
vt 0.089286 0.500000
vt 0.209581 0.209581
vt 0.209581 0.209581
vt 0.500000 0.089286
vt 0.500000 0.089286
vt 0.790419 0.209581
vt 0.790419 0.209581
vt 0.500000 0.500000
vt 0.500000 0.500000
vt 0.571429 0.500000
vt 0.571429 0.500000
vt 0.550508 0.550508
vt 0.550508 0.550508
vt 0.500000 0.571429
vt 0.500000 0.571429
vt 0.449492 0.550508
vt 0.449492 0.550508
vt 0.428571 0.500000
vt 0.428571 0.500000
vt 0.449492 0.449492
vt 0.449492 0.449492
vt 0.500000 0.428571
vt 0.500000 0.428571
vt 0.550508 0.449492
vt 0.550508 0.449492
vt 0.500000 0.500000
vt 0.500000 0.500000
vt 1.000000 0.500000
vt 1.000000 0.500000
vt 0.853553 0.853553
vt 0.853553 0.853553
vt 0.500000 1.000000
vt 0.500000 1.000000
vt 0.146447 0.853553
vt 0.146447 0.853553
vt 0.000000 0.500000
vt 0.000000 0.500000
vt 0.146447 0.146447
vt 0.146447 0.146447
vt 0.500000 0.000000
vt 0.500000 0.000000
vt 0.853553 0.146447
vt 0.853553 0.146447
vt 0.500000 0.500000
vt 0.500000 0.500000
vn -0.252269 0.967030 -0.034831
vn -0.252269 -0.967030 0.034831
vn -0.153752 0.967030 -0.203010
vn -0.203010 -0.967030 -0.153752
vn 0.034831 0.967030 -0.252269
vn -0.034831 -0.967030 -0.252269
vn 0.203010 0.967030 -0.153752
vn 0.153752 -0.967030 -0.203010
vn 0.252269 0.967030 0.034831
vn 0.252269 -0.967030 -0.034831
vn 0.153752 0.967030 0.203010
vn 0.203010 -0.967030 0.153752
vn -0.034831 0.967030 0.252269
vn 0.034831 -0.967030 0.252269
vn -0.203010 0.967030 0.153752
vn -0.153752 -0.967030 0.203010
vn 0.000000 1.000000 0.000000
vn 0.000000 -1.000000 0.000000
vn -0.987793 0.075260 -0.136386
vn -0.987793 -0.075260 0.136386
vn -0.602036 0.075260 -0.794914
vn -0.794914 -0.075260 -0.602036
vn 0.136386 0.075260 -0.987793
vn -0.136386 -0.075260 -0.987793
vn 0.794914 0.075260 -0.602036
vn 0.602036 -0.075260 -0.794914
vn 0.987793 0.075260 0.136386
vn 0.987793 -0.075260 -0.136386
vn 0.602036 0.075260 0.794914
vn 0.794914 -0.075260 0.602036
vn -0.136386 0.075260 0.987793
vn 0.136386 -0.075260 0.987793
vn -0.794914 0.075260 0.602036
vn -0.602036 -0.075260 0.794914
vn 0.000000 1.000000 0.000000
vn 0.000000 -1.000000 0.000000
vn -0.305736 0.951180 -0.042213
vn -0.305736 -0.951180 0.042213
vn -0.186339 0.951180 -0.246038
vn -0.246038 -0.951180 -0.186339
vn 0.042213 0.951180 -0.305736
vn -0.042213 -0.951180 -0.305736
vn 0.246038 0.951180 -0.186339
vn 0.186339 -0.951180 -0.246038
vn 0.305736 0.951180 0.042213
vn 0.305736 -0.951180 -0.042213
vn 0.186339 0.951180 0.246038
vn 0.246038 -0.951180 0.186339
vn -0.042213 0.951180 0.305736
vn 0.042213 -0.951180 0.305736
vn -0.246038 0.951180 0.186339
vn -0.186339 -0.951180 0.246038
vn 0.000000 1.000000 0.000000
vn 0.000000 -1.000000 0.000000
usemtl Cafe_Surface
f 1/1/1 3/3/3 4/4/4
f 1/1/1 4/4/4 2/2/2
f 17/17/17 3/3/3 1/1/1
f 18/18/18 2/2/2 4/4/4
f 3/3/3 5/5/5 6/6/6
f 3/3/3 6/6/6 4/4/4
f 17/17/17 5/5/5 3/3/3
f 18/18/18 4/4/4 6/6/6
f 5/5/5 7/7/7 8/8/8
f 5/5/5 8/8/8 6/6/6
f 17/17/17 7/7/7 5/5/5
f 18/18/18 6/6/6 8/8/8
f 7/7/7 9/9/9 10/10/10
f 7/7/7 10/10/10 8/8/8
f 17/17/17 9/9/9 7/7/7
f 18/18/18 8/8/8 10/10/10
f 9/9/9 11/11/11 12/12/12
f 9/9/9 12/12/12 10/10/10
f 17/17/17 11/11/11 9/9/9
f 18/18/18 10/10/10 12/12/12
f 11/11/11 13/13/13 14/14/14
f 11/11/11 14/14/14 12/12/12
f 17/17/17 13/13/13 11/11/11
f 18/18/18 12/12/12 14/14/14
f 13/13/13 15/15/15 16/16/16
f 13/13/13 16/16/16 14/14/14
f 17/17/17 15/15/15 13/13/13
f 18/18/18 14/14/14 16/16/16
f 15/15/15 1/1/1 2/2/2
f 15/15/15 2/2/2 16/16/16
f 17/17/17 1/1/1 15/15/15
f 18/18/18 16/16/16 2/2/2
f 19/19/19 21/21/21 22/22/22
f 19/19/19 22/22/22 20/20/20
f 35/35/35 21/21/21 19/19/19
f 36/36/36 20/20/20 22/22/22
f 21/21/21 23/23/23 24/24/24
f 21/21/21 24/24/24 22/22/22
f 35/35/35 23/23/23 21/21/21
f 36/36/36 22/22/22 24/24/24
f 23/23/23 25/25/25 26/26/26
f 23/23/23 26/26/26 24/24/24
f 35/35/35 25/25/25 23/23/23
f 36/36/36 24/24/24 26/26/26
f 25/25/25 27/27/27 28/28/28
f 25/25/25 28/28/28 26/26/26
f 35/35/35 27/27/27 25/25/25
f 36/36/36 26/26/26 28/28/28
f 27/27/27 29/29/29 30/30/30
f 27/27/27 30/30/30 28/28/28
f 35/35/35 29/29/29 27/27/27
f 36/36/36 28/28/28 30/30/30
f 29/29/29 31/31/31 32/32/32
f 29/29/29 32/32/32 30/30/30
f 35/35/35 31/31/31 29/29/29
f 36/36/36 30/30/30 32/32/32
f 31/31/31 33/33/33 34/34/34
f 31/31/31 34/34/34 32/32/32
f 35/35/35 33/33/33 31/31/31
f 36/36/36 32/32/32 34/34/34
f 33/33/33 19/19/19 20/20/20
f 33/33/33 20/20/20 34/34/34
f 35/35/35 19/19/19 33/33/33
f 36/36/36 34/34/34 20/20/20
f 37/37/37 39/39/39 40/40/40
f 37/37/37 40/40/40 38/38/38
f 53/53/53 39/39/39 37/37/37
f 54/54/54 38/38/38 40/40/40
f 39/39/39 41/41/41 42/42/42
f 39/39/39 42/42/42 40/40/40
f 53/53/53 41/41/41 39/39/39
f 54/54/54 40/40/40 42/42/42
f 41/41/41 43/43/43 44/44/44
f 41/41/41 44/44/44 42/42/42
f 53/53/53 43/43/43 41/41/41
f 54/54/54 42/42/42 44/44/44
f 43/43/43 45/45/45 46/46/46
f 43/43/43 46/46/46 44/44/44
f 53/53/53 45/45/45 43/43/43
f 54/54/54 44/44/44 46/46/46
f 45/45/45 47/47/47 48/48/48
f 45/45/45 48/48/48 46/46/46
f 53/53/53 47/47/47 45/45/45
f 54/54/54 46/46/46 48/48/48
f 47/47/47 49/49/49 50/50/50
f 47/47/47 50/50/50 48/48/48
f 53/53/53 49/49/49 47/47/47
f 54/54/54 48/48/48 50/50/50
f 49/49/49 51/51/51 52/52/52
f 49/49/49 52/52/52 50/50/50
f 53/53/53 51/51/51 49/49/49
f 54/54/54 50/50/50 52/52/52
f 51/51/51 37/37/37 38/38/38
f 51/51/51 38/38/38 52/52/52
f 53/53/53 37/37/37 51/51/51
f 54/54/54 52/52/52 38/38/38
