# UART-005 deterministic mobile LOD authored source
mtllib SM_Prop_CairoCafeTable_A_MobileLOD.mtl
o SM_Prop_CairoCafeTable_A_LOD1
s 1
v 0.46000 0.00000 0.00000
v 0.46000 0.08000 0.00000
v 0.37215 0.00000 0.27038
v 0.37215 0.08000 0.27038
v 0.14215 0.00000 0.43749
v 0.14215 0.08000 0.43749
v -0.14215 0.00000 0.43749
v -0.14215 0.08000 0.43749
v -0.37215 0.00000 0.27038
v -0.37215 0.08000 0.27038
v -0.46000 0.00000 0.00000
v -0.46000 0.08000 0.00000
v -0.37215 0.00000 -0.27038
v -0.37215 0.08000 -0.27038
v -0.14215 0.00000 -0.43749
v -0.14215 0.08000 -0.43749
v 0.14215 0.00000 -0.43749
v 0.14215 0.08000 -0.43749
v 0.37215 0.00000 -0.27038
v 0.37215 0.08000 -0.27038
v 0.00000 0.00000 0.00000
v 0.00000 0.08000 0.00000
v 0.08000 0.06000 0.00000
v 0.08000 0.76000 0.00000
v 0.05657 0.06000 0.05657
v 0.05657 0.76000 0.05657
v 0.00000 0.06000 0.08000
v 0.00000 0.76000 0.08000
v -0.05657 0.06000 0.05657
v -0.05657 0.76000 0.05657
v -0.08000 0.06000 0.00000
v -0.08000 0.76000 0.00000
v -0.05657 0.06000 -0.05657
v -0.05657 0.76000 -0.05657
v -0.00000 0.06000 -0.08000
v -0.00000 0.76000 -0.08000
v 0.05657 0.06000 -0.05657
v 0.05657 0.76000 -0.05657
v 0.00000 0.06000 0.00000
v 0.00000 0.76000 0.00000
v 0.56000 0.70000 0.00000
v 0.56000 0.82000 0.00000
v 0.48497 0.70000 0.28000
v 0.48497 0.82000 0.28000
v 0.28000 0.70000 0.48497
v 0.28000 0.82000 0.48497
v 0.00000 0.70000 0.56000
v 0.00000 0.82000 0.56000
v -0.28000 0.70000 0.48497
v -0.28000 0.82000 0.48497
v -0.48497 0.70000 0.28000
v -0.48497 0.82000 0.28000
v -0.56000 0.70000 0.00000
v -0.56000 0.82000 0.00000
v -0.48497 0.70000 -0.28000
v -0.48497 0.82000 -0.28000
v -0.28000 0.70000 -0.48497
v -0.28000 0.82000 -0.48497
v -0.00000 0.70000 -0.56000
v -0.00000 0.82000 -0.56000
v 0.28000 0.70000 -0.48497
v 0.28000 0.82000 -0.48497
v 0.48497 0.70000 -0.28000
v 0.48497 0.82000 -0.28000
v 0.00000 0.70000 0.00000
v 0.00000 0.82000 0.00000
v -0.70000 0.00000 0.00000
v -0.70000 0.46000 0.00000
v -0.71757 0.00000 0.04243
v -0.71757 0.46000 0.04243
v -0.76000 0.00000 0.06000
v -0.76000 0.46000 0.06000
v -0.80243 0.00000 0.04243
v -0.80243 0.46000 0.04243
v -0.82000 0.00000 0.00000
v -0.82000 0.46000 0.00000
v -0.80243 0.00000 -0.04243
v -0.80243 0.46000 -0.04243
v -0.76000 0.00000 -0.06000
v -0.76000 0.46000 -0.06000
v -0.71757 0.00000 -0.04243
v -0.71757 0.46000 -0.04243
v -0.76000 0.00000 0.00000
v -0.76000 0.46000 0.00000
v -0.48000 0.42000 0.00000
v -0.48000 0.51000 0.00000
v -0.53348 0.42000 0.16458
v -0.53348 0.51000 0.16458
v -0.67348 0.42000 0.26630
v -0.67348 0.51000 0.26630
v -0.84652 0.42000 0.26630
v -0.84652 0.51000 0.26630
v -0.98652 0.42000 0.16458
v -0.98652 0.51000 0.16458
v -1.04000 0.42000 0.00000
v -1.04000 0.51000 0.00000
v -0.98652 0.42000 -0.16458
v -0.98652 0.51000 -0.16458
v -0.84652 0.42000 -0.26630
v -0.84652 0.51000 -0.26630
v -0.67348 0.42000 -0.26630
v -0.67348 0.51000 -0.26630
v -0.53348 0.42000 -0.16458
v -0.53348 0.51000 -0.16458
v -0.76000 0.42000 0.00000
v -0.76000 0.51000 0.00000
v 0.82000 0.00000 0.00000
v 0.82000 0.46000 0.00000
v 0.80243 0.00000 0.04243
v 0.80243 0.46000 0.04243
v 0.76000 0.00000 0.06000
v 0.76000 0.46000 0.06000
v 0.71757 0.00000 0.04243
v 0.71757 0.46000 0.04243
v 0.70000 0.00000 0.00000
v 0.70000 0.46000 0.00000
v 0.71757 0.00000 -0.04243
v 0.71757 0.46000 -0.04243
v 0.76000 0.00000 -0.06000
v 0.76000 0.46000 -0.06000
v 0.80243 0.00000 -0.04243
v 0.80243 0.46000 -0.04243
v 0.76000 0.00000 0.00000
v 0.76000 0.46000 0.00000
v 1.04000 0.42000 0.00000
v 1.04000 0.51000 0.00000
v 0.98652 0.42000 0.16458
v 0.98652 0.51000 0.16458
v 0.84652 0.42000 0.26630
v 0.84652 0.51000 0.26630
v 0.67348 0.42000 0.26630
v 0.67348 0.51000 0.26630
v 0.53348 0.42000 0.16458
v 0.53348 0.51000 0.16458
v 0.48000 0.42000 0.00000
v 0.48000 0.51000 0.00000
v 0.53348 0.42000 -0.16458
v 0.53348 0.51000 -0.16458
v 0.67348 0.42000 -0.26630
v 0.67348 0.51000 -0.26630
v 0.84652 0.42000 -0.26630
v 0.84652 0.51000 -0.26630
v 0.98652 0.42000 -0.16458
v 0.98652 0.51000 -0.16458
v 0.76000 0.42000 0.00000
v 0.76000 0.51000 0.00000
vt 0.721154 0.500000
vt 0.721154 0.500000
vt 0.678917 0.741412
vt 0.678917 0.741412
vt 0.568340 0.890612
vt 0.568340 0.890612
vt 0.431660 0.890612
vt 0.431660 0.890612
vt 0.321083 0.741412
vt 0.321083 0.741412
vt 0.278846 0.500000
vt 0.278846 0.500000
vt 0.321083 0.258588
vt 0.321083 0.258588
vt 0.431660 0.109388
vt 0.431660 0.109388
vt 0.568340 0.109388
vt 0.568340 0.109388
vt 0.678917 0.258588
vt 0.678917 0.258588
vt 0.500000 0.500000
vt 0.500000 0.500000
vt 0.538462 0.500000
vt 0.538462 0.500000
vt 0.527196 0.550508
vt 0.527196 0.550508
vt 0.500000 0.571429
vt 0.500000 0.571429
vt 0.472804 0.550508
vt 0.472804 0.550508
vt 0.461538 0.500000
vt 0.461538 0.500000
vt 0.472804 0.449492
vt 0.472804 0.449492
vt 0.500000 0.428571
vt 0.500000 0.428571
vt 0.527196 0.449492
vt 0.527196 0.449492
vt 0.500000 0.500000
vt 0.500000 0.500000
vt 0.769231 0.500000
vt 0.769231 0.500000
vt 0.733161 0.750000
vt 0.733161 0.750000
vt 0.634615 0.933013
vt 0.634615 0.933013
vt 0.500000 1.000000
vt 0.500000 1.000000
vt 0.365385 0.933013
vt 0.365385 0.933013
vt 0.266839 0.750000
vt 0.266839 0.750000
vt 0.230769 0.500000
vt 0.230769 0.500000
vt 0.266839 0.250000
vt 0.266839 0.250000
vt 0.365385 0.066987
vt 0.365385 0.066987
vt 0.500000 0.000000
vt 0.500000 0.000000
vt 0.634615 0.066987
vt 0.634615 0.066987
vt 0.733161 0.250000
vt 0.733161 0.250000
vt 0.500000 0.500000
vt 0.500000 0.500000
vt 0.163462 0.500000
vt 0.163462 0.500000
vt 0.155013 0.537881
vt 0.155013 0.537881
vt 0.134615 0.553571
vt 0.134615 0.553571
vt 0.114218 0.537881
vt 0.114218 0.537881
vt 0.105769 0.500000
vt 0.105769 0.500000
vt 0.114218 0.462119
vt 0.114218 0.462119
vt 0.134615 0.446429
vt 0.134615 0.446429
vt 0.155013 0.462119
vt 0.155013 0.462119
vt 0.134615 0.500000
vt 0.134615 0.500000
vt 0.269231 0.500000
vt 0.269231 0.500000
vt 0.243522 0.646946
vt 0.243522 0.646946
vt 0.176214 0.737764
vt 0.176214 0.737764
vt 0.093017 0.737764
vt 0.093017 0.737764
vt 0.025709 0.646946
vt 0.025709 0.646946
vt 0.000000 0.500000
vt 0.000000 0.500000
vt 0.025709 0.353054
vt 0.025709 0.353054
vt 0.093017 0.262236
vt 0.093017 0.262236
vt 0.176214 0.262236
vt 0.176214 0.262236
vt 0.243522 0.353054
vt 0.243522 0.353054
vt 0.134615 0.500000
vt 0.134615 0.500000
vt 0.894231 0.500000
vt 0.894231 0.500000
vt 0.885782 0.537881
vt 0.885782 0.537881
vt 0.865385 0.553571
vt 0.865385 0.553571
vt 0.844987 0.537881
vt 0.844987 0.537881
vt 0.836538 0.500000
vt 0.836538 0.500000
vt 0.844987 0.462119
vt 0.844987 0.462119
vt 0.865385 0.446429
vt 0.865385 0.446429
vt 0.885782 0.462119
vt 0.885782 0.462119
vt 0.865385 0.500000
vt 0.865385 0.500000
vt 1.000000 0.500000
vt 1.000000 0.500000
vt 0.974291 0.646946
vt 0.974291 0.646946
vt 0.906983 0.737764
vt 0.906983 0.737764
vt 0.823786 0.737764
vt 0.823786 0.737764
vt 0.756478 0.646946
vt 0.756478 0.646946
vt 0.730769 0.500000
vt 0.730769 0.500000
vt 0.756478 0.353054
vt 0.756478 0.353054
vt 0.823786 0.262236
vt 0.823786 0.262236
vt 0.906983 0.262236
vt 0.906983 0.262236
vt 0.974291 0.353054
vt 0.974291 0.353054
vt 0.865385 0.500000
vt 0.865385 0.500000
vn -0.252328 0.967256 -0.027329
vn -0.252328 -0.967256 0.027329
vn -0.188074 0.967256 -0.170424
vn -0.220201 -0.967256 -0.126205
vn -0.051982 0.967256 -0.248423
vn -0.103965 -0.967256 -0.231533
vn 0.103965 0.967256 -0.231533
vn 0.051982 -0.967256 -0.248423
vn 0.220201 0.967256 -0.126205
vn 0.188074 -0.967256 -0.170424
vn 0.252328 0.967256 0.027329
vn 0.252328 -0.967256 -0.027329
vn 0.188074 0.967256 0.170424
vn 0.220201 -0.967256 0.126205
vn 0.051982 0.967256 0.248423
vn 0.103965 -0.967256 0.231533
vn -0.103965 0.967256 0.231533
vn -0.051982 -0.967256 0.248423
vn -0.220201 0.967256 0.126205
vn -0.188074 -0.967256 0.170424
vn 0.000000 1.000000 0.000000
vn 0.000000 -1.000000 0.000000
vn -0.987793 0.075260 -0.136386
vn -0.987793 -0.075260 0.136386
vn -0.602036 0.075260 -0.794914
vn -0.794914 -0.075260 -0.602036
vn 0.136386 0.075260 -0.987793
vn -0.136386 -0.075260 -0.987793
vn 0.794914 0.075260 -0.602036
vn 0.602036 -0.075260 -0.794914
vn 0.987793 0.075260 0.136386
vn 0.987793 -0.075260 -0.136386
vn 0.602036 0.075260 0.794914
vn 0.794914 -0.075260 0.602036
vn -0.136386 0.075260 0.987793
vn 0.136386 -0.075260 0.987793
vn -0.794914 0.075260 0.602036
vn -0.602036 -0.075260 0.794914
vn 0.000000 1.000000 0.000000
vn 0.000000 -1.000000 0.000000
vn -0.305895 0.951673 -0.027321
vn -0.305895 -0.951673 0.027321
vn -0.251252 0.951673 -0.176609
vn -0.278574 -0.951673 -0.129286
vn -0.129286 0.951673 -0.278574
vn -0.176609 -0.951673 -0.251252
vn 0.027321 0.951673 -0.305895
vn -0.027321 -0.951673 -0.305895
vn 0.176609 0.951673 -0.251252
vn 0.129286 -0.951673 -0.278574
vn 0.278574 0.951673 -0.129286
vn 0.251252 -0.951673 -0.176609
vn 0.305895 0.951673 0.027321
vn 0.305895 -0.951673 -0.027321
vn 0.251252 0.951673 0.176609
vn 0.278574 -0.951673 0.129286
vn 0.129286 0.951673 0.278574
vn 0.176609 -0.951673 0.251252
vn -0.027321 0.951673 0.305895
vn 0.027321 -0.951673 0.305895
vn -0.176609 0.951673 0.251252
vn -0.129286 -0.951673 0.278574
vn -0.278574 0.951673 0.129286
vn -0.251252 -0.951673 0.176609
vn 0.000000 1.000000 0.000000
vn 0.000000 -1.000000 0.000000
vn -0.986948 0.085822 -0.136269
vn -0.986948 -0.085822 0.136269
vn -0.601521 0.085822 -0.794234
vn -0.794234 -0.085822 -0.601521
vn 0.136269 0.085822 -0.986948
vn -0.136269 -0.085822 -0.986948
vn 0.794234 0.085822 -0.601521
vn 0.601521 -0.085822 -0.794234
vn 0.986948 0.085822 0.136269
vn 0.986948 -0.085822 -0.136269
vn 0.601521 0.085822 0.794234
vn 0.794234 -0.085822 0.601521
vn -0.136269 0.085822 0.986948
vn 0.136269 -0.085822 0.986948
vn -0.794234 0.085822 0.601521
vn -0.601521 -0.085822 0.794234
vn 0.000000 1.000000 0.000000
vn 0.000000 -1.000000 0.000000
vn -0.433820 0.899774 -0.046986
vn -0.433820 -0.899774 0.046986
vn -0.323350 0.899774 -0.293005
vn -0.378585 -0.899774 -0.216981
vn -0.089372 0.899774 -0.427106
vn -0.178743 -0.899774 -0.398068
vn 0.178743 0.899774 -0.398068
vn 0.089372 -0.899774 -0.427106
vn 0.378585 0.899774 -0.216981
vn 0.323350 -0.899774 -0.293005
vn 0.433820 0.899774 0.046986
vn 0.433820 -0.899774 -0.046986
vn 0.323350 0.899774 0.293005
vn 0.378585 -0.899774 0.216981
vn 0.089372 0.899774 0.427106
vn 0.178743 -0.899774 0.398068
vn -0.178743 0.899774 0.398068
vn -0.089372 -0.899774 0.427106
vn -0.378585 0.899774 0.216981
vn -0.323350 -0.899774 0.293005
vn 0.000000 1.000000 0.000000
vn 0.000000 -1.000000 0.000000
vn -0.986948 0.085822 -0.136269
vn -0.986948 -0.085822 0.136269
vn -0.601521 0.085822 -0.794234
vn -0.794234 -0.085822 -0.601521
vn 0.136269 0.085822 -0.986948
vn -0.136269 -0.085822 -0.986948
vn 0.794234 0.085822 -0.601521
vn 0.601521 -0.085822 -0.794234
vn 0.986948 0.085822 0.136269
vn 0.986948 -0.085822 -0.136269
vn 0.601521 0.085822 0.794234
vn 0.794234 -0.085822 0.601521
vn -0.136269 0.085822 0.986948
vn 0.136269 -0.085822 0.986948
vn -0.794234 0.085822 0.601521
vn -0.601521 -0.085822 0.794234
vn 0.000000 1.000000 0.000000
vn 0.000000 -1.000000 0.000000
vn -0.433820 0.899774 -0.046986
vn -0.433820 -0.899774 0.046986
vn -0.323350 0.899774 -0.293005
vn -0.378585 -0.899774 -0.216981
vn -0.089372 0.899774 -0.427106
vn -0.178743 -0.899774 -0.398068
vn 0.178743 0.899774 -0.398068
vn 0.089372 -0.899774 -0.427106
vn 0.378585 0.899774 -0.216981
vn 0.323350 -0.899774 -0.293005
vn 0.433820 0.899774 0.046986
vn 0.433820 -0.899774 -0.046986
vn 0.323350 0.899774 0.293005
vn 0.378585 -0.899774 0.216981
vn 0.089372 0.899774 0.427106
vn 0.178743 -0.899774 0.398068
vn -0.178743 0.899774 0.398068
vn -0.089372 -0.899774 0.427106
vn -0.378585 0.899774 0.216981
vn -0.323350 -0.899774 0.293005
vn 0.000000 1.000000 0.000000
vn 0.000000 -1.000000 0.000000
usemtl Cafe_Surface
f 1/1/1 3/3/3 4/4/4
f 1/1/1 4/4/4 2/2/2
f 21/21/21 3/3/3 1/1/1
f 22/22/22 2/2/2 4/4/4
f 3/3/3 5/5/5 6/6/6
f 3/3/3 6/6/6 4/4/4
f 21/21/21 5/5/5 3/3/3
f 22/22/22 4/4/4 6/6/6
f 5/5/5 7/7/7 8/8/8
f 5/5/5 8/8/8 6/6/6
f 21/21/21 7/7/7 5/5/5
f 22/22/22 6/6/6 8/8/8
f 7/7/7 9/9/9 10/10/10
f 7/7/7 10/10/10 8/8/8
f 21/21/21 9/9/9 7/7/7
f 22/22/22 8/8/8 10/10/10
f 9/9/9 11/11/11 12/12/12
f 9/9/9 12/12/12 10/10/10
f 21/21/21 11/11/11 9/9/9
f 22/22/22 10/10/10 12/12/12
f 11/11/11 13/13/13 14/14/14
f 11/11/11 14/14/14 12/12/12
f 21/21/21 13/13/13 11/11/11
f 22/22/22 12/12/12 14/14/14
f 13/13/13 15/15/15 16/16/16
f 13/13/13 16/16/16 14/14/14
f 21/21/21 15/15/15 13/13/13
f 22/22/22 14/14/14 16/16/16
f 15/15/15 17/17/17 18/18/18
f 15/15/15 18/18/18 16/16/16
f 21/21/21 17/17/17 15/15/15
f 22/22/22 16/16/16 18/18/18
f 17/17/17 19/19/19 20/20/20
f 17/17/17 20/20/20 18/18/18
f 21/21/21 19/19/19 17/17/17
f 22/22/22 18/18/18 20/20/20
f 19/19/19 1/1/1 2/2/2
f 19/19/19 2/2/2 20/20/20
f 21/21/21 1/1/1 19/19/19
f 22/22/22 20/20/20 2/2/2
f 23/23/23 25/25/25 26/26/26
f 23/23/23 26/26/26 24/24/24
f 39/39/39 25/25/25 23/23/23
f 40/40/40 24/24/24 26/26/26
f 25/25/25 27/27/27 28/28/28
f 25/25/25 28/28/28 26/26/26
f 39/39/39 27/27/27 25/25/25
f 40/40/40 26/26/26 28/28/28
f 27/27/27 29/29/29 30/30/30
f 27/27/27 30/30/30 28/28/28
f 39/39/39 29/29/29 27/27/27
f 40/40/40 28/28/28 30/30/30
f 29/29/29 31/31/31 32/32/32
f 29/29/29 32/32/32 30/30/30
f 39/39/39 31/31/31 29/29/29
f 40/40/40 30/30/30 32/32/32
f 31/31/31 33/33/33 34/34/34
f 31/31/31 34/34/34 32/32/32
f 39/39/39 33/33/33 31/31/31
f 40/40/40 32/32/32 34/34/34
f 33/33/33 35/35/35 36/36/36
f 33/33/33 36/36/36 34/34/34
f 39/39/39 35/35/35 33/33/33
f 40/40/40 34/34/34 36/36/36
f 35/35/35 37/37/37 38/38/38
f 35/35/35 38/38/38 36/36/36
f 39/39/39 37/37/37 35/35/35
f 40/40/40 36/36/36 38/38/38
f 37/37/37 23/23/23 24/24/24
f 37/37/37 24/24/24 38/38/38
f 39/39/39 23/23/23 37/37/37
f 40/40/40 38/38/38 24/24/24
f 41/41/41 43/43/43 44/44/44
f 41/41/41 44/44/44 42/42/42
f 65/65/65 43/43/43 41/41/41
f 66/66/66 42/42/42 44/44/44
f 43/43/43 45/45/45 46/46/46
f 43/43/43 46/46/46 44/44/44
f 65/65/65 45/45/45 43/43/43
f 66/66/66 44/44/44 46/46/46
f 45/45/45 47/47/47 48/48/48
f 45/45/45 48/48/48 46/46/46
f 65/65/65 47/47/47 45/45/45
f 66/66/66 46/46/46 48/48/48
f 47/47/47 49/49/49 50/50/50
f 47/47/47 50/50/50 48/48/48
f 65/65/65 49/49/49 47/47/47
f 66/66/66 48/48/48 50/50/50
f 49/49/49 51/51/51 52/52/52
f 49/49/49 52/52/52 50/50/50
f 65/65/65 51/51/51 49/49/49
f 66/66/66 50/50/50 52/52/52
f 51/51/51 53/53/53 54/54/54
f 51/51/51 54/54/54 52/52/52
f 65/65/65 53/53/53 51/51/51
f 66/66/66 52/52/52 54/54/54
f 53/53/53 55/55/55 56/56/56
f 53/53/53 56/56/56 54/54/54
f 65/65/65 55/55/55 53/53/53
f 66/66/66 54/54/54 56/56/56
f 55/55/55 57/57/57 58/58/58
f 55/55/55 58/58/58 56/56/56
f 65/65/65 57/57/57 55/55/55
f 66/66/66 56/56/56 58/58/58
f 57/57/57 59/59/59 60/60/60
f 57/57/57 60/60/60 58/58/58
f 65/65/65 59/59/59 57/57/57
f 66/66/66 58/58/58 60/60/60
f 59/59/59 61/61/61 62/62/62
f 59/59/59 62/62/62 60/60/60
f 65/65/65 61/61/61 59/59/59
f 66/66/66 60/60/60 62/62/62
f 61/61/61 63/63/63 64/64/64
f 61/61/61 64/64/64 62/62/62
f 65/65/65 63/63/63 61/61/61
f 66/66/66 62/62/62 64/64/64
f 63/63/63 41/41/41 42/42/42
f 63/63/63 42/42/42 64/64/64
f 65/65/65 41/41/41 63/63/63
f 66/66/66 64/64/64 42/42/42
f 67/67/67 69/69/69 70/70/70
f 67/67/67 70/70/70 68/68/68
f 83/83/83 69/69/69 67/67/67
f 84/84/84 68/68/68 70/70/70
f 69/69/69 71/71/71 72/72/72
f 69/69/69 72/72/72 70/70/70
f 83/83/83 71/71/71 69/69/69
f 84/84/84 70/70/70 72/72/72
f 71/71/71 73/73/73 74/74/74
f 71/71/71 74/74/74 72/72/72
f 83/83/83 73/73/73 71/71/71
f 84/84/84 72/72/72 74/74/74
f 73/73/73 75/75/75 76/76/76
f 73/73/73 76/76/76 74/74/74
f 83/83/83 75/75/75 73/73/73
f 84/84/84 74/74/74 76/76/76
f 75/75/75 77/77/77 78/78/78
f 75/75/75 78/78/78 76/76/76
f 83/83/83 77/77/77 75/75/75
f 84/84/84 76/76/76 78/78/78
f 77/77/77 79/79/79 80/80/80
f 77/77/77 80/80/80 78/78/78
f 83/83/83 79/79/79 77/77/77
f 84/84/84 78/78/78 80/80/80
f 79/79/79 81/81/81 82/82/82
f 79/79/79 82/82/82 80/80/80
f 83/83/83 81/81/81 79/79/79
f 84/84/84 80/80/80 82/82/82
f 81/81/81 67/67/67 68/68/68
f 81/81/81 68/68/68 82/82/82
f 83/83/83 67/67/67 81/81/81
f 84/84/84 82/82/82 68/68/68
f 85/85/85 87/87/87 88/88/88
f 85/85/85 88/88/88 86/86/86
f 105/105/105 87/87/87 85/85/85
f 106/106/106 86/86/86 88/88/88
f 87/87/87 89/89/89 90/90/90
f 87/87/87 90/90/90 88/88/88
f 105/105/105 89/89/89 87/87/87
f 106/106/106 88/88/88 90/90/90
f 89/89/89 91/91/91 92/92/92
f 89/89/89 92/92/92 90/90/90
f 105/105/105 91/91/91 89/89/89
f 106/106/106 90/90/90 92/92/92
f 91/91/91 93/93/93 94/94/94
f 91/91/91 94/94/94 92/92/92
f 105/105/105 93/93/93 91/91/91
f 106/106/106 92/92/92 94/94/94
f 93/93/93 95/95/95 96/96/96
f 93/93/93 96/96/96 94/94/94
f 105/105/105 95/95/95 93/93/93
f 106/106/106 94/94/94 96/96/96
f 95/95/95 97/97/97 98/98/98
f 95/95/95 98/98/98 96/96/96
f 105/105/105 97/97/97 95/95/95
f 106/106/106 96/96/96 98/98/98
f 97/97/97 99/99/99 100/100/100
f 97/97/97 100/100/100 98/98/98
f 105/105/105 99/99/99 97/97/97
f 106/106/106 98/98/98 100/100/100
f 99/99/99 101/101/101 102/102/102
f 99/99/99 102/102/102 100/100/100
f 105/105/105 101/101/101 99/99/99
f 106/106/106 100/100/100 102/102/102
f 101/101/101 103/103/103 104/104/104
f 101/101/101 104/104/104 102/102/102
f 105/105/105 103/103/103 101/101/101
f 106/106/106 102/102/102 104/104/104
f 103/103/103 85/85/85 86/86/86
f 103/103/103 86/86/86 104/104/104
f 105/105/105 85/85/85 103/103/103
f 106/106/106 104/104/104 86/86/86
f 107/107/107 109/109/109 110/110/110
f 107/107/107 110/110/110 108/108/108
f 123/123/123 109/109/109 107/107/107
f 124/124/124 108/108/108 110/110/110
f 109/109/109 111/111/111 112/112/112
f 109/109/109 112/112/112 110/110/110
f 123/123/123 111/111/111 109/109/109
f 124/124/124 110/110/110 112/112/112
f 111/111/111 113/113/113 114/114/114
f 111/111/111 114/114/114 112/112/112
f 123/123/123 113/113/113 111/111/111
f 124/124/124 112/112/112 114/114/114
f 113/113/113 115/115/115 116/116/116
f 113/113/113 116/116/116 114/114/114
f 123/123/123 115/115/115 113/113/113
f 124/124/124 114/114/114 116/116/116
f 115/115/115 117/117/117 118/118/118
f 115/115/115 118/118/118 116/116/116
f 123/123/123 117/117/117 115/115/115
f 124/124/124 116/116/116 118/118/118
f 117/117/117 119/119/119 120/120/120
f 117/117/117 120/120/120 118/118/118
f 123/123/123 119/119/119 117/117/117
f 124/124/124 118/118/118 120/120/120
f 119/119/119 121/121/121 122/122/122
f 119/119/119 122/122/122 120/120/120
f 123/123/123 121/121/121 119/119/119
f 124/124/124 120/120/120 122/122/122
f 121/121/121 107/107/107 108/108/108
f 121/121/121 108/108/108 122/122/122
f 123/123/123 107/107/107 121/121/121
f 124/124/124 122/122/122 108/108/108
f 125/125/125 127/127/127 128/128/128
f 125/125/125 128/128/128 126/126/126
f 145/145/145 127/127/127 125/125/125
f 146/146/146 126/126/126 128/128/128
f 127/127/127 129/129/129 130/130/130
f 127/127/127 130/130/130 128/128/128
f 145/145/145 129/129/129 127/127/127
f 146/146/146 128/128/128 130/130/130
f 129/129/129 131/131/131 132/132/132
f 129/129/129 132/132/132 130/130/130
f 145/145/145 131/131/131 129/129/129
f 146/146/146 130/130/130 132/132/132
f 131/131/131 133/133/133 134/134/134
f 131/131/131 134/134/134 132/132/132
f 145/145/145 133/133/133 131/131/131
f 146/146/146 132/132/132 134/134/134
f 133/133/133 135/135/135 136/136/136
f 133/133/133 136/136/136 134/134/134
f 145/145/145 135/135/135 133/133/133
f 146/146/146 134/134/134 136/136/136
f 135/135/135 137/137/137 138/138/138
f 135/135/135 138/138/138 136/136/136
f 145/145/145 137/137/137 135/135/135
f 146/146/146 136/136/136 138/138/138
f 137/137/137 139/139/139 140/140/140
f 137/137/137 140/140/140 138/138/138
f 145/145/145 139/139/139 137/137/137
f 146/146/146 138/138/138 140/140/140
f 139/139/139 141/141/141 142/142/142
f 139/139/139 142/142/142 140/140/140
f 145/145/145 141/141/141 139/139/139
f 146/146/146 140/140/140 142/142/142
f 141/141/141 143/143/143 144/144/144
f 141/141/141 144/144/144 142/142/142
f 145/145/145 143/143/143 141/141/141
f 146/146/146 142/142/142 144/144/144
f 143/143/143 125/125/125 126/126/126
f 143/143/143 126/126/126 144/144/144
f 145/145/145 125/125/125 143/143/143
f 146/146/146 144/144/144 126/126/126
