# UART-006 topology-preserving candidate surface authoring
mtllib SM_Prop_CairoCafeTable_A.mtl
# UART-005 authored roadside clutter source: SM_Prop_CairoCafeTable_A
o SM_Prop_CairoCafeTable_A
s 1
v 0.48000 0.00000 0.00000
v 0.48000 0.08000 0.00000
v 0.44346 0.00000 0.18369
v 0.44346 0.08000 0.18369
v 0.33941 0.00000 0.33941
v 0.33941 0.08000 0.33941
v 0.18369 0.00000 0.44346
v 0.18369 0.08000 0.44346
v 0.00000 0.00000 0.48000
v 0.00000 0.08000 0.48000
v -0.18369 0.00000 0.44346
v -0.18369 0.08000 0.44346
v -0.33941 0.00000 0.33941
v -0.33941 0.08000 0.33941
v -0.44346 0.00000 0.18369
v -0.44346 0.08000 0.18369
v -0.48000 0.00000 0.00000
v -0.48000 0.08000 0.00000
v -0.44346 0.00000 -0.18369
v -0.44346 0.08000 -0.18369
v -0.33941 0.00000 -0.33941
v -0.33941 0.08000 -0.33941
v -0.18369 0.00000 -0.44346
v -0.18369 0.08000 -0.44346
v -0.00000 0.00000 -0.48000
v -0.00000 0.08000 -0.48000
v 0.18369 0.00000 -0.44346
v 0.18369 0.08000 -0.44346
v 0.33941 0.00000 -0.33941
v 0.33941 0.08000 -0.33941
v 0.44346 0.00000 -0.18369
v 0.44346 0.08000 -0.18369
v 0.00000 0.00000 0.00000
v 0.00000 0.08000 0.00000
v 0.09000 0.06000 0.00000
v 0.09000 0.74000 0.00000
v 0.07794 0.06000 0.04500
v 0.07794 0.74000 0.04500
v 0.04500 0.06000 0.07794
v 0.04500 0.74000 0.07794
v 0.00000 0.06000 0.09000
v 0.00000 0.74000 0.09000
v -0.04500 0.06000 0.07794
v -0.04500 0.74000 0.07794
v -0.07794 0.06000 0.04500
v -0.07794 0.74000 0.04500
v -0.09000 0.06000 0.00000
v -0.09000 0.74000 0.00000
v -0.07794 0.06000 -0.04500
v -0.07794 0.74000 -0.04500
v -0.04500 0.06000 -0.07794
v -0.04500 0.74000 -0.07794
v -0.00000 0.06000 -0.09000
v -0.00000 0.74000 -0.09000
v 0.04500 0.06000 -0.07794
v 0.04500 0.74000 -0.07794
v 0.07794 0.06000 -0.04500
v 0.07794 0.74000 -0.04500
v 0.00000 0.06000 0.00000
v 0.00000 0.74000 0.00000
v 0.58000 0.70000 0.00000
v 0.58000 0.82000 0.00000
v 0.55161 0.70000 0.17923
v 0.55161 0.82000 0.17923
v 0.46923 0.70000 0.34092
v 0.46923 0.82000 0.34092
v 0.34092 0.70000 0.46923
v 0.34092 0.82000 0.46923
v 0.17923 0.70000 0.55161
v 0.17923 0.82000 0.55161
v 0.00000 0.70000 0.58000
v 0.00000 0.82000 0.58000
v -0.17923 0.70000 0.55161
v -0.17923 0.82000 0.55161
v -0.34092 0.70000 0.46923
v -0.34092 0.82000 0.46923
v -0.46923 0.70000 0.34092
v -0.46923 0.82000 0.34092
v -0.55161 0.70000 0.17923
v -0.55161 0.82000 0.17923
v -0.58000 0.70000 0.00000
v -0.58000 0.82000 0.00000
v -0.55161 0.70000 -0.17923
v -0.55161 0.82000 -0.17923
v -0.46923 0.70000 -0.34092
v -0.46923 0.82000 -0.34092
v -0.34092 0.70000 -0.46923
v -0.34092 0.82000 -0.46923
v -0.17923 0.70000 -0.55161
v -0.17923 0.82000 -0.55161
v -0.00000 0.70000 -0.58000
v -0.00000 0.82000 -0.58000
v 0.17923 0.70000 -0.55161
v 0.17923 0.82000 -0.55161
v 0.34092 0.70000 -0.46923
v 0.34092 0.82000 -0.46923
v 0.46923 0.70000 -0.34092
v 0.46923 0.82000 -0.34092
v 0.55161 0.70000 -0.17923
v 0.55161 0.82000 -0.17923
v 0.00000 0.70000 0.00000
v 0.00000 0.82000 0.00000
v -0.54000 0.00000 0.00000
v -0.54000 0.05000 0.00000
v -0.57215 0.00000 0.12000
v -0.57215 0.05000 0.12000
v -0.66000 0.00000 0.20785
v -0.66000 0.05000 0.20785
v -0.78000 0.00000 0.24000
v -0.78000 0.05000 0.24000
v -0.90000 0.00000 0.20785
v -0.90000 0.05000 0.20785
v -0.98785 0.00000 0.12000
v -0.98785 0.05000 0.12000
v -1.02000 0.00000 0.00000
v -1.02000 0.05000 0.00000
v -0.98785 0.00000 -0.12000
v -0.98785 0.05000 -0.12000
v -0.90000 0.00000 -0.20785
v -0.90000 0.05000 -0.20785
v -0.78000 0.00000 -0.24000
v -0.78000 0.05000 -0.24000
v -0.66000 0.00000 -0.20785
v -0.66000 0.05000 -0.20785
v -0.57215 0.00000 -0.12000
v -0.57215 0.05000 -0.12000
v -0.78000 0.00000 0.00000
v -0.78000 0.05000 0.00000
v -0.71500 0.04000 0.00000
v -0.71500 0.46000 0.00000
v -0.72741 0.04000 0.03821
v -0.72741 0.46000 0.03821
v -0.75991 0.04000 0.06182
v -0.75991 0.46000 0.06182
v -0.80009 0.04000 0.06182
v -0.80009 0.46000 0.06182
v -0.83259 0.04000 0.03821
v -0.83259 0.46000 0.03821
v -0.84500 0.04000 0.00000
v -0.84500 0.46000 0.00000
v -0.83259 0.04000 -0.03821
v -0.83259 0.46000 -0.03821
v -0.80009 0.04000 -0.06182
v -0.80009 0.46000 -0.06182
v -0.75991 0.04000 -0.06182
v -0.75991 0.46000 -0.06182
v -0.72741 0.04000 -0.03821
v -0.72741 0.46000 -0.03821
v -0.78000 0.04000 0.00000
v -0.78000 0.46000 0.00000
v -0.48000 0.43000 0.00000
v -0.48000 0.52000 0.00000
v -0.50971 0.43000 0.13017
v -0.50971 0.52000 0.13017
v -0.59295 0.43000 0.23455
v -0.59295 0.52000 0.23455
v -0.71324 0.43000 0.29248
v -0.71324 0.52000 0.29248
v -0.84676 0.43000 0.29248
v -0.84676 0.52000 0.29248
v -0.96705 0.43000 0.23455
v -0.96705 0.52000 0.23455
v -1.05029 0.43000 0.13017
v -1.05029 0.52000 0.13017
v -1.08000 0.43000 0.00000
v -1.08000 0.52000 0.00000
v -1.05029 0.43000 -0.13017
v -1.05029 0.52000 -0.13017
v -0.96705 0.43000 -0.23455
v -0.96705 0.52000 -0.23455
v -0.84676 0.43000 -0.29248
v -0.84676 0.52000 -0.29248
v -0.71324 0.43000 -0.29248
v -0.71324 0.52000 -0.29248
v -0.59295 0.43000 -0.23455
v -0.59295 0.52000 -0.23455
v -0.50971 0.43000 -0.13017
v -0.50971 0.52000 -0.13017
v -0.78000 0.43000 0.00000
v -0.78000 0.52000 0.00000
v -0.82000 0.49000 0.18000
v -0.74000 0.49000 0.18000
v -0.74000 0.97000 0.18000
v -0.82000 0.97000 0.18000
v -0.82000 0.49000 0.26000
v -0.74000 0.49000 0.26000
v -0.74000 0.97000 0.26000
v -0.82000 0.97000 0.26000
v -0.82000 0.49000 -0.26000
v -0.74000 0.49000 -0.26000
v -0.74000 0.97000 -0.26000
v -0.82000 0.97000 -0.26000
v -0.82000 0.49000 -0.18000
v -0.74000 0.49000 -0.18000
v -0.74000 0.97000 -0.18000
v -0.82000 0.97000 -0.18000
v -0.82000 0.76000 -0.25000
v -0.74000 0.76000 -0.25000
v -0.74000 1.00000 -0.25000
v -0.82000 1.00000 -0.25000
v -0.82000 0.76000 0.25000
v -0.74000 0.76000 0.25000
v -0.74000 1.00000 0.25000
v -0.82000 1.00000 0.25000
v 1.02000 0.00000 0.00000
v 1.02000 0.05000 0.00000
v 0.98785 0.00000 0.12000
v 0.98785 0.05000 0.12000
v 0.90000 0.00000 0.20785
v 0.90000 0.05000 0.20785
v 0.78000 0.00000 0.24000
v 0.78000 0.05000 0.24000
v 0.66000 0.00000 0.20785
v 0.66000 0.05000 0.20785
v 0.57215 0.00000 0.12000
v 0.57215 0.05000 0.12000
v 0.54000 0.00000 0.00000
v 0.54000 0.05000 0.00000
v 0.57215 0.00000 -0.12000
v 0.57215 0.05000 -0.12000
v 0.66000 0.00000 -0.20785
v 0.66000 0.05000 -0.20785
v 0.78000 0.00000 -0.24000
v 0.78000 0.05000 -0.24000
v 0.90000 0.00000 -0.20785
v 0.90000 0.05000 -0.20785
v 0.98785 0.00000 -0.12000
v 0.98785 0.05000 -0.12000
v 0.78000 0.00000 0.00000
v 0.78000 0.05000 0.00000
v 0.84500 0.04000 0.00000
v 0.84500 0.46000 0.00000
v 0.83259 0.04000 0.03821
v 0.83259 0.46000 0.03821
v 0.80009 0.04000 0.06182
v 0.80009 0.46000 0.06182
v 0.75991 0.04000 0.06182
v 0.75991 0.46000 0.06182
v 0.72741 0.04000 0.03821
v 0.72741 0.46000 0.03821
v 0.71500 0.04000 0.00000
v 0.71500 0.46000 0.00000
v 0.72741 0.04000 -0.03821
v 0.72741 0.46000 -0.03821
v 0.75991 0.04000 -0.06182
v 0.75991 0.46000 -0.06182
v 0.80009 0.04000 -0.06182
v 0.80009 0.46000 -0.06182
v 0.83259 0.04000 -0.03821
v 0.83259 0.46000 -0.03821
v 0.78000 0.04000 0.00000
v 0.78000 0.46000 0.00000
v 1.08000 0.43000 0.00000
v 1.08000 0.52000 0.00000
v 1.05029 0.43000 0.13017
v 1.05029 0.52000 0.13017
v 0.96705 0.43000 0.23455
v 0.96705 0.52000 0.23455
v 0.84676 0.43000 0.29248
v 0.84676 0.52000 0.29248
v 0.71324 0.43000 0.29248
v 0.71324 0.52000 0.29248
v 0.59295 0.43000 0.23455
v 0.59295 0.52000 0.23455
v 0.50971 0.43000 0.13017
v 0.50971 0.52000 0.13017
v 0.48000 0.43000 0.00000
v 0.48000 0.52000 0.00000
v 0.50971 0.43000 -0.13017
v 0.50971 0.52000 -0.13017
v 0.59295 0.43000 -0.23455
v 0.59295 0.52000 -0.23455
v 0.71324 0.43000 -0.29248
v 0.71324 0.52000 -0.29248
v 0.84676 0.43000 -0.29248
v 0.84676 0.52000 -0.29248
v 0.96705 0.43000 -0.23455
v 0.96705 0.52000 -0.23455
v 1.05029 0.43000 -0.13017
v 1.05029 0.52000 -0.13017
v 0.78000 0.43000 0.00000
v 0.78000 0.52000 0.00000
v 0.74000 0.49000 0.18000
v 0.82000 0.49000 0.18000
v 0.82000 0.97000 0.18000
v 0.74000 0.97000 0.18000
v 0.74000 0.49000 0.26000
v 0.82000 0.49000 0.26000
v 0.82000 0.97000 0.26000
v 0.74000 0.97000 0.26000
v 0.74000 0.49000 -0.26000
v 0.82000 0.49000 -0.26000
v 0.82000 0.97000 -0.26000
v 0.74000 0.97000 -0.26000
v 0.74000 0.49000 -0.18000
v 0.82000 0.49000 -0.18000
v 0.82000 0.97000 -0.18000
v 0.74000 0.97000 -0.18000
v 0.74000 0.76000 -0.25000
v 0.82000 0.76000 -0.25000
v 0.82000 1.00000 -0.25000
v 0.74000 1.00000 -0.25000
v 0.74000 0.76000 0.25000
v 0.82000 0.76000 0.25000
v 0.82000 1.00000 0.25000
v 0.74000 1.00000 0.25000
vt 0.722222 0.500000
vt 0.722222 0.500000
vt 0.705306 0.658353
vt 0.705306 0.658353
vt 0.657134 0.792595
vt 0.657134 0.792595
vt 0.585042 0.882293
vt 0.585042 0.882293
vt 0.500000 0.913793
vt 0.500000 0.913793
vt 0.414958 0.882293
vt 0.414958 0.882293
vt 0.342866 0.792595
vt 0.342866 0.792595
vt 0.294694 0.658353
vt 0.294694 0.658353
vt 0.277778 0.500000
vt 0.277778 0.500000
vt 0.294694 0.341647
vt 0.294694 0.341647
vt 0.342866 0.207405
vt 0.342866 0.207405
vt 0.414958 0.117707
vt 0.414958 0.117707
vt 0.500000 0.086207
vt 0.500000 0.086207
vt 0.585042 0.117707
vt 0.585042 0.117707
vt 0.657134 0.207405
vt 0.657134 0.207405
vt 0.705306 0.341647
vt 0.705306 0.341647
vt 0.500000 0.500000
vt 0.500000 0.500000
vt 0.541667 0.500000
vt 0.541667 0.500000
vt 0.536083 0.538793
vt 0.536083 0.538793
vt 0.520833 0.567190
vt 0.520833 0.567190
vt 0.500000 0.577586
vt 0.500000 0.577586
vt 0.479167 0.567190
vt 0.479167 0.567190
vt 0.463917 0.538793
vt 0.463917 0.538793
vt 0.458333 0.500000
vt 0.458333 0.500000
vt 0.463917 0.461207
vt 0.463917 0.461207
vt 0.479167 0.432810
vt 0.479167 0.432810
vt 0.500000 0.422414
vt 0.500000 0.422414
vt 0.520833 0.432810
vt 0.520833 0.432810
vt 0.536083 0.461207
vt 0.536083 0.461207
vt 0.500000 0.500000
vt 0.500000 0.500000
vt 0.768519 0.500000
vt 0.768519 0.500000
vt 0.755375 0.654509
vt 0.755375 0.654509
vt 0.717236 0.793897
vt 0.717236 0.793897
vt 0.657833 0.904509
vt 0.657833 0.904509
vt 0.582977 0.975526
vt 0.582977 0.975526
vt 0.500000 1.000000
vt 0.500000 1.000000
vt 0.417023 0.975526
vt 0.417023 0.975526
vt 0.342167 0.904509
vt 0.342167 0.904509
vt 0.282764 0.793897
vt 0.282764 0.793897
vt 0.244625 0.654509
vt 0.244625 0.654509
vt 0.231481 0.500000
vt 0.231481 0.500000
vt 0.244625 0.345491
vt 0.244625 0.345491
vt 0.282764 0.206103
vt 0.282764 0.206103
vt 0.342167 0.095491
vt 0.342167 0.095491
vt 0.417023 0.024474
vt 0.417023 0.024474
vt 0.500000 0.000000
vt 0.500000 0.000000
vt 0.582977 0.024474
vt 0.582977 0.024474
vt 0.657833 0.095491
vt 0.657833 0.095491
vt 0.717236 0.206103
vt 0.717236 0.206103
vt 0.755375 0.345491
vt 0.755375 0.345491
vt 0.500000 0.500000
vt 0.500000 0.500000
vt 0.250000 0.500000
vt 0.250000 0.500000
vt 0.235116 0.603448
vt 0.235116 0.603448
vt 0.194444 0.679181
vt 0.194444 0.679181
vt 0.138889 0.706897
vt 0.138889 0.706897
vt 0.083333 0.679181
vt 0.083333 0.679181
vt 0.042662 0.603448
vt 0.042662 0.603448
vt 0.027778 0.500000
vt 0.027778 0.500000
vt 0.042662 0.396552
vt 0.042662 0.396552
vt 0.083333 0.320819
vt 0.083333 0.320819
vt 0.138889 0.293103
vt 0.138889 0.293103
vt 0.194444 0.320819
vt 0.194444 0.320819
vt 0.235116 0.396552
vt 0.235116 0.396552
vt 0.138889 0.500000
vt 0.138889 0.500000
vt 0.168981 0.500000
vt 0.168981 0.500000
vt 0.163236 0.532940
vt 0.163236 0.532940
vt 0.148190 0.553293
vt 0.148190 0.553293
vt 0.129588 0.553293
vt 0.129588 0.553293
vt 0.114542 0.532940
vt 0.114542 0.532940
vt 0.108796 0.500000
vt 0.108796 0.500000
vt 0.114542 0.467060
vt 0.114542 0.467060
vt 0.129588 0.446707
vt 0.129588 0.446707
vt 0.148190 0.446707
vt 0.148190 0.446707
vt 0.163236 0.467060
vt 0.163236 0.467060
vt 0.138889 0.500000
vt 0.138889 0.500000
vt 0.277778 0.500000
vt 0.277778 0.500000
vt 0.264023 0.612216
vt 0.264023 0.612216
vt 0.225486 0.702198
vt 0.225486 0.702198
vt 0.169796 0.752138
vt 0.169796 0.752138
vt 0.107981 0.752138
vt 0.107981 0.752138
vt 0.052292 0.702198
vt 0.052292 0.702198
vt 0.013755 0.612216
vt 0.013755 0.612216
vt 0.000000 0.500000
vt 0.000000 0.500000
vt 0.013755 0.387784
vt 0.013755 0.387784
vt 0.052292 0.297802
vt 0.052292 0.297802
vt 0.107981 0.247862
vt 0.107981 0.247862
vt 0.169796 0.247862
vt 0.169796 0.247862
vt 0.225486 0.297802
vt 0.225486 0.297802
vt 0.264023 0.387784
vt 0.264023 0.387784
vt 0.138889 0.500000
vt 0.138889 0.500000
vt 0.120370 0.655172
vt 0.157407 0.655172
vt 0.157407 0.655172
vt 0.120370 0.655172
vt 0.120370 0.724138
vt 0.157407 0.724138
vt 0.157407 0.724138
vt 0.120370 0.724138
vt 0.120370 0.275862
vt 0.157407 0.275862
vt 0.157407 0.275862
vt 0.120370 0.275862
vt 0.120370 0.344828
vt 0.157407 0.344828
vt 0.157407 0.344828
vt 0.120370 0.344828
vt 0.120370 0.284483
vt 0.157407 0.284483
vt 0.157407 0.284483
vt 0.120370 0.284483
vt 0.120370 0.715517
vt 0.157407 0.715517
vt 0.157407 0.715517
vt 0.120370 0.715517
vt 0.972222 0.500000
vt 0.972222 0.500000
vt 0.957338 0.603448
vt 0.957338 0.603448
vt 0.916667 0.679181
vt 0.916667 0.679181
vt 0.861111 0.706897
vt 0.861111 0.706897
vt 0.805556 0.679181
vt 0.805556 0.679181
vt 0.764884 0.603448
vt 0.764884 0.603448
vt 0.750000 0.500000
vt 0.750000 0.500000
vt 0.764884 0.396552
vt 0.764884 0.396552
vt 0.805556 0.320819
vt 0.805556 0.320819
vt 0.861111 0.293103
vt 0.861111 0.293103
vt 0.916667 0.320819
vt 0.916667 0.320819
vt 0.957338 0.396552
vt 0.957338 0.396552
vt 0.861111 0.500000
vt 0.861111 0.500000
vt 0.891204 0.500000
vt 0.891204 0.500000
vt 0.885458 0.532940
vt 0.885458 0.532940
vt 0.870412 0.553293
vt 0.870412 0.553293
vt 0.851810 0.553293
vt 0.851810 0.553293
vt 0.836764 0.532940
vt 0.836764 0.532940
vt 0.831019 0.500000
vt 0.831019 0.500000
vt 0.836764 0.467060
vt 0.836764 0.467060
vt 0.851810 0.446707
vt 0.851810 0.446707
vt 0.870412 0.446707
vt 0.870412 0.446707
vt 0.885458 0.467060
vt 0.885458 0.467060
vt 0.861111 0.500000
vt 0.861111 0.500000
vt 1.000000 0.500000
vt 1.000000 0.500000
vt 0.986245 0.612216
vt 0.986245 0.612216
vt 0.947708 0.702198
vt 0.947708 0.702198
vt 0.892019 0.752138
vt 0.892019 0.752138
vt 0.830204 0.752138
vt 0.830204 0.752138
vt 0.774514 0.702198
vt 0.774514 0.702198
vt 0.735977 0.612216
vt 0.735977 0.612216
vt 0.722222 0.500000
vt 0.722222 0.500000
vt 0.735977 0.387784
vt 0.735977 0.387784
vt 0.774514 0.297802
vt 0.774514 0.297802
vt 0.830204 0.247862
vt 0.830204 0.247862
vt 0.892019 0.247862
vt 0.892019 0.247862
vt 0.947708 0.297802
vt 0.947708 0.297802
vt 0.986245 0.387784
vt 0.986245 0.387784
vt 0.861111 0.500000
vt 0.861111 0.500000
vt 0.842593 0.655172
vt 0.879630 0.655172
vt 0.879630 0.655172
vt 0.842593 0.655172
vt 0.842593 0.724138
vt 0.879630 0.724138
vt 0.879630 0.724138
vt 0.842593 0.724138
vt 0.842593 0.275862
vt 0.879630 0.275862
vt 0.879630 0.275862
vt 0.842593 0.275862
vt 0.842593 0.344828
vt 0.879630 0.344828
vt 0.879630 0.344828
vt 0.842593 0.344828
vt 0.842593 0.284483
vt 0.879630 0.284483
vt 0.879630 0.284483
vt 0.842593 0.284483
vt 0.842593 0.715517
vt 0.879630 0.715517
vt 0.879630 0.715517
vt 0.842593 0.715517
vn -0.242504 0.970017 -0.016080
vn -0.242504 -0.970017 0.016080
vn -0.217891 0.970017 -0.107658
vn -0.230199 -0.970017 -0.077949
vn -0.160108 0.970017 -0.182846
vn -0.182846 -0.970017 -0.160108
vn -0.077949 0.970017 -0.230199
vn -0.107658 -0.970017 -0.217891
vn 0.016080 0.970017 -0.242504
vn -0.016080 -0.970017 -0.242504
vn 0.107658 0.970017 -0.217891
vn 0.077949 -0.970017 -0.230199
vn 0.182846 0.970017 -0.160108
vn 0.160108 -0.970017 -0.182846
vn 0.230199 0.970017 -0.077949
vn 0.217891 -0.970017 -0.107658
vn 0.242504 0.970017 0.016080
vn 0.242504 -0.970017 -0.016080
vn 0.217891 0.970017 0.107658
vn 0.230199 -0.970017 0.077949
vn 0.160108 0.970017 0.182846
vn 0.182846 -0.970017 0.160108
vn 0.077949 0.970017 0.230199
vn 0.107658 -0.970017 0.217891
vn -0.016080 0.970017 0.242504
vn 0.016080 -0.970017 0.242504
vn -0.107658 0.970017 0.217891
vn -0.077949 -0.970017 0.230199
vn -0.182846 0.970017 0.160108
vn -0.160108 -0.970017 0.182846
vn -0.230199 0.970017 0.077949
vn -0.217891 -0.970017 0.107658
vn 0.000000 1.000000 0.000000
vn 0.000000 -1.000000 0.000000
vn -0.992209 0.087548 -0.088637
vn -0.992209 -0.087548 0.088637
vn -0.814966 0.087547 -0.572858
vn -0.903581 -0.087545 -0.419378
vn -0.419378 0.087545 -0.903581
vn -0.572858 -0.087547 -0.814966
vn 0.088637 0.087548 -0.992209
vn -0.088637 -0.087548 -0.992209
vn 0.572858 0.087547 -0.814966
vn 0.419378 -0.087545 -0.903581
vn 0.903581 0.087545 -0.419378
vn 0.814966 -0.087547 -0.572858
vn 0.992209 0.087548 0.088637
vn 0.992209 -0.087548 -0.088637
vn 0.814966 0.087547 0.572858
vn 0.903581 -0.087545 0.419378
vn 0.419378 0.087545 0.903581
vn 0.572858 -0.087547 0.814966
vn -0.088637 0.087548 0.992209
vn 0.088637 -0.087548 0.992209
vn -0.572858 0.087547 0.814966
vn -0.419378 -0.087545 0.903581
vn -0.903581 0.087545 0.419378
vn -0.814966 -0.087547 0.572858
vn 0.000000 1.000000 0.000000
vn 0.000000 -1.000000 0.000000
vn -0.296363 0.954947 -0.015648
vn -0.296363 -0.954947 0.015648
vn -0.277026 0.954947 -0.106459
vn -0.286693 -0.954947 -0.076701
vn -0.230565 0.954948 -0.186851
vn -0.248964 -0.954947 -0.161535
vn -0.161535 0.954947 -0.248964
vn -0.186851 -0.954948 -0.230565
vn -0.076701 0.954947 -0.286693
vn -0.106459 -0.954947 -0.277026
vn 0.015648 0.954947 -0.296363
vn -0.015648 -0.954947 -0.296363
vn 0.106459 0.954947 -0.277026
vn 0.076701 -0.954947 -0.286693
vn 0.186851 0.954948 -0.230565
vn 0.161535 -0.954947 -0.248964
vn 0.248964 0.954947 -0.161535
vn 0.230565 -0.954948 -0.186851
vn 0.286693 0.954947 -0.076701
vn 0.277026 -0.954947 -0.106459
vn 0.296363 0.954947 0.015648
vn 0.296363 -0.954947 -0.015648
vn 0.277026 0.954947 0.106459
vn 0.286693 -0.954947 0.076701
vn 0.230565 0.954948 0.186851
vn 0.248964 -0.954947 0.161535
vn 0.161535 0.954947 0.248964
vn 0.186851 -0.954948 0.230565
vn 0.076701 0.954947 0.286693
vn 0.106459 -0.954947 0.277026
vn -0.015648 0.954947 0.296363
vn 0.015648 -0.954947 0.296363
vn -0.106459 0.954947 0.277026
vn -0.076701 -0.954947 0.286693
vn -0.186851 0.954948 0.230565
vn -0.161535 -0.954947 0.248964
vn -0.248964 0.954947 0.161535
vn -0.230565 -0.954948 0.186851
vn -0.286693 0.954947 0.076701
vn -0.277026 -0.954947 0.106459
vn 0.000000 1.000000 0.000000
vn 0.000000 -1.000000 0.000000
vn -0.298169 0.954142 -0.026628
vn -0.298169 -0.954142 0.026628
vn -0.244906 0.954142 -0.172147
vn -0.271534 -0.954143 -0.126015
vn -0.126015 0.954143 -0.271534
vn -0.172147 -0.954142 -0.244906
vn 0.026628 0.954142 -0.298169
vn -0.026628 -0.954142 -0.298169
vn 0.172147 0.954142 -0.244906
vn 0.126015 -0.954143 -0.271534
vn 0.271534 0.954143 -0.126015
vn 0.244906 -0.954142 -0.172147
vn 0.298169 0.954142 0.026628
vn 0.298169 -0.954142 -0.026628
vn 0.244906 0.954142 0.172147
vn 0.271534 -0.954143 0.126015
vn 0.126015 0.954143 0.271534
vn 0.172147 -0.954142 0.244906
vn -0.026628 0.954142 0.298169
vn 0.026628 -0.954142 0.298169
vn -0.172147 0.954142 0.244906
vn -0.126015 -0.954143 0.271534
vn -0.271534 0.954143 0.126015
vn -0.244906 -0.954142 0.172147
vn 0.000000 1.000000 0.000000
vn 0.000000 -1.000000 0.000000
vn -0.989001 0.102040 -0.107071
vn -0.989001 -0.102040 0.107071
vn -0.737165 0.102049 -0.667962
vn -0.863115 -0.102046 -0.494589
vn -0.203696 0.102039 -0.973702
vn -0.407426 -0.102048 -0.907519
vn 0.407426 0.102048 -0.907519
vn 0.203696 -0.102039 -0.973702
vn 0.863115 0.102046 -0.494589
vn 0.737165 -0.102049 -0.667962
vn 0.989001 0.102040 0.107071
vn 0.989001 -0.102040 -0.107071
vn 0.737165 0.102049 0.667962
vn 0.863115 -0.102046 0.494589
vn 0.203696 0.102039 0.973702
vn 0.407426 -0.102048 0.907519
vn -0.407426 0.102048 0.907519
vn -0.203696 -0.102039 0.973702
vn -0.863115 0.102046 0.494589
vn -0.737165 -0.102049 0.667962
vn 0.000000 1.000000 0.000000
vn 0.000000 -1.000000 0.000000
vn -0.410165 0.911477 -0.031205
vn -0.410165 -0.911477 0.031205
vn -0.356003 0.911480 -0.206072
vn -0.383090 -0.911476 -0.149845
vn -0.231337 0.911477 -0.340135
vn -0.280128 -0.911480 -0.301219
vn -0.060846 0.911477 -0.406826
vn -0.121692 -0.911480 -0.392931
vn 0.121692 0.911480 -0.392931
vn 0.060846 -0.911477 -0.406826
vn 0.280128 0.911480 -0.301219
vn 0.231337 -0.911477 -0.340135
vn 0.383090 0.911476 -0.149845
vn 0.356003 -0.911480 -0.206072
vn 0.410165 0.911477 0.031205
vn 0.410165 -0.911477 -0.031205
vn 0.356003 0.911480 0.206072
vn 0.383090 -0.911476 0.149845
vn 0.231337 0.911477 0.340135
vn 0.280128 -0.911480 0.301219
vn 0.060846 0.911477 0.406826
vn 0.121692 -0.911480 0.392931
vn -0.121692 0.911480 0.392931
vn -0.060846 -0.911477 0.406826
vn -0.280128 0.911480 0.301219
vn -0.231337 -0.911477 0.340135
vn -0.383090 0.911476 0.149845
vn -0.356003 -0.911480 0.206072
vn 0.000000 1.000000 0.000000
vn 0.000000 -1.000000 0.000000
vn 0.442326 0.147442 0.884652
vn -0.891953 0.074329 0.445976
vn -0.442326 -0.147442 0.884652
vn 0.891953 -0.074329 0.445976
vn 0.705882 0.058824 -0.705882
vn -0.688247 0.229416 -0.688247
vn -0.705882 -0.058824 -0.705882
vn 0.688247 -0.229416 -0.688247
vn 0.442326 0.147442 0.884652
vn -0.891953 0.074329 0.445976
vn -0.442326 -0.147442 0.884652
vn 0.891953 -0.074329 0.445976
vn 0.705882 0.058824 -0.705882
vn -0.688247 0.229416 -0.688247
vn -0.705882 -0.058824 -0.705882
vn 0.688247 -0.229416 -0.688247
vn 0.804038 0.536025 0.257292
vn -0.983337 0.163890 0.078667
vn -0.804038 -0.536025 0.257292
vn 0.983337 -0.163890 0.078667
vn 0.974334 0.162389 -0.155893
vn -0.824774 0.549849 -0.131964
vn -0.974334 -0.162389 -0.155893
vn 0.824774 -0.549849 -0.131964
vn -0.298169 0.954142 -0.026628
vn -0.298169 -0.954142 0.026628
vn -0.244906 0.954142 -0.172147
vn -0.271534 -0.954143 -0.126015
vn -0.126015 0.954143 -0.271534
vn -0.172147 -0.954142 -0.244906
vn 0.026628 0.954142 -0.298169
vn -0.026628 -0.954142 -0.298169
vn 0.172147 0.954142 -0.244906
vn 0.126015 -0.954143 -0.271534
vn 0.271534 0.954143 -0.126015
vn 0.244906 -0.954142 -0.172147
vn 0.298169 0.954142 0.026628
vn 0.298169 -0.954142 -0.026628
vn 0.244906 0.954142 0.172147
vn 0.271534 -0.954143 0.126015
vn 0.126015 0.954143 0.271534
vn 0.172147 -0.954142 0.244906
vn -0.026628 0.954142 0.298169
vn 0.026628 -0.954142 0.298169
vn -0.172147 0.954142 0.244906
vn -0.126015 -0.954143 0.271534
vn -0.271534 0.954143 0.126015
vn -0.244906 -0.954142 0.172147
vn 0.000000 1.000000 0.000000
vn 0.000000 -1.000000 0.000000
vn -0.989001 0.102040 -0.107071
vn -0.989001 -0.102040 0.107071
vn -0.737165 0.102049 -0.667962
vn -0.863115 -0.102046 -0.494589
vn -0.203696 0.102039 -0.973702
vn -0.407426 -0.102048 -0.907519
vn 0.407426 0.102048 -0.907519
vn 0.203696 -0.102039 -0.973702
vn 0.863115 0.102046 -0.494589
vn 0.737165 -0.102049 -0.667962
vn 0.989001 0.102040 0.107071
vn 0.989001 -0.102040 -0.107071
vn 0.737165 0.102049 0.667962
vn 0.863115 -0.102046 0.494589
vn 0.203696 0.102039 0.973702
vn 0.407426 -0.102048 0.907519
vn -0.407426 0.102048 0.907519
vn -0.203696 -0.102039 0.973702
vn -0.863115 0.102046 0.494589
vn -0.737165 -0.102049 0.667962
vn 0.000000 1.000000 0.000000
vn 0.000000 -1.000000 0.000000
vn -0.410165 0.911477 -0.031205
vn -0.410165 -0.911477 0.031205
vn -0.356003 0.911480 -0.206072
vn -0.383090 -0.911476 -0.149845
vn -0.231337 0.911477 -0.340135
vn -0.280128 -0.911480 -0.301219
vn -0.060846 0.911477 -0.406826
vn -0.121692 -0.911480 -0.392931
vn 0.121692 0.911480 -0.392931
vn 0.060846 -0.911477 -0.406826
vn 0.280128 0.911480 -0.301219
vn 0.231337 -0.911477 -0.340135
vn 0.383090 0.911476 -0.149845
vn 0.356003 -0.911480 -0.206072
vn 0.410165 0.911477 0.031205
vn 0.410165 -0.911477 -0.031205
vn 0.356003 0.911480 0.206072
vn 0.383090 -0.911476 0.149845
vn 0.231337 0.911477 0.340135
vn 0.280128 -0.911480 0.301219
vn 0.060846 0.911477 0.406826
vn 0.121692 -0.911480 0.392931
vn -0.121692 0.911480 0.392931
vn -0.060846 -0.911477 0.406826
vn -0.280128 0.911480 0.301219
vn -0.231337 -0.911477 0.340135
vn -0.383090 0.911476 0.149845
vn -0.356003 -0.911480 0.206072
vn 0.000000 1.000000 0.000000
vn 0.000000 -1.000000 0.000000
vn 0.442326 0.147442 0.884652
vn -0.891953 0.074329 0.445976
vn -0.442326 -0.147442 0.884652
vn 0.891953 -0.074329 0.445976
vn 0.705882 0.058824 -0.705882
vn -0.688247 0.229416 -0.688247
vn -0.705882 -0.058824 -0.705882
vn 0.688247 -0.229416 -0.688247
vn 0.442326 0.147442 0.884652
vn -0.891953 0.074329 0.445976
vn -0.442326 -0.147442 0.884652
vn 0.891953 -0.074329 0.445976
vn 0.705882 0.058824 -0.705882
vn -0.688247 0.229416 -0.688247
vn -0.705882 -0.058824 -0.705882
vn 0.688247 -0.229416 -0.688247
vn 0.804038 0.536025 0.257292
vn -0.983337 0.163890 0.078667
vn -0.804038 -0.536025 0.257292
vn 0.983337 -0.163890 0.078667
vn 0.974334 0.162389 -0.155893
vn -0.824774 0.549849 -0.131964
vn -0.974334 -0.162389 -0.155893
vn 0.824774 -0.549849 -0.131964
usemtl Cafe_Surface
f 1/1/1 3/3/3 4/4/4
f 1/1/1 4/4/4 2/2/2
f 33/33/33 3/3/3 1/1/1
f 34/34/34 2/2/2 4/4/4
f 3/3/3 5/5/5 6/6/6
f 3/3/3 6/6/6 4/4/4
f 33/33/33 5/5/5 3/3/3
f 34/34/34 4/4/4 6/6/6
f 5/5/5 7/7/7 8/8/8
f 5/5/5 8/8/8 6/6/6
f 33/33/33 7/7/7 5/5/5
f 34/34/34 6/6/6 8/8/8
f 7/7/7 9/9/9 10/10/10
f 7/7/7 10/10/10 8/8/8
f 33/33/33 9/9/9 7/7/7
f 34/34/34 8/8/8 10/10/10
f 9/9/9 11/11/11 12/12/12
f 9/9/9 12/12/12 10/10/10
f 33/33/33 11/11/11 9/9/9
f 34/34/34 10/10/10 12/12/12
f 11/11/11 13/13/13 14/14/14
f 11/11/11 14/14/14 12/12/12
f 33/33/33 13/13/13 11/11/11
f 34/34/34 12/12/12 14/14/14
f 13/13/13 15/15/15 16/16/16
f 13/13/13 16/16/16 14/14/14
f 33/33/33 15/15/15 13/13/13
f 34/34/34 14/14/14 16/16/16
f 15/15/15 17/17/17 18/18/18
f 15/15/15 18/18/18 16/16/16
f 33/33/33 17/17/17 15/15/15
f 34/34/34 16/16/16 18/18/18
f 17/17/17 19/19/19 20/20/20
f 17/17/17 20/20/20 18/18/18
f 33/33/33 19/19/19 17/17/17
f 34/34/34 18/18/18 20/20/20
f 19/19/19 21/21/21 22/22/22
f 19/19/19 22/22/22 20/20/20
f 33/33/33 21/21/21 19/19/19
f 34/34/34 20/20/20 22/22/22
f 21/21/21 23/23/23 24/24/24
f 21/21/21 24/24/24 22/22/22
f 33/33/33 23/23/23 21/21/21
f 34/34/34 22/22/22 24/24/24
f 23/23/23 25/25/25 26/26/26
f 23/23/23 26/26/26 24/24/24
f 33/33/33 25/25/25 23/23/23
f 34/34/34 24/24/24 26/26/26
f 25/25/25 27/27/27 28/28/28
f 25/25/25 28/28/28 26/26/26
f 33/33/33 27/27/27 25/25/25
f 34/34/34 26/26/26 28/28/28
f 27/27/27 29/29/29 30/30/30
f 27/27/27 30/30/30 28/28/28
f 33/33/33 29/29/29 27/27/27
f 34/34/34 28/28/28 30/30/30
f 29/29/29 31/31/31 32/32/32
f 29/29/29 32/32/32 30/30/30
f 33/33/33 31/31/31 29/29/29
f 34/34/34 30/30/30 32/32/32
f 31/31/31 1/1/1 2/2/2
f 31/31/31 2/2/2 32/32/32
f 33/33/33 1/1/1 31/31/31
f 34/34/34 32/32/32 2/2/2
f 35/35/35 37/37/37 38/38/38
f 35/35/35 38/38/38 36/36/36
f 59/59/59 37/37/37 35/35/35
f 60/60/60 36/36/36 38/38/38
f 37/37/37 39/39/39 40/40/40
f 37/37/37 40/40/40 38/38/38
f 59/59/59 39/39/39 37/37/37
f 60/60/60 38/38/38 40/40/40
f 39/39/39 41/41/41 42/42/42
f 39/39/39 42/42/42 40/40/40
f 59/59/59 41/41/41 39/39/39
f 60/60/60 40/40/40 42/42/42
f 41/41/41 43/43/43 44/44/44
f 41/41/41 44/44/44 42/42/42
f 59/59/59 43/43/43 41/41/41
f 60/60/60 42/42/42 44/44/44
f 43/43/43 45/45/45 46/46/46
f 43/43/43 46/46/46 44/44/44
f 59/59/59 45/45/45 43/43/43
f 60/60/60 44/44/44 46/46/46
f 45/45/45 47/47/47 48/48/48
f 45/45/45 48/48/48 46/46/46
f 59/59/59 47/47/47 45/45/45
f 60/60/60 46/46/46 48/48/48
f 47/47/47 49/49/49 50/50/50
f 47/47/47 50/50/50 48/48/48
f 59/59/59 49/49/49 47/47/47
f 60/60/60 48/48/48 50/50/50
f 49/49/49 51/51/51 52/52/52
f 49/49/49 52/52/52 50/50/50
f 59/59/59 51/51/51 49/49/49
f 60/60/60 50/50/50 52/52/52
f 51/51/51 53/53/53 54/54/54
f 51/51/51 54/54/54 52/52/52
f 59/59/59 53/53/53 51/51/51
f 60/60/60 52/52/52 54/54/54
f 53/53/53 55/55/55 56/56/56
f 53/53/53 56/56/56 54/54/54
f 59/59/59 55/55/55 53/53/53
f 60/60/60 54/54/54 56/56/56
f 55/55/55 57/57/57 58/58/58
f 55/55/55 58/58/58 56/56/56
f 59/59/59 57/57/57 55/55/55
f 60/60/60 56/56/56 58/58/58
f 57/57/57 35/35/35 36/36/36
f 57/57/57 36/36/36 58/58/58
f 59/59/59 35/35/35 57/57/57
f 60/60/60 58/58/58 36/36/36
f 61/61/61 63/63/63 64/64/64
f 61/61/61 64/64/64 62/62/62
f 101/101/101 63/63/63 61/61/61
f 102/102/102 62/62/62 64/64/64
f 63/63/63 65/65/65 66/66/66
f 63/63/63 66/66/66 64/64/64
f 101/101/101 65/65/65 63/63/63
f 102/102/102 64/64/64 66/66/66
f 65/65/65 67/67/67 68/68/68
f 65/65/65 68/68/68 66/66/66
f 101/101/101 67/67/67 65/65/65
f 102/102/102 66/66/66 68/68/68
f 67/67/67 69/69/69 70/70/70
f 67/67/67 70/70/70 68/68/68
f 101/101/101 69/69/69 67/67/67
f 102/102/102 68/68/68 70/70/70
f 69/69/69 71/71/71 72/72/72
f 69/69/69 72/72/72 70/70/70
f 101/101/101 71/71/71 69/69/69
f 102/102/102 70/70/70 72/72/72
f 71/71/71 73/73/73 74/74/74
f 71/71/71 74/74/74 72/72/72
f 101/101/101 73/73/73 71/71/71
f 102/102/102 72/72/72 74/74/74
f 73/73/73 75/75/75 76/76/76
f 73/73/73 76/76/76 74/74/74
f 101/101/101 75/75/75 73/73/73
f 102/102/102 74/74/74 76/76/76
f 75/75/75 77/77/77 78/78/78
f 75/75/75 78/78/78 76/76/76
f 101/101/101 77/77/77 75/75/75
f 102/102/102 76/76/76 78/78/78
f 77/77/77 79/79/79 80/80/80
f 77/77/77 80/80/80 78/78/78
f 101/101/101 79/79/79 77/77/77
f 102/102/102 78/78/78 80/80/80
f 79/79/79 81/81/81 82/82/82
f 79/79/79 82/82/82 80/80/80
f 101/101/101 81/81/81 79/79/79
f 102/102/102 80/80/80 82/82/82
f 81/81/81 83/83/83 84/84/84
f 81/81/81 84/84/84 82/82/82
f 101/101/101 83/83/83 81/81/81
f 102/102/102 82/82/82 84/84/84
f 83/83/83 85/85/85 86/86/86
f 83/83/83 86/86/86 84/84/84
f 101/101/101 85/85/85 83/83/83
f 102/102/102 84/84/84 86/86/86
f 85/85/85 87/87/87 88/88/88
f 85/85/85 88/88/88 86/86/86
f 101/101/101 87/87/87 85/85/85
f 102/102/102 86/86/86 88/88/88
f 87/87/87 89/89/89 90/90/90
f 87/87/87 90/90/90 88/88/88
f 101/101/101 89/89/89 87/87/87
f 102/102/102 88/88/88 90/90/90
f 89/89/89 91/91/91 92/92/92
f 89/89/89 92/92/92 90/90/90
f 101/101/101 91/91/91 89/89/89
f 102/102/102 90/90/90 92/92/92
f 91/91/91 93/93/93 94/94/94
f 91/91/91 94/94/94 92/92/92
f 101/101/101 93/93/93 91/91/91
f 102/102/102 92/92/92 94/94/94
f 93/93/93 95/95/95 96/96/96
f 93/93/93 96/96/96 94/94/94
f 101/101/101 95/95/95 93/93/93
f 102/102/102 94/94/94 96/96/96
f 95/95/95 97/97/97 98/98/98
f 95/95/95 98/98/98 96/96/96
f 101/101/101 97/97/97 95/95/95
f 102/102/102 96/96/96 98/98/98
f 97/97/97 99/99/99 100/100/100
f 97/97/97 100/100/100 98/98/98
f 101/101/101 99/99/99 97/97/97
f 102/102/102 98/98/98 100/100/100
f 99/99/99 61/61/61 62/62/62
f 99/99/99 62/62/62 100/100/100
f 101/101/101 61/61/61 99/99/99
f 102/102/102 100/100/100 62/62/62
f 103/103/103 105/105/105 106/106/106
f 103/103/103 106/106/106 104/104/104
f 127/127/127 105/105/105 103/103/103
f 128/128/128 104/104/104 106/106/106
f 105/105/105 107/107/107 108/108/108
f 105/105/105 108/108/108 106/106/106
f 127/127/127 107/107/107 105/105/105
f 128/128/128 106/106/106 108/108/108
f 107/107/107 109/109/109 110/110/110
f 107/107/107 110/110/110 108/108/108
f 127/127/127 109/109/109 107/107/107
f 128/128/128 108/108/108 110/110/110
f 109/109/109 111/111/111 112/112/112
f 109/109/109 112/112/112 110/110/110
f 127/127/127 111/111/111 109/109/109
f 128/128/128 110/110/110 112/112/112
f 111/111/111 113/113/113 114/114/114
f 111/111/111 114/114/114 112/112/112
f 127/127/127 113/113/113 111/111/111
f 128/128/128 112/112/112 114/114/114
f 113/113/113 115/115/115 116/116/116
f 113/113/113 116/116/116 114/114/114
f 127/127/127 115/115/115 113/113/113
f 128/128/128 114/114/114 116/116/116
f 115/115/115 117/117/117 118/118/118
f 115/115/115 118/118/118 116/116/116
f 127/127/127 117/117/117 115/115/115
f 128/128/128 116/116/116 118/118/118
f 117/117/117 119/119/119 120/120/120
f 117/117/117 120/120/120 118/118/118
f 127/127/127 119/119/119 117/117/117
f 128/128/128 118/118/118 120/120/120
f 119/119/119 121/121/121 122/122/122
f 119/119/119 122/122/122 120/120/120
f 127/127/127 121/121/121 119/119/119
f 128/128/128 120/120/120 122/122/122
f 121/121/121 123/123/123 124/124/124
f 121/121/121 124/124/124 122/122/122
f 127/127/127 123/123/123 121/121/121
f 128/128/128 122/122/122 124/124/124
f 123/123/123 125/125/125 126/126/126
f 123/123/123 126/126/126 124/124/124
f 127/127/127 125/125/125 123/123/123
f 128/128/128 124/124/124 126/126/126
f 125/125/125 103/103/103 104/104/104
f 125/125/125 104/104/104 126/126/126
f 127/127/127 103/103/103 125/125/125
f 128/128/128 126/126/126 104/104/104
f 129/129/129 131/131/131 132/132/132
f 129/129/129 132/132/132 130/130/130
f 149/149/149 131/131/131 129/129/129
f 150/150/150 130/130/130 132/132/132
f 131/131/131 133/133/133 134/134/134
f 131/131/131 134/134/134 132/132/132
f 149/149/149 133/133/133 131/131/131
f 150/150/150 132/132/132 134/134/134
f 133/133/133 135/135/135 136/136/136
f 133/133/133 136/136/136 134/134/134
f 149/149/149 135/135/135 133/133/133
f 150/150/150 134/134/134 136/136/136
f 135/135/135 137/137/137 138/138/138
f 135/135/135 138/138/138 136/136/136
f 149/149/149 137/137/137 135/135/135
f 150/150/150 136/136/136 138/138/138
f 137/137/137 139/139/139 140/140/140
f 137/137/137 140/140/140 138/138/138
f 149/149/149 139/139/139 137/137/137
f 150/150/150 138/138/138 140/140/140
f 139/139/139 141/141/141 142/142/142
f 139/139/139 142/142/142 140/140/140
f 149/149/149 141/141/141 139/139/139
f 150/150/150 140/140/140 142/142/142
f 141/141/141 143/143/143 144/144/144
f 141/141/141 144/144/144 142/142/142
f 149/149/149 143/143/143 141/141/141
f 150/150/150 142/142/142 144/144/144
f 143/143/143 145/145/145 146/146/146
f 143/143/143 146/146/146 144/144/144
f 149/149/149 145/145/145 143/143/143
f 150/150/150 144/144/144 146/146/146
f 145/145/145 147/147/147 148/148/148
f 145/145/145 148/148/148 146/146/146
f 149/149/149 147/147/147 145/145/145
f 150/150/150 146/146/146 148/148/148
f 147/147/147 129/129/129 130/130/130
f 147/147/147 130/130/130 148/148/148
f 149/149/149 129/129/129 147/147/147
f 150/150/150 148/148/148 130/130/130
f 151/151/151 153/153/153 154/154/154
f 151/151/151 154/154/154 152/152/152
f 179/179/179 153/153/153 151/151/151
f 180/180/180 152/152/152 154/154/154
f 153/153/153 155/155/155 156/156/156
f 153/153/153 156/156/156 154/154/154
f 179/179/179 155/155/155 153/153/153
f 180/180/180 154/154/154 156/156/156
f 155/155/155 157/157/157 158/158/158
f 155/155/155 158/158/158 156/156/156
f 179/179/179 157/157/157 155/155/155
f 180/180/180 156/156/156 158/158/158
f 157/157/157 159/159/159 160/160/160
f 157/157/157 160/160/160 158/158/158
f 179/179/179 159/159/159 157/157/157
f 180/180/180 158/158/158 160/160/160
f 159/159/159 161/161/161 162/162/162
f 159/159/159 162/162/162 160/160/160
f 179/179/179 161/161/161 159/159/159
f 180/180/180 160/160/160 162/162/162
f 161/161/161 163/163/163 164/164/164
f 161/161/161 164/164/164 162/162/162
f 179/179/179 163/163/163 161/161/161
f 180/180/180 162/162/162 164/164/164
f 163/163/163 165/165/165 166/166/166
f 163/163/163 166/166/166 164/164/164
f 179/179/179 165/165/165 163/163/163
f 180/180/180 164/164/164 166/166/166
f 165/165/165 167/167/167 168/168/168
f 165/165/165 168/168/168 166/166/166
f 179/179/179 167/167/167 165/165/165
f 180/180/180 166/166/166 168/168/168
f 167/167/167 169/169/169 170/170/170
f 167/167/167 170/170/170 168/168/168
f 179/179/179 169/169/169 167/167/167
f 180/180/180 168/168/168 170/170/170
f 169/169/169 171/171/171 172/172/172
f 169/169/169 172/172/172 170/170/170
f 179/179/179 171/171/171 169/169/169
f 180/180/180 170/170/170 172/172/172
f 171/171/171 173/173/173 174/174/174
f 171/171/171 174/174/174 172/172/172
f 179/179/179 173/173/173 171/171/171
f 180/180/180 172/172/172 174/174/174
f 173/173/173 175/175/175 176/176/176
f 173/173/173 176/176/176 174/174/174
f 179/179/179 175/175/175 173/173/173
f 180/180/180 174/174/174 176/176/176
f 175/175/175 177/177/177 178/178/178
f 175/175/175 178/178/178 176/176/176
f 179/179/179 177/177/177 175/175/175
f 180/180/180 176/176/176 178/178/178
f 177/177/177 151/151/151 152/152/152
f 177/177/177 152/152/152 178/178/178
f 179/179/179 151/151/151 177/177/177
f 180/180/180 178/178/178 152/152/152
f 181/181/181 182/182/182 183/183/183
f 181/181/181 183/183/183 184/184/184
f 185/185/185 187/187/187 186/186/186
f 185/185/185 188/188/188 187/187/187
f 181/181/181 185/185/185 186/186/186
f 181/181/181 186/186/186 182/182/182
f 182/182/182 186/186/186 187/187/187
f 182/182/182 187/187/187 183/183/183
f 183/183/183 187/187/187 188/188/188
f 183/183/183 188/188/188 184/184/184
f 184/184/184 188/188/188 185/185/185
f 184/184/184 185/185/185 181/181/181
f 189/189/189 190/190/190 191/191/191
f 189/189/189 191/191/191 192/192/192
f 193/193/193 195/195/195 194/194/194
f 193/193/193 196/196/196 195/195/195
f 189/189/189 193/193/193 194/194/194
f 189/189/189 194/194/194 190/190/190
f 190/190/190 194/194/194 195/195/195
f 190/190/190 195/195/195 191/191/191
f 191/191/191 195/195/195 196/196/196
f 191/191/191 196/196/196 192/192/192
f 192/192/192 196/196/196 193/193/193
f 192/192/192 193/193/193 189/189/189
f 197/197/197 198/198/198 199/199/199
f 197/197/197 199/199/199 200/200/200
f 201/201/201 203/203/203 202/202/202
f 201/201/201 204/204/204 203/203/203
f 197/197/197 201/201/201 202/202/202
f 197/197/197 202/202/202 198/198/198
f 198/198/198 202/202/202 203/203/203
f 198/198/198 203/203/203 199/199/199
f 199/199/199 203/203/203 204/204/204
f 199/199/199 204/204/204 200/200/200
f 200/200/200 204/204/204 201/201/201
f 200/200/200 201/201/201 197/197/197
f 205/205/205 207/207/207 208/208/208
f 205/205/205 208/208/208 206/206/206
f 229/229/229 207/207/207 205/205/205
f 230/230/230 206/206/206 208/208/208
f 207/207/207 209/209/209 210/210/210
f 207/207/207 210/210/210 208/208/208
f 229/229/229 209/209/209 207/207/207
f 230/230/230 208/208/208 210/210/210
f 209/209/209 211/211/211 212/212/212
f 209/209/209 212/212/212 210/210/210
f 229/229/229 211/211/211 209/209/209
f 230/230/230 210/210/210 212/212/212
f 211/211/211 213/213/213 214/214/214
f 211/211/211 214/214/214 212/212/212
f 229/229/229 213/213/213 211/211/211
f 230/230/230 212/212/212 214/214/214
f 213/213/213 215/215/215 216/216/216
f 213/213/213 216/216/216 214/214/214
f 229/229/229 215/215/215 213/213/213
f 230/230/230 214/214/214 216/216/216
f 215/215/215 217/217/217 218/218/218
f 215/215/215 218/218/218 216/216/216
f 229/229/229 217/217/217 215/215/215
f 230/230/230 216/216/216 218/218/218
f 217/217/217 219/219/219 220/220/220
f 217/217/217 220/220/220 218/218/218
f 229/229/229 219/219/219 217/217/217
f 230/230/230 218/218/218 220/220/220
f 219/219/219 221/221/221 222/222/222
f 219/219/219 222/222/222 220/220/220
f 229/229/229 221/221/221 219/219/219
f 230/230/230 220/220/220 222/222/222
f 221/221/221 223/223/223 224/224/224
f 221/221/221 224/224/224 222/222/222
f 229/229/229 223/223/223 221/221/221
f 230/230/230 222/222/222 224/224/224
f 223/223/223 225/225/225 226/226/226
f 223/223/223 226/226/226 224/224/224
f 229/229/229 225/225/225 223/223/223
f 230/230/230 224/224/224 226/226/226
f 225/225/225 227/227/227 228/228/228
f 225/225/225 228/228/228 226/226/226
f 229/229/229 227/227/227 225/225/225
f 230/230/230 226/226/226 228/228/228
f 227/227/227 205/205/205 206/206/206
f 227/227/227 206/206/206 228/228/228
f 229/229/229 205/205/205 227/227/227
f 230/230/230 228/228/228 206/206/206
f 231/231/231 233/233/233 234/234/234
f 231/231/231 234/234/234 232/232/232
f 251/251/251 233/233/233 231/231/231
f 252/252/252 232/232/232 234/234/234
f 233/233/233 235/235/235 236/236/236
f 233/233/233 236/236/236 234/234/234
f 251/251/251 235/235/235 233/233/233
f 252/252/252 234/234/234 236/236/236
f 235/235/235 237/237/237 238/238/238
f 235/235/235 238/238/238 236/236/236
f 251/251/251 237/237/237 235/235/235
f 252/252/252 236/236/236 238/238/238
f 237/237/237 239/239/239 240/240/240
f 237/237/237 240/240/240 238/238/238
f 251/251/251 239/239/239 237/237/237
f 252/252/252 238/238/238 240/240/240
f 239/239/239 241/241/241 242/242/242
f 239/239/239 242/242/242 240/240/240
f 251/251/251 241/241/241 239/239/239
f 252/252/252 240/240/240 242/242/242
f 241/241/241 243/243/243 244/244/244
f 241/241/241 244/244/244 242/242/242
f 251/251/251 243/243/243 241/241/241
f 252/252/252 242/242/242 244/244/244
f 243/243/243 245/245/245 246/246/246
f 243/243/243 246/246/246 244/244/244
f 251/251/251 245/245/245 243/243/243
f 252/252/252 244/244/244 246/246/246
f 245/245/245 247/247/247 248/248/248
f 245/245/245 248/248/248 246/246/246
f 251/251/251 247/247/247 245/245/245
f 252/252/252 246/246/246 248/248/248
f 247/247/247 249/249/249 250/250/250
f 247/247/247 250/250/250 248/248/248
f 251/251/251 249/249/249 247/247/247
f 252/252/252 248/248/248 250/250/250
f 249/249/249 231/231/231 232/232/232
f 249/249/249 232/232/232 250/250/250
f 251/251/251 231/231/231 249/249/249
f 252/252/252 250/250/250 232/232/232
f 253/253/253 255/255/255 256/256/256
f 253/253/253 256/256/256 254/254/254
f 281/281/281 255/255/255 253/253/253
f 282/282/282 254/254/254 256/256/256
f 255/255/255 257/257/257 258/258/258
f 255/255/255 258/258/258 256/256/256
f 281/281/281 257/257/257 255/255/255
f 282/282/282 256/256/256 258/258/258
f 257/257/257 259/259/259 260/260/260
f 257/257/257 260/260/260 258/258/258
f 281/281/281 259/259/259 257/257/257
f 282/282/282 258/258/258 260/260/260
f 259/259/259 261/261/261 262/262/262
f 259/259/259 262/262/262 260/260/260
f 281/281/281 261/261/261 259/259/259
f 282/282/282 260/260/260 262/262/262
f 261/261/261 263/263/263 264/264/264
f 261/261/261 264/264/264 262/262/262
f 281/281/281 263/263/263 261/261/261
f 282/282/282 262/262/262 264/264/264
f 263/263/263 265/265/265 266/266/266
f 263/263/263 266/266/266 264/264/264
f 281/281/281 265/265/265 263/263/263
f 282/282/282 264/264/264 266/266/266
f 265/265/265 267/267/267 268/268/268
f 265/265/265 268/268/268 266/266/266
f 281/281/281 267/267/267 265/265/265
f 282/282/282 266/266/266 268/268/268
f 267/267/267 269/269/269 270/270/270
f 267/267/267 270/270/270 268/268/268
f 281/281/281 269/269/269 267/267/267
f 282/282/282 268/268/268 270/270/270
f 269/269/269 271/271/271 272/272/272
f 269/269/269 272/272/272 270/270/270
f 281/281/281 271/271/271 269/269/269
f 282/282/282 270/270/270 272/272/272
f 271/271/271 273/273/273 274/274/274
f 271/271/271 274/274/274 272/272/272
f 281/281/281 273/273/273 271/271/271
f 282/282/282 272/272/272 274/274/274
f 273/273/273 275/275/275 276/276/276
f 273/273/273 276/276/276 274/274/274
f 281/281/281 275/275/275 273/273/273
f 282/282/282 274/274/274 276/276/276
f 275/275/275 277/277/277 278/278/278
f 275/275/275 278/278/278 276/276/276
f 281/281/281 277/277/277 275/275/275
f 282/282/282 276/276/276 278/278/278
f 277/277/277 279/279/279 280/280/280
f 277/277/277 280/280/280 278/278/278
f 281/281/281 279/279/279 277/277/277
f 282/282/282 278/278/278 280/280/280
f 279/279/279 253/253/253 254/254/254
f 279/279/279 254/254/254 280/280/280
f 281/281/281 253/253/253 279/279/279
f 282/282/282 280/280/280 254/254/254
f 283/283/283 284/284/284 285/285/285
f 283/283/283 285/285/285 286/286/286
f 287/287/287 289/289/289 288/288/288
f 287/287/287 290/290/290 289/289/289
f 283/283/283 287/287/287 288/288/288
f 283/283/283 288/288/288 284/284/284
f 284/284/284 288/288/288 289/289/289
f 284/284/284 289/289/289 285/285/285
f 285/285/285 289/289/289 290/290/290
f 285/285/285 290/290/290 286/286/286
f 286/286/286 290/290/290 287/287/287
f 286/286/286 287/287/287 283/283/283
f 291/291/291 292/292/292 293/293/293
f 291/291/291 293/293/293 294/294/294
f 295/295/295 297/297/297 296/296/296
f 295/295/295 298/298/298 297/297/297
f 291/291/291 295/295/295 296/296/296
f 291/291/291 296/296/296 292/292/292
f 292/292/292 296/296/296 297/297/297
f 292/292/292 297/297/297 293/293/293
f 293/293/293 297/297/297 298/298/298
f 293/293/293 298/298/298 294/294/294
f 294/294/294 298/298/298 295/295/295
f 294/294/294 295/295/295 291/291/291
f 299/299/299 300/300/300 301/301/301
f 299/299/299 301/301/301 302/302/302
f 303/303/303 305/305/305 304/304/304
f 303/303/303 306/306/306 305/305/305
f 299/299/299 303/303/303 304/304/304
f 299/299/299 304/304/304 300/300/300
f 300/300/300 304/304/304 305/305/305
f 300/300/300 305/305/305 301/301/301
f 301/301/301 305/305/305 306/306/306
f 301/301/301 306/306/306 302/302/302
f 302/302/302 306/306/306 303/303/303
f 302/302/302 303/303/303 299/299/299
