# UART-005 deterministic mobile LOD authored source
mtllib SM_Prop_CairoPlanter_A_MobileLOD.mtl
o SM_Prop_CairoPlanter_A_LOD1
s 1
v 0.42000 0.00000 0.00000
v 0.51000 0.68000 0.00000
v 0.33979 0.00000 0.24687
v 0.41260 0.68000 0.29977
v 0.12979 0.00000 0.39944
v 0.15760 0.68000 0.48504
v -0.12979 0.00000 0.39944
v -0.15760 0.68000 0.48504
v -0.33979 0.00000 0.24687
v -0.41260 0.68000 0.29977
v -0.42000 0.00000 0.00000
v -0.51000 0.68000 0.00000
v -0.33979 0.00000 -0.24687
v -0.41260 0.68000 -0.29977
v -0.12979 0.00000 -0.39944
v -0.15760 0.68000 -0.48504
v 0.12979 0.00000 -0.39944
v 0.15760 0.68000 -0.48504
v 0.33979 0.00000 -0.24687
v 0.41260 0.68000 -0.29977
v 0.00000 0.00000 0.00000
v 0.00000 0.68000 0.00000
v 0.53000 0.62000 0.00000
v 0.53000 0.74000 0.00000
v 0.42878 0.62000 0.31153
v 0.42878 0.74000 0.31153
v 0.16378 0.62000 0.50406
v 0.16378 0.74000 0.50406
v -0.16378 0.62000 0.50406
v -0.16378 0.74000 0.50406
v -0.42878 0.62000 0.31153
v -0.42878 0.74000 0.31153
v -0.53000 0.62000 0.00000
v -0.53000 0.74000 0.00000
v -0.42878 0.62000 -0.31153
v -0.42878 0.74000 -0.31153
v -0.16378 0.62000 -0.50406
v -0.16378 0.74000 -0.50406
v 0.16378 0.62000 -0.50406
v 0.16378 0.74000 -0.50406
v 0.42878 0.62000 -0.31153
v 0.42878 0.74000 -0.31153
v 0.00000 0.62000 0.00000
v 0.00000 0.74000 0.00000
v -0.36000 0.76000 -0.09000
v 0.00000 0.76000 -0.09000
v 0.00000 1.36000 -0.09000
v -0.36000 1.36000 -0.09000
v -0.36000 0.76000 0.09000
v 0.00000 0.76000 0.09000
v 0.00000 1.36000 0.09000
v -0.36000 1.36000 0.09000
v 0.00000 0.80000 -0.09000
v 0.36000 0.80000 -0.09000
v 0.36000 1.44000 -0.09000
v 0.00000 1.44000 -0.09000
v 0.00000 0.80000 0.09000
v 0.36000 0.80000 0.09000
v 0.36000 1.44000 0.09000
v 0.00000 1.44000 0.09000
v -0.14000 1.03000 0.02000
v 0.14000 1.03000 0.02000
v 0.14000 1.57000 0.02000
v -0.14000 1.57000 0.02000
v -0.14000 1.03000 0.22000
v 0.14000 1.03000 0.22000
v 0.14000 1.57000 0.22000
v -0.14000 1.57000 0.22000
vt 0.000000 0.896226
vt 0.433121 0.981132
vt 0.000000 0.820554
vt 0.433121 0.889244
vt 0.000000 0.622441
vt 0.433121 0.648678
vt 0.000000 0.377559
vt 0.433121 0.351322
vt 0.000000 0.179446
vt 0.433121 0.110756
vt 0.000000 0.103774
vt 0.433121 0.018868
vt 0.000000 0.179446
vt 0.433121 0.110756
vt 0.000000 0.377559
vt 0.433121 0.351322
vt 0.000000 0.622441
vt 0.433121 0.648678
vt 0.000000 0.820554
vt 0.433121 0.889244
vt 0.000000 0.500000
vt 0.433121 0.500000
vt 0.394904 1.000000
vt 0.471338 1.000000
vt 0.394904 0.904508
vt 0.471338 0.904508
vt 0.394904 0.654508
vt 0.471338 0.654508
vt 0.394904 0.345492
vt 0.471338 0.345492
vt 0.394904 0.095492
vt 0.471338 0.095492
vt 0.394904 0.000000
vt 0.471338 0.000000
vt 0.394904 0.095492
vt 0.471338 0.095492
vt 0.394904 0.345492
vt 0.471338 0.345492
vt 0.394904 0.654508
vt 0.471338 0.654508
vt 0.394904 0.904508
vt 0.471338 0.904508
vt 0.394904 0.500000
vt 0.471338 0.500000
vt 0.484076 0.160377
vt 0.484076 0.500000
vt 0.866242 0.500000
vt 0.866242 0.160377
vt 0.484076 0.160377
vt 0.484076 0.500000
vt 0.866242 0.500000
vt 0.866242 0.160377
vt 0.509554 0.500000
vt 0.509554 0.839623
vt 0.917197 0.839623
vt 0.917197 0.500000
vt 0.509554 0.500000
vt 0.509554 0.839623
vt 0.917197 0.839623
vt 0.917197 0.500000
vt 0.656051 0.367925
vt 0.656051 0.632075
vt 1.000000 0.632075
vt 1.000000 0.367925
vt 0.656051 0.367925
vt 0.656051 0.632075
vt 1.000000 0.632075
vt 1.000000 0.367925
vn -0.883190 0.456315 -0.108409
vn -0.925252 -0.369080 0.087685
vn -0.650794 0.456315 -0.606831
vn -0.800084 -0.369080 -0.472911
vn -0.169817 0.456315 -0.873464
vn -0.369311 -0.369080 -0.852871
vn 0.376024 0.456315 -0.806463
vn 0.202526 -0.369080 -0.907063
vn 0.778237 0.456315 -0.431421
vn 0.697005 -0.369080 -0.614788
vn 0.883190 0.456315 0.108409
vn 0.925252 -0.369080 -0.087685
vn 0.650794 0.456315 0.606831
vn 0.800084 -0.369080 0.472911
vn 0.169817 0.456315 0.873464
vn 0.369311 -0.369080 0.852871
vn -0.376024 0.456315 0.806463
vn -0.202526 -0.369080 0.907063
vn -0.778237 0.456315 0.431421
vn -0.697005 -0.369080 0.614788
vn 0.000000 1.000000 0.000000
vn 0.000000 -1.000000 0.000000
vn -0.321388 0.946308 -0.034808
vn -0.321388 -0.946308 0.034808
vn -0.239548 0.946308 -0.217067
vn -0.280468 -0.946308 -0.160746
vn -0.066209 0.946308 -0.316414
vn -0.132419 -0.946308 -0.294901
vn 0.132419 0.946308 -0.294901
vn 0.066209 -0.946308 -0.316414
vn 0.280468 0.946308 -0.160746
vn 0.239548 -0.946308 -0.217067
vn 0.321388 0.946308 0.034808
vn 0.321388 -0.946308 -0.034808
vn 0.239548 0.946308 0.217067
vn 0.280468 -0.946308 0.160746
vn 0.066209 0.946308 0.316414
vn 0.132419 -0.946308 0.294901
vn -0.132419 0.946308 0.294901
vn -0.066209 -0.946308 0.316414
vn -0.280468 0.946308 0.160746
vn -0.239548 -0.946308 0.217067
vn 0.000000 1.000000 0.000000
vn 0.000000 -1.000000 0.000000
vn 0.232873 0.279448 0.931493
vn -0.691714 0.207514 0.691714
vn -0.232873 -0.279448 0.931493
vn 0.691714 -0.207514 0.691714
vn 0.443242 0.132973 -0.886484
vn -0.394055 0.472866 -0.788110
vn -0.443242 -0.132973 -0.886484
vn 0.394055 -0.472866 -0.788110
vn 0.233982 0.263230 0.935929
vn -0.693525 0.195054 0.693525
vn -0.233982 -0.263230 0.935929
vn 0.693525 -0.195054 0.693525
vn 0.443717 0.124796 -0.887435
vn -0.399501 0.449439 -0.799002
vn -0.443717 -0.124796 -0.887435
vn 0.399501 -0.449439 -0.799002
vn 0.317573 0.329335 0.889205
vn -0.801356 0.207759 0.560949
vn -0.317573 -0.329335 0.889205
vn 0.801356 -0.207759 0.560949
vn 0.574749 0.149009 -0.804649
vn -0.497799 0.516236 -0.696919
vn -0.574749 -0.149009 -0.804649
vn 0.497799 -0.516236 -0.696919
usemtl Planter_Surface
f 1/1/1 3/3/3 4/4/4
f 1/1/1 4/4/4 2/2/2
f 21/21/21 3/3/3 1/1/1
f 22/22/22 2/2/2 4/4/4
f 3/3/3 5/5/5 6/6/6
f 3/3/3 6/6/6 4/4/4
f 21/21/21 5/5/5 3/3/3
f 22/22/22 4/4/4 6/6/6
f 5/5/5 7/7/7 8/8/8
f 5/5/5 8/8/8 6/6/6
f 21/21/21 7/7/7 5/5/5
f 22/22/22 6/6/6 8/8/8
f 7/7/7 9/9/9 10/10/10
f 7/7/7 10/10/10 8/8/8
f 21/21/21 9/9/9 7/7/7
f 22/22/22 8/8/8 10/10/10
f 9/9/9 11/11/11 12/12/12
f 9/9/9 12/12/12 10/10/10
f 21/21/21 11/11/11 9/9/9
f 22/22/22 10/10/10 12/12/12
f 11/11/11 13/13/13 14/14/14
f 11/11/11 14/14/14 12/12/12
f 21/21/21 13/13/13 11/11/11
f 22/22/22 12/12/12 14/14/14
f 13/13/13 15/15/15 16/16/16
f 13/13/13 16/16/16 14/14/14
f 21/21/21 15/15/15 13/13/13
f 22/22/22 14/14/14 16/16/16
f 15/15/15 17/17/17 18/18/18
f 15/15/15 18/18/18 16/16/16
f 21/21/21 17/17/17 15/15/15
f 22/22/22 16/16/16 18/18/18
f 17/17/17 19/19/19 20/20/20
f 17/17/17 20/20/20 18/18/18
f 21/21/21 19/19/19 17/17/17
f 22/22/22 18/18/18 20/20/20
f 19/19/19 1/1/1 2/2/2
f 19/19/19 2/2/2 20/20/20
f 21/21/21 1/1/1 19/19/19
f 22/22/22 20/20/20 2/2/2
f 23/23/23 25/25/25 26/26/26
f 23/23/23 26/26/26 24/24/24
f 43/43/43 25/25/25 23/23/23
f 44/44/44 24/24/24 26/26/26
f 25/25/25 27/27/27 28/28/28
f 25/25/25 28/28/28 26/26/26
f 43/43/43 27/27/27 25/25/25
f 44/44/44 26/26/26 28/28/28
f 27/27/27 29/29/29 30/30/30
f 27/27/27 30/30/30 28/28/28
f 43/43/43 29/29/29 27/27/27
f 44/44/44 28/28/28 30/30/30
f 29/29/29 31/31/31 32/32/32
f 29/29/29 32/32/32 30/30/30
f 43/43/43 31/31/31 29/29/29
f 44/44/44 30/30/30 32/32/32
f 31/31/31 33/33/33 34/34/34
f 31/31/31 34/34/34 32/32/32
f 43/43/43 33/33/33 31/31/31
f 44/44/44 32/32/32 34/34/34
f 33/33/33 35/35/35 36/36/36
f 33/33/33 36/36/36 34/34/34
f 43/43/43 35/35/35 33/33/33
f 44/44/44 34/34/34 36/36/36
f 35/35/35 37/37/37 38/38/38
f 35/35/35 38/38/38 36/36/36
f 43/43/43 37/37/37 35/35/35
f 44/44/44 36/36/36 38/38/38
f 37/37/37 39/39/39 40/40/40
f 37/37/37 40/40/40 38/38/38
f 43/43/43 39/39/39 37/37/37
f 44/44/44 38/38/38 40/40/40
f 39/39/39 41/41/41 42/42/42
f 39/39/39 42/42/42 40/40/40
f 43/43/43 41/41/41 39/39/39
f 44/44/44 40/40/40 42/42/42
f 41/41/41 23/23/23 24/24/24
f 41/41/41 24/24/24 42/42/42
f 43/43/43 23/23/23 41/41/41
f 44/44/44 42/42/42 24/24/24
f 45/45/45 46/46/46 47/47/47
f 45/45/45 47/47/47 48/48/48
f 49/49/49 51/51/51 50/50/50
f 49/49/49 52/52/52 51/51/51
f 45/45/45 49/49/49 50/50/50
f 45/45/45 50/50/50 46/46/46
f 46/46/46 50/50/50 51/51/51
f 46/46/46 51/51/51 47/47/47
f 47/47/47 51/51/51 52/52/52
f 47/47/47 52/52/52 48/48/48
f 48/48/48 52/52/52 49/49/49
f 48/48/48 49/49/49 45/45/45
f 53/53/53 54/54/54 55/55/55
f 53/53/53 55/55/55 56/56/56
f 57/57/57 59/59/59 58/58/58
f 57/57/57 60/60/60 59/59/59
f 53/53/53 57/57/57 58/58/58
f 53/53/53 58/58/58 54/54/54
f 54/54/54 58/58/58 59/59/59
f 54/54/54 59/59/59 55/55/55
f 55/55/55 59/59/59 60/60/60
f 55/55/55 60/60/60 56/56/56
f 56/56/56 60/60/60 57/57/57
f 56/56/56 57/57/57 53/53/53
f 61/61/61 62/62/62 63/63/63
f 61/61/61 63/63/63 64/64/64
f 65/65/65 67/67/67 66/66/66
f 65/65/65 68/68/68 67/67/67
f 61/61/61 65/65/65 66/66/66
f 61/61/61 66/66/66 62/62/62
f 62/62/62 66/66/66 67/67/67
f 62/62/62 67/67/67 63/63/63
f 63/63/63 67/67/67 68/68/68
f 63/63/63 68/68/68 64/64/64
f 64/64/64 68/68/68 65/65/65
f 64/64/64 65/65/65 61/61/61
