# UART-005 deterministic mobile LOD authored source
mtllib SM_Prop_CairoSign_A_MobileLOD.mtl
o SM_Prop_CairoSign_A_LOD2
s 1
v 0.02000 -1.74000 0.49000
v 0.14000 -1.74000 0.49000
v 0.14000 -0.82000 0.49000
v 0.02000 -0.82000 0.49000
v 0.02000 -1.74000 2.01000
v 0.14000 -1.74000 2.01000
v 0.14000 -0.82000 2.01000
v 0.02000 -0.82000 2.01000
vt 0.000000 0.000000
vt 0.000000 0.000000
vt 0.000000 1.000000
vt 0.000000 1.000000
vt 1.000000 0.000000
vt 1.000000 0.000000
vt 1.000000 1.000000
vt 1.000000 1.000000
vn 0.956518 0.249526 0.151029
vn -0.997107 0.065029 0.039359
vn -0.956518 -0.249526 0.151029
vn 0.997107 -0.065029 0.039359
vn 0.994798 0.064878 -0.078537
vn -0.964806 0.251689 -0.076169
vn -0.994798 -0.064878 -0.078537
vn 0.964806 -0.251689 -0.076169
usemtl Sign_Surface
f 1/1/1 2/2/2 3/3/3
f 1/1/1 3/3/3 4/4/4
f 5/5/5 7/7/7 6/6/6
f 5/5/5 8/8/8 7/7/7
f 1/1/1 5/5/5 6/6/6
f 1/1/1 6/6/6 2/2/2
f 2/2/2 6/6/6 7/7/7
f 2/2/2 7/7/7 3/3/3
f 3/3/3 7/7/7 8/8/8
f 3/3/3 8/8/8 4/4/4
f 4/4/4 8/8/8 5/5/5
f 4/4/4 5/5/5 1/1/1
