# 3Fareet authored production-source candidate
o SM_Prop_CairoLamp_A
s 1
v 0.26000 0.00000 0.10000
v 0.23856 0.00000 0.18000
v 0.18000 0.00000 0.23856
v 0.10000 0.00000 0.26000
v 0.02000 0.00000 0.23856
v -0.03856 0.00000 0.18000
v -0.06000 0.00000 0.10000
v -0.03856 0.00000 0.02000
v 0.02000 0.00000 -0.03856
v 0.10000 0.00000 -0.06000
v 0.18000 0.00000 -0.03856
v 0.23856 0.00000 0.02000
v 0.26000 0.36000 0.10000
v 0.23856 0.36000 0.18000
v 0.18000 0.36000 0.23856
v 0.10000 0.36000 0.26000
v 0.02000 0.36000 0.23856
v -0.03856 0.36000 0.18000
v -0.06000 0.36000 0.10000
v -0.03856 0.36000 0.02000
v 0.02000 0.36000 -0.03856
v 0.10000 0.36000 -0.06000
v 0.18000 0.36000 -0.03856
v 0.23856 0.36000 0.02000
v 0.10000 0.00000 0.10000
v 0.10000 0.36000 0.10000
v 0.15500 0.27500 0.10000
v 0.14763 0.27500 0.12750
v 0.12750 0.27500 0.14763
v 0.10000 0.27500 0.15500
v 0.07250 0.27500 0.14763
v 0.05237 0.27500 0.12750
v 0.04500 0.27500 0.10000
v 0.05237 0.27500 0.07250
v 0.07250 0.27500 0.05237
v 0.10000 0.27500 0.04500
v 0.12750 0.27500 0.05237
v 0.14763 0.27500 0.07250
v 0.15500 2.82500 0.10000
v 0.14763 2.82500 0.12750
v 0.12750 2.82500 0.14763
v 0.10000 2.82500 0.15500
v 0.07250 2.82500 0.14763
v 0.05237 2.82500 0.12750
v 0.04500 2.82500 0.10000
v 0.05237 2.82500 0.07250
v 0.07250 2.82500 0.05237
v 0.10000 2.82500 0.04500
v 0.12750 2.82500 0.05237
v 0.14763 2.82500 0.07250
v 0.10000 0.27500 0.10000
v 0.10000 2.82500 0.10000
v 0.32000 2.75000 0.10000
v 0.29053 2.75000 0.21000
v 0.21000 2.75000 0.29053
v 0.10000 2.75000 0.32000
v -0.01000 2.75000 0.29053
v -0.09053 2.75000 0.21000
v -0.12000 2.75000 0.10000
v -0.09053 2.75000 -0.01000
v -0.01000 2.75000 -0.09053
v 0.10000 2.75000 -0.12000
v 0.21000 2.75000 -0.09053
v 0.29053 2.75000 -0.01000
v 0.32000 3.15000 0.10000
v 0.29053 3.15000 0.21000
v 0.21000 3.15000 0.29053
v 0.10000 3.15000 0.32000
v -0.01000 3.15000 0.29053
v -0.09053 3.15000 0.21000
v -0.12000 3.15000 0.10000
v -0.09053 3.15000 -0.01000
v -0.01000 3.15000 -0.09053
v 0.10000 3.15000 -0.12000
v 0.21000 3.15000 -0.09053
v 0.29053 3.15000 -0.01000
v 0.10000 2.75000 0.10000
v 0.10000 3.15000 0.10000
v -0.26000 2.71000 0.07000
v 0.46000 2.71000 0.07000
v 0.46000 2.77000 0.07000
v -0.26000 2.77000 0.07000
v -0.26000 2.71000 0.13000
v 0.46000 2.71000 0.13000
v 0.46000 2.77000 0.13000
v -0.26000 2.77000 0.13000
v -0.13000 2.51000 0.10000
v -0.15292 2.51000 0.17053
v -0.21292 2.51000 0.21413
v -0.28708 2.51000 0.21413
v -0.34708 2.51000 0.17053
v -0.37000 2.51000 0.10000
v -0.34708 2.51000 0.02947
v -0.28708 2.51000 -0.01413
v -0.21292 2.51000 -0.01413
v -0.15292 2.51000 0.02947
v -0.13000 2.73000 0.10000
v -0.15292 2.73000 0.17053
v -0.21292 2.73000 0.21413
v -0.28708 2.73000 0.21413
v -0.34708 2.73000 0.17053
v -0.37000 2.73000 0.10000
v -0.34708 2.73000 0.02947
v -0.28708 2.73000 -0.01413
v -0.21292 2.73000 -0.01413
v -0.15292 2.73000 0.02947
v -0.25000 2.51000 0.10000
v -0.25000 2.73000 0.10000
v 0.57000 2.51000 0.10000
v 0.54708 2.51000 0.17053
v 0.48708 2.51000 0.21413
v 0.41292 2.51000 0.21413
v 0.35292 2.51000 0.17053
v 0.33000 2.51000 0.10000
v 0.35292 2.51000 0.02947
v 0.41292 2.51000 -0.01413
v 0.48708 2.51000 -0.01413
v 0.54708 2.51000 0.02947
v 0.57000 2.73000 0.10000
v 0.54708 2.73000 0.17053
v 0.48708 2.73000 0.21413
v 0.41292 2.73000 0.21413
v 0.35292 2.73000 0.17053
v 0.33000 2.73000 0.10000
v 0.35292 2.73000 0.02947
v 0.41292 2.73000 -0.01413
v 0.48708 2.73000 -0.01413
v 0.54708 2.73000 0.02947
v 0.45000 2.51000 0.10000
v 0.45000 2.73000 0.10000
g Base
f 1 2 14
f 1 14 13
f 25 2 1
f 26 13 14
f 2 3 15
f 2 15 14
f 25 3 2
f 26 14 15
f 3 4 16
f 3 16 15
f 25 4 3
f 26 15 16
f 4 5 17
f 4 17 16
f 25 5 4
f 26 16 17
f 5 6 18
f 5 18 17
f 25 6 5
f 26 17 18
f 6 7 19
f 6 19 18
f 25 7 6
f 26 18 19
f 7 8 20
f 7 20 19
f 25 8 7
f 26 19 20
f 8 9 21
f 8 21 20
f 25 9 8
f 26 20 21
f 9 10 22
f 9 22 21
f 25 10 9
f 26 21 22
f 10 11 23
f 10 23 22
f 25 11 10
f 26 22 23
f 11 12 24
f 11 24 23
f 25 12 11
f 26 23 24
f 12 1 13
f 12 13 24
f 25 1 12
f 26 24 13
g Pole
f 27 28 40
f 27 40 39
f 51 28 27
f 52 39 40
f 28 29 41
f 28 41 40
f 51 29 28
f 52 40 41
f 29 30 42
f 29 42 41
f 51 30 29
f 52 41 42
f 30 31 43
f 30 43 42
f 51 31 30
f 52 42 43
f 31 32 44
f 31 44 43
f 51 32 31
f 52 43 44
f 32 33 45
f 32 45 44
f 51 33 32
f 52 44 45
f 33 34 46
f 33 46 45
f 51 34 33
f 52 45 46
f 34 35 47
f 34 47 46
f 51 35 34
f 52 46 47
f 35 36 48
f 35 48 47
f 51 36 35
f 52 47 48
f 36 37 49
f 36 49 48
f 51 37 36
f 52 48 49
f 37 38 50
f 37 50 49
f 51 38 37
f 52 49 50
f 38 27 39
f 38 39 50
f 51 27 38
f 52 50 39
g Lantern
f 53 54 66
f 53 66 65
f 77 54 53
f 78 65 66
f 54 55 67
f 54 67 66
f 77 55 54
f 78 66 67
f 55 56 68
f 55 68 67
f 77 56 55
f 78 67 68
f 56 57 69
f 56 69 68
f 77 57 56
f 78 68 69
f 57 58 70
f 57 70 69
f 77 58 57
f 78 69 70
f 58 59 71
f 58 71 70
f 77 59 58
f 78 70 71
f 59 60 72
f 59 72 71
f 77 60 59
f 78 71 72
f 60 61 73
f 60 73 72
f 77 61 60
f 78 72 73
f 61 62 74
f 61 74 73
f 77 62 61
f 78 73 74
f 62 63 75
f 62 75 74
f 77 63 62
f 78 74 75
f 63 64 76
f 63 76 75
f 77 64 63
f 78 75 76
f 64 53 65
f 64 65 76
f 77 53 64
f 78 76 65
g Arm
f 79 80 81
f 79 81 82
f 84 83 86
f 84 86 85
f 83 79 82
f 83 82 86
f 80 84 85
f 80 85 81
f 82 81 85
f 82 85 86
f 83 84 80
f 83 80 79
g Lantern
f 87 88 98
f 87 98 97
f 107 88 87
f 108 97 98
f 88 89 99
f 88 99 98
f 107 89 88
f 108 98 99
f 89 90 100
f 89 100 99
f 107 90 89
f 108 99 100
f 90 91 101
f 90 101 100
f 107 91 90
f 108 100 101
f 91 92 102
f 91 102 101
f 107 92 91
f 108 101 102
f 92 93 103
f 92 103 102
f 107 93 92
f 108 102 103
f 93 94 104
f 93 104 103
f 107 94 93
f 108 103 104
f 94 95 105
f 94 105 104
f 107 95 94
f 108 104 105
f 95 96 106
f 95 106 105
f 107 96 95
f 108 105 106
f 96 87 97
f 96 97 106
f 107 87 96
f 108 106 97
f 109 110 120
f 109 120 119
f 129 110 109
f 130 119 120
f 110 111 121
f 110 121 120
f 129 111 110
f 130 120 121
f 111 112 122
f 111 122 121
f 129 112 111
f 130 121 122
f 112 113 123
f 112 123 122
f 129 113 112
f 130 122 123
f 113 114 124
f 113 124 123
f 129 114 113
f 130 123 124
f 114 115 125
f 114 125 124
f 129 115 114
f 130 124 125
f 115 116 126
f 115 126 125
f 129 116 115
f 130 125 126
f 116 117 127
f 116 127 126
f 129 117 116
f 130 126 127
f 117 118 128
f 117 128 127
f 129 118 117
f 130 127 128
f 118 109 119
f 118 119 128
f 129 109 118
f 130 128 119
