# 3Fareet authored production-source candidate
o SM_Prop_CairoBarrier_A
s 1
v 0.09000 0.13000 0.05000
v 1.91000 0.13000 0.05000
v 1.91000 0.55000 0.05000
v 0.09000 0.55000 0.05000
v 0.09000 0.13000 0.35000
v 1.91000 0.13000 0.35000
v 1.91000 0.55000 0.35000
v 0.09000 0.55000 0.35000
v 0.22500 0.53000 0.09000
v 1.77500 0.53000 0.09000
v 1.77500 0.65000 0.09000
v 0.22500 0.65000 0.09000
v 0.22500 0.53000 0.31000
v 1.77500 0.53000 0.31000
v 1.77500 0.65000 0.31000
v 0.22500 0.65000 0.31000
v 0.05000 0.00000 0.03000
v 0.31000 0.00000 0.03000
v 0.31000 0.24000 0.03000
v 0.05000 0.24000 0.03000
v 0.05000 0.00000 0.37000
v 0.31000 0.00000 0.37000
v 0.31000 0.24000 0.37000
v 0.05000 0.24000 0.37000
v 1.69000 0.00000 0.03000
v 1.95000 0.00000 0.03000
v 1.95000 0.24000 0.03000
v 1.69000 0.24000 0.03000
v 1.69000 0.00000 0.37000
v 1.95000 0.00000 0.37000
v 1.95000 0.24000 0.37000
v 1.69000 0.24000 0.37000
v 0.31000 0.27500 0.00000
v 0.59000 0.27500 0.00000
v 0.59000 0.44500 0.00000
v 0.31000 0.44500 0.00000
v 0.31000 0.27500 0.04000
v 0.59000 0.27500 0.04000
v 0.59000 0.44500 0.04000
v 0.31000 0.44500 0.04000
v 1.41000 0.27500 0.00000
v 1.69000 0.27500 0.00000
v 1.69000 0.44500 0.00000
v 1.41000 0.44500 0.00000
v 1.41000 0.27500 0.04000
v 1.69000 0.27500 0.04000
v 1.69000 0.44500 0.04000
v 1.41000 0.44500 0.04000
g Body
f 1 2 3
f 1 3 4
f 6 5 8
f 6 8 7
f 5 1 4
f 5 4 8
f 2 6 7
f 2 7 3
f 4 3 7
f 4 7 8
f 5 6 2
f 5 2 1
g TopCap
f 9 10 11
f 9 11 12
f 14 13 16
f 14 16 15
f 13 9 12
f 13 12 16
f 10 14 15
f 10 15 11
f 12 11 15
f 12 15 16
f 13 14 10
f 13 10 9
g Feet
f 17 18 19
f 17 19 20
f 22 21 24
f 22 24 23
f 21 17 20
f 21 20 24
f 18 22 23
f 18 23 19
f 20 19 23
f 20 23 24
f 21 22 18
f 21 18 17
f 25 26 27
f 25 27 28
f 30 29 32
f 30 32 31
f 29 25 28
f 29 28 32
f 26 30 31
f 26 31 27
f 28 27 31
f 28 31 32
f 29 30 26
f 29 26 25
g Reflector
f 33 34 35
f 33 35 36
f 38 37 40
f 38 40 39
f 37 33 36
f 37 36 40
f 34 38 39
f 34 39 35
f 36 35 39
f 36 39 40
f 37 38 34
f 37 34 33
f 41 42 43
f 41 43 44
f 46 45 48
f 46 48 47
f 45 41 44
f 45 44 48
f 42 46 47
f 42 47 43
f 44 43 47
f 44 47 48
f 45 46 42
f 45 42 41
