# UART-006 topology-preserving candidate surface authoring
mtllib SM_Prop_CairoPlanter_A.mtl
# UART-005 authored roadside clutter source: SM_Prop_CairoPlanter_A
o SM_Prop_CairoPlanter_A
s 1
v 0.42000 0.00000 0.00000
v 0.50000 0.62000 0.00000
v 0.38803 0.00000 0.16073
v 0.46194 0.62000 0.19134
v 0.29698 0.00000 0.29698
v 0.35355 0.62000 0.35355
v 0.16073 0.00000 0.38803
v 0.19134 0.62000 0.46194
v 0.00000 0.00000 0.42000
v 0.00000 0.62000 0.50000
v -0.16073 0.00000 0.38803
v -0.19134 0.62000 0.46194
v -0.29698 0.00000 0.29698
v -0.35355 0.62000 0.35355
v -0.38803 0.00000 0.16073
v -0.46194 0.62000 0.19134
v -0.42000 0.00000 0.00000
v -0.50000 0.62000 0.00000
v -0.38803 0.00000 -0.16073
v -0.46194 0.62000 -0.19134
v -0.29698 0.00000 -0.29698
v -0.35355 0.62000 -0.35355
v -0.16073 0.00000 -0.38803
v -0.19134 0.62000 -0.46194
v -0.00000 0.00000 -0.42000
v -0.00000 0.62000 -0.50000
v 0.16073 0.00000 -0.38803
v 0.19134 0.62000 -0.46194
v 0.29698 0.00000 -0.29698
v 0.35355 0.62000 -0.35355
v 0.38803 0.00000 -0.16073
v 0.46194 0.62000 -0.19134
v 0.00000 0.00000 0.00000
v 0.00000 0.62000 0.00000
v 0.54000 0.58000 0.00000
v 0.54000 0.72000 0.00000
v 0.49889 0.58000 0.20665
v 0.49889 0.72000 0.20665
v 0.38184 0.58000 0.38184
v 0.38184 0.72000 0.38184
v 0.20665 0.58000 0.49889
v 0.20665 0.72000 0.49889
v 0.00000 0.58000 0.54000
v 0.00000 0.72000 0.54000
v -0.20665 0.58000 0.49889
v -0.20665 0.72000 0.49889
v -0.38184 0.58000 0.38184
v -0.38184 0.72000 0.38184
v -0.49889 0.58000 0.20665
v -0.49889 0.72000 0.20665
v -0.54000 0.58000 0.00000
v -0.54000 0.72000 0.00000
v -0.49889 0.58000 -0.20665
v -0.49889 0.72000 -0.20665
v -0.38184 0.58000 -0.38184
v -0.38184 0.72000 -0.38184
v -0.20665 0.58000 -0.49889
v -0.20665 0.72000 -0.49889
v -0.00000 0.58000 -0.54000
v -0.00000 0.72000 -0.54000
v 0.20665 0.58000 -0.49889
v 0.20665 0.72000 -0.49889
v 0.38184 0.58000 -0.38184
v 0.38184 0.72000 -0.38184
v 0.49889 0.58000 -0.20665
v 0.49889 0.72000 -0.20665
v 0.00000 0.58000 0.00000
v 0.00000 0.72000 0.00000
v 0.43000 0.70000 0.00000
v 0.43000 0.76000 0.00000
v 0.39727 0.70000 0.16455
v 0.39727 0.76000 0.16455
v 0.30406 0.70000 0.30406
v 0.30406 0.76000 0.30406
v 0.16455 0.70000 0.39727
v 0.16455 0.76000 0.39727
v 0.00000 0.70000 0.43000
v 0.00000 0.76000 0.43000
v -0.16455 0.70000 0.39727
v -0.16455 0.76000 0.39727
v -0.30406 0.70000 0.30406
v -0.30406 0.76000 0.30406
v -0.39727 0.70000 0.16455
v -0.39727 0.76000 0.16455
v -0.43000 0.70000 0.00000
v -0.43000 0.76000 0.00000
v -0.39727 0.70000 -0.16455
v -0.39727 0.76000 -0.16455
v -0.30406 0.70000 -0.30406
v -0.30406 0.76000 -0.30406
v -0.16455 0.70000 -0.39727
v -0.16455 0.76000 -0.39727
v -0.00000 0.70000 -0.43000
v -0.00000 0.76000 -0.43000
v 0.16455 0.70000 -0.39727
v 0.16455 0.76000 -0.39727
v 0.30406 0.70000 -0.30406
v 0.30406 0.76000 -0.30406
v 0.39727 0.70000 -0.16455
v 0.39727 0.76000 -0.16455
v 0.00000 0.70000 0.00000
v 0.00000 0.76000 0.00000
v -0.04000 0.72000 -0.04000
v 0.04000 0.72000 -0.04000
v 0.04000 1.28000 -0.04000
v -0.04000 1.28000 -0.04000
v -0.04000 0.72000 0.04000
v 0.04000 0.72000 0.04000
v 0.04000 1.28000 0.04000
v -0.04000 1.28000 0.04000
v -0.16000 0.72000 0.04000
v -0.08000 0.72000 0.04000
v -0.08000 1.28000 0.04000
v -0.16000 1.28000 0.04000
v -0.16000 0.72000 0.12000
v -0.08000 0.72000 0.12000
v -0.08000 1.28000 0.12000
v -0.16000 1.28000 0.12000
v 0.08000 0.72000 -0.09000
v 0.16000 0.72000 -0.09000
v 0.16000 1.28000 -0.09000
v 0.08000 1.28000 -0.09000
v 0.08000 0.72000 -0.01000
v 0.16000 0.72000 -0.01000
v 0.16000 1.28000 -0.01000
v 0.08000 1.28000 -0.01000
v -0.53000 1.22000 -0.09000
v -0.03000 1.22000 -0.09000
v -0.03000 1.34000 -0.09000
v -0.53000 1.34000 -0.09000
v -0.53000 1.22000 0.15000
v -0.03000 1.22000 0.15000
v -0.03000 1.34000 0.15000
v -0.53000 1.34000 0.15000
v 0.03000 1.17000 -0.12000
v 0.53000 1.17000 -0.12000
v 0.53000 1.29000 -0.12000
v 0.03000 1.29000 -0.12000
v 0.03000 1.17000 0.12000
v 0.53000 1.17000 0.12000
v 0.53000 1.29000 0.12000
v 0.03000 1.29000 0.12000
v -0.14000 1.36000 -0.43000
v 0.14000 1.36000 -0.43000
v 0.14000 1.48000 -0.43000
v -0.14000 1.48000 -0.43000
v -0.14000 1.36000 0.03000
v 0.14000 1.36000 0.03000
v 0.14000 1.48000 0.03000
v -0.14000 1.48000 0.03000
v -0.14000 1.32000 -0.03000
v 0.14000 1.32000 -0.03000
v 0.14000 1.44000 -0.03000
v -0.14000 1.44000 -0.03000
v -0.14000 1.32000 0.43000
v 0.14000 1.32000 0.43000
v 0.14000 1.44000 0.43000
v -0.14000 1.44000 0.43000
v -0.33000 1.49000 -0.24000
v 0.01000 1.49000 -0.24000
v 0.01000 1.59000 -0.24000
v -0.33000 1.59000 -0.24000
v -0.33000 1.49000 0.00000
v 0.01000 1.49000 0.00000
v 0.01000 1.59000 0.00000
v -0.33000 1.59000 0.00000
v 0.01000 1.47000 0.00000
v 0.35000 1.47000 0.00000
v 0.35000 1.57000 0.00000
v 0.01000 1.57000 0.00000
v 0.01000 1.47000 0.24000
v 0.35000 1.47000 0.24000
v 0.35000 1.57000 0.24000
v 0.01000 1.57000 0.24000
vt 0.000000 0.888889
vt 0.389937 0.962963
vt 0.000000 0.859287
vt 0.389937 0.927722
vt 0.000000 0.774981
vt 0.389937 0.827361
vt 0.000000 0.648824
vt 0.389937 0.677167
vt 0.000000 0.500000
vt 0.389937 0.500000
vt 0.000000 0.351176
vt 0.389937 0.322833
vt 0.000000 0.225019
vt 0.389937 0.172639
vt 0.000000 0.140713
vt 0.389937 0.072278
vt 0.000000 0.111111
vt 0.389937 0.037037
vt 0.000000 0.140713
vt 0.389937 0.072278
vt 0.000000 0.225019
vt 0.389937 0.172639
vt 0.000000 0.351176
vt 0.389937 0.322833
vt 0.000000 0.500000
vt 0.389937 0.500000
vt 0.000000 0.648824
vt 0.389937 0.677167
vt 0.000000 0.774981
vt 0.389937 0.827361
vt 0.000000 0.859287
vt 0.389937 0.927722
vt 0.000000 0.500000
vt 0.389937 0.500000
vt 0.364780 1.000000
vt 0.452830 1.000000
vt 0.364780 0.961935
vt 0.452830 0.961935
vt 0.364780 0.853556
vt 0.452830 0.853556
vt 0.364780 0.691343
vt 0.452830 0.691343
vt 0.364780 0.500000
vt 0.452830 0.500000
vt 0.364780 0.308657
vt 0.452830 0.308657
vt 0.364780 0.146444
vt 0.452830 0.146444
vt 0.364780 0.038065
vt 0.452830 0.038065
vt 0.364780 0.000000
vt 0.452830 0.000000
vt 0.364780 0.038065
vt 0.452830 0.038065
vt 0.364780 0.146444
vt 0.452830 0.146444
vt 0.364780 0.308657
vt 0.452830 0.308657
vt 0.364780 0.500000
vt 0.452830 0.500000
vt 0.364780 0.691343
vt 0.452830 0.691343
vt 0.364780 0.853556
vt 0.452830 0.853556
vt 0.364780 0.961935
vt 0.452830 0.961935
vt 0.364780 0.500000
vt 0.452830 0.500000
vt 0.440252 0.898148
vt 0.477987 0.898148
vt 0.440252 0.867843
vt 0.477987 0.867843
vt 0.440252 0.781537
vt 0.477987 0.781537
vt 0.440252 0.652361
vt 0.477987 0.652361
vt 0.440252 0.500000
vt 0.477987 0.500000
vt 0.440252 0.347639
vt 0.477987 0.347639
vt 0.440252 0.218463
vt 0.477987 0.218463
vt 0.440252 0.132157
vt 0.477987 0.132157
vt 0.440252 0.101852
vt 0.477987 0.101852
vt 0.440252 0.132157
vt 0.477987 0.132157
vt 0.440252 0.218463
vt 0.477987 0.218463
vt 0.440252 0.347639
vt 0.477987 0.347639
vt 0.440252 0.500000
vt 0.477987 0.500000
vt 0.440252 0.652361
vt 0.477987 0.652361
vt 0.440252 0.781537
vt 0.477987 0.781537
vt 0.440252 0.867843
vt 0.477987 0.867843
vt 0.440252 0.500000
vt 0.477987 0.500000
vt 0.452830 0.462963
vt 0.452830 0.537037
vt 0.805031 0.537037
vt 0.805031 0.462963
vt 0.452830 0.462963
vt 0.452830 0.537037
vt 0.805031 0.537037
vt 0.805031 0.462963
vt 0.452830 0.351852
vt 0.452830 0.425926
vt 0.805031 0.425926
vt 0.805031 0.351852
vt 0.452830 0.351852
vt 0.452830 0.425926
vt 0.805031 0.425926
vt 0.805031 0.351852
vt 0.452830 0.574074
vt 0.452830 0.648148
vt 0.805031 0.648148
vt 0.805031 0.574074
vt 0.452830 0.574074
vt 0.452830 0.648148
vt 0.805031 0.648148
vt 0.805031 0.574074
vt 0.767296 0.009259
vt 0.767296 0.472222
vt 0.842767 0.472222
vt 0.842767 0.009259
vt 0.767296 0.009259
vt 0.767296 0.472222
vt 0.842767 0.472222
vt 0.842767 0.009259
vt 0.735849 0.527778
vt 0.735849 0.990741
vt 0.811321 0.990741
vt 0.811321 0.527778
vt 0.735849 0.527778
vt 0.735849 0.990741
vt 0.811321 0.990741
vt 0.811321 0.527778
vt 0.855346 0.370370
vt 0.855346 0.629630
vt 0.930818 0.629630
vt 0.930818 0.370370
vt 0.855346 0.370370
vt 0.855346 0.629630
vt 0.930818 0.629630
vt 0.930818 0.370370
vt 0.830189 0.370370
vt 0.830189 0.629630
vt 0.905660 0.629630
vt 0.905660 0.370370
vt 0.830189 0.370370
vt 0.830189 0.629630
vt 0.905660 0.629630
vt 0.905660 0.370370
vt 0.937107 0.194444
vt 0.937107 0.509259
vt 1.000000 0.509259
vt 1.000000 0.194444
vt 0.937107 0.194444
vt 0.937107 0.509259
vt 1.000000 0.509259
vt 1.000000 0.194444
vt 0.924528 0.509259
vt 0.924528 0.824074
vt 0.987421 0.824074
vt 0.987421 0.509259
vt 0.924528 0.509259
vt 0.924528 0.824074
vt 0.987421 0.824074
vt 0.987421 0.509259
vn -0.873012 0.483375 -0.064795
vn -0.914364 -0.401303 0.053794
vn -0.781755 0.483372 -0.393967
vn -0.865347 -0.401305 -0.300216
vn -0.571503 0.483366 -0.663130
vn -0.684581 -0.401304 -0.608526
vn -0.274234 0.483373 -0.831352
vn -0.399630 -0.401309 -0.824164
vn 0.064795 0.483375 -0.873012
vn -0.053794 -0.401303 -0.914364
vn 0.393967 0.483372 -0.781755
vn 0.300216 -0.401305 -0.865347
vn 0.663130 0.483366 -0.571503
vn 0.608526 -0.401304 -0.684581
vn 0.831352 0.483373 -0.274234
vn 0.824164 -0.401309 -0.399630
vn 0.873012 0.483375 0.064795
vn 0.914364 -0.401303 -0.053794
vn 0.781755 0.483372 0.393967
vn 0.865347 -0.401305 0.300216
vn 0.571503 0.483366 0.663130
vn 0.684581 -0.401304 0.608526
vn 0.274234 0.483373 0.831352
vn 0.399630 -0.401309 0.824164
vn -0.064795 0.483375 0.873012
vn 0.053794 -0.401303 0.914364
vn -0.393967 0.483372 0.781755
vn -0.300216 -0.401305 0.865347
vn -0.663130 0.483366 0.571503
vn -0.608526 -0.401304 0.684581
vn -0.831352 0.483373 0.274234
vn -0.824164 -0.401309 0.399630
vn 0.000000 1.000000 0.000000
vn 0.000000 -1.000000 0.000000
vn -0.362342 0.931736 -0.024028
vn -0.362342 -0.931736 0.024028
vn -0.325570 0.931735 -0.160853
vn -0.343957 -0.931734 -0.116468
vn -0.239222 0.931736 -0.273204
vn -0.273204 -0.931736 -0.239222
vn -0.116468 0.931734 -0.343957
vn -0.160853 -0.931735 -0.325570
vn 0.024028 0.931736 -0.362342
vn -0.024028 -0.931736 -0.362342
vn 0.160853 0.931735 -0.325570
vn 0.116468 -0.931734 -0.343957
vn 0.273204 0.931736 -0.239222
vn 0.239222 -0.931736 -0.273204
vn 0.343957 0.931734 -0.116468
vn 0.325570 -0.931735 -0.160853
vn 0.362342 0.931736 0.024028
vn 0.362342 -0.931736 -0.024028
vn 0.325570 0.931735 0.160853
vn 0.343957 -0.931734 0.116468
vn 0.239222 0.931736 0.273204
vn 0.273204 -0.931736 0.239222
vn 0.116468 0.931734 0.343957
vn 0.160853 -0.931735 0.325570
vn -0.024028 0.931736 0.362342
vn 0.024028 -0.931736 0.362342
vn -0.160853 0.931735 0.325570
vn -0.116468 -0.931734 0.343957
vn -0.273204 0.931736 0.239222
vn -0.239222 -0.931736 0.273204
vn -0.343957 0.931734 0.116468
vn -0.325570 -0.931735 0.160853
vn 0.000000 1.000000 0.000000
vn 0.000000 -1.000000 0.000000
vn -0.204844 0.978700 -0.013582
vn -0.204844 -0.978700 0.013582
vn -0.184057 0.978700 -0.090935
vn -0.194448 -0.978701 -0.065839
vn -0.135239 0.978701 -0.154451
vn -0.154451 -0.978701 -0.135239
vn -0.065839 0.978701 -0.194448
vn -0.090935 -0.978700 -0.184057
vn 0.013582 0.978700 -0.204844
vn -0.013582 -0.978700 -0.204844
vn 0.090935 0.978700 -0.184057
vn 0.065839 -0.978701 -0.194448
vn 0.154451 0.978701 -0.135239
vn 0.135239 -0.978701 -0.154451
vn 0.194448 0.978701 -0.065839
vn 0.184057 -0.978700 -0.090935
vn 0.204844 0.978700 0.013582
vn 0.204844 -0.978700 -0.013582
vn 0.184057 0.978700 0.090935
vn 0.194448 -0.978701 0.065839
vn 0.135239 0.978701 0.154451
vn 0.154451 -0.978701 0.135239
vn 0.065839 0.978701 0.194448
vn 0.090935 -0.978700 0.184057
vn -0.013582 0.978700 0.204844
vn 0.013582 -0.978700 0.204844
vn -0.090935 0.978700 0.184057
vn -0.065839 -0.978701 0.194448
vn -0.154451 0.978701 0.135239
vn -0.135239 -0.978701 0.154451
vn -0.194448 0.978701 0.065839
vn -0.184057 -0.978700 0.090935
vn 0.000000 1.000000 0.000000
vn 0.000000 -1.000000 0.000000
vn 0.443607 0.126745 0.887214
vn -0.892607 0.063758 0.446304
vn -0.443607 -0.126745 0.887214
vn 0.892607 -0.063758 0.446304
vn 0.706207 0.050443 -0.706207
vn -0.693103 0.198030 -0.693103
vn -0.706207 -0.050443 -0.706207
vn 0.693103 -0.198030 -0.693103
vn 0.443607 0.126745 0.887214
vn -0.892607 0.063758 0.446304
vn -0.443607 -0.126745 0.887214
vn 0.892607 -0.063758 0.446304
vn 0.706207 0.050443 -0.706207
vn -0.693103 0.198030 -0.693103
vn -0.706207 -0.050443 -0.706207
vn 0.693103 -0.198030 -0.693103
vn 0.443607 0.126745 0.887214
vn -0.892607 0.063758 0.446304
vn -0.443607 -0.126745 0.887214
vn 0.892607 -0.063758 0.446304
vn 0.706207 0.050443 -0.706207
vn -0.693103 0.198030 -0.693103
vn -0.706207 -0.050443 -0.706207
vn 0.693103 -0.198030 -0.693103
vn 0.106718 0.889319 0.444660
vn -0.394504 0.821884 0.410942
vn -0.106718 -0.889319 0.444660
vn 0.394504 -0.821884 0.410942
vn 0.321403 0.669589 -0.669589
vn -0.115636 0.963634 -0.240909
vn -0.321403 -0.669589 -0.669589
vn 0.115636 -0.963634 -0.240909
vn 0.106718 0.889319 0.444660
vn -0.394504 0.821884 0.410942
vn -0.106718 -0.889319 0.444660
vn 0.394504 -0.821884 0.410942
vn 0.321403 0.669589 -0.669589
vn -0.115636 0.963634 -0.240909
vn -0.321403 -0.669589 -0.669589
vn 0.115636 -0.963634 -0.240909
vn 0.203028 0.947465 0.247165
vn -0.638390 0.744788 0.194293
vn -0.203028 -0.947465 0.247165
vn 0.638390 -0.744788 0.194293
vn 0.605048 0.705889 -0.368290
vn -0.207845 0.969946 -0.126515
vn -0.605048 -0.705889 -0.368290
vn 0.207845 -0.969946 -0.126515
vn 0.203028 0.947465 0.247165
vn -0.638390 0.744788 0.194293
vn -0.203028 -0.947465 0.247165
vn 0.638390 -0.744788 0.194293
vn 0.605048 0.705889 -0.368290
vn -0.207845 0.969946 -0.126515
vn -0.605048 -0.705889 -0.368290
vn 0.207845 -0.969946 -0.126515
vn 0.134513 0.914688 0.381120
vn -0.477180 0.811205 0.338002
vn -0.134513 -0.914688 0.381120
vn 0.477180 -0.811205 0.338002
vn 0.411800 0.700060 -0.583384
vn -0.142499 0.968990 -0.201873
vn -0.411800 -0.700060 -0.583384
vn 0.142499 -0.968990 -0.201873
vn 0.134513 0.914688 0.381120
vn -0.477180 0.811205 0.338002
vn -0.134513 -0.914688 0.381120
vn 0.477180 -0.811205 0.338002
vn 0.411800 0.700060 -0.583384
vn -0.142499 0.968990 -0.201873
vn -0.411800 -0.700060 -0.583384
vn 0.142499 -0.968990 -0.201873
usemtl Planter_Surface
f 1/1/1 3/3/3 4/4/4
f 1/1/1 4/4/4 2/2/2
f 33/33/33 3/3/3 1/1/1
f 34/34/34 2/2/2 4/4/4
f 3/3/3 5/5/5 6/6/6
f 3/3/3 6/6/6 4/4/4
f 33/33/33 5/5/5 3/3/3
f 34/34/34 4/4/4 6/6/6
f 5/5/5 7/7/7 8/8/8
f 5/5/5 8/8/8 6/6/6
f 33/33/33 7/7/7 5/5/5
f 34/34/34 6/6/6 8/8/8
f 7/7/7 9/9/9 10/10/10
f 7/7/7 10/10/10 8/8/8
f 33/33/33 9/9/9 7/7/7
f 34/34/34 8/8/8 10/10/10
f 9/9/9 11/11/11 12/12/12
f 9/9/9 12/12/12 10/10/10
f 33/33/33 11/11/11 9/9/9
f 34/34/34 10/10/10 12/12/12
f 11/11/11 13/13/13 14/14/14
f 11/11/11 14/14/14 12/12/12
f 33/33/33 13/13/13 11/11/11
f 34/34/34 12/12/12 14/14/14
f 13/13/13 15/15/15 16/16/16
f 13/13/13 16/16/16 14/14/14
f 33/33/33 15/15/15 13/13/13
f 34/34/34 14/14/14 16/16/16
f 15/15/15 17/17/17 18/18/18
f 15/15/15 18/18/18 16/16/16
f 33/33/33 17/17/17 15/15/15
f 34/34/34 16/16/16 18/18/18
f 17/17/17 19/19/19 20/20/20
f 17/17/17 20/20/20 18/18/18
f 33/33/33 19/19/19 17/17/17
f 34/34/34 18/18/18 20/20/20
f 19/19/19 21/21/21 22/22/22
f 19/19/19 22/22/22 20/20/20
f 33/33/33 21/21/21 19/19/19
f 34/34/34 20/20/20 22/22/22
f 21/21/21 23/23/23 24/24/24
f 21/21/21 24/24/24 22/22/22
f 33/33/33 23/23/23 21/21/21
f 34/34/34 22/22/22 24/24/24
f 23/23/23 25/25/25 26/26/26
f 23/23/23 26/26/26 24/24/24
f 33/33/33 25/25/25 23/23/23
f 34/34/34 24/24/24 26/26/26
f 25/25/25 27/27/27 28/28/28
f 25/25/25 28/28/28 26/26/26
f 33/33/33 27/27/27 25/25/25
f 34/34/34 26/26/26 28/28/28
f 27/27/27 29/29/29 30/30/30
f 27/27/27 30/30/30 28/28/28
f 33/33/33 29/29/29 27/27/27
f 34/34/34 28/28/28 30/30/30
f 29/29/29 31/31/31 32/32/32
f 29/29/29 32/32/32 30/30/30
f 33/33/33 31/31/31 29/29/29
f 34/34/34 30/30/30 32/32/32
f 31/31/31 1/1/1 2/2/2
f 31/31/31 2/2/2 32/32/32
f 33/33/33 1/1/1 31/31/31
f 34/34/34 32/32/32 2/2/2
f 35/35/35 37/37/37 38/38/38
f 35/35/35 38/38/38 36/36/36
f 67/67/67 37/37/37 35/35/35
f 68/68/68 36/36/36 38/38/38
f 37/37/37 39/39/39 40/40/40
f 37/37/37 40/40/40 38/38/38
f 67/67/67 39/39/39 37/37/37
f 68/68/68 38/38/38 40/40/40
f 39/39/39 41/41/41 42/42/42
f 39/39/39 42/42/42 40/40/40
f 67/67/67 41/41/41 39/39/39
f 68/68/68 40/40/40 42/42/42
f 41/41/41 43/43/43 44/44/44
f 41/41/41 44/44/44 42/42/42
f 67/67/67 43/43/43 41/41/41
f 68/68/68 42/42/42 44/44/44
f 43/43/43 45/45/45 46/46/46
f 43/43/43 46/46/46 44/44/44
f 67/67/67 45/45/45 43/43/43
f 68/68/68 44/44/44 46/46/46
f 45/45/45 47/47/47 48/48/48
f 45/45/45 48/48/48 46/46/46
f 67/67/67 47/47/47 45/45/45
f 68/68/68 46/46/46 48/48/48
f 47/47/47 49/49/49 50/50/50
f 47/47/47 50/50/50 48/48/48
f 67/67/67 49/49/49 47/47/47
f 68/68/68 48/48/48 50/50/50
f 49/49/49 51/51/51 52/52/52
f 49/49/49 52/52/52 50/50/50
f 67/67/67 51/51/51 49/49/49
f 68/68/68 50/50/50 52/52/52
f 51/51/51 53/53/53 54/54/54
f 51/51/51 54/54/54 52/52/52
f 67/67/67 53/53/53 51/51/51
f 68/68/68 52/52/52 54/54/54
f 53/53/53 55/55/55 56/56/56
f 53/53/53 56/56/56 54/54/54
f 67/67/67 55/55/55 53/53/53
f 68/68/68 54/54/54 56/56/56
f 55/55/55 57/57/57 58/58/58
f 55/55/55 58/58/58 56/56/56
f 67/67/67 57/57/57 55/55/55
f 68/68/68 56/56/56 58/58/58
f 57/57/57 59/59/59 60/60/60
f 57/57/57 60/60/60 58/58/58
f 67/67/67 59/59/59 57/57/57
f 68/68/68 58/58/58 60/60/60
f 59/59/59 61/61/61 62/62/62
f 59/59/59 62/62/62 60/60/60
f 67/67/67 61/61/61 59/59/59
f 68/68/68 60/60/60 62/62/62
f 61/61/61 63/63/63 64/64/64
f 61/61/61 64/64/64 62/62/62
f 67/67/67 63/63/63 61/61/61
f 68/68/68 62/62/62 64/64/64
f 63/63/63 65/65/65 66/66/66
f 63/63/63 66/66/66 64/64/64
f 67/67/67 65/65/65 63/63/63
f 68/68/68 64/64/64 66/66/66
f 65/65/65 35/35/35 36/36/36
f 65/65/65 36/36/36 66/66/66
f 67/67/67 35/35/35 65/65/65
f 68/68/68 66/66/66 36/36/36
f 69/69/69 71/71/71 72/72/72
f 69/69/69 72/72/72 70/70/70
f 101/101/101 71/71/71 69/69/69
f 102/102/102 70/70/70 72/72/72
f 71/71/71 73/73/73 74/74/74
f 71/71/71 74/74/74 72/72/72
f 101/101/101 73/73/73 71/71/71
f 102/102/102 72/72/72 74/74/74
f 73/73/73 75/75/75 76/76/76
f 73/73/73 76/76/76 74/74/74
f 101/101/101 75/75/75 73/73/73
f 102/102/102 74/74/74 76/76/76
f 75/75/75 77/77/77 78/78/78
f 75/75/75 78/78/78 76/76/76
f 101/101/101 77/77/77 75/75/75
f 102/102/102 76/76/76 78/78/78
f 77/77/77 79/79/79 80/80/80
f 77/77/77 80/80/80 78/78/78
f 101/101/101 79/79/79 77/77/77
f 102/102/102 78/78/78 80/80/80
f 79/79/79 81/81/81 82/82/82
f 79/79/79 82/82/82 80/80/80
f 101/101/101 81/81/81 79/79/79
f 102/102/102 80/80/80 82/82/82
f 81/81/81 83/83/83 84/84/84
f 81/81/81 84/84/84 82/82/82
f 101/101/101 83/83/83 81/81/81
f 102/102/102 82/82/82 84/84/84
f 83/83/83 85/85/85 86/86/86
f 83/83/83 86/86/86 84/84/84
f 101/101/101 85/85/85 83/83/83
f 102/102/102 84/84/84 86/86/86
f 85/85/85 87/87/87 88/88/88
f 85/85/85 88/88/88 86/86/86
f 101/101/101 87/87/87 85/85/85
f 102/102/102 86/86/86 88/88/88
f 87/87/87 89/89/89 90/90/90
f 87/87/87 90/90/90 88/88/88
f 101/101/101 89/89/89 87/87/87
f 102/102/102 88/88/88 90/90/90
f 89/89/89 91/91/91 92/92/92
f 89/89/89 92/92/92 90/90/90
f 101/101/101 91/91/91 89/89/89
f 102/102/102 90/90/90 92/92/92
f 91/91/91 93/93/93 94/94/94
f 91/91/91 94/94/94 92/92/92
f 101/101/101 93/93/93 91/91/91
f 102/102/102 92/92/92 94/94/94
f 93/93/93 95/95/95 96/96/96
f 93/93/93 96/96/96 94/94/94
f 101/101/101 95/95/95 93/93/93
f 102/102/102 94/94/94 96/96/96
f 95/95/95 97/97/97 98/98/98
f 95/95/95 98/98/98 96/96/96
f 101/101/101 97/97/97 95/95/95
f 102/102/102 96/96/96 98/98/98
f 97/97/97 99/99/99 100/100/100
f 97/97/97 100/100/100 98/98/98
f 101/101/101 99/99/99 97/97/97
f 102/102/102 98/98/98 100/100/100
f 99/99/99 69/69/69 70/70/70
f 99/99/99 70/70/70 100/100/100
f 101/101/101 69/69/69 99/99/99
f 102/102/102 100/100/100 70/70/70
f 103/103/103 104/104/104 105/105/105
f 103/103/103 105/105/105 106/106/106
f 107/107/107 109/109/109 108/108/108
f 107/107/107 110/110/110 109/109/109
f 103/103/103 107/107/107 108/108/108
f 103/103/103 108/108/108 104/104/104
f 104/104/104 108/108/108 109/109/109
f 104/104/104 109/109/109 105/105/105
f 105/105/105 109/109/109 110/110/110
f 105/105/105 110/110/110 106/106/106
f 106/106/106 110/110/110 107/107/107
f 106/106/106 107/107/107 103/103/103
f 111/111/111 112/112/112 113/113/113
f 111/111/111 113/113/113 114/114/114
f 115/115/115 117/117/117 116/116/116
f 115/115/115 118/118/118 117/117/117
f 111/111/111 115/115/115 116/116/116
f 111/111/111 116/116/116 112/112/112
f 112/112/112 116/116/116 117/117/117
f 112/112/112 117/117/117 113/113/113
f 113/113/113 117/117/117 118/118/118
f 113/113/113 118/118/118 114/114/114
f 114/114/114 118/118/118 115/115/115
f 114/114/114 115/115/115 111/111/111
f 119/119/119 120/120/120 121/121/121
f 119/119/119 121/121/121 122/122/122
f 123/123/123 125/125/125 124/124/124
f 123/123/123 126/126/126 125/125/125
f 119/119/119 123/123/123 124/124/124
f 119/119/119 124/124/124 120/120/120
f 120/120/120 124/124/124 125/125/125
f 120/120/120 125/125/125 121/121/121
f 121/121/121 125/125/125 126/126/126
f 121/121/121 126/126/126 122/122/122
f 122/122/122 126/126/126 123/123/123
f 122/122/122 123/123/123 119/119/119
f 127/127/127 128/128/128 129/129/129
f 127/127/127 129/129/129 130/130/130
f 131/131/131 133/133/133 132/132/132
f 131/131/131 134/134/134 133/133/133
f 127/127/127 131/131/131 132/132/132
f 127/127/127 132/132/132 128/128/128
f 128/128/128 132/132/132 133/133/133
f 128/128/128 133/133/133 129/129/129
f 129/129/129 133/133/133 134/134/134
f 129/129/129 134/134/134 130/130/130
f 130/130/130 134/134/134 131/131/131
f 130/130/130 131/131/131 127/127/127
f 135/135/135 136/136/136 137/137/137
f 135/135/135 137/137/137 138/138/138
f 139/139/139 141/141/141 140/140/140
f 139/139/139 142/142/142 141/141/141
f 135/135/135 139/139/139 140/140/140
f 135/135/135 140/140/140 136/136/136
f 136/136/136 140/140/140 141/141/141
f 136/136/136 141/141/141 137/137/137
f 137/137/137 141/141/141 142/142/142
f 137/137/137 142/142/142 138/138/138
f 138/138/138 142/142/142 139/139/139
f 138/138/138 139/139/139 135/135/135
f 143/143/143 144/144/144 145/145/145
f 143/143/143 145/145/145 146/146/146
f 147/147/147 149/149/149 148/148/148
f 147/147/147 150/150/150 149/149/149
f 143/143/143 147/147/147 148/148/148
f 143/143/143 148/148/148 144/144/144
f 144/144/144 148/148/148 149/149/149
f 144/144/144 149/149/149 145/145/145
f 145/145/145 149/149/149 150/150/150
f 145/145/145 150/150/150 146/146/146
f 146/146/146 150/150/150 147/147/147
f 146/146/146 147/147/147 143/143/143
f 151/151/151 152/152/152 153/153/153
f 151/151/151 153/153/153 154/154/154
f 155/155/155 157/157/157 156/156/156
f 155/155/155 158/158/158 157/157/157
f 151/151/151 155/155/155 156/156/156
f 151/151/151 156/156/156 152/152/152
f 152/152/152 156/156/156 157/157/157
f 152/152/152 157/157/157 153/153/153
f 153/153/153 157/157/157 158/158/158
f 153/153/153 158/158/158 154/154/154
f 154/154/154 158/158/158 155/155/155
f 154/154/154 155/155/155 151/151/151
f 159/159/159 160/160/160 161/161/161
f 159/159/159 161/161/161 162/162/162
f 163/163/163 165/165/165 164/164/164
f 163/163/163 166/166/166 165/165/165
f 159/159/159 163/163/163 164/164/164
f 159/159/159 164/164/164 160/160/160
f 160/160/160 164/164/164 165/165/165
f 160/160/160 165/165/165 161/161/161
f 161/161/161 165/165/165 166/166/166
f 161/161/161 166/166/166 162/162/162
f 162/162/162 166/166/166 163/163/163
f 162/162/162 163/163/163 159/159/159
f 167/167/167 168/168/168 169/169/169
f 167/167/167 169/169/169 170/170/170
f 171/171/171 173/173/173 172/172/172
f 171/171/171 174/174/174 173/173/173
f 167/167/167 171/171/171 172/172/172
f 167/167/167 172/172/172 168/168/168
f 168/168/168 172/172/172 173/173/173
f 168/168/168 173/173/173 169/169/169
f 169/169/169 173/173/173 174/174/174
f 169/169/169 174/174/174 170/170/170
f 170/170/170 174/174/174 171/171/171
f 170/170/170 171/171/171 167/167/167
