# UART-005 deterministic mobile LOD authored source
mtllib SM_Track_CairoRoad_A_MobileLOD.mtl
o SM_Track_CairoRoad_A_LOD1
s 1
v -6.80000 -0.05000 -5.00000
v 6.80000 -0.05000 -5.00000
v 6.80000 0.05000 -5.00000
v -6.80000 0.05000 -5.00000
v -6.80000 -0.05000 5.00000
v 6.80000 -0.05000 5.00000
v 6.80000 0.05000 5.00000
v -6.80000 0.05000 5.00000
v -7.00000 -0.04500 -5.00000
v -6.70000 -0.04500 -5.00000
v -6.70000 0.11500 -5.00000
v -7.00000 0.11500 -5.00000
v -7.00000 -0.04500 5.00000
v -6.70000 -0.04500 5.00000
v -6.70000 0.11500 5.00000
v -7.00000 0.11500 5.00000
v 6.70000 -0.04500 -5.00000
v 7.00000 -0.04500 -5.00000
v 7.00000 0.11500 -5.00000
v 6.70000 0.11500 -5.00000
v 6.70000 -0.04500 5.00000
v 7.00000 -0.04500 5.00000
v 7.00000 0.11500 5.00000
v 6.70000 0.11500 5.00000
vt 0.014286 0.000000
vt 0.985714 0.000000
vt 0.985714 0.000000
vt 0.014286 0.000000
vt 0.014286 1.000000
vt 0.985714 1.000000
vt 0.985714 1.000000
vt 0.014286 1.000000
vt 0.000000 0.000000
vt 0.021429 0.000000
vt 0.021429 0.000000
vt 0.000000 0.000000
vt 0.000000 1.000000
vt 0.021429 1.000000
vt 0.021429 1.000000
vt 0.000000 1.000000
vt 0.978571 0.000000
vt 1.000000 0.000000
vt 1.000000 0.000000
vt 0.978571 0.000000
vt 0.978571 1.000000
vt 1.000000 1.000000
vt 1.000000 1.000000
vt 0.978571 1.000000
vn 0.003676 0.999943 0.009999
vn -0.014704 0.999842 0.009998
vn -0.003676 -0.999943 0.009999
vn 0.014704 -0.999842 0.009998
vn 0.014701 0.999692 -0.019994
vn -0.003676 0.999981 -0.005000
vn -0.014701 -0.999692 -0.019994
vn 0.003676 -0.999981 -0.005000
vn 0.257632 0.966119 0.015458
vn -0.729494 0.683900 0.010942
vn -0.257632 -0.966119 0.015458
vn 0.729494 -0.683900 0.010942
vn 0.729363 0.683777 -0.021881
vn -0.257655 0.966206 -0.007730
vn -0.729363 -0.683777 -0.021881
vn 0.257655 -0.966206 -0.007730
vn 0.257632 0.966119 0.015458
vn -0.729494 0.683900 0.010942
vn -0.257632 -0.966119 0.015458
vn 0.729494 -0.683900 0.010942
vn 0.729363 0.683777 -0.021881
vn -0.257655 0.966206 -0.007730
vn -0.729363 -0.683777 -0.021881
vn 0.257655 -0.966206 -0.007730
usemtl Road_Surface
f 1/1/1 2/2/2 3/3/3
f 1/1/1 3/3/3 4/4/4
f 5/5/5 7/7/7 6/6/6
f 5/5/5 8/8/8 7/7/7
f 1/1/1 5/5/5 6/6/6
f 1/1/1 6/6/6 2/2/2
f 2/2/2 6/6/6 7/7/7
f 2/2/2 7/7/7 3/3/3
f 3/3/3 7/7/7 8/8/8
f 3/3/3 8/8/8 4/4/4
f 4/4/4 8/8/8 5/5/5
f 4/4/4 5/5/5 1/1/1
f 9/9/9 10/10/10 11/11/11
f 9/9/9 11/11/11 12/12/12
f 13/13/13 15/15/15 14/14/14
f 13/13/13 16/16/16 15/15/15
f 9/9/9 13/13/13 14/14/14
f 9/9/9 14/14/14 10/10/10
f 10/10/10 14/14/14 15/15/15
f 10/10/10 15/15/15 11/11/11
f 11/11/11 15/15/15 16/16/16
f 11/11/11 16/16/16 12/12/12
f 12/12/12 16/16/16 13/13/13
f 12/12/12 13/13/13 9/9/9
f 17/17/17 18/18/18 19/19/19
f 17/17/17 19/19/19 20/20/20
f 21/21/21 23/23/23 22/22/22
f 21/21/21 24/24/24 23/23/23
f 17/17/17 21/21/21 22/22/22
f 17/17/17 22/22/22 18/18/18
f 18/18/18 22/22/22 23/23/23
f 18/18/18 23/23/23 19/19/19
f 19/19/19 23/23/23 24/24/24
f 19/19/19 24/24/24 20/20/20
f 20/20/20 24/24/24 21/21/21
f 20/20/20 21/21/21 17/17/17
