# UART-005 deterministic mobile LOD authored source
mtllib SM_Track_CairoCurb_A_MobileLOD.mtl
o SM_Track_CairoCurb_A_LOD1
s 1
v -0.28000 0.00000 -5.00000
v 0.28000 0.00000 -5.00000
v 0.28000 0.30000 -5.00000
v -0.28000 0.30000 -5.00000
v -0.28000 0.00000 5.00000
v 0.28000 0.00000 5.00000
v 0.28000 0.30000 5.00000
v -0.28000 0.30000 5.00000
v -0.31000 0.30000 -5.00000
v 0.31000 0.30000 -5.00000
v 0.31000 0.38000 -5.00000
v -0.31000 0.38000 -5.00000
v -0.31000 0.30000 5.00000
v 0.31000 0.30000 5.00000
v 0.31000 0.38000 5.00000
v -0.31000 0.38000 5.00000
vt 0.000000 0.048387
vt 0.000000 0.951613
vt 0.000000 0.951613
vt 0.000000 0.048387
vt 1.000000 0.048387
vt 1.000000 0.951613
vt 1.000000 0.951613
vt 1.000000 0.048387
vt 0.000000 0.000000
vt 0.000000 1.000000
vt 0.000000 1.000000
vt 0.000000 0.000000
vt 1.000000 0.000000
vt 1.000000 1.000000
vt 1.000000 1.000000
vt 1.000000 0.000000
vn 0.258628 0.965543 0.028966
vn -0.730902 0.682175 0.020465
vn -0.258628 -0.965543 0.028966
vn 0.730902 -0.682175 0.020465
vn 0.730443 0.681747 -0.040905
vn -0.258709 0.965847 -0.014488
vn -0.730443 -0.681747 -0.040905
vn 0.258709 -0.965847 -0.014488
vn 0.064380 0.997894 0.007983
vn -0.249871 0.968248 0.007746
vn -0.064380 -0.997894 0.007983
vn 0.249871 -0.968248 0.007746
vn 0.249848 0.968161 -0.015491
vn -0.064382 0.997917 -0.003992
vn -0.249848 -0.968161 -0.015491
vn 0.064382 -0.997917 -0.003992
usemtl Curb_Surface
f 1/1/1 2/2/2 3/3/3
f 1/1/1 3/3/3 4/4/4
f 5/5/5 7/7/7 6/6/6
f 5/5/5 8/8/8 7/7/7
f 1/1/1 5/5/5 6/6/6
f 1/1/1 6/6/6 2/2/2
f 2/2/2 6/6/6 7/7/7
f 2/2/2 7/7/7 3/3/3
f 3/3/3 7/7/7 8/8/8
f 3/3/3 8/8/8 4/4/4
f 4/4/4 8/8/8 5/5/5
f 4/4/4 5/5/5 1/1/1
f 9/9/9 10/10/10 11/11/11
f 9/9/9 11/11/11 12/12/12
f 13/13/13 15/15/15 14/14/14
f 13/13/13 16/16/16 15/15/15
f 9/9/9 13/13/13 14/14/14
f 9/9/9 14/14/14 10/10/10
f 10/10/10 14/14/14 15/15/15
f 10/10/10 15/15/15 11/11/11
f 11/11/11 15/15/15 16/16/16
f 11/11/11 16/16/16 12/12/12
f 12/12/12 16/16/16 13/13/13
f 12/12/12 13/13/13 9/9/9
