# UART-005 deterministic mobile LOD authored source
mtllib SM_Track_CairoCurb_A_MobileLOD.mtl
o SM_Track_CairoCurb_A_LOD2
s 1
v -0.30000 0.00000 -5.00000
v 0.30000 0.00000 -5.00000
v 0.30000 0.32000 -5.00000
v -0.30000 0.32000 -5.00000
v -0.30000 0.00000 5.00000
v 0.30000 0.00000 5.00000
v 0.30000 0.32000 5.00000
v -0.30000 0.32000 5.00000
vt 0.000000 0.000000
vt 0.000000 1.000000
vt 0.000000 1.000000
vt 0.000000 0.000000
vt 1.000000 0.000000
vt 1.000000 1.000000
vt 1.000000 1.000000
vt 1.000000 0.000000
vn 0.257540 0.965773 0.030905
vn -0.729363 0.683777 0.021881
vn -0.257540 -0.965773 0.030905
vn 0.729363 -0.683777 0.021881
vn 0.728839 0.683287 -0.043730
vn -0.257632 0.966119 -0.015458
vn -0.728839 -0.683287 -0.043730
vn 0.257632 -0.966119 -0.015458
usemtl Curb_Surface
f 1/1/1 2/2/2 3/3/3
f 1/1/1 3/3/3 4/4/4
f 5/5/5 7/7/7 6/6/6
f 5/5/5 8/8/8 7/7/7
f 1/1/1 5/5/5 6/6/6
f 1/1/1 6/6/6 2/2/2
f 2/2/2 6/6/6 7/7/7
f 2/2/2 7/7/7 3/3/3
f 3/3/3 7/7/7 8/8/8
f 3/3/3 8/8/8 4/4/4
f 4/4/4 8/8/8 5/5/5
f 4/4/4 5/5/5 1/1/1
