# UART-005 deterministic mobile LOD authored source
mtllib SM_Track_CairoRoad_A_MobileLOD.mtl
o SM_Track_CairoRoad_A_LOD2
s 1
v -7.00000 -0.04000 -5.00000
v 7.00000 -0.04000 -5.00000
v 7.00000 0.04000 -5.00000
v -7.00000 0.04000 -5.00000
v -7.00000 -0.04000 5.00000
v 7.00000 -0.04000 5.00000
v 7.00000 0.04000 5.00000
v -7.00000 0.04000 5.00000
vt 0.000000 0.000000
vt 1.000000 0.000000
vt 1.000000 0.000000
vt 0.000000 0.000000
vt 0.000000 1.000000
vt 1.000000 1.000000
vt 1.000000 1.000000
vt 0.000000 1.000000
vn 0.002857 0.999964 0.008000
vn -0.011427 0.999903 0.007999
vn -0.002857 -0.999964 0.008000
vn 0.011427 -0.999903 0.007999
vn 0.011426 0.999807 -0.015997
vn -0.002857 0.999988 -0.004000
vn -0.011426 -0.999807 -0.015997
vn 0.002857 -0.999988 -0.004000
usemtl Road_Surface
f 1/1/1 2/2/2 3/3/3
f 1/1/1 3/3/3 4/4/4
f 5/5/5 7/7/7 6/6/6
f 5/5/5 8/8/8 7/7/7
f 1/1/1 5/5/5 6/6/6
f 1/1/1 6/6/6 2/2/2
f 2/2/2 6/6/6 7/7/7
f 2/2/2 7/7/7 3/3/3
f 3/3/3 7/7/7 8/8/8
f 3/3/3 8/8/8 4/4/4
f 4/4/4 8/8/8 5/5/5
f 4/4/4 5/5/5 1/1/1
