# 3Fareet authored landmark source candidate
o SM_Landmark_CairoBridgeGantry_A
s 1
v -7.60000 0.00000 -0.70000
v -6.40000 0.00000 -0.70000
v -6.40000 7.40000 -0.70000
v -7.60000 7.40000 -0.70000
v -7.60000 0.00000 0.70000
v -6.40000 0.00000 0.70000
v -6.40000 7.40000 0.70000
v -7.60000 7.40000 0.70000
v -8.05000 0.00000 -1.05000
v -5.95000 0.00000 -1.05000
v -5.95000 0.70000 -1.05000
v -8.05000 0.70000 -1.05000
v -8.05000 0.00000 1.05000
v -5.95000 0.00000 1.05000
v -5.95000 0.70000 1.05000
v -8.05000 0.70000 1.05000
v -7.95000 7.40000 -0.95000
v -6.05000 7.40000 -0.95000
v -6.05000 7.80000 -0.95000
v -7.95000 7.80000 -0.95000
v -7.95000 7.40000 0.95000
v -6.05000 7.40000 0.95000
v -6.05000 7.80000 0.95000
v -7.95000 7.80000 0.95000
v 6.40000 0.00000 -0.70000
v 7.60000 0.00000 -0.70000
v 7.60000 7.40000 -0.70000
v 6.40000 7.40000 -0.70000
v 6.40000 0.00000 0.70000
v 7.60000 0.00000 0.70000
v 7.60000 7.40000 0.70000
v 6.40000 7.40000 0.70000
v 5.95000 0.00000 -1.05000
v 8.05000 0.00000 -1.05000
v 8.05000 0.70000 -1.05000
v 5.95000 0.70000 -1.05000
v 5.95000 0.00000 1.05000
v 8.05000 0.00000 1.05000
v 8.05000 0.70000 1.05000
v 5.95000 0.70000 1.05000
v 6.05000 7.40000 -0.95000
v 7.95000 7.40000 -0.95000
v 7.95000 7.80000 -0.95000
v 6.05000 7.80000 -0.95000
v 6.05000 7.40000 0.95000
v 7.95000 7.40000 0.95000
v 7.95000 7.80000 0.95000
v 6.05000 7.80000 0.95000
v -7.50000 6.50000 -0.70000
v 7.50000 6.50000 -0.70000
v 7.50000 7.30000 -0.70000
v -7.50000 7.30000 -0.70000
v -7.50000 6.50000 0.70000
v 7.50000 6.50000 0.70000
v 7.50000 7.30000 0.70000
v -7.50000 7.30000 0.70000
v -4.89000 6.85000 -0.82500
v -4.71000 6.85000 -0.82500
v -4.71000 8.35000 -0.82500
v -4.89000 8.35000 -0.82500
v -4.89000 6.85000 0.82500
v -4.71000 6.85000 0.82500
v -4.71000 8.35000 0.82500
v -4.89000 8.35000 0.82500
v -2.49000 6.85000 -0.82500
v -2.31000 6.85000 -0.82500
v -2.31000 8.35000 -0.82500
v -2.49000 8.35000 -0.82500
v -2.49000 6.85000 0.82500
v -2.31000 6.85000 0.82500
v -2.31000 8.35000 0.82500
v -2.49000 8.35000 0.82500
v -0.09000 6.85000 -0.82500
v 0.09000 6.85000 -0.82500
v 0.09000 8.35000 -0.82500
v -0.09000 8.35000 -0.82500
v -0.09000 6.85000 0.82500
v 0.09000 6.85000 0.82500
v 0.09000 8.35000 0.82500
v -0.09000 8.35000 0.82500
v 2.31000 6.85000 -0.82500
v 2.49000 6.85000 -0.82500
v 2.49000 8.35000 -0.82500
v 2.31000 8.35000 -0.82500
v 2.31000 6.85000 0.82500
v 2.49000 6.85000 0.82500
v 2.49000 8.35000 0.82500
v 2.31000 8.35000 0.82500
v 4.71000 6.85000 -0.82500
v 4.89000 6.85000 -0.82500
v 4.89000 8.35000 -0.82500
v 4.71000 8.35000 -0.82500
v 4.71000 6.85000 0.82500
v 4.89000 6.85000 0.82500
v 4.89000 8.35000 0.82500
v 4.71000 8.35000 0.82500
v -6.60000 7.66500 -0.91500
v 6.60000 7.66500 -0.91500
v 6.60000 7.83500 -0.91500
v -6.60000 7.83500 -0.91500
v -6.60000 7.66500 -0.76500
v 6.60000 7.66500 -0.76500
v 6.60000 7.83500 -0.76500
v -6.60000 7.83500 -0.76500
v -6.60000 6.16500 -0.91500
v 6.60000 6.16500 -0.91500
v 6.60000 6.33500 -0.91500
v -6.60000 6.33500 -0.91500
v -6.60000 6.16500 -0.76500
v 6.60000 6.16500 -0.76500
v 6.60000 6.33500 -0.76500
v -6.60000 6.33500 -0.76500
v -2.10000 8.32000 -0.15000
v 2.10000 8.32000 -0.15000
v 2.10000 8.58000 -0.15000
v -2.10000 8.58000 -0.15000
v -2.10000 8.32000 0.15000
v 2.10000 8.32000 0.15000
v 2.10000 8.58000 0.15000
v -2.10000 8.58000 0.15000
g Tower
f 1 2 3
f 1 3 4
f 6 5 8
f 6 8 7
f 5 1 4
f 5 4 8
f 2 6 7
f 2 7 3
f 4 3 7
f 4 7 8
f 5 6 2
f 5 2 1
g TowerFoot
f 9 10 11
f 9 11 12
f 14 13 16
f 14 16 15
f 13 9 12
f 13 12 16
f 10 14 15
f 10 15 11
f 12 11 15
f 12 15 16
f 13 14 10
f 13 10 9
g TowerCap
f 17 18 19
f 17 19 20
f 22 21 24
f 22 24 23
f 21 17 20
f 21 20 24
f 18 22 23
f 18 23 19
f 20 19 23
f 20 23 24
f 21 22 18
f 21 18 17
g Tower
f 25 26 27
f 25 27 28
f 30 29 32
f 30 32 31
f 29 25 28
f 29 28 32
f 26 30 31
f 26 31 27
f 28 27 31
f 28 31 32
f 29 30 26
f 29 26 25
g TowerFoot
f 33 34 35
f 33 35 36
f 38 37 40
f 38 40 39
f 37 33 36
f 37 36 40
f 34 38 39
f 34 39 35
f 36 35 39
f 36 39 40
f 37 38 34
f 37 34 33
g TowerCap
f 41 42 43
f 41 43 44
f 46 45 48
f 46 48 47
f 45 41 44
f 45 44 48
f 42 46 47
f 42 47 43
f 44 43 47
f 44 47 48
f 45 46 42
f 45 42 41
g BridgeBeam
f 49 50 51
f 49 51 52
f 54 53 56
f 54 56 55
f 53 49 52
f 53 52 56
f 50 54 55
f 50 55 51
f 52 51 55
f 52 55 56
f 53 54 50
f 53 50 49
g TrussPost
f 57 58 59
f 57 59 60
f 62 61 64
f 62 64 63
f 61 57 60
f 61 60 64
f 58 62 63
f 58 63 59
f 60 59 63
f 60 63 64
f 61 62 58
f 61 58 57
f 65 66 67
f 65 67 68
f 70 69 72
f 70 72 71
f 69 65 68
f 69 68 72
f 66 70 71
f 66 71 67
f 68 67 71
f 68 71 72
f 69 70 66
f 69 66 65
f 73 74 75
f 73 75 76
f 78 77 80
f 78 80 79
f 77 73 76
f 77 76 80
f 74 78 79
f 74 79 75
f 76 75 79
f 76 79 80
f 77 78 74
f 77 74 73
f 81 82 83
f 81 83 84
f 86 85 88
f 86 88 87
f 85 81 84
f 85 84 88
f 82 86 87
f 82 87 83
f 84 83 87
f 84 87 88
f 85 86 82
f 85 82 81
f 89 90 91
f 89 91 92
f 94 93 96
f 94 96 95
f 93 89 92
f 93 92 96
f 90 94 95
f 90 95 91
f 92 91 95
f 92 95 96
f 93 94 90
f 93 90 89
g PurpleRail
f 97 98 99
f 97 99 100
f 102 101 104
f 102 104 103
f 101 97 100
f 101 100 104
f 98 102 103
f 98 103 99
f 100 99 103
f 100 103 104
f 101 102 98
f 101 98 97
g CyanRail
f 105 106 107
f 105 107 108
f 110 109 112
f 110 112 111
f 109 105 108
f 109 108 112
f 106 110 111
f 106 111 107
f 108 107 111
f 108 111 112
f 109 110 106
f 109 106 105
g GoldCrest
f 113 114 115
f 113 115 116
f 118 117 120
f 118 120 119
f 117 113 116
f 117 116 120
f 114 118 119
f 114 119 115
f 116 115 119
f 116 119 120
f 117 118 114
f 117 114 113
