# 3Fareet authored landmark source candidate
o SM_Landmark_CairoMinaret_A
s 1
v 1.40000 0.00000 0.00000
v 1.40000 0.50000 0.00000
v 0.98995 0.00000 0.98995
v 0.98995 0.50000 0.98995
v 0.00000 0.00000 1.40000
v 0.00000 0.50000 1.40000
v -0.98995 0.00000 0.98995
v -0.98995 0.50000 0.98995
v -1.40000 0.00000 0.00000
v -1.40000 0.50000 0.00000
v -0.98995 0.00000 -0.98995
v -0.98995 0.50000 -0.98995
v -0.00000 0.00000 -1.40000
v -0.00000 0.50000 -1.40000
v 0.98995 0.00000 -0.98995
v 0.98995 0.50000 -0.98995
v 0.00000 0.00000 0.00000
v 0.00000 0.50000 0.00000
v 1.05000 0.50000 0.00000
v 1.05000 1.90000 0.00000
v 0.74246 0.50000 0.74246
v 0.74246 1.90000 0.74246
v 0.00000 0.50000 1.05000
v 0.00000 1.90000 1.05000
v -0.74246 0.50000 0.74246
v -0.74246 1.90000 0.74246
v -1.05000 0.50000 0.00000
v -1.05000 1.90000 0.00000
v -0.74246 0.50000 -0.74246
v -0.74246 1.90000 -0.74246
v -0.00000 0.50000 -1.05000
v -0.00000 1.90000 -1.05000
v 0.74246 0.50000 -0.74246
v 0.74246 1.90000 -0.74246
v 0.00000 0.50000 0.00000
v 0.00000 1.90000 0.00000
v 0.76000 1.90000 0.00000
v 0.54000 8.10000 0.00000
v 0.53740 1.90000 0.53740
v 0.38184 8.10000 0.38184
v 0.00000 1.90000 0.76000
v 0.00000 8.10000 0.54000
v -0.53740 1.90000 0.53740
v -0.38184 8.10000 0.38184
v -0.76000 1.90000 0.00000
v -0.54000 8.10000 0.00000
v -0.53740 1.90000 -0.53740
v -0.38184 8.10000 -0.38184
v -0.00000 1.90000 -0.76000
v -0.00000 8.10000 -0.54000
v 0.53740 1.90000 -0.53740
v 0.38184 8.10000 -0.38184
v 0.00000 1.90000 0.00000
v 0.00000 8.10000 0.00000
v 1.18000 7.85000 0.00000
v 1.18000 8.15000 0.00000
v 0.83439 7.85000 0.83439
v 0.83439 8.15000 0.83439
v 0.00000 7.85000 1.18000
v 0.00000 8.15000 1.18000
v -0.83439 7.85000 0.83439
v -0.83439 8.15000 0.83439
v -1.18000 7.85000 0.00000
v -1.18000 8.15000 0.00000
v -0.83439 7.85000 -0.83439
v -0.83439 8.15000 -0.83439
v -0.00000 7.85000 -1.18000
v -0.00000 8.15000 -1.18000
v 0.83439 7.85000 -0.83439
v 0.83439 8.15000 -0.83439
v 0.00000 7.85000 0.00000
v 0.00000 8.15000 0.00000
v 0.50000 8.15000 0.00000
v 0.30000 11.05000 0.00000
v 0.35355 8.15000 0.35355
v 0.21213 11.05000 0.21213
v 0.00000 8.15000 0.50000
v 0.00000 11.05000 0.30000
v -0.35355 8.15000 0.35355
v -0.21213 11.05000 0.21213
v -0.50000 8.15000 0.00000
v -0.30000 11.05000 0.00000
v -0.35355 8.15000 -0.35355
v -0.21213 11.05000 -0.21213
v -0.00000 8.15000 -0.50000
v -0.00000 11.05000 -0.30000
v 0.35355 8.15000 -0.35355
v 0.21213 11.05000 -0.21213
v 0.00000 8.15000 0.00000
v 0.00000 11.05000 0.00000
v 0.68000 10.99000 0.00000
v 0.68000 11.21000 0.00000
v 0.48083 10.99000 0.48083
v 0.48083 11.21000 0.48083
v 0.00000 10.99000 0.68000
v 0.00000 11.21000 0.68000
v -0.48083 10.99000 0.48083
v -0.48083 11.21000 0.48083
v -0.68000 10.99000 0.00000
v -0.68000 11.21000 0.00000
v -0.48083 10.99000 -0.48083
v -0.48083 11.21000 -0.48083
v -0.00000 10.99000 -0.68000
v -0.00000 11.21000 -0.68000
v 0.48083 10.99000 -0.48083
v 0.48083 11.21000 -0.48083
v 0.00000 10.99000 0.00000
v 0.00000 11.21000 0.00000
v 0.52000 11.20000 0.00000
v 0.12000 13.00000 0.00000
v 0.36770 11.20000 0.36770
v 0.08485 13.00000 0.08485
v 0.00000 11.20000 0.52000
v 0.00000 13.00000 0.12000
v -0.36770 11.20000 0.36770
v -0.08485 13.00000 0.08485
v -0.52000 11.20000 0.00000
v -0.12000 13.00000 0.00000
v -0.36770 11.20000 -0.36770
v -0.08485 13.00000 -0.08485
v -0.00000 11.20000 -0.52000
v -0.00000 13.00000 -0.12000
v 0.36770 11.20000 -0.36770
v 0.08485 13.00000 -0.08485
v 0.00000 11.20000 0.00000
v 0.00000 13.00000 0.00000
v 0.09000 12.80000 0.00000
v 0.09000 13.90000 0.00000
v 0.06364 12.80000 0.06364
v 0.06364 13.90000 0.06364
v 0.00000 12.80000 0.09000
v 0.00000 13.90000 0.09000
v -0.06364 12.80000 0.06364
v -0.06364 13.90000 0.06364
v -0.09000 12.80000 0.00000
v -0.09000 13.90000 0.00000
v -0.06364 12.80000 -0.06364
v -0.06364 13.90000 -0.06364
v -0.00000 12.80000 -0.09000
v -0.00000 13.90000 -0.09000
v 0.06364 12.80000 -0.06364
v 0.06364 13.90000 -0.06364
v 0.00000 12.80000 0.00000
v 0.00000 13.90000 0.00000
v -0.45000 11.19500 -0.68500
v 0.45000 11.19500 -0.68500
v 0.45000 11.30500 -0.68500
v -0.45000 11.30500 -0.68500
v -0.45000 11.19500 -0.55500
v 0.45000 11.19500 -0.55500
v 0.45000 11.30500 -0.55500
v -0.45000 11.30500 -0.55500
g Foundation
f 1 3 4
f 1 4 2
f 3 5 6
f 3 6 4
f 5 7 8
f 5 8 6
f 7 9 10
f 7 10 8
f 9 11 12
f 9 12 10
f 11 13 14
f 11 14 12
f 13 15 16
f 13 16 14
f 15 1 2
f 15 2 16
f 17 3 1
f 18 2 4
f 17 5 3
f 18 4 6
f 17 7 5
f 18 6 8
f 17 9 7
f 18 8 10
f 17 11 9
f 18 10 12
f 17 13 11
f 18 12 14
f 17 15 13
f 18 14 16
f 17 1 15
f 18 16 2
g StoneBase
f 19 21 22
f 19 22 20
f 21 23 24
f 21 24 22
f 23 25 26
f 23 26 24
f 25 27 28
f 25 28 26
f 27 29 30
f 27 30 28
f 29 31 32
f 29 32 30
f 31 33 34
f 31 34 32
f 33 19 20
f 33 20 34
f 35 21 19
f 36 20 22
f 35 23 21
f 36 22 24
f 35 25 23
f 36 24 26
f 35 27 25
f 36 26 28
f 35 29 27
f 36 28 30
f 35 31 29
f 36 30 32
f 35 33 31
f 36 32 34
f 35 19 33
f 36 34 20
g Shaft
f 37 39 40
f 37 40 38
f 39 41 42
f 39 42 40
f 41 43 44
f 41 44 42
f 43 45 46
f 43 46 44
f 45 47 48
f 45 48 46
f 47 49 50
f 47 50 48
f 49 51 52
f 49 52 50
f 51 37 38
f 51 38 52
f 53 39 37
f 54 38 40
f 53 41 39
f 54 40 42
f 53 43 41
f 54 42 44
f 53 45 43
f 54 44 46
f 53 47 45
f 54 46 48
f 53 49 47
f 54 48 50
f 53 51 49
f 54 50 52
f 53 37 51
f 54 52 38
g Balcony
f 55 57 58
f 55 58 56
f 57 59 60
f 57 60 58
f 59 61 62
f 59 62 60
f 61 63 64
f 61 64 62
f 63 65 66
f 63 66 64
f 65 67 68
f 65 68 66
f 67 69 70
f 67 70 68
f 69 55 56
f 69 56 70
f 71 57 55
f 72 56 58
f 71 59 57
f 72 58 60
f 71 61 59
f 72 60 62
f 71 63 61
f 72 62 64
f 71 65 63
f 72 64 66
f 71 67 65
f 72 66 68
f 71 69 67
f 72 68 70
f 71 55 69
f 72 70 56
g UpperShaft
f 73 75 76
f 73 76 74
f 75 77 78
f 75 78 76
f 77 79 80
f 77 80 78
f 79 81 82
f 79 82 80
f 81 83 84
f 81 84 82
f 83 85 86
f 83 86 84
f 85 87 88
f 85 88 86
f 87 73 74
f 87 74 88
f 89 75 73
f 90 74 76
f 89 77 75
f 90 76 78
f 89 79 77
f 90 78 80
f 89 81 79
f 90 80 82
f 89 83 81
f 90 82 84
f 89 85 83
f 90 84 86
f 89 87 85
f 90 86 88
f 89 73 87
f 90 88 74
g CrownRing
f 91 93 94
f 91 94 92
f 93 95 96
f 93 96 94
f 95 97 98
f 95 98 96
f 97 99 100
f 97 100 98
f 99 101 102
f 99 102 100
f 101 103 104
f 101 104 102
f 103 105 106
f 103 106 104
f 105 91 92
f 105 92 106
f 107 93 91
f 108 92 94
f 107 95 93
f 108 94 96
f 107 97 95
f 108 96 98
f 107 99 97
f 108 98 100
f 107 101 99
f 108 100 102
f 107 103 101
f 108 102 104
f 107 105 103
f 108 104 106
f 107 91 105
f 108 106 92
g Crown
f 109 111 112
f 109 112 110
f 111 113 114
f 111 114 112
f 113 115 116
f 113 116 114
f 115 117 118
f 115 118 116
f 117 119 120
f 117 120 118
f 119 121 122
f 119 122 120
f 121 123 124
f 121 124 122
f 123 109 110
f 123 110 124
f 125 111 109
f 126 110 112
f 125 113 111
f 126 112 114
f 125 115 113
f 126 114 116
f 125 117 115
f 126 116 118
f 125 119 117
f 126 118 120
f 125 121 119
f 126 120 122
f 125 123 121
f 126 122 124
f 125 109 123
f 126 124 110
g GoldSpire
f 127 129 130
f 127 130 128
f 129 131 132
f 129 132 130
f 131 133 134
f 131 134 132
f 133 135 136
f 133 136 134
f 135 137 138
f 135 138 136
f 137 139 140
f 137 140 138
f 139 141 142
f 139 142 140
f 141 127 128
f 141 128 142
f 143 129 127
f 144 128 130
f 143 131 129
f 144 130 132
f 143 133 131
f 144 132 134
f 143 135 133
f 144 134 136
f 143 137 135
f 144 136 138
f 143 139 137
f 144 138 140
f 143 141 139
f 144 140 142
f 143 127 141
f 144 142 128
g SpiritBlade
f 145 146 147
f 145 147 148
f 150 149 152
f 150 152 151
f 149 145 148
f 149 148 152
f 146 150 151
f 146 151 147
f 148 147 151
f 148 151 152
f 149 150 146
f 149 146 145
