# 3Fareet authored landmark source candidate
o SM_Landmark_GizaSpiritPyramid_A
s 1
v -7.00000 0.00000 -7.00000
v 7.00000 0.00000 -7.00000
v 7.00000 0.60000 -7.00000
v -7.00000 0.60000 -7.00000
v -7.00000 0.00000 7.00000
v 7.00000 0.00000 7.00000
v 7.00000 0.60000 7.00000
v -7.00000 0.60000 7.00000
v -6.25000 0.60000 -6.25000
v 6.25000 0.60000 -6.25000
v 6.25000 0.60000 6.25000
v -6.25000 0.60000 6.25000
v -5.75000 1.65000 -5.75000
v 5.75000 1.65000 -5.75000
v 5.75000 1.65000 5.75000
v -5.75000 1.65000 5.75000
v -5.57500 1.65000 -5.57500
v 5.57500 1.65000 -5.57500
v 5.57500 1.65000 5.57500
v -5.57500 1.65000 5.57500
v -5.07500 2.70000 -5.07500
v 5.07500 2.70000 -5.07500
v 5.07500 2.70000 5.07500
v -5.07500 2.70000 5.07500
v -4.90000 2.70000 -4.90000
v 4.90000 2.70000 -4.90000
v 4.90000 2.70000 4.90000
v -4.90000 2.70000 4.90000
v -4.40000 3.75000 -4.40000
v 4.40000 3.75000 -4.40000
v 4.40000 3.75000 4.40000
v -4.40000 3.75000 4.40000
v -4.22500 3.75000 -4.22500
v 4.22500 3.75000 -4.22500
v 4.22500 3.75000 4.22500
v -4.22500 3.75000 4.22500
v -3.72500 4.80000 -3.72500
v 3.72500 4.80000 -3.72500
v 3.72500 4.80000 3.72500
v -3.72500 4.80000 3.72500
v -3.55000 4.80000 -3.55000
v 3.55000 4.80000 -3.55000
v 3.55000 4.80000 3.55000
v -3.55000 4.80000 3.55000
v -3.05000 5.85000 -3.05000
v 3.05000 5.85000 -3.05000
v 3.05000 5.85000 3.05000
v -3.05000 5.85000 3.05000
v -2.87500 5.85000 -2.87500
v 2.87500 5.85000 -2.87500
v 2.87500 5.85000 2.87500
v -2.87500 5.85000 2.87500
v -2.37500 6.90000 -2.37500
v 2.37500 6.90000 -2.37500
v 2.37500 6.90000 2.37500
v -2.37500 6.90000 2.37500
v -2.20000 6.90000 -2.20000
v 2.20000 6.90000 -2.20000
v 2.20000 6.90000 2.20000
v -2.20000 6.90000 2.20000
v -1.70000 7.95000 -1.70000
v 1.70000 7.95000 -1.70000
v 1.70000 7.95000 1.70000
v -1.70000 7.95000 1.70000
v -1.52500 7.95000 -1.52500
v 1.52500 7.95000 -1.52500
v 1.52500 7.95000 1.52500
v -1.52500 7.95000 1.52500
v -1.02500 9.00000 -1.02500
v 1.02500 9.00000 -1.02500
v 1.02500 9.00000 1.02500
v -1.02500 9.00000 1.02500
v -1.90000 9.00000 -1.90000
v 1.90000 9.00000 -1.90000
v 1.90000 9.00000 1.90000
v -1.90000 9.00000 1.90000
v 0.00000 13.20000 0.00000
v -1.25000 0.40000 -6.60000
v 1.25000 0.40000 -6.60000
v 1.25000 2.90000 -6.60000
v -1.25000 2.90000 -6.60000
v -1.25000 0.40000 -6.10000
v 1.25000 0.40000 -6.10000
v 1.25000 2.90000 -6.10000
v -1.25000 2.90000 -6.10000
v -4.59000 0.50000 -5.99000
v -4.41000 0.50000 -5.99000
v -4.41000 3.50000 -5.99000
v -4.59000 3.50000 -5.99000
v -4.59000 0.50000 -5.81000
v -4.41000 0.50000 -5.81000
v -4.41000 3.50000 -5.81000
v -4.59000 3.50000 -5.81000
v 4.41000 0.50000 -5.99000
v 4.59000 0.50000 -5.99000
v 4.59000 3.50000 -5.99000
v 4.41000 3.50000 -5.99000
v 4.41000 0.50000 -5.81000
v 4.59000 0.50000 -5.81000
v 4.59000 3.50000 -5.81000
v 4.41000 3.50000 -5.81000
v -0.27500 13.20000 -0.27500
v 0.27500 13.20000 -0.27500
v 0.27500 13.70000 -0.27500
v -0.27500 13.70000 -0.27500
v -0.27500 13.20000 0.27500
v 0.27500 13.20000 0.27500
v 0.27500 13.70000 0.27500
v -0.27500 13.70000 0.27500
g Foundation
f 1 2 3
f 1 3 4
f 6 5 8
f 6 8 7
f 5 1 4
f 5 4 8
f 2 6 7
f 2 7 3
f 4 3 7
f 4 7 8
f 5 6 2
f 5 2 1
g StoneTiers
f 9 10 14
f 9 14 13
f 10 11 15
f 10 15 14
f 11 12 16
f 11 16 15
f 12 9 13
f 12 13 16
f 13 14 15
f 13 15 16
f 17 18 22
f 17 22 21
f 18 19 23
f 18 23 22
f 19 20 24
f 19 24 23
f 20 17 21
f 20 21 24
f 21 22 23
f 21 23 24
f 25 26 30
f 25 30 29
f 26 27 31
f 26 31 30
f 27 28 32
f 27 32 31
f 28 25 29
f 28 29 32
f 29 30 31
f 29 31 32
f 33 34 38
f 33 38 37
f 34 35 39
f 34 39 38
f 35 36 40
f 35 40 39
f 36 33 37
f 36 37 40
f 37 38 39
f 37 39 40
f 41 42 46
f 41 46 45
f 42 43 47
f 42 47 46
f 43 44 48
f 43 48 47
f 44 41 45
f 44 45 48
f 45 46 47
f 45 47 48
f 49 50 54
f 49 54 53
f 50 51 55
f 50 55 54
f 51 52 56
f 51 56 55
f 52 49 53
f 52 53 56
f 53 54 55
f 53 55 56
f 57 58 62
f 57 62 61
f 58 59 63
f 58 63 62
f 59 60 64
f 59 64 63
f 60 57 61
f 60 61 64
f 61 62 63
f 61 63 64
f 65 66 70
f 65 70 69
f 66 67 71
f 66 71 70
f 67 68 72
f 67 72 71
f 68 65 69
f 68 69 72
f 69 70 71
f 69 71 72
g PyramidCrown
f 73 74 77
f 74 75 77
f 75 76 77
f 76 73 77
g Portal
f 78 79 80
f 78 80 81
f 83 82 85
f 83 85 84
f 82 78 81
f 82 81 85
f 79 83 84
f 79 84 80
f 81 80 84
f 81 84 85
f 82 83 79
f 82 79 78
g SpiritChannel
f 86 87 88
f 86 88 89
f 91 90 93
f 91 93 92
f 90 86 89
f 90 89 93
f 87 91 92
f 87 92 88
f 89 88 92
f 89 92 93
f 90 91 87
f 90 87 86
f 94 95 96
f 94 96 97
f 99 98 101
f 99 101 100
f 98 94 97
f 98 97 101
f 95 99 100
f 95 100 96
f 97 96 100
f 97 100 101
f 98 99 95
f 98 95 94
g GoldApex
f 102 103 104
f 102 104 105
f 107 106 109
f 107 109 108
f 106 102 105
f 106 105 109
f 103 107 108
f 103 108 104
f 105 104 108
f 105 108 109
f 106 107 103
f 106 103 102
