# 3Fareet authored landmark source candidate
o SM_Landmark_CairoDomeGate_A
s 1
v -5.72500 0.00000 -0.75000
v -4.47500 0.00000 -0.75000
v -4.47500 6.60000 -0.75000
v -5.72500 6.60000 -0.75000
v -5.72500 0.00000 0.75000
v -4.47500 0.00000 0.75000
v -4.47500 6.60000 0.75000
v -5.72500 6.60000 0.75000
v 4.47500 0.00000 -0.75000
v 5.72500 0.00000 -0.75000
v 5.72500 6.60000 -0.75000
v 4.47500 6.60000 -0.75000
v 4.47500 0.00000 0.75000
v 5.72500 0.00000 0.75000
v 5.72500 6.60000 0.75000
v 4.47500 6.60000 0.75000
v -5.60000 6.12500 -0.75000
v 5.60000 6.12500 -0.75000
v 5.60000 6.87500 -0.75000
v -5.60000 6.87500 -0.75000
v -5.60000 6.12500 0.75000
v 5.60000 6.12500 0.75000
v 5.60000 6.87500 0.75000
v -5.60000 6.87500 0.75000
v 3.20000 7.10000 0.00000
v 3.20000 8.00000 0.00000
v 2.77128 7.10000 1.60000
v 2.77128 8.00000 1.60000
v 1.60000 7.10000 2.77128
v 1.60000 8.00000 2.77128
v 0.00000 7.10000 3.20000
v 0.00000 8.00000 3.20000
v -1.60000 7.10000 2.77128
v -1.60000 8.00000 2.77128
v -2.77128 7.10000 1.60000
v -2.77128 8.00000 1.60000
v -3.20000 7.10000 0.00000
v -3.20000 8.00000 0.00000
v -2.77128 7.10000 -1.60000
v -2.77128 8.00000 -1.60000
v -1.60000 7.10000 -2.77128
v -1.60000 8.00000 -2.77128
v -0.00000 7.10000 -3.20000
v -0.00000 8.00000 -3.20000
v 1.60000 7.10000 -2.77128
v 1.60000 8.00000 -2.77128
v 2.77128 7.10000 -1.60000
v 2.77128 8.00000 -1.60000
v 0.00000 7.10000 0.00000
v 0.00000 8.00000 0.00000
v 3.20000 8.00000 0.00000
v 2.77128 8.00000 1.60000
v 1.60000 8.00000 2.77128
v 0.00000 8.00000 3.20000
v -1.60000 8.00000 2.77128
v -2.77128 8.00000 1.60000
v -3.20000 8.00000 0.00000
v -2.77128 8.00000 -1.60000
v -1.60000 8.00000 -2.77128
v -0.00000 8.00000 -3.20000
v 1.60000 8.00000 -2.77128
v 2.77128 8.00000 -1.60000
v 2.95641 8.88170 0.00000
v 2.56033 8.88170 1.47821
v 1.47821 8.88170 2.56033
v 0.00000 8.88170 2.95641
v -1.47821 8.88170 2.56033
v -2.56033 8.88170 1.47821
v -2.95641 8.88170 0.00000
v -2.56033 8.88170 -1.47821
v -1.47821 8.88170 -2.56033
v -0.00000 8.88170 -2.95641
v 1.47821 8.88170 -2.56033
v 2.56033 8.88170 -1.47821
v 2.26274 9.62917 0.00000
v 1.95959 9.62917 1.13137
v 1.13137 9.62917 1.95959
v 0.00000 9.62917 2.26274
v -1.13137 9.62917 1.95959
v -1.95959 9.62917 1.13137
v -2.26274 9.62917 0.00000
v -1.95959 9.62917 -1.13137
v -1.13137 9.62917 -1.95959
v -0.00000 9.62917 -2.26274
v 1.13137 9.62917 -1.95959
v 1.95959 9.62917 -1.13137
v 1.22459 10.12862 0.00000
v 1.06052 10.12862 0.61229
v 0.61229 10.12862 1.06052
v 0.00000 10.12862 1.22459
v -0.61229 10.12862 1.06052
v -1.06052 10.12862 0.61229
v -1.22459 10.12862 0.00000
v -1.06052 10.12862 -0.61229
v -0.61229 10.12862 -1.06052
v -0.00000 10.12862 -1.22459
v 0.61229 10.12862 -1.06052
v 1.06052 10.12862 -0.61229
v 0.00000 10.30400 0.00000
v 3.34000 8.18000 0.00000
v 3.34000 8.32000 0.00000
v 2.89252 8.18000 1.67000
v 2.89252 8.32000 1.67000
v 1.67000 8.18000 2.89252
v 1.67000 8.32000 2.89252
v 0.00000 8.18000 3.34000
v 0.00000 8.32000 3.34000
v -1.67000 8.18000 2.89252
v -1.67000 8.32000 2.89252
v -2.89252 8.18000 1.67000
v -2.89252 8.32000 1.67000
v -3.34000 8.18000 0.00000
v -3.34000 8.32000 0.00000
v -2.89252 8.18000 -1.67000
v -2.89252 8.32000 -1.67000
v -1.67000 8.18000 -2.89252
v -1.67000 8.32000 -2.89252
v -0.00000 8.18000 -3.34000
v -0.00000 8.32000 -3.34000
v 1.67000 8.18000 -2.89252
v 1.67000 8.32000 -2.89252
v 2.89252 8.18000 -1.67000
v 2.89252 8.32000 -1.67000
v 0.00000 8.18000 0.00000
v 0.00000 8.32000 0.00000
v 0.28000 10.05000 0.00000
v 0.06000 11.85000 0.00000
v 0.19799 10.05000 0.19799
v 0.04243 11.85000 0.04243
v 0.00000 10.05000 0.28000
v 0.00000 11.85000 0.06000
v -0.19799 10.05000 0.19799
v -0.04243 11.85000 0.04243
v -0.28000 10.05000 0.00000
v -0.06000 11.85000 0.00000
v -0.19799 10.05000 -0.19799
v -0.04243 11.85000 -0.04243
v -0.00000 10.05000 -0.28000
v -0.00000 11.85000 -0.06000
v 0.19799 10.05000 -0.19799
v 0.04243 11.85000 -0.04243
v 0.00000 10.05000 0.00000
v 0.00000 11.85000 0.00000
v -3.58000 0.55000 -0.88000
v -3.42000 0.55000 -0.88000
v -3.42000 5.65000 -0.88000
v -3.58000 5.65000 -0.88000
v -3.58000 0.55000 -0.76000
v -3.42000 0.55000 -0.76000
v -3.42000 5.65000 -0.76000
v -3.58000 5.65000 -0.76000
v 3.42000 0.55000 -0.88000
v 3.58000 0.55000 -0.88000
v 3.58000 5.65000 -0.88000
v 3.42000 5.65000 -0.88000
v 3.42000 0.55000 -0.76000
v 3.58000 0.55000 -0.76000
v 3.58000 5.65000 -0.76000
v 3.42000 5.65000 -0.76000
v -3.55000 5.77000 -0.93000
v 3.55000 5.77000 -0.93000
v 3.55000 5.93000 -0.93000
v -3.55000 5.93000 -0.93000
v -3.55000 5.77000 -0.79000
v 3.55000 5.77000 -0.79000
v 3.55000 5.93000 -0.79000
v -3.55000 5.93000 -0.79000
g LeftPier
f 1 2 3
f 1 3 4
f 6 5 8
f 6 8 7
f 5 1 4
f 5 4 8
f 2 6 7
f 2 7 3
f 4 3 7
f 4 7 8
f 5 6 2
f 5 2 1
g RightPier
f 9 10 11
f 9 11 12
f 14 13 16
f 14 16 15
f 13 9 12
f 13 12 16
f 10 14 15
f 10 15 11
f 12 11 15
f 12 15 16
f 13 14 10
f 13 10 9
g GateBeam
f 17 18 19
f 17 19 20
f 22 21 24
f 22 24 23
f 21 17 20
f 21 20 24
f 18 22 23
f 18 23 19
f 20 19 23
f 20 23 24
f 21 22 18
f 21 18 17
g DomeDrum
f 25 27 28
f 25 28 26
f 27 29 30
f 27 30 28
f 29 31 32
f 29 32 30
f 31 33 34
f 31 34 32
f 33 35 36
f 33 36 34
f 35 37 38
f 35 38 36
f 37 39 40
f 37 40 38
f 39 41 42
f 39 42 40
f 41 43 44
f 41 44 42
f 43 45 46
f 43 46 44
f 45 47 48
f 45 48 46
f 47 25 26
f 47 26 48
f 49 27 25
f 50 26 28
f 49 29 27
f 50 28 30
f 49 31 29
f 50 30 32
f 49 33 31
f 50 32 34
f 49 35 33
f 50 34 36
f 49 37 35
f 50 36 38
f 49 39 37
f 50 38 40
f 49 41 39
f 50 40 42
f 49 43 41
f 50 42 44
f 49 45 43
f 50 44 46
f 49 47 45
f 50 46 48
f 49 25 47
f 50 48 26
g Dome
f 51 52 64
f 51 64 63
f 52 53 65
f 52 65 64
f 53 54 66
f 53 66 65
f 54 55 67
f 54 67 66
f 55 56 68
f 55 68 67
f 56 57 69
f 56 69 68
f 57 58 70
f 57 70 69
f 58 59 71
f 58 71 70
f 59 60 72
f 59 72 71
f 60 61 73
f 60 73 72
f 61 62 74
f 61 74 73
f 62 51 63
f 62 63 74
f 63 64 76
f 63 76 75
f 64 65 77
f 64 77 76
f 65 66 78
f 65 78 77
f 66 67 79
f 66 79 78
f 67 68 80
f 67 80 79
f 68 69 81
f 68 81 80
f 69 70 82
f 69 82 81
f 70 71 83
f 70 83 82
f 71 72 84
f 71 84 83
f 72 73 85
f 72 85 84
f 73 74 86
f 73 86 85
f 74 63 75
f 74 75 86
f 75 76 88
f 75 88 87
f 76 77 89
f 76 89 88
f 77 78 90
f 77 90 89
f 78 79 91
f 78 91 90
f 79 80 92
f 79 92 91
f 80 81 93
f 80 93 92
f 81 82 94
f 81 94 93
f 82 83 95
f 82 95 94
f 83 84 96
f 83 96 95
f 84 85 97
f 84 97 96
f 85 86 98
f 85 98 97
f 86 75 87
f 86 87 98
f 87 88 99
f 88 89 99
f 89 90 99
f 90 91 99
f 91 92 99
f 92 93 99
f 93 94 99
f 94 95 99
f 95 96 99
f 96 97 99
f 97 98 99
f 98 87 99
g NeonRing
f 100 102 103
f 100 103 101
f 102 104 105
f 102 105 103
f 104 106 107
f 104 107 105
f 106 108 109
f 106 109 107
f 108 110 111
f 108 111 109
f 110 112 113
f 110 113 111
f 112 114 115
f 112 115 113
f 114 116 117
f 114 117 115
f 116 118 119
f 116 119 117
f 118 120 121
f 118 121 119
f 120 122 123
f 120 123 121
f 122 100 101
f 122 101 123
f 124 102 100
f 125 101 103
f 124 104 102
f 125 103 105
f 124 106 104
f 125 105 107
f 124 108 106
f 125 107 109
f 124 110 108
f 125 109 111
f 124 112 110
f 125 111 113
f 124 114 112
f 125 113 115
f 124 116 114
f 125 115 117
f 124 118 116
f 125 117 119
f 124 120 118
f 125 119 121
f 124 122 120
f 125 121 123
f 124 100 122
f 125 123 101
g DomeSpire
f 126 128 129
f 126 129 127
f 128 130 131
f 128 131 129
f 130 132 133
f 130 133 131
f 132 134 135
f 132 135 133
f 134 136 137
f 134 137 135
f 136 138 139
f 136 139 137
f 138 140 141
f 138 141 139
f 140 126 127
f 140 127 141
f 142 128 126
f 143 127 129
f 142 130 128
f 143 129 131
f 142 132 130
f 143 131 133
f 142 134 132
f 143 133 135
f 142 136 134
f 143 135 137
f 142 138 136
f 143 137 139
f 142 140 138
f 143 139 141
f 142 126 140
f 143 141 127
g GoldTrim
f 144 145 146
f 144 146 147
f 149 148 151
f 149 151 150
f 148 144 147
f 148 147 151
f 145 149 150
f 145 150 146
f 147 146 150
f 147 150 151
f 148 149 145
f 148 145 144
f 152 153 154
f 152 154 155
f 157 156 159
f 157 159 158
f 156 152 155
f 156 155 159
f 153 157 158
f 153 158 154
f 155 154 158
f 155 158 159
f 156 157 153
f 156 153 152
g SpiritLintel
f 160 161 162
f 160 162 163
f 165 164 167
f 165 167 166
f 164 160 163
f 164 163 167
f 161 165 166
f 161 166 162
f 163 162 166
f 163 166 167
f 164 165 161
f 164 161 160
